<svg xmlns="http://www.w3.org/2000/svg" width="17.075" height="15.783" viewBox="0 0 17.075 15.783" preserveAspectRatio="none"><path d="M9.9-3.973a.863.863,0,0,1-.264.633A.863.863,0,0,1,9-3.076a.863.863,0,0,1-.633-.264A.863.863,0,0,1,8.1-3.973a.863.863,0,0,1,.264-.633A.863.863,0,0,1,9-4.869a.863.863,0,0,1,.633.264A.863.863,0,0,1,9.9-3.973Zm6.82.527L10.951-13.729a2.124,2.124,0,0,0-.809-.817A2.228,2.228,0,0,0,9-14.854H9a2.091,2.091,0,0,0-1.116.308,2.645,2.645,0,0,0-.835.817L1.283-3.445A2.238,2.238,0,0,0,1-2.347,2.547,2.547,0,0,0,1.283-1.2a2.141,2.141,0,0,0,.8.817A2.182,2.182,0,0,0,3.217-.07H14.854A2.091,2.091,0,0,0,15.97-.378,2.645,2.645,0,0,0,16.8-1.2a2.463,2.463,0,0,0,.272-1.151A1.951,1.951,0,0,0,16.717-3.445ZM15.451-2.021q-.053.053-.185.211a.508.508,0,0,1-.413.158H3.217a.667.667,0,0,1-.439-.132q-.158-.132-.158-.237a.757.757,0,0,0-.079-.3.515.515,0,0,1,.079-.457L8.4-13.043a.817.817,0,0,1,.352-.308A.943.943,0,0,1,9-13.43H9a1.23,1.23,0,0,1,.3.053.482.482,0,0,1,.3.334L15.381-2.777a.633.633,0,0,1,.167.492A.6.6,0,0,1,15.451-2.021ZM9-5.783a.755.755,0,0,0,.545-.2.708.708,0,0,0,.211-.536v-3.6a.737.737,0,0,0-.211-.545A.737.737,0,0,0,9-10.881a.737.737,0,0,0-.545.211.737.737,0,0,0-.211.545v3.6a.694.694,0,0,0,.237.51A.735.735,0,0,0,9-5.783Z" transform="translate(-0.502 15.354)" fill="#ed553b" stroke="rgba(0,0,0,0)" stroke-width="1"/></svg>
