<svg xmlns="http://www.w3.org/2000/svg" width="90.054" height="70" viewBox="0 0 90.054 70"><g transform="translate(-1166 -9277)"><path d="M-7329.084-910.625a5.805,5.805,0,0,0-2.75-.531q-1.2-.048-2.4-.079c-1.264-.031-2.526-.044-3.79-.027-2.262.03-4.522.19-6.783.321-1.737.1-3.468.205-5.2.38-.083-8.628-.363-17.256-.548-25.881q-.02-.967-.041-1.934l.038-.039c.355-.39.333-.6-.056-.939l0,0q-.013-.647-.027-1.291l.076-.05c.278-.188.357-.355.163-.716-.075-.141-.174-.278-.264-.42q-.015-.654-.027-1.308a1.275,1.275,0,0,0-.018-.78c0-.117,0-.235-.008-.351.006-.009.009-.021.014-.029a.737.737,0,0,0-.008-.786.473.473,0,0,1-.023-.051l-.013-.57a1.129,1.129,0,0,1,.178-.207c.1-.089.189-.2.1-.359a2.007,2.007,0,0,1,.111-1.9c.229-.494.173-.7-.246-.952a.635.635,0,0,0,.228-.919c-.1-.212-.163-.442-.271-.647a.565.565,0,0,1,.111-.789c.416-.313.869-.581.289-1.173.19-.651-.255-.995-.6-1.339a.791.791,0,0,1-.1-.124c0-.105-.007-.211-.009-.318a.713.713,0,0,1,.172-.117c.561-.285.438-1.035.83-1.442.089-.091.008-.346-.154-.384-.319-.073-.506-.445-.883-.4-.01,0-.016,0-.025,0-.018-.712-.035-1.423-.054-2.135.224-.221.255-.6.476-.825.108-.108.258-.189.172-.379-.07-.156-.226-.114-.343-.094a.439.439,0,0,1-.34-.048c-.007-.271-.013-.541-.021-.812.079-.073.163-.131.186-.224.055-.218-.072-.228-.2-.226-.012-.372-.018-.744-.029-1.115.078-.106.225-.2.087-.36a.2.2,0,0,0-.1-.062q-.028-.895-.059-1.789l.019-.02c.143-.162.412-.379.155-.582a.914.914,0,0,1-.2-.22q-.059-1.82-.118-3.641a2.524,2.524,0,0,1,.473-.491c.152-.134.353-.4.1-.6s-.268-.487-.4-.726c-.1-.189-.082-.468-.271-.583-.012-.252-.021-.5-.034-.756.263-.215.305-.4-.012-.6l-.016-.011c-.008-.167-.014-.334-.022-.5a.38.38,0,0,0-.023-.516,16.965,16.965,0,0,0-.314-3.021.719.719,0,0,0-.26-1.211,7.951,7.951,0,0,0-2.236-.29c-.76.016-1.522-.015-2.282-.033q-2.288-.052-4.573-.114c-3.056-.084-6.11-.17-9.166-.233-6.008-.125-12.02-.161-18.025.1-1.658.073-3.314.177-4.967.3a30.6,30.6,0,0,1-5.155.267c-.8-.076-.844,1.088-.264,1.338-.032,8.546-.085,17.087,0,25.633q.134,13.032.549,26.056.233,6.984.62,13.961a56.453,56.453,0,0,0-7.776-.034c-2.425.048-4.85.089-7.275.159-1.906.054-3.791.236-5.694.289a.449.449,0,0,0,0,.9c1.707.048,3.4.223,5.1.272,1.285.038,2.57.073,3.855.1l7.3.143a28.822,28.822,0,0,0,5.3-.226,1.04,1.04,0,0,0,.329.067,1.123,1.123,0,0,0,1.114-1.114q-.9-12.9-1.365-25.814c-.324-8.687-.5-17.376-.755-26.065q-.2-7.005-.4-14.012l.225.124.509.28a2.614,2.614,0,0,0,.5.248l2.068,65.862.021.678h40.125c.214.075.458.22.636.075.367-.3.656-.139.936.1.25.209.419.171.569-.113a6.053,6.053,0,0,0,.273-.662v.01c-.108,1.132,1.539,1.311,1.959.449,5.085.384,10.209-.027,15.305.188q1.288.055,2.576.133a6.715,6.715,0,0,0,3.135-.238A.622.622,0,0,0-7329.084-910.625Zm-60.267-67c2.955-.074,5.909-.083,8.866-.059,6.031.05,12.06.29,18.086.534l5.032.206c.875.036,1.752.05,2.625.1.077,0,.147.005.221.008v.172l-41.889-.318a.164.164,0,0,1-.022-.013l-.265-.123-.046-.02,0-.007a.11.11,0,0,0-.109-.109l-.114.014-.03-.013c1.036-.143,2.1-.166,3.132-.217C-7392.359-977.541-7390.855-977.589-7389.351-977.627Zm-3.891,66.732-2.031-64.674,39.761.3.1,64.374Zm39.437.812a.262.262,0,0,1-.2.142v-.5a.452.452,0,0,1,.141.094A.221.221,0,0,1-7353.805-910.083Zm.7-66.5c.154-.1.308-.2.464-.3.018-.011.038-.023.056-.033l.058-.009c-.051.31-.091.619-.114.931A5.745,5.745,0,0,0-7353.108-976.588Zm.961,62.013c0,.12,0,.24.006.361A.407.407,0,0,1-7352.146-914.575Z" transform="translate(8584.836 10256.099)" fill="#040505"/><path d="M-7382.471-945.1h0c-.349,0-.7,0-1.05.008-.53.006-1.058.011-1.589.005-.1,0-.2,0-.3-.008a2.125,2.125,0,0,0,.021-.253,4.085,4.085,0,0,0-.092-.914,1.33,1.33,0,0,0-.17-.456,1.387,1.387,0,0,0-.149-.185.726.726,0,0,1-.008-.107.983.983,0,0,0-.157-.568.971.971,0,0,0-.52-.344,9.74,9.74,0,0,0-3.314-.3l-.869.022a.857.857,0,0,0-.728.329.834.834,0,0,0-.13.394,21.963,21.963,0,0,0-.022,3.882l.053.792a31.879,31.879,0,0,1,.108,3.853,11.367,11.367,0,0,0,.074,1.67c.04.413.08.826.08,1.238a.9.9,0,0,0,.271.656,3.792,3.792,0,0,0,2.5.491q.282,0,.582,0l.685-.008a2.136,2.136,0,0,1,.411-.006c.354.017,1.075.048,1.2-.8a29.035,29.035,0,0,0,.014-3.847c-.031-.93-.06-1.873-.047-2.536.205.017.41.042.616.055.229.014.461.032.689.024a1.179,1.179,0,0,0,.593-.1c.025-.015.021-.045.037-.066.167,0,.34.005.507,0l.708,0a1.484,1.484,0,0,0,1.063-.467,1.37,1.37,0,0,0,.394-1.01A1.477,1.477,0,0,0-7382.471-945.1Zm.387,1.8a.554.554,0,0,1-.388.178l-.711,0c-.937.005-1.908.008-2.853-.038l-.442-.023-.043.429-.992-.1c-.441-.045-.89-.033-1.333-.051a.15.15,0,0,0-.04.293c.45.092.9.21,1.352.275.328.046.655.092.981.136-.017.69.013,1.652.045,2.663.045,1.408.1,3,.044,3.681a1.485,1.485,0,0,1-.285,0,2.609,2.609,0,0,0-.521.01l-.624,0a6.417,6.417,0,0,1-2.411-.21c0-.448-.043-.895-.084-1.327a10.531,10.531,0,0,1-.072-1.531,32.589,32.589,0,0,0-.108-3.966l-.053-.788a23.789,23.789,0,0,1-.013-3.613l.854-.021a8.946,8.946,0,0,1,3.034.272c0,.014,0,.028,0,.041a1.142,1.142,0,0,0,.082.442,1.4,1.4,0,0,0,.22.321.524.524,0,0,1,.046.149,3.194,3.194,0,0,1,.07.709,1.782,1.782,0,0,1-.035.28,2.482,2.482,0,0,0-.048.428l0,.446.674.029c.2.009.406.018.61.021.536.008,1.073,0,1.611-.005.347,0,.694-.008,1.04-.008h0a.542.542,0,0,1,.523.544A.457.457,0,0,1-7382.083-943.293Z" transform="translate(8585.42 10256.762)" fill="#040505"/><rect width="15.353" height="5.809" transform="translate(1202.469 9288.758)" fill="#040505"/><path d="M-7389.435-939.948a1.052,1.052,0,0,0,.225,1.085,1.034,1.034,0,0,0,.184.139,6.018,6.018,0,0,0-.413,1.278.451.451,0,0,0,.429.563c.3-.006.6,0,.9.007a.641.641,0,0,0,.629-.266.831.831,0,0,0,.08-.572c-.062-.46-.167-.914-.271-1.367l0,0a.95.95,0,0,0,.351-.458.926.926,0,0,0-.235-.966,1.148,1.148,0,0,0-1.07-.2A1.223,1.223,0,0,0-7389.435-939.948Zm1.3-.029,0,0h0Z" transform="translate(8585.467 10256.923)" fill="#040505"/></g></svg>