<svg xmlns="http://www.w3.org/2000/svg" width="77.614" height="70" viewBox="0 0 77.614 70"><g transform="translate(-1432 -9277)"><path d="M-7104.81-917.1q-.025-4.022-.332-8.038a113.655,113.655,0,0,0-2.31-15.788q-.836-3.794-1.95-7.52a40.825,40.825,0,0,0-2.571-7.1,7.969,7.969,0,0,0-5.283-4.352,32.024,32.024,0,0,0-3.792-.564q-2.1-.246-4.21-.43c-.636-.055-1.272-.091-1.909-.138-.014-.341-.047-.686-.086-1.049-.1-.945-.242-1.885-.431-2.816a27.594,27.594,0,0,0-1.746-5.479,9.1,9.1,0,0,0-2.8-3.953c-1.522-1.1-3.586-1-5.375-1.1q-6.139-.352-12.29-.243c-2.029.033-4.058.083-6.085.169a3.649,3.649,0,0,0-2.594.637,6.785,6.785,0,0,0-1.172,2.3,25.781,25.781,0,0,0-1.905,11.809c-1.876.109-3.752.217-5.628.336-2.431.152-5.154.027-7.164,1.627-1.775,1.414-2.659,3.72-3.339,5.813a57.036,57.036,0,0,0-1.866,7.635c-.612,3.433-.965,6.9-1.241,10.38a.423.423,0,0,0-.167.285,1.341,1.341,0,0,0,.088.686q-.17,2.282-.317,4.565-.552,8.494-1.01,17c-.075,1.382-.138,2.75-.131,4.135a.53.53,0,0,0,.122.326.416.416,0,0,0,.366.453c1.824.285,3.7.256,5.543.371,2.109.132,4.218.239,6.325.388,4.635.327,9.271.6,13.915.783,10.653.421,21.345.38,31.995-.106,5.9-.269,11.79-.69,17.662-1.311a1.565,1.565,0,0,0,.635-.22h0a1.192,1.192,0,0,0,.408-.388.194.194,0,0,0,.127-.08c.075-.141.263-.3.093-.425-.016-.012-.017-.021-.031-.033a1.112,1.112,0,0,0,.023-.109.916.916,0,0,0-.008-.1.967.967,0,0,0,.08-.221c.007-.039.011-.077.018-.115l.019-.016c.183-.123.186-.217.028-.3a29.46,29.46,0,0,0,.244-3.672Q-7104.8-915.089-7104.81-917.1Zm-74.966-7.376c.166-2.1.317-4.21.479-6.316.326.619.646,1.239.99,1.846a11.516,11.516,0,0,0,1.519,2.173,4.52,4.52,0,0,0,1.19.961.51.51,0,0,0,.345.772,51.048,51.048,0,0,0,7.084.786c1.106.076,2.215.127,3.321.192.014,1.941-.009,3.584-.04,4.17-.071,1.35,5.812.581,6.136.684.167.054.161-2.151.128-4.542,3.917.159,7.836.292,11.755.372q7.627.159,15.266.161c0,1.561-.02,2.825-.045,3.325-.072,1.35,5.811.581,6.136.684a17.688,17.688,0,0,0,.134-4.039q3.507-.037,7.011-.119c1.31-.032,2.634-.016,3.938-.119a5.472,5.472,0,0,0,3.321-1.4,29.856,29.856,0,0,0,3.2-3.49,112.934,112.934,0,0,1,.541,15.3c-.025.783-.083,1.571-.106,2.357a1.127,1.127,0,0,0-.639.8.782.782,0,0,0-.267.086c-.145.089-.293.145-.419-.026a.751.751,0,0,0-.732-.338.722.722,0,0,0-.7.393.717.717,0,0,1-.923.114.822.822,0,0,0-.6-.046c-.677.276-.939.081-1.095-.369-.263.5-.567.327-.878.139a2.464,2.464,0,0,0-1.8-.125,1.533,1.533,0,0,1-1.642-.122.555.555,0,0,0-.558.007,3,3,0,0,1-2.15-.042c-1.076-.39-1.231-.335-1.887.227-.184.158-.227.451-.812.224-.284-.109-.815.134-.979-.229-.067-.151-.493-.291-.815-.371s-.374.144-.561.223a1.183,1.183,0,0,1-1.007-.054,1.952,1.952,0,0,0-1.572-.1,1.534,1.534,0,0,1-1.142-.05.7.7,0,0,0-.629.012,2.417,2.417,0,0,1-1.266.154,10.348,10.348,0,0,1-1.339-.419c-.383-.187-.664-.1-.688.1-.042.353-.3.219-.632.128a3.114,3.114,0,0,1-.475-.182.627.627,0,0,0-.415-.065c-.193.042-.184.136-.219.228-.051.137.239.266.038.447l-.343-.407a.859.859,0,0,0-.709-.259c-.329.011-.281.172-.3.295-.018.142-.232.192-.437.223a.458.458,0,0,1-.414-.137,2.808,2.808,0,0,0-.738-.484.844.844,0,0,0-1.036.031c-.906.6-.746.591-1.48-.036a.711.711,0,0,0-.791-.107,2.553,2.553,0,0,1-1.341.272,3.211,3.211,0,0,0-1.6-.056.571.571,0,0,1-.244-.039,1.337,1.337,0,0,0-.867,0,.925.925,0,0,1-.915-.093.432.432,0,0,0-.4-.063,3.7,3.7,0,0,1-2.093-.08c-.547-.148-.775-.114-1.049.151a1.024,1.024,0,0,0-1.015-.149c-.233.059-.488.1-.711.168a.961.961,0,0,1-.87-.075.972.972,0,0,0-1.294-.189,1.924,1.924,0,0,0-1.475.372c-.314.179-.463.124-.615-.045-.317-.357-1.144-.283-1.594-.534-.1-.056-.381-.007-.422.1-.081.2-.489.318-.439.558.028.134-.193.23-.461.243-.562.027-1.1-.267-1.679-.056a.112.112,0,0,1-.06-.007c-.148-.29-.76-.269-1.07-.447a.467.467,0,0,0-.419-.11c-.172.043-.125.143-.1.216.092.282-.19.332-.639.318-.3-.009-.358-.183-.556-.214-.45-.068-.093.276-.356.25-.35-.034-.71-.036-1.045-.088-.155-.023-.263-.187-.473-.083-.169.085-.022.193.065.285s.262.223.017.307c-.29.1-.408-.076-.576-.15-.138-.061-.187-.234-.424-.164a1.32,1.32,0,0,1-1.144-.2c-.179-.091-.42-.263-.643-.1a2.134,2.134,0,0,1-1.5.152c-.045.074.113.151-.02.226a3.322,3.322,0,0,1-1.686.017.822.822,0,0,0-.31-.118,1.813,1.813,0,0,1-1.279-.4.62.62,0,0,0-.663-.069,2.745,2.745,0,0,1-.8.25c-.219.069-.552.043-.665.183-.249.31-.529.207-.791.014a.478.478,0,0,0-.686-.006.33.33,0,0,1-.4.08.714.714,0,0,0-.951.114.708.708,0,0,1-.36.134,6.268,6.268,0,0,0-2.565.87,1.069,1.069,0,0,1-.639.2,1.216,1.216,0,0,0-.816.057c.329-2.483.5-4.985.711-7.484C-7180.224-919.046-7179.988-921.761-7179.776-924.478Zm21.064-45.729c.258-.774.543-1.541.868-2.291a5.211,5.211,0,0,1,.432-.928c.253-.361.779-.243,1.194-.261,1.823-.073,3.651-.127,5.476-.135,3.692-.015,7.387.088,11.076.268q1.338.066,2.674.151a13.7,13.7,0,0,1,2.675.279,4.711,4.711,0,0,1,2.722,2.828,26.323,26.323,0,0,1,1.853,5.271,26.529,26.529,0,0,1,.541,2.835c.045.34.07.681.1,1.019-.5-.031-1.009-.054-1.513-.079-.055-.246-.125-.5-.2-.766q-.346-1.218-.691-2.435a26.179,26.179,0,0,0-1.247-3.873,5.111,5.111,0,0,0-2.46-2.549,9.55,9.55,0,0,0-3.681-.7c-3.011-.109-6.046-.158-9.058-.047-1.555.057-3.108.169-4.653.366-1.227.155-2.37.355-2.993,1.55a11.413,11.413,0,0,0-.736,2.131q-.354,1.235-.632,2.489a22.239,22.239,0,0,0-.546,4.092c-.436.022-.871.043-1.306.066-.583.031-1.167.071-1.749.1A41.871,41.871,0,0,1-7158.712-970.207Zm26.233,8.869c-7.989-.328-16-.114-23.981.289.511-2.287.947-4.589,1.65-6.832a4.1,4.1,0,0,1,.591-1.43,2.339,2.339,0,0,1,1.611-.526c1.386-.158,2.78-.248,4.174-.291,2.757-.086,5.513.011,8.265.149,2.093.105,4.588.105,5.711,2.2a18.889,18.889,0,0,1,1.235,3.8l.657,2.32C-7132.534-961.549-7132.507-961.444-7132.479-961.338Zm-44.621,13.645a34.246,34.246,0,0,1,2.1-6.872,7.529,7.529,0,0,1,1.746-2.556,4.921,4.921,0,0,1,2.837-1.033c2.606-.252,5.239-.337,7.852-.488a272.118,272.118,0,0,1,32.489-.384q4.1.253,8.188.729c2.081.245,4.773.269,6.4,1.79,1.564,1.466,2.235,3.727,2.877,5.706q1.177,3.624,2.084,7.327a110.77,110.77,0,0,1,2.3,12.429c-1.3,1.266-2.352,2.768-3.687,4a4.193,4.193,0,0,1-2.4,1.351c-1.093.119-2.221.078-3.318.1q-3.886.092-7.772.162c-.026-1.677-.048-3.208-.014-3.855.093-1.772-.223-2.045-.223-2.045l-6.274-.184c.178,1.57.264,3.945.3,6.158h-.021q-13.507.05-27.012-.441c-.023-1.529-.041-2.889-.009-3.488.093-1.772-.223-2.045-.223-2.045l-6.273-.184c.16,1.413.245,3.48.286,5.493-.774-.028-1.548-.058-2.323-.085-2.261-.078-4.566-.22-6.838-.12a.6.6,0,0,0-.125-.268,5,5,0,0,0-.908-.682,5.5,5.5,0,0,1-.745-.669,10.265,10.265,0,0,1-1.324-1.869c-.472-.8-.928-1.608-1.4-2.408l-.576-.977c.2-2.382.422-4.76.725-7.13C-7178.067-942.73-7177.655-945.229-7177.1-947.693Z" transform="translate(8614.423 10252.695)" fill="#040505"/></g></svg>