<svg xmlns="http://www.w3.org/2000/svg" width="17.237" height="14" viewBox="0 0 17.237 14">
    <path
        d="M15.466 3.489c.011.153.011.306.011.459A9.983 9.983 0 015.425 14 9.983 9.983 0 010 12.414a7.308 7.308 0 00.853.044 7.075 7.075 0 004.386-1.509 3.539 3.539 0 01-3.3-2.45 4.455 4.455 0 00.667.055 3.736 3.736 0 00.93-.12A3.533 3.533 0 01.7 4.965v-.046a3.558 3.558 0 001.6.448A3.538 3.538 0 011.2.645a10.042 10.042 0 007.284 3.7 3.988 3.988 0 01-.084-.812 3.536 3.536 0 016.114-2.414 6.955 6.955 0 002.242-.853A3.523 3.523 0 0115.2 2.209a7.082 7.082 0 002.034-.547 7.594 7.594 0 01-1.768 1.827z"
        fill="#009ded"/>
</svg>
