<svg xmlns="http://www.w3.org/2000/svg" xmlns:xlink="http://www.w3.org/1999/xlink" viewBox="0 0 70.85 87.6"><defs><style>.cls-1{fill:url(#linear-gradient);}.cls-2{fill:url(#linear-gradient-2);}</style><linearGradient id="linear-gradient" x1="46.7" y1="-2.59" x2="-3.71" y2="84.74" gradientUnits="userSpaceOnUse"><stop offset="0" stop-color="#dc0057"/><stop offset="1" stop-color="#ffbf00"/></linearGradient><linearGradient id="linear-gradient-2" x1="70.33" y1="-27.28" x2="20.62" y2="61.1" gradientUnits="userSpaceOnUse"><stop offset="0" stop-color="#5300ef"/><stop offset="1" stop-color="#1effbc"/></linearGradient></defs><title>favicon</title><g id="Layer_2" data-name="Layer 2"><g id="Layer_6" data-name="Layer 6"><path class="cls-1" d="M68.36,15.42A26.86,26.86,0,0,0,58.87,4.51,25.82,25.82,0,0,0,47.27.23,41.68,41.68,0,0,0,43,0H40.07Q1.87,0,1.33.07A1.36,1.36,0,0,0,.07,1.29Q0,1.86,0,10.15c0,.95,0,1.54,0,1.76a1.85,1.85,0,0,0,1.3,1.92,12.74,12.74,0,0,1,1.19.47q2.71,1.32,2.85,5,0,.82,0,24.2V67.07c-.08,3-1.21,5-3.38,6.1L1,73.7a1.74,1.74,0,0,0-.92,1.43A8.47,8.47,0,0,0,0,76.26q0,9.24,0,9.68a1.49,1.49,0,0,0,1.59,1.59q.7.07,17.42.07t17.48-.07a1.44,1.44,0,0,0,1.39-1.39l0-.76c0-6.55,0-10-.07-10.32h0a1.74,1.74,0,0,0-1-1.39L36,73.24a5.55,5.55,0,0,1-3-3.35,18.73,18.73,0,0,1-.56-5.41l0-1.26v-4A31.55,31.55,0,0,1,32.65,55c.12-.78.73-1.16,1.81-1.16q.55,0,9.48,0h.44a22.23,22.23,0,0,0,11.11-3.28,20.12,20.12,0,0,0,3.25-2.19q1.59-1.39,3.12-2.82,9-8.76,9-18.77A26.26,26.26,0,0,0,68.36,15.42Zm-59.3,72a1.76,1.76,0,0,1-1.35-.09,1.7,1.7,0,0,1-.84-1C6.53,84.62,3.68,69.47,9.43,65c2.18-1.68,5.14-1.62,8.78.2a1.21,1.21,0,0,1,.3.11c3.76,1.93,5.66,4.37,5.65,7.24C24.14,80,10.6,86.68,9.06,87.42ZM28.88,28.3A9.09,9.09,0,1,1,46,22.19,9.09,9.09,0,1,1,28.88,28.3Z"/><path class="cls-2" d="M32.47,59.17A31.55,31.55,0,0,1,32.65,55c.12-.78.73-1.16,1.81-1.16q.55,0,9.48,0a34.78,34.78,0,0,0-1.4-5.24c7-13,14-30.69,11.6-46.61A26.08,26.08,0,0,0,47.27.23,41.68,41.68,0,0,0,43,0H40.07C29,8.81,21.48,23.6,16.81,35.94A26.66,26.66,0,0,0,5.4,43.5V65.22l6.82-5.87L28,67.11l-.08,12.28a1.56,1.56,0,0,0,.68,1.32A1.51,1.51,0,0,0,30,80.9l.09,0a27.47,27.47,0,0,0,7.83-5.8h0a1.74,1.74,0,0,0-1-1.39L36,73.24a5.55,5.55,0,0,1-3-3.35,18.73,18.73,0,0,1-.56-5.41l0-1.26ZM28.88,28.3A9.09,9.09,0,1,1,46,22.19,9.09,9.09,0,1,1,28.88,28.3Z"/></g></g></svg>