<svg xmlns="http://www.w3.org/2000/svg" width="114" height="33.002" viewBox="0 0 114 33.002" preserveAspectRatio="none"><g transform="translate(-618.915 -366.533)"><g transform="translate(-1.588 -0.193)" style="isolation:isolate"><g style="isolation:isolate"><path d="M665,392.967V378.754h3.245v5.82h.088l4.282-5.82h3.576l-4.348,5.667,5.143,8.546h-3.554l-3.51-6-1.677,2.18v3.815Z" fill="#1d1c1d" stroke="rgba(0,0,0,0)" stroke-width="1"/><path d="M679.461,380.563a1.959,1.959,0,0,1-1.347-.469,1.541,1.541,0,0,1-.529-1.21,1.51,1.51,0,0,1,.529-1.2,2.228,2.228,0,0,1,2.7,0,1.523,1.523,0,0,1,.518,1.2,1.554,1.554,0,0,1-.518,1.21A1.951,1.951,0,0,1,679.461,380.563Zm-1.612,12.4V382.154h3.245v10.813Z" fill="#1d1c1d" stroke="rgba(0,0,0,0)" stroke-width="1"/><path d="M687.716,393.228a4.427,4.427,0,0,1-1.733-.3,3.013,3.013,0,0,1-1.17-.851,3.413,3.413,0,0,1-.662-1.318,6.526,6.526,0,0,1-.209-1.711v-4.382h-1.5v-2.376l1.677-.131.375-2.878h2.693v2.878h2.627v2.507h-2.627V389a1.868,1.868,0,0,0,.386,1.319,1.355,1.355,0,0,0,1.027.4,2.387,2.387,0,0,0,.541-.066,3.554,3.554,0,0,0,.5-.153l.508,2.333c-.295.087-.64.174-1.038.261A6.547,6.547,0,0,1,687.716,393.228Z" fill="#1d1c1d" stroke="rgba(0,0,0,0)" stroke-width="1"/><path d="M695.883,393.228a5.842,5.842,0,0,1-2.131-.381,4.962,4.962,0,0,1-1.71-1.1,5.108,5.108,0,0,1-1.148-1.776,6.486,6.486,0,0,1-.419-2.409,5.942,5.942,0,0,1,.463-2.408,5.2,5.2,0,0,1,1.248-1.777,5.414,5.414,0,0,1,1.82-1.1,6.207,6.207,0,0,1,2.164-.381,4.622,4.622,0,0,1,1.8.327,5.655,5.655,0,0,1,1.4.828l-1.524,2.071a2.375,2.375,0,0,0-1.478-.632,2.3,2.3,0,0,0-1.877.829,3.417,3.417,0,0,0-.685,2.244,3.38,3.38,0,0,0,.7,2.245,2.192,2.192,0,0,0,1.755.83,2.424,2.424,0,0,0,1.027-.23,5.278,5.278,0,0,0,.937-.556l1.281,2.093a5,5,0,0,1-1.767.992A6.239,6.239,0,0,1,695.883,393.228Z" fill="#1d1c1d" stroke="rgba(0,0,0,0)" stroke-width="1"/><path d="M700.981,392.967V377.685h3.246v3.75l-.155,1.94a8.692,8.692,0,0,1,1.434-1.014,3.837,3.837,0,0,1,1.943-.468,2.941,2.941,0,0,1,2.594,1.155,5.533,5.533,0,0,1,.8,3.2v6.715H707.6v-6.3a2.911,2.911,0,0,0-.319-1.613,1.191,1.191,0,0,0-1.027-.436,1.981,1.981,0,0,0-1.059.272,6.21,6.21,0,0,0-.971.775v7.3Z" fill="#1d1c1d" stroke="rgba(0,0,0,0)" stroke-width="1"/><path d="M718.044,393.228a6.168,6.168,0,0,1-2.185-.381,5.035,5.035,0,0,1-1.766-1.112,5.088,5.088,0,0,1-1.17-1.777,6.4,6.4,0,0,1-.419-2.4,6.083,6.083,0,0,1,.441-2.364,5.611,5.611,0,0,1,1.159-1.789,5.047,5.047,0,0,1,1.644-1.122,4.872,4.872,0,0,1,1.921-.392,4.929,4.929,0,0,1,2.041.392,4.028,4.028,0,0,1,1.457,1.09,4.606,4.606,0,0,1,.872,1.646,7.054,7.054,0,0,1,.288,2.06,7.282,7.282,0,0,1-.045.829q-.045.391-.088.588h-6.556a2.642,2.642,0,0,0,.982,1.733,3.077,3.077,0,0,0,1.866.555,4.548,4.548,0,0,0,2.361-.718l1.082,1.94a7.271,7.271,0,0,1-1.865.893A6.636,6.636,0,0,1,718.044,393.228Zm-2.428-6.844h3.951a2.436,2.436,0,0,0-.419-1.483,1.643,1.643,0,0,0-1.413-.567,2.025,2.025,0,0,0-1.358.5A2.508,2.508,0,0,0,715.616,386.384Z" fill="#1d1c1d" stroke="rgba(0,0,0,0)" stroke-width="1"/><path d="M724.136,392.967V382.154h2.649l.221,1.373h.088a8.88,8.88,0,0,1,1.545-1.144,3.821,3.821,0,0,1,1.965-.49,2.942,2.942,0,0,1,2.594,1.155,5.541,5.541,0,0,1,.8,3.2v6.715h-3.245v-6.3a2.9,2.9,0,0,0-.32-1.613,1.188,1.188,0,0,0-1.026-.436,1.985,1.985,0,0,0-1.06.272,6.258,6.258,0,0,0-.971.775v7.3Z" fill="#1d1c1d" stroke="rgba(0,0,0,0)" stroke-width="1"/></g></g><path d="M628.481,399.035a3.91,3.91,0,0,1-2.7-1.112,3.567,3.567,0,0,1-1.07-2.665v-9.577a7.2,7.2,0,0,1-5.3-6.843,7.29,7.29,0,0,1,7.342-7.191,6.962,6.962,0,0,1,1.162.08,10.026,10.026,0,0,1,16.968-.006,7.463,7.463,0,0,1,8.471,6.511l.057.034-.013.58a7.286,7.286,0,0,1-5.273,6.845l.044,9.6a3.549,3.549,0,0,1-1.071,2.635,3.9,3.9,0,0,1-2.688,1.113Zm-1.762-25.389a5.3,5.3,0,0,0-5.3,5.192,5.2,5.2,0,0,0,4.445,5.047l.851.128v11.279a1.582,1.582,0,0,0,.468,1.2,1.909,1.909,0,0,0,1.313.543H644.4a1.9,1.9,0,0,0,1.3-.544,1.561,1.561,0,0,0,.468-1.166l-.051-11.282.844-.137a5.287,5.287,0,0,0,4.434-5.01l0-.043a5.449,5.449,0,0,0-6.791-5.04l-.8.207-.357-.74a7.977,7.977,0,0,0-14.1.01l-.361.749-.8-.217a5.321,5.321,0,0,0-1.426-.177Z" fill="#1d1c1d" stroke="rgba(0,0,0,0)" stroke-width="1"/><path d="M638.374,388.773h-6.165a1,1,0,1,1,0-2h6.165a1,1,0,1,1,0,2Z" fill="#ed553b"/><path d="M641.744,392.536h-9.535a1,1,0,1,1,0-2h9.535a1,1,0,1,1,0,2Z" fill="#ed553b"/></g></svg>
