<svg xmlns="http://www.w3.org/2000/svg" width="141.5" height="33.002" viewBox="0 0 141.5 33.002"><g transform="translate(-319.5 -220.498)"><g transform="translate(320 221)"><path d="M628.481,399.035a3.91,3.91,0,0,1-2.7-1.112,3.567,3.567,0,0,1-1.07-2.665v-9.577a7.2,7.2,0,0,1-5.3-6.843,7.29,7.29,0,0,1,7.342-7.191,6.962,6.962,0,0,1,1.162.08,10.026,10.026,0,0,1,16.968-.006,7.463,7.463,0,0,1,8.471,6.511l.057.034-.013.58a7.286,7.286,0,0,1-5.273,6.845l.044,9.6a3.549,3.549,0,0,1-1.071,2.635,3.9,3.9,0,0,1-2.688,1.113Zm-1.762-25.389a5.3,5.3,0,0,0-5.3,5.192,5.2,5.2,0,0,0,4.445,5.047l.851.128v11.279a1.582,1.582,0,0,0,.468,1.2,1.909,1.909,0,0,0,1.313.543H644.4a1.9,1.9,0,0,0,1.3-.544,1.561,1.561,0,0,0,.468-1.166l-.051-11.282.844-.137a5.287,5.287,0,0,0,4.434-5.01l0-.043a5.449,5.449,0,0,0-6.791-5.04l-.8.207-.357-.74a7.977,7.977,0,0,0-14.1.01l-.361.749-.8-.217a5.321,5.321,0,0,0-1.426-.177Z" transform="translate(-619.415 -367.035)" fill="#1d1c1d" stroke="rgba(0,0,0,0)" stroke-width="1"/><g transform="translate(11.793 19.739)"><path d="M638.374,388.773h-6.165a1,1,0,1,1,0-2h6.165a1,1,0,1,1,0,2Z" transform="translate(-631.208 -386.774)" fill="#ed553b"/></g><g transform="translate(11.793 23.502)"><path d="M641.744,392.536h-9.535a1,1,0,1,1,0-2h9.535a1,1,0,1,1,0,2Z" transform="translate(-631.208 -390.537)" fill="#ed553b"/></g></g><path d="M1.694,0V-14.344H4.928V-8.47h.088l4.268-5.874h3.564L8.514-8.624,13.64,0H10.1L6.6-6.05,4.928-3.85V0ZM14.608,0V-10.912h3.234V0Zm1.606-12.518a1.936,1.936,0,0,1-1.342-.473,1.564,1.564,0,0,1-.528-1.221,1.531,1.531,0,0,1,.528-1.21,1.964,1.964,0,0,1,1.342-.462,1.954,1.954,0,0,1,1.353.462,1.546,1.546,0,0,1,.517,1.21,1.579,1.579,0,0,1-.517,1.221A1.926,1.926,0,0,1,16.214-12.518ZM24.552.264a4.355,4.355,0,0,1-1.727-.308A3.024,3.024,0,0,1,21.659-.9,3.491,3.491,0,0,1,21-2.233,6.674,6.674,0,0,1,20.79-3.96V-8.382h-1.5v-2.4l1.672-.132.374-2.9h2.684v2.9h2.618v2.53H24.024V-4a1.9,1.9,0,0,0,.385,1.331,1.342,1.342,0,0,0,1.023.407,2.3,2.3,0,0,0,.539-.066,3.6,3.6,0,0,0,.495-.154l.506,2.354q-.44.132-1.034.264A6.444,6.444,0,0,1,24.552.264Zm8.25,0a5.75,5.75,0,0,1-2.123-.385,4.939,4.939,0,0,1-1.7-1.111A5.156,5.156,0,0,1,27.83-3.025a6.626,6.626,0,0,1-.418-2.431,6.065,6.065,0,0,1,.462-2.431A5.269,5.269,0,0,1,29.117-9.68a5.406,5.406,0,0,1,1.815-1.111,6.129,6.129,0,0,1,2.156-.385,4.573,4.573,0,0,1,1.793.33,5.65,5.65,0,0,1,1.4.836L34.76-7.92a2.355,2.355,0,0,0-1.474-.638,2.283,2.283,0,0,0-1.87.836,3.48,3.48,0,0,0-.682,2.266,3.442,3.442,0,0,0,.693,2.266,2.177,2.177,0,0,0,1.749.836A2.393,2.393,0,0,0,34.2-2.585a5.266,5.266,0,0,0,.935-.561L36.41-1.034a4.942,4.942,0,0,1-1.76,1A6.151,6.151,0,0,1,32.8.264ZM37.994,0V-15.422h3.234v3.784L41.074-9.68A8.705,8.705,0,0,1,42.5-10.7a3.787,3.787,0,0,1,1.936-.473,2.914,2.914,0,0,1,2.585,1.166,5.639,5.639,0,0,1,.8,3.234V0H44.594V-6.358a2.95,2.95,0,0,0-.319-1.628,1.178,1.178,0,0,0-1.023-.44,1.952,1.952,0,0,0-1.056.275,6.182,6.182,0,0,0-.968.781V0ZM55.11.264a6.074,6.074,0,0,1-2.178-.385,5.019,5.019,0,0,1-1.76-1.122,5.131,5.131,0,0,1-1.166-1.793,6.538,6.538,0,0,1-.418-2.42,6.208,6.208,0,0,1,.44-2.387,5.648,5.648,0,0,1,1.155-1.8,5.02,5.02,0,0,1,1.639-1.133,4.812,4.812,0,0,1,1.914-.4,4.867,4.867,0,0,1,2.035.4,4.019,4.019,0,0,1,1.452,1.1,4.664,4.664,0,0,1,.869,1.661,7.232,7.232,0,0,1,.286,2.079,7.578,7.578,0,0,1-.044.836q-.044.4-.088.594H52.712a2.672,2.672,0,0,0,.979,1.749A3.041,3.041,0,0,0,55.55-2.2,4.491,4.491,0,0,0,57.9-2.926L58.982-.968a7.167,7.167,0,0,1-1.859.9A6.532,6.532,0,0,1,55.11.264ZM52.69-6.644h3.938a2.476,2.476,0,0,0-.418-1.5A1.628,1.628,0,0,0,54.8-8.712a2,2,0,0,0-1.353.506A2.543,2.543,0,0,0,52.69-6.644ZM61.292,0V-10.912h2.64l.22,1.386h.088a8.8,8.8,0,0,1,1.54-1.155,3.771,3.771,0,0,1,1.958-.495,2.914,2.914,0,0,1,2.585,1.166,5.639,5.639,0,0,1,.8,3.234V0H67.892V-6.358a2.95,2.95,0,0,0-.319-1.628,1.178,1.178,0,0,0-1.023-.44,1.952,1.952,0,0,0-1.056.275,6.182,6.182,0,0,0-.968.781V0ZM75.416.264a1.86,1.86,0,0,1-1.4-.583,2,2,0,0,1-.561-1.441,2.026,2.026,0,0,1,.561-1.463,1.86,1.86,0,0,1,1.4-.583,1.86,1.86,0,0,1,1.4.583,2.026,2.026,0,0,1,.561,1.463,2,2,0,0,1-.561,1.441A1.86,1.86,0,0,1,75.416.264Zm8.932,0a5.75,5.75,0,0,1-2.123-.385,4.939,4.939,0,0,1-1.7-1.111,5.156,5.156,0,0,1-1.144-1.793,6.626,6.626,0,0,1-.418-2.431,6.065,6.065,0,0,1,.462-2.431A5.269,5.269,0,0,1,80.663-9.68a5.406,5.406,0,0,1,1.815-1.111,6.129,6.129,0,0,1,2.156-.385,4.573,4.573,0,0,1,1.793.33,5.649,5.649,0,0,1,1.4.836L86.306-7.92a2.355,2.355,0,0,0-1.474-.638,2.283,2.283,0,0,0-1.87.836,3.48,3.48,0,0,0-.682,2.266,3.442,3.442,0,0,0,.693,2.266,2.177,2.177,0,0,0,1.749.836,2.393,2.393,0,0,0,1.023-.231,5.266,5.266,0,0,0,.935-.561l1.276,2.112a4.942,4.942,0,0,1-1.76,1A6.151,6.151,0,0,1,84.348.264Zm9.262,0a5.37,5.37,0,0,1-2-.385A5.08,5.08,0,0,1,89.9-1.232a5.333,5.333,0,0,1-1.177-1.793,6.33,6.33,0,0,1-.44-2.431,6.33,6.33,0,0,1,.44-2.431A5.333,5.333,0,0,1,89.9-9.68a5.08,5.08,0,0,1,1.705-1.111,5.37,5.37,0,0,1,2-.385,5.286,5.286,0,0,1,1.991.385A5.107,5.107,0,0,1,97.3-9.68a5.333,5.333,0,0,1,1.177,1.793,6.33,6.33,0,0,1,.44,2.431,6.33,6.33,0,0,1-.44,2.431A5.333,5.333,0,0,1,97.3-1.232,5.107,5.107,0,0,1,95.6-.121,5.286,5.286,0,0,1,93.61.264Zm0-2.618a1.641,1.641,0,0,0,1.5-.836,4.36,4.36,0,0,0,.506-2.266,4.36,4.36,0,0,0-.506-2.266,1.641,1.641,0,0,0-1.5-.836,1.635,1.635,0,0,0-1.507.836,4.439,4.439,0,0,0-.5,2.266,4.439,4.439,0,0,0,.5,2.266A1.635,1.635,0,0,0,93.61-2.354Z" transform="translate(362.088 247)" fill="#1d1c1d"/></g></svg>