<svg xmlns="http://www.w3.org/2000/svg" width="91.315" height="69.999" viewBox="0 0 91.315 69.999"><g transform="translate(-413 -9277.001)"><path d="M-8015.688-914.973c-1.075-2.483-3.146-4.388-5-6.291l-3.258-3.338a27.958,27.958,0,0,0-3.037-2.951c-.1-.079-.209-.14-.314-.208,0-.029.018-.054.021-.084a41.8,41.8,0,0,0,.108-4.861q-.007-2.6-.093-5.2a77.941,77.941,0,0,0-.872-10.524c-1.153-6.8-3.655-13.786-9.716-17.7a14.15,14.15,0,0,0-5.1-1.979,17.563,17.563,0,0,0-3.223-.224,14.056,14.056,0,0,0-1.493.1c-1.16-.043-2.32-.071-3.481-.064-1.488.01-2.976.069-4.462.166a27.781,27.781,0,0,0-4.187.447c-.029-.114-.056-.228-.085-.341q-.85-3.319-1.848-6.6a.712.712,0,0,0-.851-.483c-1.394.253-2.833.375-4.239.57-1.534.212-3.071.413-4.608.595q-2.253.266-4.51.478a20.489,20.489,0,0,0-4.286.613.472.472,0,0,0-.171.1.4.4,0,0,0-.29.419,35.256,35.256,0,0,0,.972,6.2c-.1.017-.213.041-.341.071a8.56,8.56,0,0,1-1.282.175c-.473.037-.947.058-1.421.086-.44.027-.883.055-1.323.094-2.562.227-5.145-.012-7.708.177a20.64,20.64,0,0,0-3.075.463,11.885,11.885,0,0,0-1.818.536.273.273,0,0,0-.345.008c-4.449,3.372-6.811,8.776-7.9,14.127-1.155,5.656-1.26,11.541-1.333,17.3-.037,2.95.067,5.9.035,8.852a1.284,1.284,0,0,0,1.757,1.2.808.808,0,0,0,.722.513c4.012.348,8.068.272,12.093.261q5.739-.014,11.478-.063c1.452-.012,2.9-.041,4.354-.056.156,4.619.286,9.239.275,13.86a1.149,1.149,0,0,0,.44.955,4.291,4.291,0,0,0,1.284.827c.716,0,3.433-.173,3.525-.134.234.1.511.346.708.118.383-.443.688-.216.986.126.266.305.443.245.6-.176a15.81,15.81,0,0,0,.735-3.225,1.265,1.265,0,0,0-.184-.964c-.151-.191-.245-.389.035-.561a.962.962,0,0,0,.549-.985c-.03-.632-.361-.743-.668-.926a.837.837,0,0,1-.206-1.236.91.91,0,0,0,.066-.8c-.472-.9-.153-1.255.594-1.47-.843-.346-.557-.755-.248-1.174a2.718,2.718,0,0,0,.176-2.417,1.692,1.692,0,0,1,0-1.925c3.138-.043,6.274-.07,9.412-.119q3.322-.053,6.645-.087l3.429-.04c.482-.006.991.015,1.5.017.478,1.623,2.387,3.276,3.314,4.223a67.148,67.148,0,0,0,5.973,5.407,76.124,76.124,0,0,0,6.721,4.833c2.307,1.469,4.75,2.86,7.526,3.107a7.461,7.461,0,0,0,6.238-2.321A7.123,7.123,0,0,0-8015.688-914.973Zm-17.479-43.6a26.808,26.808,0,0,1,3.078,9.964c.392,3.316.556,6.67.625,10.006.038,1.832.037,3.667.014,5.5-.021,1.527-.129,3.066-.121,4.6a8.806,8.806,0,0,0-2.075.091c-1.662.25-3.314.571-4.97.859l-5.047.88q-1.2.21-2.409.4c-.4.065-.792.123-1.187.191a.738.738,0,0,0-.068-.04c-.2-.957-.417-1.912-.566-2.868-.244-1.547-.43-3.1-.566-4.663a83.9,83.9,0,0,1-.293-9.747,80.05,80.05,0,0,1,.849-9.7c.241-1.6.514-3.2.848-4.784a23.156,23.156,0,0,1,1.1-4.173,4.463,4.463,0,0,1,2.182-2.473,3.858,3.858,0,0,1,1.735-.43,3.671,3.671,0,0,1,1.122.135A17.977,17.977,0,0,1-8033.168-958.578Zm-42.667-13.317q2.314-.2,4.621-.464c1.54-.173,3.078-.364,4.611-.592q1.134-.169,2.264-.356c.491-.083.975-.2,1.458-.318a148.031,148.031,0,0,1,4.9,22.56c.3,2.23.558,4.467.792,6.7a.816.816,0,0,0,1.144.646c.343.161.686.319,1.041.459a2.616,2.616,0,0,1,1.11.739,2.543,2.543,0,0,1,.384,1.731,1.964,1.964,0,0,1-.514,1.406,3.467,3.467,0,0,1-3.277.6c-.967-.221-2.444-.489-2.75-1.591-.115-.417-.322-1.234-.05-1.585a5.734,5.734,0,0,1,.63-.547,1.682,1.682,0,0,0,.522-.9.83.83,0,0,0,.606-1.045q-1.34-5.479-2.814-10.926-.732-2.694-1.548-5.363a3.584,3.584,0,0,0-.55-1.293.742.742,0,0,0-.82-.863,84.331,84.331,0,0,0-12.269,1.959,75.986,75.986,0,0,1-3.257-10.839A20.557,20.557,0,0,0-8075.835-971.894Zm19.667,46.9c-3.831.1-7.663.2-11.5.266q-11.209.2-22.418.278c-4.455.03-8.945-.065-13.388.295a2.952,2.952,0,0,0-.132-2.642.915.915,0,0,0-.179-.215c-.071-1.612-.089-3.231-.113-4.836-.04-2.6-.041-5.209.021-7.813.136-5.665.528-11.456,2.624-16.781a25.093,25.093,0,0,1,3.967-6.713,21.5,21.5,0,0,0,2.4-.726,20.546,20.546,0,0,1,2.76-.518c1.8-.224,3.594-.41,5.4-.537a29.862,29.862,0,0,1,3.734-.043c.475.026.95.042,1.426.061.389.016.78.041,1.168.088a5.281,5.281,0,0,0,1.049.113,49.511,49.511,0,0,0,1.689,4.953.846.846,0,0,0,1.011.574c2.074-.483,4.183-.81,6.285-1.147,1.7-.272,3.406-.511,5.118-.695.273,0,.619-.046.919-.017.07.229.1.507.153.707q.139.529.277,1.056c.194.744.38,1.49.578,2.233.385,1.446.772,2.891,1.146,4.34q1.027,3.983,1.942,7.993a1.418,1.418,0,0,0,.015.486.974.974,0,0,0-.151.149,3.008,3.008,0,0,1-.6.483,2.883,2.883,0,0,0-.864.907,4.05,4.05,0,0,0-.124,2.624c.366,1.9,2.094,2.565,3.782,2.935a5.763,5.763,0,0,0,5.079-.794,4.293,4.293,0,0,0,.987-4.7,3.354,3.354,0,0,0-1.771-1.8,4.285,4.285,0,0,0-1.864-.4,146.961,146.961,0,0,0-3.743-21.556c1.318.029,2.671-.14,3.967-.2,1.452-.071,2.906-.107,4.36-.1,1.425.005,2.851.055,4.273.134.775.043,1.549.1,2.323.133a9.717,9.717,0,0,0,2.139-.07c.12.038.239.08.36.119a6.289,6.289,0,0,0-2.356,1.412,8.191,8.191,0,0,0-1.887,3.519c-.5,1.593-.861,3.24-1.2,4.872a79.53,79.53,0,0,0-1.51,21.148c.126,2.006.335,4,.612,5.994q.193,1.392.442,2.775c.082.45.152.916.237,1.381l-2.566.088C-8052.245-925.111-8054.207-925.041-8056.168-924.991Zm38.418,14.094a3.827,3.827,0,0,1-3.515,3.018c-2.095.291-4.2-.671-6-1.693a64.644,64.644,0,0,1-6.012-3.926,77.01,77.01,0,0,1-6.164-5.033q-1.5-1.347-2.925-2.777c-.452-.454-.91-.907-1.351-1.37-.086-.09-.2-.212-.312-.347l.019-.005a1.266,1.266,0,0,0,.481-.355c.477-.094.953-.189,1.431-.282,1.275-.247,2.557-.472,3.836-.708l4.076-.749c1.173-.216,2.365-.518,3.554-.629a3.08,3.08,0,0,1,1.527.142,4.226,4.226,0,0,1,1.177.934c.91.9,1.794,1.832,2.689,2.747,1.785,1.824,3.662,3.595,5.332,5.524C-8018.612-914.916-8017.407-912.958-8017.75-910.9Z" transform="translate(8519.273 10252.12)" fill="#040505"/></g></svg>