<svg xmlns="http://www.w3.org/2000/svg" width="512" height="213.049" viewBox="0 0 512 213.049" preserveAspectRatio="none"><path d="M35.982,83.484c0-5.546,4.551-7.68,12.09-7.68a79.329,79.329,0,0,1,35.27,9.1V51.484a93.791,93.791,0,0,0-35.27-6.542C19.2,44.942,0,60.018,0,85.192c0,39.252,54.044,32.995,54.044,49.92,0,6.541-5.688,8.675-13.653,8.675-11.8,0-26.88-4.836-38.827-11.378v33.849a98.59,98.59,0,0,0,38.827,8.106c29.582,0,49.92-14.648,49.92-40.106-.142-42.382-54.329-34.845-54.329-50.774ZM132.124,16.5l-34.7,7.4-.142,113.92c0,21.05,15.787,36.551,36.836,36.551,11.662,0,20.2-2.133,24.888-4.693V140.8c-4.55,1.849-27.022,8.391-27.022-12.658V77.653H159V47.36H131.982Zm71.112,41.386L200.96,47.36H170.24V171.8H205.8V87.467c8.39-10.951,22.613-8.96,27.022-7.4V47.36c-4.551-1.707-21.191-4.836-29.582,10.524ZM241.493,47.36h35.7V171.8h-35.7V47.36Zm0-10.809,35.7-7.68V0l-35.7,7.538V36.55Zm109.938,8.391a40.171,40.171,0,0,0-27.875,11.094l-1.85-8.818H290.418v165.83l35.555-7.537.143-40.249c5.12,3.7,12.657,8.96,25.173,8.96,25.458,0,48.64-20.48,48.64-65.564-.142-41.245-23.609-63.716-48.5-63.716ZM342.9,142.933c-8.391,0-13.37-2.986-16.782-6.684l-.143-52.765c3.7-4.124,8.818-6.968,16.925-6.968,12.942,0,21.9,14.506,21.9,33.137,0,19.058-8.818,33.28-21.9,33.28ZM512,110.08c0-36.409-17.636-65.138-51.342-65.138-33.85,0-54.33,28.73-54.33,64.854,0,42.808,24.179,64.426,58.88,64.426,16.925,0,29.725-3.84,39.4-9.244V136.533c-9.67,4.836-20.764,7.823-34.844,7.823-13.8,0-26.027-4.836-27.591-21.618h69.547c0-1.85.284-9.245.284-12.658ZM441.742,96.569c0-16.071,9.814-22.756,18.774-22.756,8.675,0,17.92,6.685,17.92,22.756Z" fill="#6772e5"/></svg>
