<svg xmlns="http://www.w3.org/2000/svg" width="15" height="14" viewBox="0 0 15 14" preserveAspectRatio="none"><path d="M137.9,39.613c-1.152-.71-1.206-.019-2.574,1.662s-3.707,5.9-4.679,6.986-.288,1.923-1.4,1.363-2.3-2.615-2.772-2.914-2.16-.56-2.592.224c-.381.785-.34.73.108,1.476a45.589,45.589,0,0,0,3.222,3.418c.828.934,2.088,1.719,2.592,1.457a12.256,12.256,0,0,0,2.288-1.98c.468-.56,2.644-3.884,3.112-4.744s2.555-4.483,2.843-4.856a6.449,6.449,0,0,0,.576-1.606Z" transform="translate(-123.624 -39.336)" fill="#1d1c1d"/></svg>
