<svg xmlns="http://www.w3.org/2000/svg" width="101.987" height="65.3" viewBox="0 0 101.987 65.3"><g transform="translate(-914.012 -359.2)"><path d="M1010.28,7862.287a3.752,3.752,0,0,0-.177-.744c-.047-.191-.317-.311-.533-.379-.124-.039-.229-.072-.221-.228.013-.252-.166-.365-.355-.453-.282-.131-.5-.272-.47-.642a.374.374,0,0,0-.307-.4c-.116-.022-.284.086-.339-.077a.73.73,0,0,1-.031-.521c.185-.275-.157-.329-.181-.5-.048-.352-.257-.194-.424-.17-.594.088-.684.063-.791-.567a.92.92,0,0,0-.7-.823c-.087-.026-.209-.029-.194-.2.039-.441-.064-.575-.478-.681a.765.765,0,0,1-.53-.744c.019-.226.032-.443-.39-.244.245-.323.284-.535-.128-.624a.253.253,0,0,1-.173-.249c-.008-.248-.16-.354-.389-.277-.169.056-.328.142-.5-.026s-.1-.321-.026-.471-.017-.17-.125-.171a.364.364,0,0,1-.313-.207,4.481,4.481,0,0,1-.507-1.169c-.043-.173.013-.253.2-.26.2-.008.382-.051.425-.311.022-.133.194-.161.312-.215a.1.1,0,0,1,.141.03.13.13,0,0,1-.014.148c-.032.04-.069.075-.1.112-.056.058-.126.109-.1.211.016.064.069.078.123.085a.213.213,0,0,0,.249-.139c.068-.172.14-.343.2-.52l0-.006,9.559,10.86c-.413.6-.817,1.2-1.225,1.8,0,0-.009,0-.013,0-.088.067-.177.179-.3.064a.357.357,0,0,1-.069-.416l.153-.368c-.188.032-.175.216-.283.277-.073.042-.132.1-.225.054a.2.2,0,0,1-.1-.193,1.216,1.216,0,0,0-.04-.284c-.053-.176-.053-.352-.3-.16C1010.441,7862.592,1010.287,7862.539,1010.28,7862.287Zm-56.5-23.329c1.625-.646.7-1.191.784-1.367.24-.527.207-.608-.132-.958-.095-.1-.273-.13-.133-.417.067-.138-.079-.415.142-.484.092-.029.178-.238.228-.4s-.086-.194-.134-.291a.5.5,0,0,1,.036-.5.819.819,0,0,0,.065-.787.643.643,0,0,1,.034-.573c.077-.106.039-.2-.005-.317a1.05,1.05,0,0,1-.09-.643,4.348,4.348,0,0,1,.26-.658c.114-.186.061-.331-.062-.35-.213-.034-.131-.16-.075-.324a1.356,1.356,0,0,1,.112-.232.256.256,0,0,0,.041-.206c-.025-.1-.082-.1-.137-.119-.084-.031-.163.111-.272,0l.248-.158a.371.371,0,0,0,.16-.347c-.005-.166-.1-.148-.178-.161l-.008-.007c-.485.147-.969.3-1.454.439l-.173,8.711C953.491,7838.548,953.307,7839.179,953.781,7838.958Zm-26.825,30.425c.012-.109.039-.219.058-.329l-14.108.117.005,0c.16.11.3.225.44.339.089.071.055.137-.093.193a.4.4,0,0,1-.241.027c-.155-.032-.143-.092-.156-.148a.443.443,0,0,0-.029-.1c-.017-.037-.074-.068-.17-.074a.2.2,0,0,0-.19.061c-.059.087-.211.19-.067.262.28.139.141.253-.069.365-.188.1-.149.165.116.22a16.062,16.062,0,0,0,2.018.255,1.245,1.245,0,0,0,.6-.073.285.285,0,0,1,.35.01.735.735,0,0,0,.62.2.636.636,0,0,0,.571-.252.752.752,0,0,1,.768-.082.932.932,0,0,0,.5.02c.559-.179.782-.063.923.212.208-.313.466-.209.73-.1a2.749,2.749,0,0,0,1.508.053,1.677,1.677,0,0,1,1.375.052.605.605,0,0,0,.465-.012,3.36,3.36,0,0,1,1.8,0c.908.225,1.036.189,1.569-.165.149-.1.178-.281.673-.149a.568.568,0,0,0,.116.015A1.95,1.95,0,0,1,926.956,7869.383Zm33.893-25.592a4.778,4.778,0,0,0-.522-.014,4.726,4.726,0,0,0-1.035.146.9.9,0,0,0-.2.07,1.7,1.7,0,0,1-.334.094,4.138,4.138,0,0,0-1.714,1.222,11.679,11.679,0,0,0-1.9,2.313,4.834,4.834,0,0,0-.426,2.484,6.443,6.443,0,0,0,1.345,2.967,7.911,7.911,0,0,0,2.523,1.975c.006-.046.01-.1.016-.141.072-.478,0-.658-.332-.828a.694.694,0,0,0,0-.862c-.1-.18-.188-.379-.3-.549a.635.635,0,0,1-.059-.728c.231-.339.495-.643,0-1.1a1.34,1.34,0,0,0-.64-1.132c-.163-.148-.194-.256-.154-.359.1-.006.212-.011.356-.019.261-.016.4-.1.5-.447s.08-.763.454-1.069c.351-.289.737-.526.869-1.015.012-.043.1-.1.159-.134a.658.658,0,0,0,.173-.117.646.646,0,0,0,.07-.113,1.125,1.125,0,0,1,.677-.386,1.2,1.2,0,0,1,.763.089c.184.09.373.233.573.183a.857.857,0,0,0,.292-.186,1.337,1.337,0,0,1,1.115-.236,1.152,1.152,0,0,0,.363.066.918.918,0,0,0,.366-.147,3.605,3.605,0,0,1,.781-.319,1.113,1.113,0,0,0,.361-.138.318.318,0,0,0,.146-.332c-.044-.148-.214-.211-.363-.252l-2.249-.629a9.407,9.407,0,0,0-1.636-.353Zm5.485,2.377a6.211,6.211,0,0,0-10.374,6.745,9.075,9.075,0,0,0,4.278,3.6c1.088.524,2.214.963,3.335,1.409.6.238,1.194.475,1.784.728a4.339,4.339,0,0,0,1.831.628.525.525,0,0,0,.449-.782c-.515-.752-1.66-1.031-2.473-1.367-.9-.371-1.8-.72-2.7-1.089a13.687,13.687,0,0,1-4.389-2.5,4.948,4.948,0,0,1,1.96-8.336,7.183,7.183,0,0,1,6.025,1.231c.157.112.394-.115.273-.272Zm-12.36,30.229a4.955,4.955,0,0,0,4.133,2.672,6.451,6.451,0,0,0,5.142-1.351,8.324,8.324,0,0,0,2.876-5.39,5.847,5.847,0,0,0-2.566-4.947,15.556,15.556,0,0,0-5.8-2.735,28.077,28.077,0,0,1-7.4-3.055,10.656,10.656,0,0,1-4.143-4.621,13.673,13.673,0,0,1-1.056-6.356,11.906,11.906,0,0,1,2.323-6.959,16.829,16.829,0,0,1,6.279-4.708c.816-.362.228-1.786-.614-1.456-4.123,1.613-7.827,4.991-9.131,9.3a15.327,15.327,0,0,0,1.455,12.544c2.654,4.022,7.639,6,12.147,7.089a12.623,12.623,0,0,1,5.316,2.561,4.642,4.642,0,0,1,1.55,2.162,4.333,4.333,0,0,1-.312,2.707,5.715,5.715,0,0,1-4.347,3.789c-1.775.256-4.106-.079-5.287-1.573-.205-.26-.7.022-.568.33Zm-.356-37.931a7.962,7.962,0,0,0,.363-2.828c.021-1,.01-1.991.014-2.986l.007-1.494c0-.338-.129-.881.255-.994a3.958,3.958,0,0,1,.92-.037l1.071-.029c1.507-.039,3.016-.062,4.523-.013a16.448,16.448,0,0,1,4.2.506l-.6-.787c-.03,2.208,0,4.419,0,6.627a.9.9,0,0,0,.879.879c3.794.4,7.258,2.831,9.7,5.653a15.206,15.206,0,0,1,2.748,4.152,1.193,1.193,0,0,0,.065.176c.154.258,0-.173.035-.287s.106-.166.143-.26a.661.661,0,0,1-.065.064c.006,0-.152.113-.041.041l-.035.023c-.106.074-.216.142-.326.209-.573.347-1.179.641-1.778.937a35.574,35.574,0,0,0-4.778,2.594l1.314.345a22.87,22.87,0,0,0-3.838-4.726,8.155,8.155,0,0,0-7.125-1.981.626.626,0,0,0,0,1.2,21.75,21.75,0,0,1,3.6.8,7.623,7.623,0,0,1,2.416,1.492,22.864,22.864,0,0,1,3.289,4.185.973.973,0,0,0,1.315.344,35.22,35.22,0,0,1,4.765-2.616,20.5,20.5,0,0,0,1.9-1.027c.47-.3,1.01-.683,1.08-1.284a4.184,4.184,0,0,0-.827-2.189,21.947,21.947,0,0,0-6.467-6.927,14.8,14.8,0,0,0-7.093-2.675l.878.878c-.041-2.208-.053-4.419-.125-6.627a.829.829,0,0,0-.6-.787,44.5,44.5,0,0,0-9.987-.36,4.153,4.153,0,0,0-2.164.369c-.858.568-.679,1.746-.674,2.63l.019,3.484a9.11,9.11,0,0,0,.368,3.326.343.343,0,0,0,.655,0ZM957.766,7877c-2.972-.206-4.715-3.079-5.8-5.518a.833.833,0,0,0-1.136-.3,4.258,4.258,0,0,1-1.127.51c-.793.325-1.588.644-2.38.971a32.911,32.911,0,0,0-4.907,2.289,2.464,2.464,0,0,0-1.251,1.338,1.784,1.784,0,0,0,.312,1.223c.27.552.5,1.118.746,1.679a13.253,13.253,0,0,0,4.61,5.817,18.507,18.507,0,0,0,9.7,2.925l-1.1-1.094c-.008,1.332-.1,2.663-.071,4,.025,1.12.052,2.821,1.518,2.936a46.481,46.481,0,0,0,5.358-.027q2.67-.1,5.342-.1a1.128,1.128,0,0,0,1.113-1.113c-.015-1.971-.308-3.938-.143-5.908l-.809,1.063a16.4,16.4,0,0,0,7.135-5.388,17.049,17.049,0,0,0,2.927-7,15.8,15.8,0,0,0-.343-7.783,14.832,14.832,0,0,0-4.113-6.338,17.97,17.97,0,0,0-8.241-4.254.8.8,0,0,0-.424,1.537c4.318,1.62,8.648,4.282,10.43,8.747a14.912,14.912,0,0,1-1.429,12.981,13.617,13.617,0,0,1-6.529,5.367,1.172,1.172,0,0,0-.809,1.064c-.173,1.969.113,3.938.121,5.908l1.114-1.114c-1.608,0-3.215.016-4.822.066s-3.216.2-4.817.11a3.944,3.944,0,0,0-1.061-.044c.111-.028.849.3.828.529a1.23,1.23,0,0,0-.06-.237c-.013-.063-.024-.126-.033-.19.014.1.017.108.007.024-.012-.122-.02-.244-.028-.366-.018-.3-.024-.6-.027-.907-.011-1.187.055-2.374.055-3.561a1.114,1.114,0,0,0-1.094-1.1,17.21,17.21,0,0,1-7.741-2,11.072,11.072,0,0,1-2.761-2.143,10.852,10.852,0,0,1-1.675-2.6c-.261-.52-.53-1.032-.8-1.548-.115-.22-.222-.444-.333-.666-.045-.089-.233-.591-.324-.62.192.062.084.492.08.569.005-.109-.074.26-.043.112-.009.038-.141.1.041-.029.048-.035.092-.08.137-.119-.022.02-.164.122-.024.02s.266-.182.4-.268a34.792,34.792,0,0,1,4.5-2.2c.813-.356,1.63-.7,2.443-1.056a6.019,6.019,0,0,0,1.23-.585l-1.135-.3a13.15,13.15,0,0,0,2.884,4.238,5.876,5.876,0,0,0,4.349,1.537.547.547,0,0,0,0-1.094Zm-30.426-21.5c-2.643-.139-5.274-.389-7.92-.5q-1.939-.083-3.88-.148-.982-.033-1.966-.057c-.352-.008-.679-.079-1.026-.106a1.117,1.117,0,0,0-.845.335.716.716,0,0,0,0,1.011,1.2,1.2,0,0,0,.731.351c.334.01.683-.1,1.025-.1q.983,0,1.965.008c1.332.011,2.664.03,4,.047,2.65.034,5.274-.064,7.92-.181a.328.328,0,0,0,0-.656Zm-.166-5.756a1.758,1.758,0,0,0-.508,1.272c-.038.524-.033,1.051-.072,1.576s-.078,1.076-.132,1.613a6.535,6.535,0,0,1-.089.685,1.41,1.41,0,0,0,.071,1.159l1.368-.8c-.061-.087-.118-.175-.171-.266a.555.555,0,0,0-.865-.112c-.067.076-.135.147-.208.218a.792.792,0,0,0,1.12,1.12c.461-.42.357-1.166.381-1.737a14.725,14.725,0,0,0,0-1.558c-.032-.524-.094-1.048-.167-1.568a2,2,0,0,1,0-1.042.465.465,0,0,0-.727-.561Zm.076.975a73.807,73.807,0,0,0,4.96,6.324c.819.96,1.637,1.92,2.423,2.907a16.715,16.715,0,0,1,2.149,3.109c.474,1,2.034.478,2.022-.548a3.1,3.1,0,0,0-.839-1.8c-.418-.567-.85-1.125-1.29-1.674-.835-1.044-1.712-2.051-2.595-3.054s-1.777-2.043-2.691-3.041c-.981-1.073-2.026-2.046-3.1-3.024-.529-.481-1.483.152-1.04.8ZM912.6,7869.844a41.673,41.673,0,0,0,7.482.442c1.246.007,2.491-.011,3.736-.027,1.184-.014,2.69.244,3.657-.55a.8.8,0,0,0-.16-1.243,2.663,2.663,0,0,0-1.823-.309q-.957.048-1.913.094c-1.206.057-2.412.1-3.618.158-2.456.11-4.928.11-7.361.464-.49.071-.471.883,0,.971Zm14.368-1.3-.3.125a.442.442,0,0,0-.16.092l-.024.021-.058.05-.057.049a.509.509,0,0,0-.085.092.225.225,0,0,0-.012.211.228.228,0,0,0,.154.137.571.571,0,0,0,.128.008l.076,0a.788.788,0,0,0,.218-.025c.1-.035.2-.074.295-.112a.245.245,0,0,0,.114-.059.257.257,0,0,0,.086-.094.335.335,0,0,0-.12-.457l-.08-.034a.34.34,0,0,0-.177,0Zm9.835-5.828c.192.09.382.183.571.28l-.153-1.188a12.567,12.567,0,0,0-2.032,1.825c-.525.633-1.035,1.281-1.546,1.925-.833,1.048-1.633,2.113-2.514,3.121-1.481,1.694-2.9,3.449-4.407,5.116l1.744.722c.006-.976-.04-1.951-.094-2.926-.026-.47-.053-.94-.07-1.411-.008-.238-.009-.475-.031-.712a4.966,4.966,0,0,0-.24-.822.851.851,0,0,0-1.627,0,4.575,4.575,0,0,0-.219.7,4.989,4.989,0,0,0,0,.713c.027.51.065,1.02.1,1.529.073.975.144,1.948.132,2.926a1.033,1.033,0,0,0,1.744.723c1.538-1.678,2.983-3.444,4.493-5.147.888-1,1.74-2.04,2.54-3.112.528-.707,1.008-1.448,1.535-2.156s1.153-1.368,1.675-2.1a.764.764,0,0,0-.855-1.111c-.211.083-.423.16-.637.235-.349.123-.512.68-.114.868Zm49.966-7.025c2.533.136,5.049.319,7.587.367q1.866.036,3.731.064l1.866.03c.65.01,1.267.217,1.853-.12a.721.721,0,0,0,0-1.234c-.581-.34-1.205-.137-1.853-.131l-1.741.016q-1.929.017-3.856.039c-2.537.03-5.054.2-7.587.313a.328.328,0,0,0,0,.656Zm15.082-5.949a1.757,1.757,0,0,0-.507,1.272c-.038.524-.034,1.051-.072,1.576s-.078,1.076-.133,1.613a6.307,6.307,0,0,1-.088.685,1.41,1.41,0,0,0,.071,1.159l1.367-.8c-.06-.087-.117-.175-.171-.266a.555.555,0,0,0-.865-.112c-.066.076-.135.147-.207.218a.792.792,0,0,0,1.119,1.12c.462-.42.358-1.166.382-1.737a14.991,14.991,0,0,0,0-1.558c-.032-.524-.094-1.048-.167-1.568a2.011,2.011,0,0,1,0-1.042.465.465,0,0,0-.727-.561Zm.077.975a73.807,73.807,0,0,0,4.96,6.324c.818.96,1.636,1.92,2.423,2.907a16.715,16.715,0,0,1,2.149,3.109c.473,1,2.033.478,2.022-.548a3.093,3.093,0,0,0-.84-1.8c-.417-.567-.849-1.125-1.289-1.674-.835-1.044-1.713-2.051-2.6-3.054s-1.777-2.043-2.69-3.041c-.981-1.073-2.026-2.046-3.1-3.024-.529-.481-1.484.152-1.04.8Zm-14.279,19.029c2.467.329,4.975.36,7.462.473q1.845.082,3.693.123c1.181.026,2.638.3,3.612-.491a.8.8,0,0,0-.16-1.242,2.722,2.722,0,0,0-1.8-.324q-.943.029-1.888.038c-1.232.015-2.463,0-3.7.009a38.343,38.343,0,0,0-7.357.424c-.61.122-.377.922.134.99Zm13.995-1.2-.3.125a.434.434,0,0,0-.16.092l-.025.021-.057.05-.057.049a.476.476,0,0,0-.085.092.222.222,0,0,0-.012.211.226.226,0,0,0,.154.137.568.568,0,0,0,.128.008l.076,0a.793.793,0,0,0,.218-.025c.1-.035.2-.074.295-.112a.255.255,0,0,0,.114-.059.257.257,0,0,0,.086-.094.347.347,0,0,0,.033-.258.34.34,0,0,0-.153-.2l-.08-.034a.344.344,0,0,0-.178,0Zm-.224.327a5.966,5.966,0,0,0-.064,1.316c.036.482.081.964.123,1.446a22.582,22.582,0,0,1,.071,2.813,1.062,1.062,0,0,0,1.795.743,19.207,19.207,0,0,0,2.119-3.095,29.7,29.7,0,0,1,2.327-3.174c1.7-2.035,3.557-3.919,5.391-5.828a1.072,1.072,0,0,0-.75-1.809,5.94,5.94,0,0,0-.937.209c-.857.171-.746,1.4,0,1.627a3.954,3.954,0,0,0,.655.246l-.467-1.772c-1.795,1.943-3.645,3.847-5.35,5.869a36,36,0,0,0-2.372,3.113,35.783,35.783,0,0,1-2.1,3.127l1.795.744a21.2,21.2,0,0,0-.276-3.07,5.955,5.955,0,0,0-1.073-2.745.479.479,0,0,0-.884.24Zm-87.127-13.742a29.969,29.969,0,0,1,4.484.235c3.479.33,8.674.946,8.806.4a.87.87,0,0,0-.4-.881,2.919,2.919,0,0,0-.528-.176,15.424,15.424,0,0,1-1.783,0c-.595-.066-1.74.066-2.885-.044s-7.258.162-7.258.162Zm50.46,19.036a4.964,4.964,0,0,1-1,1.111,2.413,2.413,0,0,1-1.2,1.3,4.174,4.174,0,0,1-1.917.315,15.9,15.9,0,0,1-1.886-.166,5.218,5.218,0,0,1-1.542-.594c-2.027-.35-2.791-.842-3.018-1.639a4.981,4.981,0,0,0-2.407-2.5,31.584,31.584,0,0,0,1.937,3.581c.851,1.233,4.7,2.554,7.661,2.2S965.31,7873.259,964.752,7874.169Zm3.141,16.556.572,1.893,1.233-1.453-.352-.22a.505.505,0,0,1-.088-.793c.4-.484.528-.66.528-.66a2.781,2.781,0,0,0-.044-.485l-.176-.4a3.113,3.113,0,0,0,.088-.528c0-.176-.132.352-.044-.264a4.72,4.72,0,0,1,.264-1.057c.044-.132.132-.749.132-.749v-1.365s-2.333,1.982-2.553,3.347A5.218,5.218,0,0,0,967.893,7890.725Z" transform="translate(2.519 -7469.349)" fill="#030504"/></g></svg>