<svg xmlns="http://www.w3.org/2000/svg" width="18.975" height="14" viewBox="0 0 18.975 14" preserveAspectRatio="none"><g transform="translate(-378 -3149)"><path d="M13.457.172c-.869-.414-.91-.011-1.942.97S8.742,3.781,8.009,4.414,7,5.8,6.161,5.473,2.332.346,1.979.172.35-.155.024.3c-.288.458,2.1,3.676,2.44,4.111A20.32,20.32,0,0,0,4.44,7.181a5.408,5.408,0,0,0,2.908.971A8.641,8.641,0,0,0,8.774,6.827a37,37,0,0,0,3.059-2.414c.353-.5,1.515-2.8,1.733-3.021A3.259,3.259,0,0,0,14,.455Z" transform="translate(388.823 3163) rotate(-90)" fill="#ed553b"/><path d="M4.9,3.359C4.1,3.052,2.443.309,2.108.142S.541-.135.207.35c-.3.484-.266.45.044.887C.524,1.653,5.8,8.389,6.387,8.928s1.486.977,1.861.805.506-.829.861-1.18S5.706,3.665,4.9,3.359Z" transform="translate(391.341 3155.595) rotate(129)" fill="#ed553b"/></g></svg>
