<svg xmlns="http://www.w3.org/2000/svg" width="16.999" height="13.999" viewBox="0 0 16.999 13.999" preserveAspectRatio="none"><path d="M6.61,12.64a40.169,40.169,0,0,1,.038-4.405c-1.053.128-2.027.224-2.762.234-2.521.031-3.1.488-3.6-1.024L0,6.983a6.439,6.439,0,0,1,1.745-.666c.408-.016,3.139-.181,4.941-.355a10.637,10.637,0,0,0-.267-3.328C5.82,1.651,5.328.671,5.975.582S7.273-.1,7.8.016,8.929,1.342,9.117,2.4c.065.368.126,1.683.175,3.268,2.031-.132,5.614-.194,6.282-.2.851,0,.658,1.266,1.314,1.513s-1.735.526-3.442.47a32.987,32.987,0,0,0-4.1.421c.054,2.414.08,4.768.06,5.1-.018.723.042.711-.649.989A.7.7,0,0,1,8.534,14,3,3,0,0,1,6.61,12.64Z" transform="translate(0 -0.001)" fill="#ffdc4d"/></svg>
