<svg xmlns="http://www.w3.org/2000/svg" width="61.245" height="70" viewBox="0 0 61.245 70"><g transform="translate(-690 -9277)"><path d="M-7854.312-957.494a5.1,5.1,0,0,0,3.287-.2,5.6,5.6,0,0,0,1.018-.544,5.147,5.147,0,0,0,.03.9,2.685,2.685,0,0,0,1.259,2.139,1.849,1.849,0,0,0,1.265.187,1.355,1.355,0,0,0,.605-.317,1.02,1.02,0,0,0,.282-.7.532.532,0,0,0-.667-.508c-.05.013-.166.035-.049.016a2.216,2.216,0,0,0-.4.115c.132-.045-.06.006-.091.016l-.011,0-.069,0a.066.066,0,0,0-.029.007.069.069,0,0,0-.026-.013c-.026-.008-.089-.029-.1-.031a1.308,1.308,0,0,1-.161-.091c-.031-.028-.061-.058-.09-.086-.082-.075,0,.024-.065-.078-.041-.065-.078-.131-.116-.2a2.054,2.054,0,0,1-.145-.42,3.524,3.524,0,0,1-.085-.955c.008-.442.065-.886.068-1.324a5.5,5.5,0,0,0,1.06-3.56,4.32,4.32,0,0,0-1.683-3.394,3.093,3.093,0,0,0-2.353-.553,6.985,6.985,0,0,0-2.433-.09,4.068,4.068,0,0,0-2.1,1.28,5.457,5.457,0,0,0-.634,5.765A4.231,4.231,0,0,0-7854.312-957.494Zm-.811-7.512a3.321,3.321,0,0,1,2.378-1.164.41.41,0,0,0,.435.383,3.437,3.437,0,0,1,2.261.42,2.76,2.76,0,0,1,1.063,2.1,4.437,4.437,0,0,1-.276,1.951,1.364,1.364,0,0,0-1.438-.244c-.365.139-.922.346-1.039.768a.6.6,0,0,0,.478.742.182.182,0,0,0,.174-.23h0c.033-.024.066-.049.1-.074a.381.381,0,0,1,.174-.1,1.389,1.389,0,0,1,.554-.115.242.242,0,0,1,.23.16.944.944,0,0,1,.087.239,3.905,3.905,0,0,1-1.4,1.052,3.822,3.822,0,0,1-2.457.26c-.891-.238-1.36-1.207-1.694-2A4.117,4.117,0,0,1-7855.123-965.006Z" transform="translate(8555.09 10251.02)" fill="#040505"/><path d="M-7841.878-957.886a2.667,2.667,0,0,0,1.47-1.856,9.732,9.732,0,0,0,.322-1.382,2.4,2.4,0,0,0-.215-1.894.587.587,0,0,0-.972.256,1.961,1.961,0,0,0-.035.616,4.9,4.9,0,0,1-.028.592,8.924,8.924,0,0,1-.216,1.048,6.486,6.486,0,0,1-.23.751c.014-.032-.052.107-.071.146s-.058.106-.09.158c-.016.025-.032.05-.049.075,0,.008-.024.034-.039.053l-.021.023c-.027.025-.055.054-.081.082a.385.385,0,0,1-.03.027l-.039.026c-.017.009-.081.041-.1.054l-.028.009c-.041.009-.081.024-.123.029.127-.016-.132-.015-.063-.007.036,0-.125-.034-.164-.047.084.028-.059-.027-.084-.041-.047-.026-.157-.1-.157-.1s-.1-.093-.135-.131a.906.906,0,0,1-.191-.284,1.922,1.922,0,0,1-.139-.444,5.386,5.386,0,0,1-.058-1,2.545,2.545,0,0,1,.389-1.749.285.285,0,0,0-.274-.472c-.817.166-1.083,1.049-1.2,1.772a3.937,3.937,0,0,0,.333,2.754A2.012,2.012,0,0,0-7841.878-957.886Z" transform="translate(8555.016 10250.997)" fill="#040505"/><path d="M-7836.652-959.943l.012.046h0A.273.273,0,0,0-7836.652-959.943Z" transform="translate(8554.969 10250.977)" fill="#040505"/><path d="M-7836.338-958.051a2.963,2.963,0,0,0,3.1-1.324,3.757,3.757,0,0,0,.165-3.509,1.849,1.849,0,0,0-1.753-1.146,2.714,2.714,0,0,0-1.2.367,2.319,2.319,0,0,0-.487.344,1.2,1.2,0,0,0-.176.335c.017-.03-.086.125-.1.153a.428.428,0,0,0-.05.3c-.028.02-.062.031-.088.052a3.005,3.005,0,0,0-1.016,1.408,2.3,2.3,0,0,0,.122,2A2.391,2.391,0,0,0-7836.338-958.051Zm1.792-1.949Zm.25-2.207c.012.029.019.054,0,0Zm-.381-.424c.026.009.08.03.1.035l.063.041c-.119-.083.041.068.06.075.02.03.058.083.057.082.033.054.061.11.089.166l.011.025c.015.043.031.087.045.13.028.092.053.187.073.281.009.043.017.086.024.128,0,.026.006.023.008.034s0,.01,0,.038c0,.108.014.217.013.325s-.008.191-.018.285c0,.02-.022.136-.031.17a2.605,2.605,0,0,1-.087.31c-.008.025-.018.049-.027.074,0,.006-.042.09-.052.109a2.986,2.986,0,0,1-.165.274l-.012.018c-.031.037-.062.075-.1.109a2.015,2.015,0,0,1-.168.156l-.049.038c-.05.033-.1.064-.153.093-.033.018-.16.074-.171.082-.079.029-.157.056-.237.077-.039.01-.078.017-.117.026l-.016,0a3.142,3.142,0,0,1-.321.009l-.042,0c.009,0-.055-.007-.083-.013a2.188,2.188,0,0,1-.214-.064.488.488,0,0,1-.052-.022c-.044-.023-.084-.051-.129-.074l-.034-.023c-.041-.035-.079-.072-.119-.107a.3.3,0,0,0-.029-.024s0,0,0-.007c-.029-.046-.058-.091-.085-.138l0-.009v0c-.012-.027-.016-.054-.012-.046-.009-.034-.019-.068-.026-.1a1.042,1.042,0,0,1,0-.272c0-.026,0-.053.006-.079,0-.007.014-.089.019-.113a2.593,2.593,0,0,1,.1-.35c.013-.038.029-.076.042-.112,0-.006.024-.061.035-.089a3.788,3.788,0,0,1,.324-.551,1.817,1.817,0,0,1,.866-.7.393.393,0,0,0,.256-.243c.072-.019.147-.042.211-.052.021,0,.021,0,.024-.007l.066,0Z" transform="translate(8554.977 10251.001)" fill="#040505"/><path d="M-7831.7-964.5q1,.069,2,.137c-.015.1-.043.2-.056.306a12.2,12.2,0,0,0-.209,3.737,2.551,2.551,0,0,0,2.369,2.045,3.081,3.081,0,0,0,1.639-.372c.523-.271,1.2-.8,1.028-1.463a.585.585,0,0,0-.413-.413c-.528-.112-.839.26-1.261.507a1.565,1.565,0,0,1-1.018.234c-.867-.128-.96-.949-.924-1.673.044-.94.139-1.88.235-2.815.528.032,1.056.068,1.585.069.624,0,1.9-.147,1.845-1.027a.63.63,0,0,0-.437-.576c-.311-.126-.632.081-.935.154a3.653,3.653,0,0,1-.82.063c-.373.005-.745.026-1.118.043.016-.177.034-.355.051-.533a3.777,3.777,0,0,0-.048-1.51.275.275,0,0,0-.454-.119,3.449,3.449,0,0,0-.763,1.7c-.04.174-.059.351-.094.525-.735.043-1.467.091-2.2.127A.426.426,0,0,0-7831.7-964.5Z" transform="translate(8554.941 10251.022)" fill="#040505"/><path d="M-7852.375-948.666c1.276,0,2.554-.01,3.83-.021q3.832-.03,7.663-.07a.49.49,0,0,0,0-.979q-3.831.055-7.663.118c-1.239.02-2.478.04-3.717.071a16.7,16.7,0,0,0-3.775.28.215.215,0,0,0,0,.412A16.157,16.157,0,0,0-7852.375-948.666Z" transform="translate(8555.084 10250.916)" fill="#040505"/><path d="M-7836.9-943.8q-2.347,0-4.695.078c-2.919.1-5.83.3-8.742.528a43.817,43.817,0,0,0-6.112.642c-.316.071-.212.5.073.53a36.39,36.39,0,0,0,5.507-.113c1.521-.084,3.043-.161,4.564-.242,2.923-.154,5.847-.237,8.774-.209q1.411.013,2.818.065c.549.02,1.1.047,1.649.064a2.707,2.707,0,0,0,1.581-.17.534.534,0,0,0,0-.908,2.122,2.122,0,0,0-1.259-.241c-.523-.015-1.045-.019-1.569-.021C-7835.177-943.8-7836.042-943.8-7836.9-943.8Z" transform="translate(8555.086 10250.881)" fill="#040505"/><path d="M-7830.769-935.641a4.792,4.792,0,0,0-1.531-.231q-.756,0-1.514.008-1.385.009-2.771.028-2.227.033-4.457.106c-2.733.087-5.464.212-8.2.327a39.19,39.19,0,0,0-6.4.488.2.2,0,0,0,0,.384,31.135,31.135,0,0,0,5.753.213c1.485-.021,2.972-.043,4.455-.084,2.733-.078,5.465-.141,8.2-.172q1.47-.016,2.941-.021.839,0,1.678,0a5.96,5.96,0,0,0,1.844-.23A.426.426,0,0,0-7830.769-935.641Z" transform="translate(8555.082 10250.834)" fill="#040505"/><path d="M-7845.177-925.644a.825.825,0,0,0-.82-.82q-2.572.3-5.161.423c-.861.038-1.723.074-2.584.1a8.728,8.728,0,0,0-2.5.177c-.323.115-.489.646-.107.818a6.97,6.97,0,0,0,2.412.331c.817.046,1.639.059,2.458.054a12.5,12.5,0,0,0-.123,1.246c-.064.949-.128,1.9-.16,2.851-.032.921-.04,1.841-.045,2.762-.006.815-.208,1.932.574,2.456a.547.547,0,0,0,.57,0c.742-.566.53-1.558.514-2.382-.018-.944-.018-1.89-.026-2.836-.008-.924-.032-1.85-.037-2.776,0-.417,0-.89-.048-1.349,1.425-.04,2.849-.112,4.268-.238A.842.842,0,0,0-7845.177-925.644Z" transform="translate(8555.086 10250.779)" fill="#040505"/><path d="M-7842.76-921.839a2.892,2.892,0,0,0-1.906-.285,2.277,2.277,0,0,0-.992.528,1.732,1.732,0,0,0-.366.47,1.286,1.286,0,0,0-.123.515c-.021.028-.066.089-.084.115-.035.052-.067.105-.1.159a3.782,3.782,0,0,0-.52,1.609,2.73,2.73,0,0,0,1.957,2.954,2.8,2.8,0,0,0,2.521-.6,3.088,3.088,0,0,0,.887-2.012,5.976,5.976,0,0,0-.078-2.053A2.137,2.137,0,0,0-7842.76-921.839Zm-.66,4.189c-.008,0,.025-.037.048-.06C-7843.4-917.675-7843.415-917.648-7843.42-917.65Zm.168-.267a.253.253,0,0,1,.023-.058A.172.172,0,0,1-7843.252-917.917Zm.187-.877c0,.07-.011.138-.018.208l0,.024c-.025.131-.047.261-.083.39-.018.064-.037.127-.06.189-.008.025-.019.049-.026.073-.029.057-.074.133-.111.19l-.009.007c-.027.023-.048.054-.074.079s-.155.1-.058.058-.047.026-.077.043-.077.038-.112.06h0a1.447,1.447,0,0,1-.334.093h-.013c-.033,0-.068,0-.1,0a1.053,1.053,0,0,1-.225,0l-.08-.016-.141-.041-.09-.043c-.054-.03-.106-.061-.158-.094l-.046-.034c-.024-.022-.049-.044-.073-.067s-.072-.076-.107-.114l0,0c-.051-.083-.1-.165-.145-.253l-.033-.073-.023-.064a2.38,2.38,0,0,1-.073-.281l-.009-.054c0-.038-.009-.086-.01-.1a4.666,4.666,0,0,1,.02-.645c0-.021,0-.043,0-.053a1.9,1.9,0,0,0,.041-.3l.005-.032c.01-.057.021-.114.033-.171s.026-.083.037-.124l.008,0c.039-.032.037-.034.032-.033l.031-.016a1.655,1.655,0,0,0,.218-.134c.118-.09.22-.2.33-.3l.033-.03c.021-.014.076-.054.1-.066s.058-.028.087-.043l.051-.017c.037-.011.072-.018.109-.026.086,0,.171,0,.257,0,.037.008.075.015.112.024.091.023.179.054.268.083.028.015.058.028.085.042.076.039.149.082.22.127l.055.038.067.064h0c0,.006.013.027.023.046s.031.091.036.109c.01.043.021.113.025.129.011.13.02.26.023.392C-7843.047-919.3-7843.049-919.048-7843.066-918.794Z" transform="translate(8555.029 10250.753)" fill="#040505"/><path d="M-7834.606-919.35c-.206.4-.229.838-.412,1.235-.114.247-.23.336-.446.354.088-.007-.255-.013-.225-.008a1.8,1.8,0,0,1-.568-.2,2.124,2.124,0,0,1-.877-.864,3.088,3.088,0,0,1-.24-1.509c0-.658.019-1.317.039-1.974.009-.268.02-.537.029-.805l.686.023.658.021a2.944,2.944,0,0,0,.971-.033.806.806,0,0,0,0-1.54,2.736,2.736,0,0,0-.927-.053l-.663.015c-.221.005-.44.017-.66.026.025-.526.052-1.05.091-1.574.037-.489-.707-.564-.836-.113-.168.581-.31,1.165-.438,1.752-.184.012-.367.021-.55.038a5.7,5.7,0,0,0-1.535.237.446.446,0,0,0,0,.852,5.1,5.1,0,0,0,1.5.258c.107.011.216.013.324.021-.093.586-.172,1.176-.22,1.773-.121,1.522-.16,3.091.979,4.257a3.062,3.062,0,0,0,3.231.836,2.258,2.258,0,0,0,1.089-3.026A.58.58,0,0,0-7834.606-919.35Z" transform="translate(8554.994 10250.779)" fill="#040505"/><path d="M-7824.942-919.755c-.047-.927.206-2.115-.527-2.845-.835-.83-2.074-.264-2.761.447a7.465,7.465,0,0,0-1.509,2.449,8.247,8.247,0,0,0-.611,3.155.392.392,0,0,0,.725.2,23.236,23.236,0,0,0,.925-2.4,5.18,5.18,0,0,1,1.991-.008,5.353,5.353,0,0,1,.573.191c.034.267.051.536.1.8.1.569.17,1.344.683,1.687a.6.6,0,0,0,.876-.357,1.414,1.414,0,0,0-.082-.906c-.073-.275-.137-.554-.191-.834-.006-.036-.009-.072-.016-.106a1.176,1.176,0,0,0,.485-.173.625.625,0,0,0-.313-1.154l-.335-.031C-7824.935-919.681-7824.94-919.718-7824.942-919.755Zm-1.864-.2a6.135,6.135,0,0,0-1.47.173,5.9,5.9,0,0,1,.6-1,3.111,3.111,0,0,1,.715-.725,1.263,1.263,0,0,1,.428-.191.506.506,0,0,1,.082,0c.026.008.105.07.073.034a.613.613,0,0,1,.113.32,3.918,3.918,0,0,1,.011.462q-.013.491,0,.979A4.059,4.059,0,0,0-7826.806-919.951Z" transform="translate(8554.932 10250.758)" fill="#040505"/><path d="M-7819.477-917.681a2.123,2.123,0,0,0-.449-.013v-.007c.015-.011.015-.013,0-.006,0-.087-.009-.174-.011-.261-.015-.625,0-1.255.025-1.88.039-1.184.126-2.369.227-3.549.1-1.2.134-2.413.229-3.615.039-.5-.694-.55-.837-.113a23.411,23.411,0,0,0-.712,2.358c-.167.773-.285,1.559-.385,2.343-.1.821-.164,1.65-.211,2.477a18.027,18.027,0,0,0-.066,2.244,1.76,1.76,0,0,0,.928,1.588,5.647,5.647,0,0,0,2.241.187,22.582,22.582,0,0,0,2.261.022c.828-.073,1.422-.945.778-1.637a.694.694,0,0,0-.927-.077.093.093,0,0,1-.061,0,1.652,1.652,0,0,0-.391-.007l-.88-.017Zm-.439.072c.029.007.014.041,0,0Zm3.529-.011c-.007.005-.011.012-.017.016l.016-.016Z" transform="translate(8554.88 10250.784)" fill="#040505"/><path d="M-7822.512-959.474a.829.829,0,0,0,.535.888.539.539,0,0,0,.3-.011,5.549,5.549,0,0,0,.651.092,8.6,8.6,0,0,0,1.061.04c.354,0,.707-.014,1.06-.046.176-.016.352-.035.526-.057a1.565,1.565,0,0,0,.678-.164.6.6,0,0,0-.15-1.082l.007-.009c-.017-.005-.033,0-.05-.005a.705.705,0,0,0-.079-.008,2.176,2.176,0,0,0-.481.016c-.176.02-.352.037-.528.05-.328.026-.656.052-.984.066s-.657.008-.985.02c-.09,0-.189,0-.291,0-.011-.352-.056-.708-.082-1.052-.019-.271-.041-.542-.058-.813l.206.018c.2.017.4.037.6.043l.6.018a.884.884,0,0,0,.5-.1.654.654,0,0,0,.295-.394.671.671,0,0,0-.068-.492.6.6,0,0,0-.22-.221.613.613,0,0,0-.393-.073c-.03,0-.046.026-.073.033-.293.026-.589.026-.882.061l-.477.057-.124.015c0-.308-.014-.615-.023-.924-.007-.237-.029-.471-.04-.706.084.006.171.006.258.008.149,0,.3.008.445.015.276.012.553,0,.829.009s.554.016.83.029a4.014,4.014,0,0,0,1.019,0,.709.709,0,0,0,0-1.356,3.8,3.8,0,0,0-1.019-.019q-.43.013-.861.037c-.321.019-.642.04-.961.09-.3.049-.735.064-.953.3a.507.507,0,0,0-.129.317.3.3,0,0,0-.1.121,5.753,5.753,0,0,0-.255,1.1c-.07.524-.126.807-.153,1.322-.03.605-.014,1.212,0,1.817C-7822.525-960.1-7822.515-959.789-7822.512-959.474Zm2.354-3.135.049-.037.123-.052.034,0A.6.6,0,0,0-7820.158-962.609Zm-.026.021a.755.755,0,0,0-.16.244c.043-.073.085-.146.127-.219Z" transform="translate(8554.885 10251.01)" fill="#040505"/><path d="M-7804.166-911.183q-.07-2.547-.128-5.095c-.084-3.683-.14-7.368-.195-11.052-.045-3.036-.082-6.072-.154-9.108-.1-4.069-.287-8.129-.267-12.2.014-3.084.09-6.167.2-9.249q.082-2.368.162-4.736a24.089,24.089,0,0,0,0-4.63.372.372,0,0,0-.091-.187.88.88,0,0,0,.755-.842.563.563,0,0,0-.841-.483.665.665,0,0,1,.105-.028,2.006,2.006,0,0,0-.243.029c-.04.01-.049.014-.048.017h-.037c-.256.006-.513.022-.77.032l-1.429.059c-.477.02-.955.026-1.43.068a5.666,5.666,0,0,0-1.2.137q-.052-2.079-.1-4.155a.875.875,0,0,0-.636-1.45c-13.526.235-27.048.5-40.569.924-3.817.12-7.635.207-11.447.428a.42.42,0,0,0-.188.06.413.413,0,0,0-.3.328c-.276,1.382-.467,2.784-.608,4.2-.144-.127-.245-.086-.332.137a8.694,8.694,0,0,0-.457,1.881.7.7,0,0,0,.116.562c.095.112.154.228-.021.328a.556.556,0,0,0-.342.575c.02.369.227.433.418.54a.468.468,0,0,1,.13.72.5.5,0,0,0-.041.468c.3.526.1.732-.369.858.527.2.348.44.156.685a1.489,1.489,0,0,0-.107,1.409.959.959,0,0,1-.1,1.284c-.147.186-.042.314.014.434a1.8,1.8,0,0,1-.015,1.679c-.392.844-.332.965.26,1.47.077.066.18.11.25.182,0,.14,0,.28,0,.421-.006.012,0,.017-.009.029-.111.223.149.635-.227.766-.155.055-.3.39-.376.64s.155.291.241.436a.723.723,0,0,1-.042.786,1.184,1.184,0,0,0-.082,1.229.926.926,0,0,1-.037.893c-.128.173-.06.318.02.49a1.457,1.457,0,0,1,.177.987,6.606,6.606,0,0,1-.418,1.05c-.189.3-.093.52.118.537.367.029.23.233.141.493a2.046,2.046,0,0,1-.184.372.381.381,0,0,0-.062.325c.045.15.144.142.239.168.143.04.274-.189.464-.033l-.418.271a.588.588,0,0,0-.261.557c.016.256.182.218.311.229.147.013.2.179.237.339a.312.312,0,0,1-.137.325,2.2,2.2,0,0,0-.493.581.536.536,0,0,0,.044.808c.633.7.624.578-.018,1.157-.181.164-.232.31-.1.618s.393.6.3,1.044a1.915,1.915,0,0,0-.037,1.249.334.334,0,0,1-.038.191.8.8,0,0,0,.013.677.577.577,0,0,1-.086.716.273.273,0,0,0-.061.309,2.21,2.21,0,0,1-.056,1.635c-.146.429-.108.606.17.817a.645.645,0,0,0-.141.793c.064.183.11.38.184.555a.588.588,0,0,1-.066.679c-.271.274-.565.511-.18,1.013a1.252,1.252,0,0,0,.406,1.147c.19.244.135.361-.039.48-.367.252-.278.9-.533,1.251a.263.263,0,0,0,.1.329c.211.061.338.378.585.337.139-.024.242.149.258.358.036.437-.262.858-.036,1.31a.067.067,0,0,1-.007.048c-.3.118-.27.6-.45.84-.071.094-.168.165-.111.328.048.134.15.1.227.078.291-.076.347.144.338.495,0,.236-.185.281-.214.435-.064.353.288.071.265.275-.031.273-.029.555-.078.818-.022.121-.192.207-.08.37.091.131.2.016.3-.054s.229-.207.318-.017c.106.226-.074.319-.149.451-.062.109-.24.149-.164.334a.83.83,0,0,1-.192.895c-.093.141-.267.331-.1.5.331.335.22.751.177,1.172.078.035.157-.089.236.014a1.97,1.97,0,0,1,.041,1.316c-.045.077-.126.171-.119.244a1.2,1.2,0,0,1-.4,1c-.1.116-.229.351-.062.517s.18.416.27.621c.074.17.051.43.2.516.326.191.223.412.026.618s-.215.357,0,.535c.089.073.184.171.089.315a.469.469,0,0,0,.13.742.488.488,0,0,1,.146.279,4.177,4.177,0,0,0,.937,1.994c.1.134.26.322.222.5-.146.661.191.767.453.894a.691.691,0,0,0,.636.267c1.205.067,2.411.111,3.616.144a10.92,10.92,0,0,0-.417,3.22.673.673,0,0,0,.653.654,49.031,49.031,0,0,0,6.508.026c3.937-.091,7.87-.235,11.8-.4q6.892-.3,13.784-.642c4.1-.2,8.189-.444,12.284-.685,2.448-.144,4.888-.334,7.332-.553l.22-.02.084-.008c.033,0,.065-.008.1-.012-.019,0-.029,0,.007,0,.01,0,.018-.007.028-.008l.027,0-.025,0a.513.513,0,0,0,.081-.022.76.76,0,0,0,.942-.452,5.136,5.136,0,0,0,.2-2.059Q-7804.136-910.1-7804.166-911.183Zm-38.043-60.693c6.747-.1,13.494-.24,20.241-.341,3.716-.057,7.434-.114,11.149-.106-.23,8.028-.508,16.049-.571,24.082-.065,8.136-.037,16.268.272,24.4q.13,3.418.325,6.833c.116,2.014.179,4.063.4,6.075-1.105-.046-2.215.061-3.324.109q-2.324.1-4.646.2-5.078.213-10.153.408c-7.139.273-14.276.551-21.417.785q-3.426.112-6.847.3a.419.419,0,0,0-.477.03c-1.157.064-2.314.13-3.471.215a16.61,16.61,0,0,0,.057-2.875q-.042-1.567-.1-3.133c-.081-2.046-.157-4.092-.245-6.138-.178-4.131-.392-8.261-.556-12.392-.139-3.507-.285-7.016-.417-10.525l-.048-23.581s.022-3.368.028-4.377C-7855.423-971.645-7848.8-971.78-7842.209-971.876Zm18.542,65.126q-6.891.336-13.783.637c-4.093.176-8.187.357-12.281.5-2.358.082-4.73.193-7.091.141a18.917,18.917,0,0,1,.161-2.558c5.376.113,10.761-.045,16.136-.171,6.979-.163,13.956-.407,20.932-.67q2.652-.1,5.3-.2a32.3,32.3,0,0,0,4.471-.278.957.957,0,0,0,1.425-.815c-.057-2.028-.3-4.064-.417-6.091s-.226-4.056-.312-6.086c-.171-4.027-.275-8.057-.336-12.087-.123-8.211-.1-16.421-.152-24.633-.018-2.775-.074-5.55-.141-8.324a3.625,3.625,0,0,0,.622.039c.256.008.514.023.77.023.567,0,1.137-.021,1.7-.032q.641-.01,1.284-.024a.39.39,0,0,0-.064.131,21.249,21.249,0,0,0-.437,4.179c-.089,1.353-.179,2.706-.249,4.059-.144,2.781-.268,5.563-.345,8.346-.126,4.484-.047,8.954.047,13.437.138,6.59.117,13.184.215,19.774.028,1.922.06,3.842.123,5.763q.041,1.281.1,2.561c.016.364.03.728.064,1.091a2.886,2.886,0,0,0,.125.6c-2.017.093-4.043.071-6.06.163C-7815.8-907.1-7819.733-906.942-7823.667-906.75Z" transform="translate(8555.137 10251.061)" fill="#040505"/></g></svg>