<svg xmlns="http://www.w3.org/2000/svg" xmlns:xlink="http://www.w3.org/1999/xlink" viewBox="0 0 963.41 532.53"><defs><style>.cls-1{fill:url(#linear-gradient);}.cls-2{fill:url(#linear-gradient-2);}.cls-3{font-size:200px;font-family:CodeProW01-Lowercase;}</style><linearGradient id="linear-gradient" x1="259.08" y1="-14.36" x2="-20.61" y2="470.06" gradientUnits="userSpaceOnUse"><stop offset="0" stop-color="#dc0057"/><stop offset="1" stop-color="#ffbf00"/></linearGradient><linearGradient id="linear-gradient-2" x1="390.11" y1="-151.31" x2="114.37" y2="338.91" gradientUnits="userSpaceOnUse"><stop offset="0" stop-color="#5300ef"/><stop offset="1" stop-color="#1effbc"/></linearGradient></defs><title>Asset 3</title><g id="Layer_2" data-name="Layer 2"><g id="Layer_7" data-name="Layer 7"><path class="cls-1" d="M379.2,85.55A148.72,148.72,0,0,0,326.58,25,143.7,143.7,0,0,0,262.19,1.28,228.18,228.18,0,0,0,238.27,0h-16Q10.37,0,7.36.36C3.3,1,1,3.26.36,7.17Q0,10.32,0,56.3c0,5.27.06,8.53.18,9.75,0,5.41,2.4,9,7.18,10.67,2.2.74,4.41,1.6,6.61,2.58q15.1,7.36,15.83,27.78.14,4.55.15,134.22Q30,292,30,361.78V372q-.72,24.65-18.77,33.85l-5.69,2.94a9.73,9.73,0,0,0-5.16,7.92A54.57,54.57,0,0,0,0,423q0,51.33.18,53.72Q.54,485.2,9,485.55q3.87.39,96.6.38,92.91,0,97-.38c4.65-.6,7.23-3.18,7.71-7.71l.2-4.24q0-54.47-.38-57.23v0a9.64,9.64,0,0,0-5.51-7.7l-5.16-2.4a30.64,30.64,0,0,1-16.37-18.58q-3.13-9.19-3.13-30l.18-7V328.24c0-11,.35-18.71,1-23s4-6.44,10-6.44q3-.18,52.56-.18h2.45q31.27-.36,61.63-18.22a109.49,109.49,0,0,0,18-12.14c5.9-5.15,11.65-10.37,17.31-15.64Q393,204.05,393,148.48A145.56,145.56,0,0,0,379.2,85.55ZM50.25,484.93a9.73,9.73,0,0,1-7.47-.51c-2.08-1.25-4.18-3.09-4.66-5.5-1.9-9.51-17.73-93.57,14.17-118.17,12.12-9.36,28.52-9,48.71,1.07a8.57,8.57,0,0,1,1.69.62c20.85,10.75,31.41,24.27,31.34,40.18C133.89,443.59,58.81,480.83,50.25,484.93Zm110-328c-9.61-26.95,3.86-56.48,30-65.82s55.32,5,64.94,31.92-3.86,56.5-30,65.84S169.84,183.93,160.22,157Z"/><path class="cls-2" d="M180.12,328.24c0-11,.35-18.71,1-23s4-6.44,10-6.44q3-.18,52.56-.18A194.71,194.71,0,0,0,236,269.55C274.75,197.68,313.8,99.27,300.31,11a144.19,144.19,0,0,0-38.12-9.71A228.18,228.18,0,0,0,238.27,0h-16c-61.54,48.87-103.08,130.91-129,199.35-28.89,10.58-49.18,25.41-63.32,42Q30,292,30,361.78l37.79-32.56,87.54,43.06-.45,68.08a8.88,8.88,0,0,0,3.81,7.36,8.28,8.28,0,0,0,7.52,1,3.66,3.66,0,0,0,.51-.21c.5-.22,22.6-10.19,43.41-32.16v0a9.64,9.64,0,0,0-5.51-7.7l-5.16-2.4a30.64,30.64,0,0,1-16.37-18.58q-3.13-9.19-3.13-30l.18-7ZM160.22,157c-9.61-26.95,3.86-56.48,30-65.82s55.32,5,64.94,31.92-3.86,56.5-30,65.84S169.84,183.93,160.22,157Z"/><text class="cls-3" transform="translate(224.22 485.93)">itchself</text></g></g></svg>