<svg xmlns="http://www.w3.org/2000/svg" x="0px" y="0px" width="32" height="32" viewBox="0 0 45.97 33.38"><defs><style>.cls-1{fill:#fff;}</style></defs><title>blindspot</title><g id="Layer_2" data-name="Layer 2"><g id="Layer_1-2" data-name="Layer 1"><path class="cls-1" d="M46,22.51l-.55,2.41-13-2.57v5.77l1.62-1.64,1.88,1.88-4.88,4.87L26.22,28.4,28,26.58l1.66,1.68v-9.2l2.64.51,13.33,2.65a1.56,1.56,0,0,0,.31,0Z"/><path class="cls-1" d="M46,13.71l-7,1.41-9,1.8h-.26V7.79l-1.6,1.75L26.19,7.62l4.86-4.87,4.87,4.87L34,9.5,32.52,7.84l-.09.06v5.76l13-2.57L46,13.53Z"/><path class="cls-1" d="M22.7,33.38l-1.6-2.14.16-.19a1.31,1.31,0,0,0,.22-1.5,1.34,1.34,0,0,0-1.28-.76,22.14,22.14,0,0,1-7.43-1.31A22.57,22.57,0,0,1,2.49,20C1.63,18.91.82,17.79,0,16.7c2.66-4,5.72-7.5,10.06-9.69a22.17,22.17,0,0,1,9.83-2.46,1.56,1.56,0,0,0,1.59-.78,1.37,1.37,0,0,0-.38-1.68L22.66,0A3.87,3.87,0,0,1,24.3,3.57Q24,6.29,20.89,7.19l1.87,2.73a6.86,6.86,0,0,0-5.26,2.82,6.67,6.67,0,0,0,.65,8.6,6.88,6.88,0,0,0,4.61,2.05l-1.87,2.75a4.06,4.06,0,0,1,1.81,7.24Z"/><path class="cls-1" d="M24.43,16.67c-.19,1.18-.38,2.31-.53,3.45-.06.45-.31.56-.71.58a4,4,0,0,1-2.11-7.61,4.21,4.21,0,0,1,2.26-.46.48.48,0,0,1,.53.47C24.05,14.29,24.24,15.48,24.43,16.67Z"/></g></g></svg>