<svg xmlns="http://www.w3.org/2000/svg" x="0px" y="0px" width="64" height="32" viewBox="0 0 45.37 48.1"><defs><style>.cls-1{fill:none;}.cls-2{fill:#fff;}</style></defs><title>cryptocoin</title><g id="Layer_2" data-name="Layer 2"><g id="Layer_1-2" data-name="Layer 1"><path class="cls-1" d="M27.64,1.26C16-1.89,4,5.72,1.1,18.2S5.25,43.32,17,46.47,40.6,42,43.53,29.53,39.34,4.41,27.64,1.26ZM22,45.74c-11.44,0-20.67-9.81-20.67-21.87S10.54,2,22,2s20.66,9.8,20.66,21.87S33.36,45.74,22,45.74Z"/><path class="cls-2" d="M28.22.74C16.05-2.51,3.73,5.3.68,18.2S5,44.11,17.15,47.36,41.65,42.8,44.69,29.9,40.39,4,28.22.74ZM43.53,29.53C40.6,42,28.69,49.62,17,46.47S-1.83,30.68,1.1,18.2,16-1.89,27.64,1.26,46.47,17.05,43.53,29.53Z"/><path class="cls-2" d="M10.18,31,15,28.69l0-.37-3.83-.83a.75.75,0,0,1-.63.31.89.89,0,0,1,0-1.78.69.69,0,0,1,.68.42l3.15-1.21v-.05l-6.4-1.05a.74.74,0,0,1-.32.37l2,6.13h0A2.3,2.3,0,0,1,10.18,31Z"/><path class="cls-2" d="M15.05,29.22l-4.66,2.2v.16a1.08,1.08,0,0,1-.11.42l6.3,5.45c.05,0,.05-.05.1-.05Z"/><path class="cls-2" d="M11.75,17.26a.78.78,0,0,1-.79.57.67.67,0,0,1-.31,0L7.82,23l8.07-6.08Z"/><path class="cls-2" d="M11.28,27l3.51.79-.42-2L11.28,27Z"/><path class="cls-2" d="M25.12,39l-1.78-5.61-2.83,0a.87.87,0,0,1-.79.58.9.9,0,0,1,0-1.79,1,1,0,0,1,.42.11l2.15-1.94-.1-.32-5.93-1.36-.73.37,1.67,8.28a.9.9,0,0,1,.74.79l6.87,1.36A3.82,3.82,0,0,1,25.12,39Z"/><path class="cls-2" d="M36,16.63l-4.77,2.62v.16a1.08,1.08,0,0,1-.21.58l2.57,4.82h.16l2.41-8.08C36.14,16.68,36.09,16.63,36,16.63Z"/><path class="cls-2" d="M23.92,33.46l1.73,5.41h0a.89.89,0,0,1,.52.15L31,33.73a.18.18,0,0,0-.05-.11Z"/><path class="cls-2" d="M29.16,31a.87.87,0,0,1-.84.89.85.85,0,0,1-.84-.73l-4.24-.95-.32.26.79,2.47,7.18.21a.84.84,0,0,1,.79-.63l1.57-5.82-4.14,4A.63.63,0,0,1,29.16,31Z"/><path class="cls-2" d="M21.66,25.23a.85.85,0,0,1,.42.79.84.84,0,0,1-.31.68l.89,2.83.47.11,2.36-2.15a.72.72,0,0,1,0-.32.88.88,0,0,1,.84-.89h.1l3.41-6.35-7.45,2.84Z"/><polygon class="cls-2" points="20.2 26.17 15.37 25.39 14.9 25.6 15.37 27.91 16.21 28.11 20.2 26.17"/><path class="cls-2" d="M13.17,22.92A.87.87,0,0,1,14,22h.15l2.36-4.61a2,2,0,0,0-.26-.11L7.92,23.55v.11l6.24,1L14,23.76A.8.8,0,0,1,13.17,22.92Z"/><path class="cls-2" d="M20.51,32.63s0,.1,0,.21l2.62,0-.68-2.05Z"/><path class="cls-2" d="M21.87,22.4l1.1-4a1.18,1.18,0,0,1-.36-.47l-5.25-.84a.92.92,0,0,1-.31.31l-2.52,4.93a.83.83,0,0,1,.21.63.93.93,0,0,1-.37.74l.21,1.15.63.11Z"/><path class="cls-2" d="M21.14,25.13l.58-2.1-5.35,2,4.09.68A.82.82,0,0,1,21.14,25.13Z"/><path class="cls-2" d="M29,12.69l1.73,5.88a1.07,1.07,0,0,1,.37.21l4.77-2.62v-.27l-6.76-3.3Z"/><path class="cls-2" d="M20.72,10.49h-.11l-2.72,5.35,9.7-3.77h0V12l-6.14-2A.88.88,0,0,1,20.72,10.49Z"/><path class="cls-2" d="M15.89,16.37a.83.83,0,0,1,1.37-.48l2.88-5.66h0l-8.39,6.45v.11Z"/><path class="cls-2" d="M20.61,26.59l-3.56,1.68,5,1.1-.79-2.51h0A.68.68,0,0,1,20.61,26.59Z"/><path class="cls-2" d="M30.21,20.25l-3.35,6.29a.91.91,0,0,1,.26.63.88.88,0,0,1-.84.89.78.78,0,0,1-.47-.16l-2,1.84,3.83.84a.85.85,0,0,1,.73-.52.9.9,0,0,1,.48.15L33.1,26a.92.92,0,0,1-.11-.37,1.16,1.16,0,0,1,.21-.58l-2.57-4.82h-.16C30.37,20.3,30.32,20.25,30.21,20.25Z"/><path class="cls-2" d="M22.61,17.31a.82.82,0,0,1,1.62.21.86.86,0,0,1-.78.89l-1,3.73,7.13-2.73v-.05a.92.92,0,0,1,.53-.84l-1.68-5.67h-.05a.93.93,0,0,1-.69-.36l-10.17,4h0Z"/><path class="cls-2" d="M22,2C10.54,2,1.31,11.8,1.31,23.87S10.54,45.74,22,45.74s20.66-9.81,20.66-21.87S33.36,2,22,2ZM36.66,15.11a.89.89,0,0,1,0,1.78L34.3,25a.92.92,0,0,1,.37.73.88.88,0,0,1-.84.89h0l-1.57,6a.91.91,0,0,1,.36.73.87.87,0,0,1-.84.89.76.76,0,0,1-.36-.1L26.44,39.5c0,.1,0,.15,0,.26a.88.88,0,0,1-.84.89.84.84,0,0,1-.79-.63l-7-1.42a.83.83,0,0,1-1.58-.42.43.43,0,0,1,.06-.26L10,32.42a.81.81,0,0,1-.37.1.88.88,0,0,1-.84-.89A1,1,0,0,1,9,31l-2-6.3a.86.86,0,0,1-.73-.89.87.87,0,0,1,.83-.89h.11l3-5.45a.84.84,0,0,1-.16-.48.88.88,0,0,1,.84-.89.78.78,0,0,1,.47.16l8.45-6.5V9.55a.87.87,0,0,1,.84-.89.85.85,0,0,1,.84.73l6.24,2a.8.8,0,0,1,.68-.37.88.88,0,0,1,.84.89v0L36,15.37A.87.87,0,0,1,36.66,15.11Z"/><path class="cls-2" d="M11.28,27Z"/></g></g></svg>