<svg xmlns="http://www.w3.org/2000/svg" x="0px" y="0px" width="64" height="32" viewBox="0 0 48 43.58"><defs><style>.cls-1{fill:#fff;}</style></defs><title>portfolio</title><g id="Layer_2" data-name="Layer 2"><g id="Layer_1-2" data-name="Layer 1"><rect class="cls-1" x="18.32" y="28.42" width="11.37" height="6.95"/><path class="cls-1" d="M31.58,32.84v3.35a1,1,0,0,1-.89,1.07H17.31a1,1,0,0,1-.89-1.07V32.84H3a5.39,5.39,0,0,1-3-1.51v8.84c0,1.58,1.39,3.41,3,3.41H45c1.58,0,3-1.83,3-3.41V31.33a5.39,5.39,0,0,1-3,1.51Z"/><path class="cls-1" d="M45,8.84H3a2.74,2.74,0,0,0-3,2.59V27.54C0,29.12,1.39,31,3,31H16.42V27.28c0-.5.38-.75.89-.75H30.69c.51,0,.89.25.89.75V31H45c1.58,0,3-1.83,3-3.41V11.43A2.74,2.74,0,0,0,45,8.84Z"/><path class="cls-1" d="M34.74,7.58V4.67A4.6,4.6,0,0,0,29.87,0H18.13a4.6,4.6,0,0,0-4.87,4.67V7.58h2.53V4.67a2.07,2.07,0,0,1,2.34-2.14H29.87a2.07,2.07,0,0,1,2.34,2.14V7.58Z"/></g></g></svg>