<?xml version="1.0" encoding="utf-8"?>
<!-- Generator: Adobe Illustrator 23.0.0, SVG Export Plug-In . SVG Version: 6.00 Build 0)  -->
<svg version="1.1" id="b64b805f-e6f6-44d8-97ce-775b67d7efb4"
	 xmlns="http://www.w3.org/2000/svg" xmlns:xlink="http://www.w3.org/1999/xlink" x="0px" y="0px" viewBox="0 0 180 140"
	 style="enable-background:new 0 0 180 140;" xml:space="preserve">
<style type="text/css">
	.st0{fill:#E6E6E6;}
	.st1{fill:#C69400;}
	.st2{fill:#1C50FC;}
	.st3{fill:#00EAA3;}
	.st4{fill:#0C0710;}
	.st5{fill:#F58EAB;}
	.st6{fill:#DE3177;}
	.st7{fill:#5300EF;}
</style>
<title>the_world_is_mine</title>
<path class="st0" d="M48.3,105.2c0,0,0.4-9.6,9.6-8.5"/>
<path class="st0" d="M48.1,137.6c0-0.1-1.1-10.1,3.3-15.4c1.6-1.9,3.8-3,6.4-3.2l0,0.4c-2.5,0.2-4.6,1.2-6.1,3.1
	c-4.3,5.2-3.2,15-3.2,15.1L48.1,137.6z"/>
<rect x="47.8" y="95.4" class="st0" width="0.4" height="42"/>
<circle class="st1" cx="48.3" cy="92.5" r="3.1"/>
<circle class="st0" cx="57.8" cy="119.2" r="3.1"/>
<path class="st2" d="M153.5,36.5v0.2c0,0.5,0,1,0,1.5c-1,18.9-17.1,33.4-35.9,32.5c-17.4-0.9-31.3-14.7-32.4-32
	c0-0.7-0.1-1.5-0.1-2.2c0-7.1,2.2-14,6.3-19.8c0.3-0.5,0.7-0.9,1-1.4c0.2-0.3,0.5-0.6,0.8-0.9c12-14.2,33.2-16.3,47.7-4.5
	c0.4,0.3,0.8,0.7,1.2,1c0.3,0.3,0.6,0.6,0.9,0.9c6,5.8,9.7,13.5,10.4,21.8C153.5,34.6,153.5,35.6,153.5,36.5z"/>
<path class="st3" d="M92.4,15.4C92.4,15.4,92.4,15.4,92.4,15.4c0.2,0.2,0,0.5,0,0.7c0,0.3,0.4,0.4,0.8,0.4c0.3,0,0.7,0.3,0.6,0.6
	c-0.8,0.3-1.6,0-2.4-0.3c-4.1,5.8-6.3,12.7-6.3,19.8c0,0.7,0,1.5,0.1,2.2c0.1,0,0.1,0.1,0.2,0.1c0.2,0.1,0.5,0.1,0.7,0.2
	c0.2,0.1,0.3,0.3,0.5,0.4c0.5,0.3,1.2-0.2,1.6,0.1c0.1,0.1,0.2,0.2,0.3,0.3c0.4,0.4,1.1,0.1,1.6,0.4c0.3,0.2,0.5,0.5,0.6,0.8
	c0.4,0.8,1.1,1.6,2,1.6c0.3,0,0.6,0,0.8,0c0.3,0.1,0.5,0.3,0.5,0.6c-0.1,0.5,0.2,1,0.1,1.5c-0.1,0.9-1.4,1.3-1.5,2.1
	c0,0.2,0,0.4,0,0.6c-0.1,0.2-0.2,0.4-0.3,0.6c-0.1,0.4,0.2,0.9,0.5,1.2c0.3,0.3,0.7,0.5,0.9,0.9c0.2,0.4,0.1,0.9,0.2,1.4
	c0.1,1,1,1.8,1.9,2.3c0.3,0.1,0.5,0.3,0.8,0.5c0.2,0.3,0.2,0.8,0.3,1.2c0.2,1,1,1.8,1,2.8c0,0.7-0.4,1.4-0.6,2
	c-0.2,0.7-0.3,1.5-0.2,2.2c1.3,1.1,2.7,2.2,4.2,3.1c0.1-0.1,0.1-0.3,0.2-0.4c0.1-0.3-0.1-0.6-0.4-0.8c0.3-0.1,0.5-0.2,0.7-0.4
	c0.2-0.2,0.2-0.5,0.1-0.7c0.4,0.1,0.9,0.1,1.2-0.2c0.2-0.3,0.2-0.6,0.1-0.9c-0.1-0.3-0.2-0.6-0.2-1c0.9,0,1.9,0,2.8-0.1
	c-0.1-0.5-0.4-0.9-0.9-1.1c0.4-0.1,0.8-0.6,1-1c0.1-0.4,0.1-0.9,0-1.3c0-0.1,0-0.2,0-0.3c0.1-0.1,0.2-0.3,0.3-0.3
	c0.7-0.4,1.4-0.8,2.1-1.2c0.1-0.1,0.2-0.1,0.3-0.2c0.2-0.3,0.2-0.7,0.1-1c-0.1-0.3-0.3-0.6-0.3-1c-0.1-1,1-1.7,1.3-2.7
	c0.1-0.4,0.2-0.8,0.2-1.2c0-0.4,0-0.9-0.3-1.2c-0.3-0.3-0.8-0.2-1.1-0.5c-0.3-0.2-0.4-0.7-0.7-0.9c-0.3-0.2-0.7-0.1-1-0.1
	c-0.6-0.1-1-0.8-1.6-0.9c-0.3,0-0.7,0.1-1-0.1c-0.2-0.2-0.3-0.5-0.3-0.8c-0.2-1-0.9-1.7-1.9-1.9c-0.4-0.1-0.7,0-1-0.2
	c-0.3-0.2-0.4-0.6-0.7-0.8c-0.4-0.4-1-0.6-1.6-0.7c-0.8-0.2-1.5-0.4-2.3-0.5c-0.4-0.1-0.9-0.1-1.2,0.2c-0.1,0.1-0.1,0.3-0.1,0.4
	c-0.2,0.6-0.7,0.9-1.3,0.9c-0.2-0.3-0.5-0.6-0.9-0.7c-0.2,0-0.5-0.1-0.7-0.2c-0.5-0.2-0.7-0.8-0.5-1.3c0,0,0,0,0,0
	c0.3-0.5,0.2-1.1-0.2-1.5c-0.4-0.4-1-0.4-1.5-0.4c-0.1-0.3,0.1-0.6,0.3-0.9c0.2-0.2,0.5-0.4,0.6-0.8c0.1-0.5-0.6-0.9-1.1-0.8
	c-0.5,0.2-0.8,0.6-1,1.1c-0.1,0.3-0.2,0.5-0.4,0.8c-0.2,0.2-0.5,0.4-0.8,0.3c-0.4-0.1-0.6-0.6-0.7-1c-0.1-0.5-0.2-1.1-0.2-1.7
	c0-0.6,0.2-1.1,0.6-1.5c0.7-0.6,1.7-0.6,2.6-0.5c-0.2-0.3-0.2-0.6,0.1-0.9c0.2-0.2,0.6-0.3,0.9-0.2c0.3,0.1,0.5,0.2,0.7,0.4
	c0.3,0.3,0.3,0.7,0.5,1.1c0.2,0.4,0.6,0.7,1,0.5c0.3-0.2,0.4-0.6,0.3-0.9c-0.1-0.3-0.2-0.7-0.2-1c0.1-0.7,0.8-1.1,1.4-1.4
	c0.6-0.3,1.3-0.7,1.4-1.3c0-0.1,0-0.3,0.1-0.4c0.1-0.1,0.2-0.2,0.3-0.3c1.8-1.2,3.6-2.4,5.7-3c0.1,0,0.1,0,0.2,0
	c0.2-0.1,0.1-0.3-0.1-0.4c-0.1-0.1-0.3-0.2-0.4-0.3c0-0.1,0-0.3,0.1-0.4c0-0.3-0.2-0.5-0.4-0.5c-0.1,0-0.1,0-0.2,0
	c-0.2-0.2,0.2-0.5,0.4-0.5c0.8-0.2,1.6-0.4,2.4-0.4c0.1,0,0.2,0,0.3,0c0.1,0.1,0.1,0.3,0,0.5c-0.1,0.1-0.2,0.2-0.4,0.3
	c-0.3,0.3-0.4,0.7-0.3,1c0.4,0.2,0.9,0.4,1.4,0.4c0.5-0.1,0.9-0.6,0.7-1c-0.2-0.4-0.8-0.5-0.9-0.9c-0.1-0.5,0.6-1,0.4-1.5
	c-0.1-0.2-0.3-0.3-0.5-0.5c-0.4-0.4-0.5-1-0.3-1.5c-0.6,0.1-1.1-0.1-1.5-0.5c-0.4-0.4-0.7-0.9-1.2-0.9c-0.5,0-0.9,0.6-1.3,0.4
	c-0.1,0-0.2-0.1-0.3-0.1c-0.1,0-0.1,0.1-0.1,0.2c-0.1,0.5,0.1,1.2-0.2,1.6c-0.3,0.5-1.1,0.6-1.4,1c-0.2,0.2-0.3,0.6-0.5,0.8
	c-0.2,0.3-0.6,0.4-0.8,0.2c0.2-0.5,0.1-1.1-0.3-1.4c-0.2-0.1-0.4-0.3-0.7-0.3c-0.3-0.1-0.5-0.3-0.8-0.4c-0.1-0.1-0.2-0.2-0.3-0.3
	c-0.1-0.2,0-0.3,0-0.5c0.2-0.7,0.8-1.2,1.6-1.3c0.3,0,0.7,0,0.9-0.3c0.1-0.1,0.2-0.3,0.3-0.4c0.1,0,0.2,0,0.3,0
	c0.4,0.1,0.8,0.3,1.2,0.4c0.1,0.1,0.3,0.1,0.4,0.1c0.1,0,0.2-0.1,0.2-0.3c0-0.2-0.3-0.3-0.3-0.5c0-0.1,0-0.1,0.1-0.2
	c0.8-0.9,2-1.4,3.3-1.3c0.1,0.2-0.1,0.5-0.3,0.7c-0.2,0.2-0.3,0.6-0.1,0.7c0.1,0,0.2,0.1,0.3,0.1c0.3,0,0.6,0.1,0.8,0.2
	c0.4,0.2,0.8,0.4,1.2,0.6c-0.1-0.2,0-0.5,0-0.8c0.1-0.2,0.3-0.4,0.6-0.3c0.2,0.1,0.3,0.4,0.6,0.4c0.3,0,0.5-0.4,0.3-0.7
	c-0.1-0.3-0.4-0.5-0.4-0.9c0-0.2,0.1-0.5-0.1-0.6c-0.1,0-0.1-0.1-0.2-0.1c-1.5-0.3-2.9-0.5-4.4-0.8c-0.3,0-0.6,0-0.6,0.3
	c0,0.1,0.1,0.3,0.1,0.4c-0.1,0.1-0.3,0.1-0.4,0.2c-0.2,0.1-0.4,0.3-0.3,0.6c0,0.2,0.1,0.5,0.3,0.7c-0.3-0.1-0.7-0.1-1-0.3
	c0-0.3-0.1-0.7-0.3-1c0-0.2-0.2-0.3-0.4-0.3c0,0,0,0-0.1,0c-0.4,0.1-0.8,0.1-1.1,0.2c-0.1,0-0.2,0-0.3,0.1c-0.1,0.2,0,0.4,0,0.6
	c0,0.2-0.2,0.4-0.4,0.5c-0.2,0-0.5,0-0.7,0c-0.5-0.1-1.1-0.2-1.6-0.2c0.5-0.1,0.9-0.4,1.2-0.8c0.2-0.2,0.3-0.7,0-0.8
	c-0.1,0-0.2,0-0.3,0c-0.7,0-1.3-0.6-2-0.8c-0.2-0.1-0.4-0.1-0.7-0.1L92.4,15.4z"/>
<path class="st3" d="M153.5,38.3c-0.2,0.2-0.4,0.4-0.7,0.3c-0.7-0.1-1-1.1-1.8-1.2c-0.1,0-0.1,0-0.2,0c-0.1,0.1-0.1,0.2-0.1,0.3
	c0,0.6-0.1,1.2,0.2,1.8c0.3,0.8,1.2,1.5,1,2.4c-1-0.5-1.5-1.6-1.8-2.7c-0.2-1.1-0.3-2.2-0.7-3.2c-0.3,0.4-1,0.1-1.3-0.4
	c-0.3-0.4-0.5-0.9-0.7-1.3c-0.3-0.4-0.7-0.8-1.2-0.8c-0.5,0-1,0.3-1.4,0.7c-0.3,0.3-0.6,0.6-0.9,0.9c-0.3,0.6-0.2,1.2-0.2,1.8
	c0,0.7-0.2,1.4-0.6,1.9c-0.5,0.5-1.3,0.7-1.8,0.2c-0.2-0.3-0.4-0.6-0.5-0.9c-0.5-1.6-1-3.2-1.4-4.9c-0.1,0.4-0.4,0.9-0.7,0.6
	c-0.1-0.1-0.1-0.1-0.2-0.2c-0.6-1-1.7-1.6-2.8-2c-1.1-0.4-2.3-0.5-3.4-0.9c-0.6-0.2-1.2-0.5-1.7-0.9c-0.3,0.4-0.3,1-0.1,1.4
	c0.3,0.4,0.8,0.7,1.3,0.5c0.2-0.1,0.4-0.2,0.7-0.3c0.2-0.1,0.6,0,0.7,0.2c0.1,0.2-0.1,0.5,0,0.7c0.1,0.4,0.6,0.4,0.8,0.7
	c0.1,0.3,0,0.6-0.2,0.8c-0.2,0.2-0.5,0.3-0.7,0.4c-0.8,0.4-1.3,1.2-2,1.8c-0.7,0.6-1.7,1-2.5,0.6c0.2-1-1-1.7-1.2-2.7
	c-0.1-0.3,0-0.7-0.1-1c-0.1-0.5-0.6-0.8-0.9-1.1c-0.8-0.9-1.2-2-1.2-3.2c0-0.4,0.1-0.8,0-1.2c-0.1-0.4-0.4-0.8-0.8-0.8
	c-0.9,0-2.1,0.1-2.6-0.7c-0.2-0.3-0.2-0.7,0-0.9c0.2-0.2,0.4-0.1,0.7-0.1c0.7,0.1,1.4,0.1,2.1,0.2c0.5,0,1,0.1,1.4-0.2
	c0.4-0.3,0.6-0.9,0.2-1.2c-0.3-0.2-0.8-0.2-0.9-0.6c-0.1-0.3,0.3-0.6,0.1-0.9c-0.1-0.2-0.4-0.1-0.6,0c-0.1,0.2-0.3,0.3-0.5,0.4
	c-0.3,0.2-0.7,0-1.1-0.1c-0.4-0.1-0.8-0.1-1,0.2c-0.2,0.4,0.2,0.9,0,1.2c-0.3,0.5-1.1,0.2-1.5,0.6c-0.4,0.5,0.3,1.2,0.1,1.8
	c-0.4,0.2-0.8,0.2-1.1-0.1c-0.3-0.2-0.5-0.6-0.5-1c0-0.3,0.2-0.6,0.1-0.8c-0.1-0.2-0.3-0.4-0.5-0.4c-0.7-0.4-1.4-0.7-2-1.1
	c-0.2,0.3,0,0.8,0.3,1c0.3,0.3,0.7,0.5,0.9,0.8c0.3,0.5,0.1,1.1-0.4,1.4c-0.1,0-0.1,0.1-0.2,0c-0.1,0-0.1-0.1-0.1-0.2
	c-0.4-0.9-0.9-1.8-1.8-2.3c-0.9-0.5-2.1-0.4-2.7,0.4c-0.1,0.2-0.2,0.4-0.3,0.6c-0.6,1.1-1.9,1.6-3.2,1.5c-0.1,0-0.2,0-0.3-0.1
	c-0.2-0.1-0.2-0.4-0.2-0.7c0-0.3,0.1-0.7,0.1-1c0-0.2,0.1-0.4,0.2-0.6c0.2-0.2,0.6-0.1,0.9-0.1c0.5,0,0.8-0.3,1-0.8
	c0.1-0.4,0-0.9-0.3-1.2c-0.1-0.1-0.3-0.3-0.2-0.5c0.1-0.1,0.2-0.2,0.3-0.2c0.5-0.2,1.1-0.2,1.6-0.4c0.5-0.2,1-0.5,1.1-1.1
	c0-0.2,0.1-0.4,0.2-0.4c0.1,0,0.2,0,0.2,0c0.6-0.1,1-0.6,1-1.2c0.2-0.2,0.6,0,0.8,0.1c0.2,0.2,0.4,0.4,0.7,0.5
	c0.5,0.1,1.1-0.3,1.6-0.3c0.2,0,0.5,0.1,0.7,0c0.2-0.1,0.4-0.3,0.5-0.5c0.2-0.2,0.5-0.3,0.6-0.1c0-0.3-0.1-0.7-0.1-1
	c0.6,0.1,1.1,0,1.6-0.3c-0.6-0.2-1.2-0.4-1.8-0.6c-0.1,0-0.1,0-0.2-0.1c-0.1-0.1,0-0.4,0.1-0.5c0.2-0.4,0.3-1-0.1-1.2
	c-0.3-0.1-0.6,0-0.9,0.2c-0.4,0.2-0.9,0.5-1.3,0.7c0,0.2,0.3,0.4,0.4,0.5c0.3,0.3,0.3,0.7,0.1,1c-0.1,0.2-0.3,0.2-0.5,0.2
	c0.2,0.2,0.2,0.5,0.2,0.8c-0.3,0-0.6,0-0.9,0.1c-0.1,0-0.2,0-0.3-0.1c-0.1-0.1-0.1-0.2-0.1-0.3c-0.1-0.3-0.3-0.5-0.6-0.6
	c-0.3,0-0.6,0-0.9,0.1c-0.1,0-0.3,0-0.4,0c-0.1,0-0.1-0.1-0.1-0.2c-0.1-0.3,0-0.7,0.2-0.9c0.2-0.2,0.5-0.5,0.7-0.7
	c0.6-0.5,1-1.2,1.3-2c0.5-0.2,1-0.5,1.4-0.7c0.4-0.2,0.8-0.3,1.2-0.4c0.4-0.1,0.8-0.1,1.2-0.1c0.5,0,1.1,0,1.6,0c0.5,0,1,0,1.4,0.2
	c0.4,0.2,0.8,0.6,0.9,1.1c0,0.1,0,0.2-0.1,0.3c-0.1,0-0.1,0.1-0.2,0c-0.4,0-0.6,0.1-1.1,0.1c0.3,0.3,0.6,0.6,1,0.7
	c0.7,0.1,1.2-0.7,1.6-1.3c0,0.3,0.3,0.6,0.7,0.6c0.2,0,0.3-0.1,0.5-0.2c1.4-0.8,3-1.2,4.7-1.2c0-0.3,0.1-0.5,0.4-0.6
	c0.3-0.1,0.6,0.2,0.8,0.5c0.2,0.3,0.3,0.6,0.5,0.9c0.3,0.2,0.7,0.2,0.8-0.1c0.1-0.3-0.2-0.6-0.5-0.8c-0.3-0.2-0.6-0.5-0.4-0.8
	c1.4-0.3,2.8-0.6,4.2-0.7c0.2,0,0.5,0,0.7-0.1c0.2-0.1,0.4-0.3,0.3-0.6c-0.6,0.1-1.3-0.1-1.7-0.6c1.4-0.1,3-0.2,4.3,0.1l1.2,1
	c-0.2,0.2-0.5,0.5-0.4,0.7c0.1,0.1,0.3,0.2,0.4,0.1c0.3,0,0.6,0,0.9,0c6,5.8,9.7,13.5,10.4,21.8c-0.5,0-0.9,0.6-0.9,1.1
	c0.1,0.6,0.5,1.1,0.9,1.7c0.1,0.1,0.1,0.2,0.1,0.3L153.5,38.3z"/>
<circle class="st4" cx="108.2" cy="64.3" r="5.9"/>
<path class="st5" d="M105.4,67.3c0,0-1.9,4.2-2.5,4.4c-0.5,0.1,4.5,2.6,4.5,2.6s1-5.2,1.4-5.5C109.2,68.5,105.4,67.3,105.4,67.3z"/>
<polygon class="st5" points="94,102.1 90.5,112.1 94.3,113.6 100.9,100.6 "/>
<path class="st5" d="M106.5,102.4c0,0,7.1,10,7.5,10.1c0.4,0.1,3.3-2.3,3.3-2.3s-3.6-8.6-4.7-9C111.6,100.7,106.5,102.4,106.5,102.4
	z"/>
<path class="st4" d="M89.9,110.3L84.3,125c0,0,0.4,0.8,0,1c-0.4,0.1-1.4,2.3-1.4,2.5s-1,0.3-1,0.7c0,0.4-0.8,3.7-0.8,3.7
	s1.5,3.3,2.5,2.3c1-1,1.4-2.9,1.4-2.9l1.4-3.6c0,0-0.1-1.9,0.8-2.2c1-0.3,1.5-3.7,1.5-3.7s1.5-1.5,1.8-1.9c0.3-0.4,5.1-7.7,4.7-7.8
	C94.7,112.9,89.9,110.3,89.9,110.3z"/>
<path class="st4" d="M113.2,112.2l4.1-2.7c0,0,7.1,13,7.1,13.3c0,0.3-0.3,1.1,0,1.4c0.3,0.3,2.6,4.7,4.1,5.1
	c1.5,0.4,1.8,2.1,0.5,2.3s-2.9,1-3.3,0c-0.2-0.6-0.5-1.1-0.8-1.6c0,0-1.4,0.4-1.5,0.1c-0.2-0.4-0.3-0.8-0.4-1.2c0,0-1.1-1.9-1.1-2.6
	s-0.7-0.8-0.7-0.8s-1.5-3.6-2.5-4.1c-1-0.5-1.8-3.3-1.8-3.3L113.2,112.2z"/>
<circle class="st5" cx="108.3" cy="66.5" r="4"/>
<path class="st6" d="M96.5,90.6c0,0-5.9,15.6-5.1,15.6c0.8,0,23.5,0.5,24.2-0.6c0.7-1.1-5.9-12-6.2-12.1S96.5,90.6,96.5,90.6z"/>
<path class="st5" d="M90.6,58l-4.1-6.3c0,0,1-6.6-0.4-5.4c-1.4,1.2-1.8,6.2-1.8,6.2l4.8,7.2L90.6,58z"/>
<path class="st5" d="M127.9,69.5l3.7-0.3c0,0,4.4-4.7,4.7-3.1s-3.6,4.8-3.6,4.8l-5.1,0.5L127.9,69.5z"/>
<path class="st7" d="M100.9,70.9v-1.4c0,0-3.6-2.3-3.4-2.7c0.1-0.4-0.3-0.7-0.3-0.7s-0.4-0.5-0.4-0.7s-0.5-0.3-0.5-0.3l-3.4-4
	c0,0-1.9-3.8-2.3-3.7c-0.4,0.1-2.6,1-2.3,1.5c0.3,0.5,7.9,12.3,7.9,12.3s0.4,2.6,1.1,2.6C97.9,73.9,100.9,70.9,100.9,70.9z"/>
<path class="st7" d="M110.1,72.5c0,0,3-0.1,3.1,0c0.1,0.1,2.1,0,2.1,0s5.2-1.2,5.6-1.6c0.4-0.4,7.3-2.2,7.5-1.4
	c0.3,0.8,1,2.5,0.3,2.7c-0.7,0.3-19.2,4.9-19.2,4.9L110.1,72.5z"/>
<circle class="st4" cx="106.2" cy="58.1" r="2.4"/>
<path class="st4" d="M102.9,56.8c0-1.2,0.9-2.3,2.2-2.4c-0.1,0-0.2,0-0.3,0c-1.3,0-2.4,1.1-2.4,2.4c0,1.3,1.1,2.4,2.4,2.4
	c0,0,0,0,0,0c0.1,0,0.2,0,0.3,0C103.9,59.1,102.9,58.1,102.9,56.8z"/>
<ellipse class="st4" cx="108.9" cy="63.1" rx="4.1" ry="2.4"/>
<path class="st7" d="M104.2,69.4c0,0-1.2,1-1.5,1.1c-0.3,0.1-1.9-1.2-2.2-1.2s-3.8,4.1-3.8,4.1s0.7,0.8,0,4.7
	c-0.2,1.5-0.7,7.7-0.7,8.5s-2.7,2.8-0.2,4.6c2.5,1.8,14.2,3.7,14.4,2.6c0.1-1.1-1.4-4-0.7-5.3s0.7-6.4,0.7-6.4l0.8-5.3l0.7-4.2
	c0,0-3.2-0.9-3.5-0.9C107.9,71.6,106.6,73.5,104.2,69.4z"/>
<rect x="26.9" y="137.3" class="st4" width="126" height="0.4"/>
</svg>
