<?xml version="1.0" encoding="utf-8"?>
<!-- Generator: Adobe Illustrator 23.0.0, SVG Export Plug-In . SVG Version: 6.00 Build 0)  -->
<svg version="1.1" id="bf74385c-6483-43b7-aa3a-5b28e4e3e168"
	 xmlns="http://www.w3.org/2000/svg" xmlns:xlink="http://www.w3.org/1999/xlink" x="0px" y="0px" viewBox="0 0 180 140"
	 style="enable-background:new 0 0 180 140;" xml:space="preserve">
<style type="text/css">
	.st0{fill:#E6E6E6;}
	.st1{fill:#F58EAB;}
	.st2{fill:#001B76;}
	.st3{fill:#0C0710;}
	.st4{fill:#FFBF00;}
	.st5{fill:#002EC1;}
	.st6{fill:#6C63FF;}
	.st7{fill:#DC0057;}
	.st8{fill:#1EFFBC;}
	.st9{fill:#E83F6F;}
	.st10{fill:#FFFFFF;}
	.st11{fill:#5300EF;}
</style>
<ellipse class="st0" cx="27.2" cy="125.8" rx="25.2" ry="1.9"/>
<path class="st1" d="M35.3,41.3l-10.1-2.7c2.7-2.5,3.9-4.9,3.5-7.2h6.6V41.3z"/>
<polygon class="st2" points="36.4,118.5 33.1,119 29.2,83 23,118.8 19.6,119 19.6,73.5 40.4,73.5 "/>
<path class="st3" d="M21.3,125.8L21.3,125.8c1.1,0,2-0.7,2.3-1.7l0.2-3.5l-0.5-2.5c-1.3-1-2.5-1-3.8,0l-0.4,5.3
	c-0.1,1.3,0.8,2.4,2.1,2.5C21.2,125.8,21.3,125.8,21.3,125.8z"/>
<path class="st3" d="M34.7,125.8L34.7,125.8c1.1,0,2-0.7,2.3-1.7l0.2-3.5l-0.5-2.5c-1.3-1-2.5-1-3.8,0l-0.4,5.3
	c-0.1,1.3,0.8,2.4,2.1,2.5C34.7,125.8,34.7,125.8,34.7,125.8z"/>
<circle class="st1" cx="34" cy="30.3" r="5.8"/>
<path class="st4" d="M41.3,74.3H19.2C22,61,22,50.3,19.7,41.6c-0.3-1.1,0.3-2.3,1.4-2.7l6-2.3c1.8,2.3,4.3,3.3,8.2,1.8l3.1,0.6
	c1.6,0.3,2.7,1.8,2.6,3.4c-0.2,3.4-0.1,6.8-0.3,9.7C40.1,61.3,39.8,68.4,41.3,74.3z"/>
<path class="st3" d="M30.9,22.7c0,0,3.4-3.8,7.3-0.2l1.1,0.3l-0.8,0.6c0,0,4,1.8,3.7,5.6c0,0-0.6-0.2-0.9,0
	c-0.3,0.2-0.5,1.8-0.5,1.8s-0.5-1.2-0.6-1.4c-0.2-0.2-2.3,1.7-5.8-1.1c0,0-1.1,2.7-2.3,2.4c-1.2-0.3-2.9-0.2-3.7,1.8
	C28.5,32.8,24.3,23.9,30.9,22.7z"/>
<path class="st1" d="M42.4,70.9l-2,2.6c-0.8,1.1-0.6,2.8,0.5,3.6c0,0,0,0,0,0l0,0c1.2,0.8,2.8,0.6,3.6-0.6c0.2-0.3,0.4-0.7,0.5-1.1
	l0.6-3.5l1.1-15.1l-0.8-7.6L41,51.1l1.4,6.6V70.9z"/>
<path class="st4" d="M40.4,52.9l6-2.7L46,48c0-3.7-2.3-7-5.7-8.3L38.5,39L40.4,52.9z"/>
<path class="st1" d="M18.7,70.3l2,2.6c0.8,1.1,0.6,2.8-0.5,3.6c0,0,0,0,0,0l0,0c-1.2,0.8-2.8,0.6-3.6-0.6c-0.2-0.3-0.4-0.7-0.5-1.1
	l-0.6-3.5l-1.1-15.1l0.8-7.6l4.9,1.8L18.7,57V70.3z"/>
<path class="st4" d="M20.7,52.3l-6-2.7l0.3-2.2c0-3.7,2.3-7,5.7-8.3l1.8-0.7L20.7,52.3z"/>
<path class="st0" d="M176.5,110.7H74.7c-0.9,0-1.6-0.7-1.6-1.6V64.8c0-0.9,0.7-1.6,1.6-1.6h101.8c0.9,0,1.6,0.7,1.6,1.6v44.3
	C178.1,110,177.4,110.7,176.5,110.7z M74.7,63.8c-0.5,0-1,0.4-1,1v44.3c0,0.5,0.4,1,1,1h101.8c0.5,0,1-0.4,1-1V64.8c0-0.5-0.4-1-1-1
	H74.7z"/>
<path class="st0" d="M78.8,68.6c-0.5,0-1,0.4-1,1c0,0.5,0.4,1,1,1h13.5c0.5,0,1-0.4,1-1c0-0.5-0.4-1-1-1H78.8z"/>
<path class="st0" d="M171.1,75.3v17.9H80.2v-9.4c0.6-0.4,1.3-0.8,1.9-1.2c2.7-1.7,5.6-3.2,8.8-3.8c1.5-0.3,3-0.3,4.6-0.1
	c1.6,0.3,3.1,0.8,4.6,1.4c1.5,0.5,3,1.1,4.5,1.4c1.5,0.3,3.1,0.3,4.6,0.1c2.9-0.4,5.7-1.6,8.4-2.7c2.8-1.1,5.6-2.1,8.6-2.2
	c2.9-0.1,5.8,0.6,8.6,1.4c5.7,1.8,11.5,4.4,17.5,2.6c6.1-1.8,11.7-7,18.5-5.5C171,75.2,171.1,75.3,171.1,75.3z"/>
<path class="st5" d="M171.1,75.6c-0.1,0.1-0.2,0.2-0.3,0.1c-0.8-0.2-1.6-0.3-2.5-0.3c-6.7,0.1-11.8,5.5-18.3,6.3
	c-5.9,0.7-11.4-2.1-16.9-3.6c-2.9-0.8-5.8-1.2-8.8-0.7c-2.9,0.5-5.7,1.7-8.4,2.8c-2.7,1-5.4,2-8.3,2c-3.2,0.1-6-1.3-9-2.2
	c-1.5-0.5-3.1-0.9-4.7-1c-1.6,0-3.1,0.2-4.6,0.7c-3.1,1-5.9,2.8-8.7,4.5c0,0-0.1,0-0.2,0c-0.2,0-0.3-0.2-0.3-0.3
	c0-0.1,0.1-0.2,0.1-0.2l0.1-0.1c0.6-0.4,1.3-0.8,1.9-1.2c2.7-1.7,5.6-3.2,8.8-3.8c1.5-0.3,3-0.3,4.5-0.1c1.6,0.3,3.1,0.8,4.6,1.4
	c1.5,0.5,3,1.1,4.5,1.4c1.5,0.3,3.1,0.3,4.6,0.1c2.9-0.4,5.7-1.6,8.4-2.7c2.7-1.1,5.6-2.1,8.5-2.2c2.9-0.1,5.8,0.6,8.6,1.4
	c5.7,1.8,11.5,4.4,17.5,2.6c6.1-1.8,11.7-7,18.5-5.5c0.1,0,0.1,0,0.2,0.1C171.1,75.4,171.1,75.5,171.1,75.6z"/>
<circle class="st6" cx="92.7" cy="79" r="1.3"/>
<circle class="st6" cx="126.3" cy="77.2" r="1.3"/>
<circle class="st6" cx="167.3" cy="75.5" r="1.3"/>
<path class="st0" d="M92,100.7c-0.5,0-1,0.4-1,1c0,0.5,0.4,1,1,1h13.5c0.5,0,1-0.4,1-1c0-0.5-0.4-1-1-1H92z"/>
<circle class="st7" cx="83.3" cy="101.6" r="3.6"/>
<path class="st0" d="M124.5,100.7c-0.5,0-1,0.4-1,1c0,0.5,0.4,1,1,1H138c0.5,0,1-0.4,1-1c0-0.5-0.4-1-1-1H124.5z"/>
<circle class="st4" cx="115.8" cy="101.6" r="3.6"/>
<path class="st0" d="M157,100.7c-0.5,0-1,0.4-1,1c0,0.5,0.4,1,1,1l0,0h13.5c0.5,0,1-0.4,1-1c0-0.5-0.4-1-1-1H157z"/>
<circle class="st8" cx="148.4" cy="101.6" r="3.6"/>
<path id="e1cfef3e-7788-4f0f-b252-d185c9336b04" class="st0" d="M169.5,51.2h-50.2c-1,0-1.8-0.6-1.8-1.3V39c0-0.7,0.8-1.3,1.8-1.3
	h50.2c1,0,1.8,0.6,1.8,1.3V50C171.3,50.7,170.5,51.2,169.5,51.2z M119.3,38.3c-0.6,0-1.1,0.3-1.1,0.8V50c0,0.4,0.5,0.8,1.1,0.8h50.2
	c0.6,0,1.1-0.3,1.1-0.8V39c0-0.4-0.5-0.8-1.1-0.8L119.3,38.3z"/>
<path class="st9" d="M130.6,44c-0.6,0-1.1,0.5-1.1,1.1v7.5c0,0.6,0.5,1.1,1.1,1.1h38.3c0.6,0,1.1-0.5,1.1-1.1v-7.5
	c0-0.6-0.5-1.1-1.1-1.1H130.6z"/>
<circle class="st10" cx="136" cy="48.9" r="2.4"/>
<path class="st10" d="M146.7,47.9c-0.5,0-1,0.4-1,1c0,0.5,0.4,1,1,1h13.5c0.5,0,1-0.4,1-1c0-0.5-0.4-1-1-1H146.7z"/>
<path id="b00e8b21-64f0-4b6c-8490-a93637cb24e1" class="st0" d="M131.9,25.8H81.6c-1,0-1.8-0.6-1.8-1.3V13.6c0-0.7,0.8-1.3,1.8-1.3
	h50.2c1,0,1.8,0.6,1.8,1.3v10.9C133.6,25.2,132.8,25.8,131.9,25.8z M81.6,12.8c-0.6,0-1.1,0.3-1.1,0.8v10.9c0,0.4,0.5,0.8,1.1,0.8
	h50.2c0.6,0,1.1-0.3,1.1-0.8V13.6c0-0.4-0.5-0.8-1.1-0.8L81.6,12.8z"/>
<path class="st11" d="M93,18.5c-0.6,0-1.1,0.5-1.1,1.1v7.5c0,0.6,0.5,1.1,1.1,1.1h38.3c0.6,0,1.1-0.5,1.1-1.1v-7.5
	c0-0.6-0.5-1.1-1.1-1.1H93z"/>
<circle class="st10" cx="98.3" cy="23.4" r="2.4"/>
<path class="st10" d="M109.1,22.4c-0.5,0-1,0.4-1,1s0.4,1,1,1h13.5c0.5,0,1-0.4,1-1s-0.4-1-1-1H109.1z"/>
</svg>
