<?xml version="1.0" encoding="utf-8"?>
<!-- Generator: Adobe Illustrator 23.0.0, SVG Export Plug-In . SVG Version: 6.00 Build 0)  -->
<svg version="1.1" id="Layer_1" xmlns="http://www.w3.org/2000/svg" xmlns:xlink="http://www.w3.org/1999/xlink" x="0px" y="0px"
	 viewBox="0 0 520 280" style="enable-background:new 0 0 520 280;" xml:space="preserve">
<style type="text/css">
	.st0{fill:#F2F2F2;}
	.st1{fill:#7A7A7A;}
	.st2{fill:none;}
	.st3{fill:#1EFFBC;}
	.st4{fill:#FFFFFF;}
	.st5{fill:#B6B6B6;}
</style>
<g>
	<g>
		<path class="st0" d="M1223.8,366.1c-12-25-29.6-45.2-52.6-60.5c-8.4-5.7-17.2-10.3-26.3-14c-12.1-4.9-24.8-8.2-38.1-9.7
			c-8-0.8-15.9-1.3-23.9-1.3h-16c-141.3,0-212.9,0.1-214.9,0.4c-4.1,0.6-6.4,2.9-7,6.8c-0.2,2.1-0.4,18.5-0.4,49.1
			c0,5.3,0.1,8.5,0.2,9.8c0,5.4,2.4,9,7.2,10.7c2.2,0.7,4.4,1.6,6.6,2.6c10.1,4.9,15.3,14.2,15.8,27.8c0.1,3,0.1,47.8,0.2,134.2
			c0,33.8,0,73.9,0,120.5v10.3c-0.5,16.4-6.7,27.7-18.8,33.9l-5.7,2.9c-3.1,1.7-4.8,4.4-5.2,7.9c-0.2,2.1-0.4,4.2-0.4,6.3
			c0,34.2,0.1,52.1,0.2,53.7c0.2,5.7,3.2,8.6,8.8,8.8c2.6,0.3,34.8,0.4,96.6,0.4c61.9,0,94.3-0.1,97-0.4c4.7-0.6,7.2-3.2,7.7-7.7
			l0.2-4.2c0-36.3-0.1-55.4-0.4-57.2v0c-0.5-3.5-2.3-6.1-5.5-7.7l-5.2-2.4c-8.1-3.9-13.6-10.1-16.4-18.6c-2.1-6.1-3.1-16.1-3.1-30
			l0.2-7v-22.5c0-11,0.3-18.7,1-23c0.7-4.3,4-6.4,10-6.4c2-0.1,19.5-0.2,52.6-0.2h2.5c20.8-0.2,41.4-6.3,61.6-18.2
			c6.4-3.4,12.4-7.5,18-12.1c5.9-5.2,11.7-10.4,17.3-15.6c33.2-32.4,49.9-67.1,49.9-104.1C1237.6,406.6,1233,385.6,1223.8,366.1z
			 M894.9,765.5c-2.3,0.8-5.4,0.7-7.5-0.5c-2.1-1.3-4.2-3.1-4.7-5.5c-1.9-9.5-17.7-93.6,14.2-118.2c12.1-9.4,28.5-9,48.7,1.1
			c0.6,0.2,1.1,0.3,1.7,0.6c20.8,10.7,31.4,24.3,31.3,40.2C978.5,724.1,903.5,761.4,894.9,765.5z M1004.9,437.5
			c-9.6-27,3.9-56.5,30-65.8c26.2-9.3,55.3,5,64.9,31.9c9.6,27-3.9,56.5-30,65.8C1043.6,478.8,1014.5,464.5,1004.9,437.5z"/>
	</g>
	<g>
		<g>
			<g>
				<path class="st1" d="M1024.8,608.8c0-11,0.3-18.7,1-23c0.7-4.3,4-6.4,10-6.4c2-0.1,19.5-0.2,52.6-0.2
					c-1.7-9.2-4.2-18.9-7.7-29.1c38.8-71.9,77.8-170.3,64.3-258.6c-12.1-4.9-24.8-8.2-38.1-9.7c-8-0.8-15.9-1.3-23.9-1.3h-16
					c-61.5,48.9-103.1,130.9-129,199.4c-28.9,10.6-49.2,25.4-63.3,41.9c0,33.8,0,73.9,0,120.5l37.8-32.6l87.5,43.1l-0.5,68.1
					c0,2.9,1.4,5.7,3.8,7.4c2.2,1.6,5,1.9,7.5,1c0.2-0.1,0.3-0.1,0.5-0.2c0.5-0.2,22.6-10.2,43.4-32.2v0c-0.5-3.5-2.3-6.1-5.5-7.7
					l-5.2-2.4c-8.1-3.9-13.6-10.1-16.4-18.6c-2.1-6.1-3.1-16.1-3.1-30l0.2-7V608.8z M1004.9,437.5c-9.6-27,3.9-56.5,30-65.8
					c26.2-9.3,55.3,5,64.9,31.9c9.6,27-3.9,56.5-30,65.8C1043.6,478.8,1014.5,464.5,1004.9,437.5z"/>
			</g>
		</g>
	</g>
</g>
<rect class="st2" width="520" height="280"/>
<g transform="translate(4338.675 -6864.154)">
	<g transform="translate(34.566 35.059)">
		<path class="st3" d="M-4322.1,6971.2c21.7,15.9,42.9,32.5,65.9,46.5c25.2,15.4,52.9,27.9,81.8,34.7c35.6,8.4,73,10.1,109,3.4
			c31.5-5.9,62.2-19.8,88.6-37.7c30-20.4,56.6-45.3,79.1-73.7c5.7-7.2,9.8-13.9,9.8-23.5c0-8.2-3.6-17.9-9.8-23.5
			c-6.4-5.8-14.7-10.1-23.6-9.7c-8.2,0.4-18.2,3-23.6,9.7c-17.1,21.8-36.7,41.4-58.5,58.5l6.8-5.2c-16.7,13-35,23.8-54.5,32.2l8-3.4
			c-15.8,6.6-32.4,11.2-49.3,13.6l8.9-1.2c-19.8,2.6-39.9,1.9-59.7-0.7l8.9,1.2c-20.2-2.8-40-8.2-58.9-16.1l8,3.4
			c-38-16.2-70.3-41.8-103.2-65.9c-6.5-4.8-18.2-5.4-25.7-3.4c-7.7,2.1-16.1,8.1-19.9,15.3c-4.1,7.7-6.1,17.1-3.4,25.6
			C-4334.6,6960-4329.5,6965.8-4322.1,6971.2L-4322.1,6971.2z"/>
	</g>
	<g transform="translate(402.806)">
		<path class="st3" d="M-4326.6,6920.3c2.5,0.8,5,1.7,7.5,2.7c-3.7-1.5,0.5,0.3,1,0.5c1.2,0.6,2.4,1.2,3.7,1.9
			c4.7,2.5,9.2,5.4,13.6,8.5c0.4,0.3,3.9,2.9,2.3,1.7s1.8,1.5,2.2,1.8c2,1.6,4,3.3,5.9,5.1c4.1,3.7,8.1,7.6,11.9,11.6
			c3.4,3.6,6.7,7.4,9.9,11.3c0.8,1,1.5,1.9,2.3,2.9c1.3,1.6-1.9-2.6-0.1-0.1c1.3,1.8,2.7,3.6,3.9,5.4c2.2,3.1,4.3,6.4,6.1,9.7
			c0.8,1.3,1.5,2.7,2.1,4.1c2.2,4.3-1.1-3.1,0-0.1c2.9,8.2,11.4,14.5,20.4,11.6c8-2.6,14.8-11.7,11.6-20.4
			c-6.5-18.1-19.9-34.1-32.9-47.9c-17.2-18.5-38.2-34.8-62.6-42.4c-8.3-2.6-18.5,3-20.4,11.6
			C-4340.5,6908.7-4335.3,6917.7-4326.6,6920.3L-4326.6,6920.3z"/>
	</g>
	<g transform="translate(0 11.136)">
		<path class="st3" d="M-4306.3,6999.9c1.2-5.2,2.7-10.3,4.5-15.2c0.4-1.1,0.3-0.9-0.3,0.7c0.3-0.7,0.6-1.3,0.9-2
			c0.5-1.1,1-2.2,1.5-3.2c1.3-2.6,2.6-5.2,4.1-7.7c2.8-4.8,5.8-9.5,9.1-14.1c0.7-1,1.4-1.9,2.2-2.9c2.3-3.1-1.3,1.6,0.9-1.2
			c1.8-2.2,3.6-4.4,5.4-6.5c6.4-7.3,13.3-14.2,20.7-20.5c1.5-1.2,3-2.4,4.4-3.7c1.6-1.4-3,2.2-0.7,0.6c0.7-0.5,1.4-1,2.1-1.6
			c2.2-1.6,4.6-3.1,7.1-4.3c7.9-3.8,10.6-15.6,6-22.7c-5.2-8-14.3-10-22.7-6c-7.1,3.4-13.4,8.8-19.3,13.8
			c-7.9,6.7-15.2,14.1-22,21.9c-16.2,18.8-31,40.9-35.9,65.7c-1.7,8.5,2.4,18.4,11.6,20.4C-4318.5,7013.4-4308.1,7009-4306.3,6999.9
			L-4306.3,6999.9z"/>
	</g>
</g>
<g transform="translate(4626.901 -6770.4)">
	<path d="M-4338.3,6893.2v3.9c0,0,10.9-0.1,17.3-0.1s10.1-0.4,10.1-0.4l-0.2-3.8c0,0-10,0.7-16,0.8S-4338.3,6893.2-4338.3,6893.2"/>
	<g transform="translate(22.354 12.183)">
		<path d="M-4338.5,6888.2c0.6-0.2,1.3-0.2,1.9,0.1c0.6,0.3,1,0.7,1.2,1.3c0.3,0.6,0.2,1.3-0.3,1.8c-0.2,0.2-0.5,0.4-0.9,0.5
			c-0.4,0.1-0.7,0.2-1.1,0.3c-0.2,0.1-0.2,0.4,0,0.4c0.7,0.1,1.4-0.1,2-0.5c0.3-0.1,0.6-0.4,0.8-0.6c0.1-0.3,0.2-0.6,0.2-1
			c0-1.2-0.7-2.4-1.9-2.8c-0.7-0.2-1.4-0.1-2,0.2c-0.1,0-0.1,0.1-0.1,0.2C-4338.6,6888.2-4338.6,6888.2-4338.5,6888.2
			L-4338.5,6888.2z"/>
	</g>
	<g transform="translate(15.227 12.072)">
		<path d="M-4336.8,6888.5c-0.4-0.1-0.9,0.1-1.1,0.5s-0.3,0.9-0.2,1.4c0.1,0.9,0.7,1.7,1.5,2.2c1.4,0.7,3,0.1,3.7-1.3
			c0.1-0.4,0.2-0.7,0.3-1.1c0-0.5-0.2-1-0.5-1.4c-0.5-0.3-1-0.4-1.5-0.4c-0.6,0-1.2,0-1.8,0.1c-0.6,0-1.1,0.1-1.6,0.4
			c-0.6,0.6-0.9,1.4-0.6,2.2c0.3,0.9,1.1,1.5,2,1.6c1,0.1,2-0.4,2.6-1.2c0.3-0.4,0.4-0.8,0.3-1.3c-0.1-0.5-0.7-0.8-1.1-1
			c-0.9-0.5-2-0.9-2.9-0.1c-0.3,0.3-0.5,0.8-0.3,1.3c0.2,0.5,0.5,0.8,1,1c0.9,0.4,2,0.3,2.8-0.3c0.7-0.6,1-1.6,0.6-2.4
			c-0.3-0.8-1.2-1.2-2.1-1c-0.7,0.2-1.2,1-1,1.8c0,0,0,0.1,0,0.2c0.4,0.9,1.5,1.4,2.4,1l0,0c0.7-0.3,1-1.1,0.7-1.8
			c0-0.3-0.2-0.5-0.4-0.7c-0.9-0.5-2-0.3-2.6,0.6c-0.4,0.8,0.2,2,1.2,1.7c0.4-0.1,0.7-0.4,0.7-0.9c0-0.4-0.6-0.4-0.6,0
			c0,0.2-0.3,0.3-0.5,0.3c-0.3,0-0.4-0.3-0.3-0.6c0-0.7,1.1-0.9,1.6-0.7c0.3,0.1,0.5,0.5,0.5,0.8c-0.1,0.4-0.3,0.7-0.7,0.8
			c-0.6,0.1-1.3-0.2-1.5-0.9v-0.1c0-0.5,0.4-1,1-1h0.1c0.6,0,1.1,0.4,1.2,1c0.1,1.6-1.8,2.3-3,1.6c-0.3-0.1-0.5-0.4-0.6-0.8
			c0-0.3,0.2-0.6,0.5-0.7c0.7-0.4,1.6,0.1,2.2,0.5c0.3,0.2,0.6,0.4,0.6,0.8s-0.2,0.7-0.5,0.9c-0.5,0.5-1.3,0.8-2,0.7
			c-0.6-0.1-1.2-0.6-1.4-1.2c-0.2-0.6-0.1-1.2,0.4-1.6c0.3-0.2,0.7-0.4,1.1-0.4s0.9-0.1,1.3-0.1c0.7,0,1.8-0.2,2.1,0.7
			c0.5,1.4-1,2.8-2.3,2.7c-1.3-0.1-2.3-1.2-2.2-2.6c0-0.1,0-0.1,0.1-0.2c0.1-0.3,0.4-0.8,0.8-0.7l0.1-0.1
			C-4336.7,6888.6-4336.7,6888.5-4336.8,6888.5L-4336.8,6888.5z"/>
	</g>
	<g transform="translate(0.978 18.976)">
		<path d="M-4338.5,6889.5c4.5,0.2,8.9,0.1,13.4-0.2c2.2-0.1,4.4-0.3,6.6-0.5c2.1-0.1,4.3-0.3,6.3-0.7c0.1,0,0.2-0.2,0.2-0.3
			c0-0.1-0.1-0.2-0.2-0.2c-2.1,0.1-4.2,0.3-6.3,0.6c-2.2,0.2-4.5,0.4-6.8,0.5c-4.4,0.3-8.8,0.4-13.2,0.3c-0.1,0-0.2,0.1-0.2,0.3
			C-4338.7,6889.4-4338.6,6889.5-4338.5,6889.5L-4338.5,6889.5z"/>
	</g>
	<g transform="translate(27.14)">
		<path d="M-4338.5,6887.7c-0.4,0.5-0.2,1.8-0.2,2.4c0,1.8,0.1,3.5,0.2,5.3c0.1,2.1,0.2,4.2,0.2,6.3c0,1.8-0.2,3.6-0.2,5.3
			c0,0.1,0.1,0.2,0.2,0.2s0.1,0,0.2-0.1c0.4-1.6,0.5-3.3,0.4-4.9c0-2,0-4.1-0.1-6.1s-0.2-3.8-0.3-5.6c0-0.6-0.1-1.2-0.1-1.8
			c0-0.2-0.1-0.7,0-0.9C-4338.1,6887.6-4338.3,6887.5-4338.5,6887.7L-4338.5,6887.7z"/>
	</g>
	<g transform="translate(0.269 0.284)">
		<path d="M-4338.6,6889.5c9,0,18-0.4,27-1.3c0.4,0,0.4-0.6,0-0.6c-9,0.8-18,1.5-27,1.6c0,0-0.1,0.1-0.1,0.2L-4338.6,6889.5
			L-4338.6,6889.5z"/>
	</g>
	<g transform="translate(0 2.257)">
		<path d="M-4338.4,6887.8c-0.3,3.1-0.4,6.1-0.3,9.2c0,3,0.2,6,0.7,8.9c0,0.1,0.2,0.2,0.3,0.2c0.1,0,0.2-0.1,0.2-0.2
			c-0.1-3-0.5-6-0.6-9s-0.1-6,0.1-9C-4338,6887.5-4338.4,6887.5-4338.4,6887.8L-4338.4,6887.8z"/>
	</g>
</g>
<g transform="translate(4642.836 -6817.962)">
	<path d="M-4323.3,6887.6c-5,1-9.9,2.4-14.8,3.8c-0.5,0.2-0.7,0.6-0.6,1c0.1,0.2,0.2,0.4,0.4,0.5c3.5,2,6.8,4.4,9.7,7.3
		c0.6,0.6,1.4-0.2,1.1-0.8c-0.9-1.9-2.9-3.2-4.5-4.4c-1.8-1.3-3.7-2.4-5.5-3.5l-0.2,1.5c4.9-1.5,9.8-2.9,14.6-4.7
		c0.2-0.1,0.3-0.2,0.2-0.4C-4322.9,6887.7-4323.1,6887.6-4323.3,6887.6L-4323.3,6887.6z"/>
</g>
<g transform="translate(4644.328 -6813.917)">
	<path d="M-4291.6,6898.4c-6.4-2.2-12.9-4.6-19.5-6.2c-4.2-1.1-8.5-1.9-12.9-2.6c-2.3-0.4-4.7-0.8-7.1-1.1l-3.8-0.6
		c-1-0.2-2.2-0.3-3.3-0.2c-0.4,0.1-0.6,0.5-0.5,0.9c0.1,0.2,0.2,0.3,0.3,0.4c1.1,0.4,2.3,0.7,3.5,0.7l3.3,0.5
		c2.4,0.3,4.7,0.7,7.1,1.1c4.4,0.7,8.8,1.5,13.1,2.6c6.6,1.6,13,3.7,19.6,5.2c0.2,0,0.4-0.1,0.4-0.2
		C-4291.3,6898.6-4291.4,6898.5-4291.6,6898.4L-4291.6,6898.4z"/>
</g>
<g transform="translate(4545.205 -6816.818)">
	<path d="M-4338.5,6888.3c4.9,1.8,9.9,3.3,14.8,4.7l-0.1-1.4c-1.9,1.1-3.8,2.2-5.6,3.5c-1.7,1.2-3.7,2.5-4.6,4.4
		c-0.3,0.7,0.5,1.5,1.1,0.8c2.9-2.9,6.2-5.4,9.8-7.4c0.4-0.2,0.5-0.7,0.3-1.1c-0.1-0.2-0.3-0.3-0.4-0.3c-5-1.4-10-2.9-15-3.9
		c-0.3,0-0.4,0.1-0.5,0.3C-4338.7,6888-4338.6,6888.2-4338.5,6888.3L-4338.5,6888.3z"/>
</g>
<g transform="translate(4511.672 -6812.701)">
	<path d="M-4338.3,6899.2c6.7-1.5,13.2-3.7,19.8-5.3c4.3-1,8.6-1.9,12.9-2.5c2.4-0.4,4.8-0.7,7.2-1.1l3.9-0.6c1.2,0,2.4-0.3,3.5-0.7
		c0.4-0.2,0.5-0.7,0.2-1c-0.1-0.2-0.2-0.3-0.4-0.3c-1.1-0.1-2.3,0-3.3,0.3l-3.9,0.6c-2.4,0.3-4.8,0.7-7.2,1.1
		c-4.4,0.7-8.8,1.6-13.1,2.7c-6.8,1.6-13.2,3.9-19.8,6.2c-0.1,0-0.2,0.2-0.2,0.4C-4338.7,6899.2-4338.5,6899.3-4338.3,6899.2
		L-4338.3,6899.2L-4338.3,6899.2z"/>
</g>
<g transform="translate(4572.974 -6839.12)">
	<g transform="translate(0 1.005)">
		<path d="M-4338.7,6888c-0.1,15.5,0.1,31,0.2,46.6c0,2.2,0,4.3,0,6.5c-0.1,2.1,0,4.1,0.2,6.2c0.2,0.2,0.5,0.3,0.7,0.3
			c0.2,0,0.3-0.2,0.3-0.3c0.2-1.8,0.3-3.5,0.2-5.3c0-1.9,0-3.8,0-5.8c0-3.9-0.1-7.9-0.2-11.8c-0.1-7.9-0.2-15.8-0.4-23.6
			c0-4.3-0.1-8.5-0.1-12.8c0-0.2-0.2-0.4-0.5-0.4C-4338.5,6887.6-4338.6,6887.8-4338.7,6888L-4338.7,6888z"/>
	</g>
	<g transform="translate(0.583 59.149)">
		<path d="M-4338.3,6889.7c15.4,0.4,30.8-0.4,46.1-0.6c2.2,0,4.4,0,6.5,0c1.9,0,4,0.3,5.9-0.2c0.3-0.1,0.4-0.4,0.4-0.7
			c-0.1-0.2-0.2-0.3-0.4-0.4c-1.7-0.3-3.4-0.3-5.1-0.2c-1.8,0-3.7,0-5.5,0c-4,0-8,0.1-12,0.2c-8,0.2-16.1,0.4-24.1,0.6
			c-4,0.2-7.9,0.3-11.8,0.4c-0.2,0-0.4,0.2-0.4,0.4C-4338.7,6889.5-4338.5,6889.7-4338.3,6889.7L-4338.3,6889.7z"/>
	</g>
	<g transform="translate(56.905)">
		<path d="M-4338.5,6887.9c-0.4,9.4,0,18.8,0.3,28.1c0.2,7.5,0.6,15,1.1,22.4c0.2,3.1,0.1,6.4,0.8,9.4c0.1,0.5,0.9,0.4,0.9-0.1
			c0.1-2.8-0.1-5.5-0.4-8.3c-0.2-2.8-0.3-5.6-0.5-8.4c-0.5-9.1-0.9-18.2-1.1-27.4c-0.2-5.1-0.2-10.4-0.5-15.7c0-0.2-0.1-0.3-0.3-0.3
			C-4338.4,6887.6-4338.5,6887.7-4338.5,6887.9L-4338.5,6887.9z"/>
	</g>
	<g transform="translate(0.037 0.279)">
		<path d="M-4338.3,6889.2c14.5,0.4,29.1,0.3,43.6,0.1c4.3-0.1,8.7,0,13-0.4c0.3,0,0.6-0.3,0.6-0.6c0-0.3-0.3-0.7-0.6-0.7
			c-3.8,0-7.5,0.2-11.3,0.3c-3.9,0.1-7.8,0.2-11.7,0.2c-7.5,0.1-15,0-22.5,0.1c-3.7,0-7.4,0-11,0.1c-0.3,0-0.5,0.2-0.5,0.4
			C-4338.7,6889-4338.5,6889.1-4338.3,6889.2L-4338.3,6889.2z"/>
	</g>
</g>
<g transform="translate(4536.023 -6859.629)">
	<g transform="translate(0 7.657)">
		<path d="M-4338.7,6887.8c0.2,2.5,0.8,4.9,1.7,7.2c0.4,1.2,0.8,2.4,1.3,3.5c0.4,1.1,0.9,2.2,1.6,3.1c0.1,0.1,0.2,0.1,0.3,0
			c0.1,0,0.2-0.1,0.1-0.2c-0.3-1-0.8-2-1.3-3c-0.5-1.2-1-2.4-1.5-3.6c-0.8-2.2-1.4-4.6-1.7-7
			C-4338.2,6887.5-4338.7,6887.5-4338.7,6887.8z"/>
	</g>
	<g transform="translate(4.336 18.414)">
		<path d="M-4338.5,6890.8c3.8-0.1,7.6-1,11.1-2.7c0.2-0.1,0.1-0.6-0.2-0.5c-3.5,1.5-7.2,2.5-10.9,2.9
			C-4338.8,6890.5-4338.8,6890.9-4338.5,6890.8L-4338.5,6890.8z"/>
	</g>
	<g transform="translate(0.836)">
		<path d="M-4338.5,6895.3c4.7-1.3,9.2-3.1,13.8-4.7c1.1-0.4,2.3-0.8,3.4-1.2c1.1-0.5,2.2-0.8,3.3-1.1c1.1-0.2,2.2,0.4,2.6,1.4
			c0.5,1,1,2,1.5,3c1.1,2.4,2,4.9,2.8,7.4l0.2-0.4c-2.6,1-5.2,2-7.8,3c-0.1,0-0.2,0.2-0.3,0.3l-0.3,5.7l0.5-0.3
			c-1.6-1.2-3.4-2.1-5.3-2.7c-0.4-0.1-0.6,0.5-0.2,0.7c1.8,0.6,3.6,1.5,5.1,2.6c0.2,0.1,0.4,0,0.5-0.1c0,0,0-0.1,0-0.2l0.3-5.7
			l-0.3,0.3c2.6-1,5.2-2,7.8-3c0.2-0.1,0.3-0.2,0.2-0.4c-0.7-2.3-1.6-4.6-2.6-6.8c-0.5-1.1-1-2.3-1.6-3.3c-0.3-0.8-0.9-1.5-1.7-1.9
			c-1-0.4-2-0.4-3,0c-1.2,0.4-2.4,0.8-3.6,1.3c-2.1,0.9-4.5,1.8-7,2.6c-2.8,1-5.6,2-8.4,3.1
			C-4338.8,6895.1-4338.7,6895.4-4338.5,6895.3L-4338.5,6895.3z"/>
	</g>
	<g transform="translate(4.29 9.064)">
		<path d="M-4338.6,6889.5c0.3,0.2,0.8-0.1,1.1-0.1c0.4-0.1,0.7-0.2,1-0.3c0.3-0.1,0.7-0.2,1-0.4l0.5-0.2c0.2,0,0.4-0.1,0.6-0.3
			c0.1-0.1,0.1-0.4,0-0.5c0-0.1-0.1-0.1-0.2-0.1c-0.2,0-0.4,0.1-0.6,0.2l-0.5,0.1c-0.3,0.1-0.7,0.3-1,0.4c-0.4,0.1-0.7,0.2-1.1,0.3
			c-0.3,0.1-0.8,0.2-0.9,0.6C-4338.7,6889.3-4338.7,6889.4-4338.6,6889.5L-4338.6,6889.5z"/>
	</g>
	<g transform="translate(5.781 7)">
		<path d="M-4338.5,6893.7c0.6-0.1,1.2-0.3,1.7-0.6c0.6-0.2,1.3-0.5,1.9-0.8c1.2-0.5,2.5-1,3.8-1.4c2.4-0.8,4.9-1.4,7.1-2.6
			c0.2-0.1,0.2-0.3,0.1-0.5c-0.1-0.1-0.2-0.2-0.3-0.2c-0.2,0-0.4,0-0.5,0.1c-0.2,0.1-0.3,0.4-0.1,0.5c0.2,0.1,0.4,0.2,0.6,0.2
			l-0.2-0.8c-1.1,0.6-2.3,1.1-3.5,1.4c-1.3,0.4-2.5,0.9-3.8,1.3c-1.2,0.4-2.4,0.9-3.6,1.4c-0.6,0.2-1.1,0.5-1.6,0.7
			c-0.7,0.2-1.2,0.5-1.7,0.9C-4338.7,6893.4-4338.7,6893.6-4338.5,6893.7C-4338.6,6893.7-4338.5,6893.7-4338.5,6893.7
			L-4338.5,6893.7z"/>
	</g>
	<g transform="translate(7.642 15.27)">
		<path d="M-4338.5,6888.9c0.1,0,0.3,0,0.4,0c0.1,0,0.2,0,0.3,0c0.2,0,0.4-0.1,0.6-0.1c0.4-0.2,0.9-0.3,1.3-0.5
			c0.2-0.1,0.2-0.3,0.1-0.5c-0.1-0.2-0.3-0.3-0.5-0.2c-0.4,0.2-0.7,0.3-1.1,0.5c-0.2,0-0.4,0.1-0.6,0.1c-0.2,0-0.4,0.1-0.6,0.2
			c-0.1,0.1-0.1,0.3-0.1,0.4C-4338.6,6888.9-4338.6,6888.9-4338.5,6888.9L-4338.5,6888.9z"/>
	</g>
</g>
<g transform="translate(4591.552 -6866.564)">
	<g transform="translate(0 0.773)">
		<path d="M-4327.6,6887.8c-3.4-0.8-7,0.3-9.3,2.9c-2.2,2.6-2.5,6.3-0.8,9.2c1.5,2.7,4.2,4.6,7.3,4.9c1.5,0.1,2.9,0,4.3-0.4
			c1.5-0.4,2.8-1.4,3.6-2.7c1-1.6,1.5-3.5,1.6-5.3c0.1-1.7-0.5-3.5-1.8-4.6c-0.2-0.2-0.5,0.2-0.3,0.4c1,1.2,1.5,2.6,1.4,4.2
			c0,1.5-0.4,2.9-1.1,4.3c-0.6,1.4-1.8,2.5-3.2,3c-1.2,0.4-2.5,0.5-3.8,0.5c-2.7,0-5.2-1.4-6.7-3.6c-0.9-1.2-1.4-2.6-1.6-4.1
			c0-1.6,0.4-3.1,1.2-4.3c1.8-3,5.7-4.3,9.1-3.7C-4327.3,6888.5-4327.2,6887.9-4327.6,6887.8L-4327.6,6887.8z"/>
	</g>
	<g transform="translate(5.501)">
		<path d="M-4338.7,6894.7c0.5,1,0.9,2,1.5,2.9c0.4,0.9,0.9,1.8,1.5,2.5c0.3,0.5,1,0.5,1.4,0.2c0.1,0,0.1-0.1,0.2-0.2
			c0.4-0.7,0.8-1.4,1-2.2c1.4-3.4,2.5-7,5-9.8l-0.6-0.3v0.4c-0.2,0.3,0.2,0.6,0.4,0.4c0.3-0.1,0.4-0.4,0.4-0.7
			c0-0.2-0.2-0.4-0.4-0.4c-0.1,0-0.2,0-0.2,0.1c-2.2,2.4-3.4,5.3-4.6,8.2c-0.3,0.8-0.6,1.6-0.9,2.3c-0.2,0.4-0.3,0.8-0.5,1.2
			c-0.1,0.1-0.1,0.4-0.2,0.4c-0.3,0.2-0.5-0.1-0.6-0.3c-0.6-0.8-1.1-1.6-1.5-2.4c-0.5-0.8-1-1.6-1.6-2.5c-0.1-0.1-0.2-0.1-0.2,0
			C-4338.7,6894.5-4338.7,6894.6-4338.7,6894.7L-4338.7,6894.7z"/>
	</g>
</g>
<g transform="translate(4638.284 -6862.413)">
	<path d="M-4324.7,6888.5c5,1.1,10.6,4.9,11,10.5c0.2,2.5-0.5,4.9-2.1,6.8c-2.1,2.3-5.2,2.6-8.1,2.4c-1.2-0.1-2.5-0.5-3.1,0.9
		c-0.5,1.4-0.2,2.9,0.7,4l0.6-0.6c-1.5-0.8-2.8-1.9-3.8-3.2c-0.7-1.2-1.7-2.1-2.9-2.7c-0.7-0.2-1.4-0.5-2.1-0.8
		c-0.7-0.4-1.2-0.8-1.7-1.4c-0.9-1.1-1.5-2.4-1.6-3.7c-0.3-2.7,0.4-5.4,2-7.7c1.6-2.1,3.8-3.5,6.3-4.1c2.8-0.7,5.9-0.4,8.5,1
		c0.2,0.1,0.4,0,0.5-0.1c0.1-0.1,0-0.4-0.1-0.5l0,0c-2.4-1.4-5.2-2-7.9-1.6c-2.8,0.5-5.3,1.8-7.2,3.8c-3.6,4-4.5,12.2,0.9,15.1
		c0.8,0.5,1.8,0.6,2.6,1c0.8,0.5,1.5,1.2,1.9,2c1.1,1.5,2.5,2.8,4.2,3.7c0.4,0.2,1-0.2,0.6-0.6c-0.5-0.6-0.8-1.4-0.9-2.2
		c-0.1-0.5,0.1-1.1,0.5-1.5c0.2-0.2,0.7-0.1,0.9-0.1c0.4,0,0.8,0.1,1.1,0.1c0.8,0.1,1.6,0.1,2.4,0c2.7-0.1,5.2-1.4,6.9-3.6
		c3-4.2,1.8-10.1-1.8-13.5c-2.3-1.9-5.2-3.2-8.3-3.7C-4324.9,6888.2-4325,6888.5-4324.7,6888.5L-4324.7,6888.5z"/>
</g>
<g transform="translate(4645.507 -6856.099)">
	<path d="M-4330.1,6889.7c-1.4-0.4-2.8-0.8-4.2-1.1l-2.1-0.6c-0.4-0.1-0.7-0.2-1.1-0.3c-0.3-0.1-0.7-0.1-1-0.1
		c-0.1,0.1-0.2,0.2-0.2,0.4c0,0,0,0.1,0.1,0.1c0.3,0.2,0.6,0.3,0.9,0.4c0.4,0.1,0.7,0.2,1.1,0.2l2.1,0.5c1.4,0.4,2.8,0.8,4.3,1.1
		c0.1,0,0.3-0.1,0.3-0.2C-4329.9,6889.9-4330,6889.8-4330.1,6889.7L-4330.1,6889.7z"/>
</g>
<g transform="translate(4644.467 -6852.986)">
	<path d="M-4327,6890.6c-1.9-0.7-3.9-1.3-5.8-1.8c-1-0.2-2-0.5-2.9-0.7c-0.5-0.1-1-0.2-1.5-0.3c-0.4-0.2-0.9-0.2-1.3-0.2
		c-0.1,0.1-0.2,0.2-0.2,0.4c0,0,0,0.1,0.1,0.1c0.4,0.2,0.8,0.4,1.2,0.4c0.5,0.1,1,0.2,1.5,0.3c1,0.2,1.9,0.5,2.9,0.7
		c2,0.5,3.9,1.1,5.9,1.6c0.1,0,0.3-0.1,0.3-0.2C-4326.8,6890.8-4326.9,6890.7-4327,6890.6L-4327,6890.6z"/>
</g>
<g transform="translate(4644.424 -6848.908)">
	<path d="M-4327.7,6889.6c-0.8-0.4-1.7-0.6-2.6-0.8c-0.9-0.1-1.8-0.3-2.6-0.5c-1.8-0.4-3.6-0.6-5.4-0.7c-0.4,0-0.6,0.7-0.1,0.7
		c1.7,0.3,3.6,0.4,5.4,0.7c0.9,0.1,1.7,0.3,2.6,0.5c0.9,0.3,1.7,0.4,2.6,0.5c0.1,0,0.2-0.1,0.2-0.2
		C-4327.6,6889.7-4327.7,6889.7-4327.7,6889.6L-4327.7,6889.6z"/>
</g>
<g transform="translate(4540.888 -6777.55)">
	<g transform="translate(20.053)">
		<path d="M-4335.8,6887.6c0.6,2.3,1.3,4.7,2.2,6.9c0.8,2.3,1.6,4.6,2.4,7c1.7,4.8,3.5,9.6,3.8,14.7l0.2-0.3
			c-3.7,1.2-7.6,1.3-11.4,2.2c-0.1,0-0.1,0.2,0,0.2c3.8-0.5,7.8-0.6,11.5-1.9c0.1,0,0.2-0.1,0.2-0.3c-0.4-4-1.3-7.8-2.8-11.6
			c-1.3-3.6-2.5-7.3-3.8-11C-4334.1,6891.5-4334.9,6889.5-4335.8,6887.6L-4335.8,6887.6L-4335.8,6887.6z"/>
	</g>
	<g transform="translate(0 0.035)">
		<path d="M-4315.8,6887.7c-5.7-0.2-11.5,0.1-17.2,0.8c-0.7,0-1.4,0.1-2,0.2c-0.1,0-0.2,0.1-0.3,0.2c-0.4,0.3-0.7,0.7-0.9,1.2
			c-0.8,1.3-1.5,2.6-2,4c-0.3,0.4-0.4,0.9-0.5,1.4c0,0.3,0.1,0.7,0.3,1c0.3,0.7,0.5,1.5,0.8,2.2c1,2.7,1.9,5.5,2.8,8.2
			c0.9,2.8,1.9,5.6,2.9,8.4c0.4,1,0.6,2.3,1.6,3c0.9,0.5,1.9,0.8,3,0.7c2.4,0,4.8-0.1,7.2-0.4c3.2-0.3,6.3-0.7,9.5-1.3
			c0.2,0,0.2-0.4-0.1-0.4c-2.7,0.3-5.4,0.8-8,1.1c-2.2,0.3-4.4,0.5-6.6,0.6c-0.9,0-1.7,0.1-2.6,0c-0.6,0-1.3-0.1-1.8-0.4
			c-0.6-0.4-1-1-1.1-1.7c-1-2.6-1.8-5.2-2.7-7.8c-0.9-2.5-1.7-5.1-2.5-7.6c-0.8-1.5-1.2-2.9-1.7-4.2c-0.2-0.7-0.6-1.2-0.3-1.9
			c0.5-1.3,1-2.6,1.7-3.8c0.3-0.5,0.6-1,0.9-1.5c0.1-0.2,0.2-0.3,0.3-0.5c0.3-0.2,0.9-0.1,1.2-0.2c6-0.6,12-1,18-1.1
			C-4315.8,6887.9-4315.8,6887.8-4315.8,6887.7C-4315.6,6887.7-4315.7,6887.7-4315.8,6887.7L-4315.8,6887.7z"/>
	</g>
	<path d="M-4335,6889.1c0.3,1.9,0.9,3.8,1.9,5.4c-1.8,0.1-4,0.4-4.6,2c0,0-1-0.3-0.4-1.8C-4337.2,6892.7-4336.1,6890.8-4335,6889.1"
		/>
	<g transform="translate(4.619 8.296)">
		<path d="M-4330.8,6887.6c-0.9,0-1.9,0.2-2.8,0.3c-1,0.1-1.9,0.2-2.9,0.4c-0.4,0-0.9,0.1-1.4,0.2c-0.2,0-0.6-0.2-0.7,0.1
			c-0.2,0.3,0.3,0.6,0.5,0.4c0-0.1,0-0.1,0-0.2l0,0c-0.1-0.1-0.1-0.1-0.2,0v0.1l0.1-0.1h0.2c-0.1-0.1,0,0,0,0.2h0.1
			c0.1,0,0.2,0,0.3,0l0.9-0.1c0.7-0.1,1.4-0.2,2-0.3c1.3-0.2,2.7-0.3,4-0.6c0-0.1,0-0.2,0-0.3S-4330.7,6887.6-4330.8,6887.6
			L-4330.8,6887.6z"/>
	</g>
	<g transform="translate(5.778 10.683)">
		<path d="M-4321.8,6887.6c-1.3,0-2.6,0.1-3.8,0.2c-1.5,0.1-3.1,0.3-4.6,0.5c-1.6,0.2-3,0.4-4.5,0.6c-1.3,0.2-2.6,0.4-3.8,0.7
			c-0.2,0.1-0.2,0.2-0.2,0.3c0,0.1,0.2,0.2,0.3,0.2c2.8-0.4,5.6-1,8.4-1.3c1.5-0.2,3-0.3,4.5-0.5c1.2-0.1,2.5-0.2,3.7-0.4
			C-4321.7,6887.8-4321.7,6887.6-4321.8,6887.6L-4321.8,6887.6z"/>
	</g>
	<g transform="translate(7.111 13.769)">
		<path d="M-4321.5,6887.6c-1.3,0-2.6,0.1-3.9,0.3c-1.5,0.2-3.1,0.4-4.6,0.6c-1.5,0.2-3.1,0.4-4.6,0.6c-1.3,0.2-2.6,0.5-3.9,0.8
			c-0.2,0-0.2,0.2-0.2,0.3s0.2,0.2,0.3,0.2c2.8-0.4,5.6-1,8.4-1.4c1.6-0.2,3.2-0.4,4.8-0.6c1.2-0.1,2.5-0.2,3.7-0.5
			C-4321.3,6887.8-4321.4,6887.6-4321.5,6887.6L-4321.5,6887.6z"/>
	</g>
	<g transform="translate(20.827 19.872)">
		<path d="M-4333.2,6887.8c-1.3-0.3-2.7-0.2-4,0.2c-0.5,0.1-0.9,0.4-1.2,0.9c-0.2,0.4-0.5,1,0,1.3c0.2,0.1,0.4,0.2,0.7,0.2
			c0.3,0.1,0.7,0.2,1,0.2c0.7,0,1.4,0,2-0.1c0.7-0.1,1.3,0,1.9,0.3c0.5,0.3,0.7,0.9,0.4,1.4c0,0.1-0.1,0.1-0.1,0.2
			c-0.5,0.4-1.1,0.7-1.8,0.8c-0.7,0.3-1.5,0.4-2.2,0.1c-0.1,0-0.3,0.1-0.2,0.3c0.3,0.5,0.9,0.4,1.4,0.3c0.7-0.1,1.4-0.3,2-0.5
			c0.5-0.2,1-0.5,1.3-0.9s0.3-0.9,0.1-1.4c-0.6-1.2-2.1-1.1-3.2-1c-0.7,0.1-1.4,0.1-2.1,0c-0.3,0-0.8-0.1-0.9-0.3
			c-0.2-0.4,0.1-0.8,0.3-1c0.6-0.5,1.3-0.8,2.1-0.7c0.8,0,1.6,0,2.5,0C-4333,6888.1-4333,6887.8-4333.2,6887.8L-4333.2,6887.8z"/>
	</g>
	<g transform="translate(22.82 19.698)">
		<path d="M-4338.7,6887.9c0.7,1.1,1.2,2.3,1.6,3.6c0.3,0.5,0.4,1.1,0.6,1.7c0.1,0.5,0.4,1,0.8,1.3c0.2,0.1,0.4-0.1,0.3-0.3
			c-0.2-0.2-0.3-0.4-0.4-0.7c-0.2-0.3-0.3-0.5-0.3-0.8c-0.2-0.6-0.4-1.1-0.6-1.7c-0.5-1.2-1-2.3-1.7-3.3c0-0.1-0.1-0.1-0.2-0.1
			S-4338.7,6887.8-4338.7,6887.9L-4338.7,6887.9z"/>
	</g>
	<g transform="translate(10.954 23.701)">
		<path d="M-4338.5,6888.5c0.4,0,0.8,0,1.2-0.1c0.4,0,0.7-0.1,1.1-0.1l1.1-0.1l0.5-0.1c0.1,0,0.2,0,0.3,0h0.1c0.1,0.1,0.1,0,0-0.1
			c-0.1,0-0.1,0.1,0,0.2l0,0c0.3,0.2,0.5-0.3,0.3-0.5c-0.1-0.1-0.3-0.1-0.5-0.1c-0.3,0-0.6,0.1-0.9,0.1c-0.5,0.1-1.1,0.1-1.6,0.2
			c-0.6,0-1.1,0.1-1.7,0.2c-0.1,0.1-0.1,0.2-0.1,0.3C-4338.7,6888.5-4338.6,6888.5-4338.5,6888.5L-4338.5,6888.5z"/>
	</g>
	<g transform="translate(11.902 25.565)">
		<path d="M-4338.5,6888.8c0.6,0,1.2-0.2,1.8-0.3c0.6-0.1,1.2-0.2,1.8-0.2s1.2-0.1,1.7-0.1c0.3,0,0.6,0,0.9,0c0.3,0,0.6,0,0.9,0
			s0.2-0.4,0-0.5c-0.4-0.1-0.7-0.1-0.9-0.1c-0.4,0-0.7,0-1,0c-0.6,0-1.2,0-1.8,0.1c-0.6,0.1-1.2,0.2-1.8,0.3s-1.2,0.2-1.7,0.5
			c-0.1,0-0.1,0.1-0.1,0.2S-4338.6,6888.8-4338.5,6888.8L-4338.5,6888.8z"/>
	</g>
</g>
<g transform="translate(4626.563 -6811.719)">
	<path class="st4" d="M-4156.9,6991c-0.4-1.3-1.2-2.4-1.5-3.7c-0.6-1.6-1.4-3.2-2.4-4.5c-1.4-2-3-3.9-3.8-6.2
		c-0.7-2.2-0.5-4.6-0.6-6.9c-0.1-1.5-0.5-2.9-1.1-4.2c-0.3-0.6-0.8-1.2-1.4-1.6c-0.4-0.2-0.9-0.5-1.3-0.8c-0.4-0.5-0.2-1.1-0.3-1.7
		c-0.1-0.3-0.2-0.6-0.5-0.8c-0.1-0.1-0.3-0.2-0.4-0.2c-0.1,0-0.3,0-0.4,0c-3.8-5.9-4-13.4-3.5-20.5c0.5-7.1,1.3-14.4-1-21
		c-0.2-0.7-0.5-1.3-0.9-1.9c-0.7-0.8-1.6-1.5-2.6-1.8c0.2,0.4,0,0.8-0.4,0.9l0,0c-5.4,2.2-11.2,3.3-17,3.1c-2.8,0.1-5.7-0.1-8.5-0.6
		c-0.3,0-0.5-0.1-0.8-0.2c-4.5,6.7-8,14.1-10.4,21.8l8.4,2.2c-1.6-0.4-3.1-2.1-3.5-0.3c-0.3,4.7,0.6,9.4,2.6,13.7
		c0.3,0.8,0.9,1.4,1.7,1.8c0.9,0.4,4.4-0.3,5.4-0.7c2-0.8,4.1-1.5,6.2-2c0.8,0-2.6-1.1-2.2-0.4c0.4,0.9,0.8,1.9,1.2,2.9
		c0,0.3,0,0.6,0.1,1c0.3,1.4,0.5,2.8,0.6,4.2c0,0.3,0.3,3.7,0.3,3.7c-1.3,0-2.6,0.4-3.6,1.3c-1,1.1-0.6,2.5-0.6,3.8
		c0.1,0.8,0,1.7-0.3,2.5c-0.4,0.7-1,1.3-1.4,1.9c-0.9,1.4-1.8,2.9-2.6,4.4c-2.8,5.1-20.4,28.3-20.4,28.3c-1.4-5.8-4.3-11.1-8.4-15.4
		c-6.6-6.7-7-9.7-15.6-14.7s-9-2.2-12.4-2.8c-3.4-0.6-12.7-1.8-17.4,5.7c-4.7,7.5,2.8,8.9,2.8,8.9s-7.1,13.1-0.9,9.5
		c6.2-3.6,9-12.7,11.5-13.5c2.5-0.8,5.3,0.4,3,3.1c-2.3,2.7-2.4,4.7-0.5,3.4c1.9-1.3,12.4-1,12.6,0.1c0.2,1.1,0,0,1.5,1.7
		c0.6,0.8,1.1,1.7,1.5,2.7c0.7,1.6,1.4,3.3,1.9,5c0.4,1.4,0.8,2.8,1.3,4.2c0.6,1.7,1.2,3.4,1.8,5.1l3.7,10.1l4.9,13.4
		c-2.5-1-3.4-3.8-5-5.9c-3.1-4-9-4.9-14.3-5.6c-0.7-0.2-1.4-0.1-2.1,0.2c-0.4,0.2-0.7,0.5-0.9,0.8c-1.3,1.6-2.5,3.3-3.5,5.1
		c-6.3-0.3-12.3,5.5-11.9,11.4c3.3-0.4,6.6-0.8,10-1.3c0.5-0.1,1.1-0.1,1.6,0.2c0.6,0.6,0,1.6,0,2.5c-0.1,1.3,1.2,2.4,2.6,2.6
		c0.1,0,0.1,0,0.2,0c1.5,0,2.9-0.3,4.3-1c3.9,3.5,10.2,2.5,15.5,3.6c2.5,0.5,4.8,1.4,7.2,2.1c3.6,0.9,7.2,1.5,10.9,1.8
		c5.5,0.6,11,1.3,16.5,1.8c9,0.9,18.6,1.7,27.1-2c0.7-0.3,1.4-0.7,1.9-1.3c0.4-0.5,0.6-1.2,0.6-1.8c1.2-7,0.1-14.2,2.1-21.1
		s6.8-12.8,10.2-19.2C-4156.9,7002.8-4155,6996.4-4156.9,6991z"/>
	<g transform="translate(58.333 91.334)">
		<path d="M-4318.8,6894c-3.7,0-6.3,2.7-8.7,5.3c-1.9,2-3.7,4.1-5.2,6.4c-0.4,0.8-1,1.6-1.6,2.3c-0.7,0.4-1.5,0.7-2.3,0.6
			c-0.3,0-1.2,0-1.4-0.2c0-0.4,0.1-0.8,0.2-1.1c0.1-0.4,0.2-0.9,0.2-1.3c0.9-3.5,2.6-6.8,5-9.5c2.8-3.3,6.2-6.1,10-8.1
			c0.4-0.2,0-0.8-0.4-0.6c-3.6,1.8-6.8,4.3-9.6,7.4c-2.6,2.7-4.4,6-5.5,9.6c-0.2,0.8-0.4,1.7-0.5,2.6c-0.1,0.4-0.3,1.2,0,1.5
			c0.6,0.7,2.3,0.4,3,0.3c0.7-0.1,1.3-0.4,1.9-0.8c0.6-0.6,1.2-1.4,1.6-2.2c0.8-1.3,1.7-2.5,2.7-3.7c1.3-1.5,2.7-3,4-4.4
			c1.8-1.8,4-3.7,6.7-3.8c0.1,0,0.2-0.1,0.2-0.2C-4318.6,6894-4318.7,6894-4318.8,6894L-4318.8,6894z"/>
	</g>
	<g transform="translate(62.083 87.197)">
		<path d="M-4320.9,6888.5c-3.5-1.5-7.5-1-10.5,1.3c-1.6,1.3-3,2.9-4.1,4.7c-1.3,1.9-2.3,3.9-3.1,6l0.7,0.1c0-0.4,0-0.8,0-1.1
			c0-0.1-0.1-0.2-0.3-0.2c-0.1,0-0.2,0.1-0.2,0.2c-0.1,0.4-0.2,0.7-0.3,1.1c0,0,0.1,0.2,0.3,0.2s0.4-0.1,0.5-0.3l0,0
			c1.4-3.7,3.6-7.1,6.5-9.9c2.9-2.5,6.9-3.2,10.4-1.9C-4320.9,6889-4320.7,6888.6-4320.9,6888.5L-4320.9,6888.5z"/>
	</g>
	<g transform="translate(57.22 89.732)">
		<path d="M-4328.2,6887.6c-2.8,1-5.4,2.6-7.6,4.5c-2,1.8-3.1,4.5-2.8,7.3c0,0.2,0.2,0.3,0.4,0.3c0.6,0,1.2,0,1.8-0.1
			c0.1,0,0.2-0.2,0.2-0.3c0-0.1-0.1-0.1-0.2-0.2c-0.6-0.1-1.2-0.2-1.8-0.1l0.4,0.3c-0.5-2.7,0.9-5.3,2.8-7c2.1-1.8,4.4-3.2,7-4.2
			C-4327.8,6887.9-4328,6887.5-4328.2,6887.6L-4328.2,6887.6z"/>
	</g>
	<g transform="translate(78.344 87.66)">
		<path d="M-4338.5,6888.4c4.2-0.9,8.2,0.7,11.9,2.7c3.6,1.9,7,4.2,10.1,6.9c5.6,5,8.5,11.8,11.5,18.5c0.2,0.5,0.9,0.1,0.7-0.4
			c-3.1-7.1-6.7-14.5-12.8-19.5c-3.1-2.7-6.6-4.9-10.3-6.8c-3.4-1.7-7.3-2.8-11.2-1.8c-0.1,0-0.1,0.2-0.1,0.3
			C-4338.7,6888.3-4338.6,6888.4-4338.5,6888.4L-4338.5,6888.4z"/>
	</g>
	<g transform="translate(88.474 104.02)">
		<path d="M-4338.6,6888c1.3,1.5,2.3,3.2,3.1,5.1c1.4,2.9,2.7,5.8,3.9,8.8c2.6,6.3,5,12.7,7.1,19.2c0.7,2.2,1.3,4.4,1.9,6.6
			c0.1,0.2,0.2,0.3,0.4,0.2c0.1,0,0.2-0.2,0.2-0.3c-0.3-2-0.8-3.9-1.5-5.8c-1-3.1-2-6.1-3.2-9.1c-2.3-6.6-5-13-8-19.2
			c-1-2-2-4.3-3.6-5.8c-0.1-0.1-0.2-0.1-0.3,0C-4338.7,6887.8-4338.7,6887.9-4338.6,6888L-4338.6,6888z"/>
	</g>
	<g transform="translate(112.872 81.521)">
		<path d="M-4312.2,6887.9c1,6.1-2,11.9-5.3,16.8c-2.5,3.7-5.2,7.3-7.3,11.2c-4.1,7.8-7.6,16-10.4,24.4c-1.5,4-2.7,8.1-3.5,12.4
			c-0.1,0.4,0.6,0.6,0.7,0.2c2.1-8.3,4.9-16.3,8.2-24.2c1.7-4.1,3.6-8.2,5.7-12.1c2.2-4.1,5-7.8,7.5-11.7c3.3-5.1,6.1-10.9,4.9-17.1
			C-4311.8,6887.5-4312.2,6887.6-4312.2,6887.9L-4312.2,6887.9z"/>
	</g>
	<g transform="translate(105.357 101.946)">
		<path d="M-4338.7,6887.9c0.9,1.9,2,3.8,3,5.7c1.1,2.2,2.1,4.4,3,6.6c1,2.1,1.8,4.3,2.6,6.4c0.5,1.6,1.1,3.2,1.8,4.7
			c0.1,0.2,0.5,0.1,0.5-0.1c-0.3-1.7-0.8-3.3-1.6-4.9c-0.8-2.1-1.7-4.2-2.6-6.2c-1-2.2-2-4.4-3.1-6.6c-0.9-2-2-4-3.3-5.8
			C-4338.5,6887.5-4338.8,6887.7-4338.7,6887.9L-4338.7,6887.9z"/>
	</g>
	<g transform="translate(115.091 86.678)">
		<path d="M-4338.4,6923.8c1.9-3.4,3.6-6.8,5.7-10.1c2.1-3.2,4.3-6.4,6.5-9.5c2.7-3.7,5.1-7.5,7.6-11.3c0.7-1,1.4-2.1,2.2-3
			c0.4-0.6,0.9-1.2,1.6-1.6c0.5-0.2,0.1-0.9-0.4-0.7c-1.2,0.6-2.2,2.4-2.9,3.5c-1.3,1.9-2.6,3.9-3.9,5.9c-3.3,5.1-7.1,9.9-10.4,15
			c-2.3,3.7-4.9,7.6-6.3,11.7C-4338.8,6923.9-4338.5,6924-4338.4,6923.8L-4338.4,6923.8z"/>
	</g>
	<g transform="translate(121.046 27.23)">
		<path d="M-4325.3,6887.7c-3.7,3.5-6.8,7.6-9.3,12.1c-2.2,4.3-3.6,9-4.1,13.8c0,0.2,0.1,0.3,0.3,0.4c1.9,0.3,3.9,0.6,5.8,0.9
			c1.7,0.3,3.4,0.5,5.1,0.6c0.2,0,0.3-0.1,0.3-0.3c0-0.1-0.1-0.3-0.2-0.3c-0.7-0.2-1.4-0.3-2.1-0.3c-1-0.1-2.1-0.3-3.1-0.4
			c-1.9-0.3-3.7-0.5-5.6-0.9l0.3,0.3c0.9-10,6.1-18.4,12.8-25.7C-4324.9,6887.7-4325.2,6887.5-4325.3,6887.7L-4325.3,6887.7z"/>
	</g>
	<g transform="translate(133.553 39.857)">
		<path d="M-4336.2,6888.7v-0.1v-0.1l0,0l0,0c0-0.1,0-0.1-0.1-0.1c0-0.1,0-0.1-0.1-0.1c-0.1-0.3-0.2-0.4-0.4-0.5
			c-0.1-0.1-0.3-0.2-0.4-0.2c-0.2,0-0.4,0-0.5,0c-0.2,0.1-0.4,0.2-0.5,0.3l-0.1,0.1l-0.1,0.1l0,0l0,0l0,0l-0.1,0.3
			c-0.2,0.2-0.2,0.4-0.2,0.6c0,0.3,0,0.5,0.2,0.7c0.1,0.2,0.3,0.3,0.5,0.5c0.1,0.1,0.3,0.1,0.5,0.2c0.2,0,0.3,0,0.5,0
			c0.1-0.2,0.3-0.3,0.5-0.5c0.1-0.1,0.2-0.3,0.3-0.5C-4336.1,6889.1-4336.1,6888.9-4336.2,6888.7L-4336.2,6888.7z"/>
	</g>
	<g transform="translate(130.433 58.296)">
		<path d="M-4338.6,6890.8c0.1,0.1,0.3,0.2,0.4,0.2c0.2,0,0.4,0.1,0.6,0.1c0.4,0,0.8,0.1,1.3,0c0.8,0,1.6-0.2,2.4-0.5
			c0.8-0.2,1.5-0.6,2.1-1c0.7-0.4,1.3-1,1.6-1.7c0-0.1,0-0.2-0.2-0.3c0,0,0,0-0.1,0c-0.3,0.2-0.5,0.4-0.8,0.7
			c-0.2,0.2-0.5,0.4-0.8,0.6c-0.6,0.4-1.3,0.8-2,1c-0.8,0.3-1.5,0.4-2.2,0.5c-0.4,0-0.7,0-1.1,0c-0.2,0-0.4,0-0.5,0
			c-0.2,0-0.4,0-0.6,0C-4338.8,6890.4-4338.8,6890.7-4338.6,6890.8L-4338.6,6890.8z"/>
	</g>
	<g transform="translate(137.682 68.839)">
		<path d="M-4335.8,6900.4c4.2-2.9,8.7-5.3,13.4-7.4c4.9-2.2,10-3.8,15.3-4.5l-0.4-0.4c0,0.9,0,1.8-0.1,2.6c0.1,0.9,0,1.9-0.3,2.7
			c-0.3,0.7-0.6,0.7-1.3,1c-0.4,0.2-0.9,0.3-1.3,0.5c-0.7,0.3-1.4,0.5-2.2,0.8c-2.9,1.1-5.8,2.3-8.7,3.5c-5.9,2.6-11.6,5.6-17.2,8.9
			c-0.2,0.1-0.3,0.4-0.2,0.7c0.1,0.2,0.4,0.3,0.7,0.2c6.1-3.6,12.4-6.9,18.9-9.6c3.4-1.4,6.8-2.7,10.2-3.9c1.1-0.4,2-0.7,2.2-1.9
			c0.2-1.8,0.2-3.5,0-5.3c0-0.2-0.2-0.4-0.4-0.4h-0.1c-5.2,1.1-10.2,2.7-15.1,4.6c-4.9,2-9.5,4.6-13.8,7.7
			C-4336.3,6900.1-4336.1,6900.6-4335.8,6900.4L-4335.8,6900.4z"/>
	</g>
	<path d="M-4170.8,6897.5c-3.4-2-7.4-2.7-11.3-2c-1,0.3-2.1,0.4-3.1,0c-1.3-0.7-1.2-2.3-1.6-3.7c-1.1-3.6-6.1-4.8-10.1-3.9
		c-5.9,1.3-10.7,5.4-12.9,11c-2,5.4-0.7,11.5,3.4,15.6c0.8,0.6,1.7,1.1,2.7,1.4c3-0.6,6-0.7,9-0.4c0.9,0,1.7,0.3,2.4,0.9
		c0.4,0.6,0.6,1.2,0.7,1.9c0.6,5.4,0.5,10.9-0.5,16.3c-0.1,0.3-0.1,0.6,0.1,0.9c0.2,0.2,0.4,0.3,0.7,0.3c0.9,0.2,1.9,0.2,2.8,0
		c0.4,0,0.8-0.2,1.1-0.5c0.2-0.4,0.3-0.8,0.2-1.2c-0.1-4.5,3.1-9.1,7.6-10.8c0.7-0.3,1.5-0.4,2.2-0.4c1.6,0.4,2.6,2,2.3,3.6
		c-0.2,1.2-0.7,2.3-1.4,3.2c-1.5,2.6-5.6,6.3-5.2,11.8c0.4,5.5,9.6,4.9,9.6,4.9s12.1-16.4,13.6-30.3s-6.6-13.4-6.6-13.4
		S-4166.2,6899.9-4170.8,6897.5z"/>
	<g transform="translate(74.951 97.677)">
		<path d="M-4332.5,6887.6c-2.1,0.7-3.9,2.1-5.1,4c-1.2,1.7-1.4,4-0.4,5.9c0,0.2,0.3,0.2,0.4,0.1l0.1-0.1c1.1-2,3.6-2.6,5.7-3.3
			c2.5-0.8,5.1-1.4,7.7-0.4c0.4,0.1,0.6-0.5,0.3-0.7c-2.6-1.3-5.7-0.5-8.3,0.4c-2.2,0.7-4.8,1.5-6,3.6h0.6c-0.8-1.7-0.6-3.9,0.7-5.4
			c0.5-0.8,1.2-1.5,2-2.1c0.8-0.6,1.7-1,2.5-1.6C-4332.1,6887.9-4332.2,6887.5-4332.5,6887.6L-4332.5,6887.6z"/>
	</g>
	<g transform="translate(8.28 95.967)">
		<g transform="translate(131.458)">
			<path d="M-4331.1,6887.7c-1.2,7.9-1.3,16-0.3,24c0,0.2,0.2,0.4,0.4,0.4c0.1,0,0.3-0.1,0.3-0.2c0.9-1.5,1.4-3.3,1.4-5
				c0.2-2.1,0.8-4.2,1.8-6.2c1.6-3.3,3.7-6.4,4.1-10.1c0-0.3-0.4-0.4-0.6-0.2c-1,1.6-1.7,3.5-2,5.4c-0.5,2.3-0.9,4.5-1.2,6.8
				c-0.6,4.3-0.8,8.6-0.8,12.9c0.1,4.3,0.3,9-1.6,13c-1.6,3.5-4.9,6.4-8.8,6.7c-0.4,0-0.5,0.7,0,0.7c3.5-0.2,6.6-2.1,8.5-5.1
				c2.3-3.4,2.8-7.6,2.8-11.6c-0.1-4.7,0-9.4,0.3-14.1c0.3-2.5,0.6-5,1.1-7.5c0.5-2.4,0.9-4.8,2.2-6.9l-0.6-0.2
				c-0.4,3.8-2.8,7-4.4,10.4c-0.7,1.5-1.2,3-1.5,4.6c-0.3,2-0.2,4.1-1.4,5.9l0.7,0.3c-1-7.9-1-16,0-23.9
				C-4330.7,6887.6-4331,6887.5-4331.1,6887.7L-4331.1,6887.7z"/>
		</g>
		<g transform="translate(88.407 44.288)">
			<path d="M-4338.5,6888.1c2.9-0.5,4.7,1.8,6.5,3.6c1.2,1.1,2.6,2,4.1,2.6c3.6,1.5,7.7,1.6,11.5,1.4c4.4-0.2,8.7-0.7,13-1.6
				c4.2-0.9,8.9-2,12.7-4c0.1-0.1,0.2-0.3,0.1-0.4s-0.2-0.2-0.3-0.1c-2.2,0.7-4.4,1.6-6.6,2.3c-2.1,0.6-4.2,1.2-6.3,1.6
				c-4.5,1-9.1,1.5-13.7,1.6c-4,0.1-8.3-0.1-11.8-2.2c-3-1.8-5.2-6-9.2-5.1C-4338.8,6887.8-4338.7,6888.1-4338.5,6888.1
				L-4338.5,6888.1z"/>
		</g>
		<path d="M-4315.7,6946.8c20.3-1,41.5-2.2,61.7-1.1c0.9,0,1.5,3.3,1.5,4.1c-1.1,1-2.6,1.4-4,1.2l-3.8,1.9
			c-17.2-1.3-34.5-0.7-51.6,1.9C-4312,6954.7-4315.3,6948.6-4315.7,6946.8z"/>
		<path d="M-4308.4,6952.7l-8.1,1l-22.2-63.9l8.5-1.8L-4308.4,6952.7z"/>
		<g transform="translate(60.99 43.111)">
			<path d="M-4338.4,6899c1-2.3,2.6-4.3,4.6-5.7c1.2-0.9,2.6-1.5,4-1.7c1.3,0.1,2.6,0.4,3.8,0.6c2.5,0.1,5.1-0.4,7.4-1.3
				c2.8-0.8,5.6-1.7,8.3-2.8c0.3-0.2,0.1-0.6-0.2-0.5c-1.6,0.4-3.2,0.9-4.7,1.5c-1.5,0.5-2.9,1-4.4,1.5s-3,0.9-4.6,1.1
				c-1.6,0-3.1-0.2-4.7-0.6c-4.4-0.6-8.6,4-9.8,7.8C-4338.8,6899.1-4338.4,6899.2-4338.4,6899L-4338.4,6899z"/>
		</g>
		<g transform="translate(70.226 39.53)">
			<path d="M-4338.5,6895.3c1.2-1.3,2.5-2.6,3.9-3.8c0.8-0.6,1.6-1.2,2.4-1.8c0.8-0.6,1.7-1.1,2.7-1.4c1-0.1,2,0.2,2.9,0.6
				c0.9,0.3,1.7,0.7,2.6,1.1c1.6,0.7,3,1.8,4.2,3.2c0.2,0.3,0.7,0,0.7-0.3c0-0.2,0-0.4,0-0.5c0-0.4-0.6-0.5-0.7-0.1
				c0,0.2-0.1,0.4-0.1,0.5l0.7-0.1c-1.2-1.5-2.7-2.6-4.4-3.4c-0.9-0.4-1.7-0.7-2.6-1.1c-0.9-0.5-2-0.7-3-0.7c-1,0.3-1.9,0.7-2.7,1.3
				c-0.8,0.5-1.6,1.1-2.4,1.7c-1.7,1.3-3.2,2.8-4.4,4.6C-4338.7,6895.2-4338.7,6895.3-4338.5,6895.3L-4338.5,6895.3L-4338.5,6895.3z
				"/>
		</g>
		<g transform="translate(64.805 51.722)">
			<path d="M-4338.6,6892.9c1.9-0.7,3.3-2.1,4.9-3.1c1.8-1.1,4-1.6,6.1-1.4l-0.1-0.7c-1,0.6-2,1.3-3,1.9s-2.1,1.2-3,1.9
				c-0.3,0.2,0.1,0.7,0.5,0.5c1-0.5,2-1.2,3-1.8s2-1.2,2.9-1.9c0.2-0.1,0.2-0.4,0.1-0.6c-0.1,0-0.2-0.1-0.3-0.1
				c-2.2-0.1-4.3,0.4-6.1,1.4c-1.8,1-3.2,2.7-5.1,3.6C-4338.8,6892.7-4338.7,6892.9-4338.6,6892.9L-4338.6,6892.9z"/>
		</g>
		<g transform="translate(71.619 55.049)">
			<path d="M-4338.6,6889.9c1.6,0.5,3.4-0.2,4.9-0.6c0.8-0.2,1.7-0.5,2.5-0.6c0.5-0.1,0.9-0.2,1.4-0.2s0.9,0,1.4-0.1
				c0.5-0.1,0.3-0.8-0.1-0.8c-0.5,0-0.9,0-1.3,0.1c-0.4,0-0.8,0.1-1.2,0.2c-0.9,0.2-1.7,0.4-2.5,0.7c-0.8,0.2-1.6,0.5-2.5,0.7
				c-0.8,0.2-1.7,0.3-2.5,0.3C-4338.6,6889.6-4338.7,6889.7-4338.6,6889.9L-4338.6,6889.9L-4338.6,6889.9z"/>
		</g>
		<g transform="translate(44.471 56.176)">
			<path d="M-4336.9,6891.2c0.2-0.1,0.4-0.2,0.6-0.4c0.2-0.2,0.3-0.3,0.5-0.5c0.3-0.2,0.7-0.4,1.1-0.5c1-0.2,2-0.3,3-0.2l-0.8-0.5
				c0.1,0.3,0.2,0.7,0.1,1.1l1.8-0.3c-0.4-0.4-0.7-0.8-1-1.2c-0.1-0.3-0.5-0.4-0.9-0.3c-0.4,0-0.7,0.3-0.8,0.6
				c0,0.2-0.1,0.5-0.2,0.7l1.9,0.2c0.1-0.6-0.3-1.3-1.4-1.3s-1.4,0.8-1.8,1.4l1.7-0.3c-0.2-0.2-0.4-0.4-0.5-0.6
				c-0.3-0.4-1.1-0.5-1.6-0.2c-0.6,0.3-1,0.8-1.3,1.4l1.6-0.3c-0.5-0.4-1.5-0.3-2.2-0.2h-0.1c-0.1,0,0,0,0.1,0c-0.1,0-0.1,0-0.2,0
				c-0.2,0-0.1,0,0.1,0c-0.1,0,0.1,0,0.1,0c0.1,0.1,0.3,0.2,0.3,0.3c0,0.2,0,0.2,0,0.1c0,0.1,0,0.1,0,0c0.1,0,0.1-0.1,0.1-0.2
				c0.1-0.1,0.2-0.3,0.4-0.4c0.2-0.2,0.4-0.3,0.7-0.4c0.3,0,0.6-0.1,0.9-0.1c0.2,0,0.4,0,0.6-0.1c0.1,0,0.2,0,0.3,0c0.1,0,0,0-0.1,0
				h0.2c0.4,0,0.7,0,1.1,0c0.2,0-0.2,0,0,0h0.1c0.1,0-0.1,0-0.1,0c0.2,0,0.3,0.1,0.5,0.1c0.2,0,0.3,0,0.5,0c0.1,0,0.1,0,0,0
				s-0.3-0.1-0.3-0.2c-0.4-0.2-0.5-0.2-0.4-0.1c0.1,0.2,0-0.1,0,0c0,0.1,0,0.1,0,0.2c0,0.2-0.1,0.5-0.2,0.7l1.9-0.5
				c-0.1-0.1,0,0.1,0.1,0.1c0,0.1-0.2,0.4,0,0.2l-2.1-0.2c0.1,0.2,0.2,0.3,0.2,0.5c0,0,0,0.2,0,0.1v0.2c0,0.1,0,0.1,0,0
				c0.1,0.5,0.5,0.8,1,0.7l0,0c0.5,0.1,1-0.2,1.2-0.7c0-0.5-0.1-0.9-0.3-1.3c-0.3-0.5-1.4-0.4-1.9,0c-0.4,0.3-0.4,0.9-0.1,1.3
				c0.1,0.1,0.1,0.1,0.2,0.2c0.5,0.3,1.7,0.2,1.9-0.4c0.2-0.5,0.3-1,0.2-1.5c-0.3-0.4-0.7-0.7-1.2-0.7c-0.1,0-0.2,0-0.2,0
				c-0.2,0,0,0,0.1,0s0,0,0,0h-0.3c-0.4-0.1-0.8-0.1-1.2-0.1c-0.1,0-0.2,0-0.3,0c-0.1,0-0.6,0-0.3,0c-0.3,0-0.6,0-0.9,0.1
				c-1,0-2,0.3-2.8,0.8c-0.6,0.3-1,0.7-1.2,1.3c-0.2,0.4-0.3,0.9,0.3,1.2c0.5,0.1,1,0.1,1.5,0h0.3c-0.3,0,0.1,0,0.1,0h0.1
				c0.1,0-0.2,0,0,0c0.1,0-0.2-0.1-0.1,0c0,0-0.2-0.1,0,0c0.5,0.3,1.2,0.2,1.6-0.3c0.2-0.4,0.5-0.6,0.8-0.8l-1.5-0.2
				c0.2,0.4,0.5,0.7,0.8,0.9c0.5,0.3,1.3,0.2,1.7-0.3l0.2-0.3c0-0.1,0.2-0.2,0.2-0.3c-0.1,0.2-0.4,0.2-0.9,0.2
				c-0.1,0-0.1-0.1-0.2-0.2c0,0,0,0.1,0,0.2c0,0.4,0.4,0.7,0.9,0.7s0.9-0.2,1-0.6c0.2-0.4,0.2-0.7,0.3-1l-1.8,0.3
				c0.3,0.5,0.7,1,1.1,1.3c0.3,0.2,0.7,0.2,1,0.1c0.4,0,0.7-0.2,0.7-0.5c0-0.5,0-1-0.2-1.4c-0.2-0.3-0.5-0.5-0.9-0.5
				c-1.3-0.1-2.6,0.1-3.9,0.5c-0.6,0.2-1.1,0.5-1.5,1c-0.2,0.1-0.4,0.3-0.5,0.6c-0.1,0.2-0.2,0.4-0.2,0.6
				C-4337.6,6891.2-4337.2,6891.4-4336.9,6891.2L-4336.9,6891.2z"/>
		</g>
		<g transform="translate(96.386 50.684)">
			<path d="M-4333.7,6887.9c-0.1,3.4,0,6.7-0.1,10.1c0,2-0.1,4-0.2,6c0,1.6-0.4,3.2-1.2,4.5c-0.2,0.4-0.6,0.9-1.1,0.6
				c-0.4-0.4-0.6-0.9-0.8-1.4c-0.4-1.7-0.8-3.4-1-5.1c0-0.4-0.6-0.3-0.6,0.1c0,1.7,0.3,3.4,0.8,5c0.2,0.8,0.6,1.9,1.4,2.2
				c1.6,0.7,2.7-2.3,3-3.4c0.3-1.8,0.4-3.7,0.4-5.6c0.1-2.5,0.1-5,0.1-7.4c0-1.9-0.1-3.8,0-5.6c-0.1-0.2-0.2-0.3-0.4-0.3
				C-4333.5,6887.6-4333.7,6887.7-4333.7,6887.9L-4333.7,6887.9L-4333.7,6887.9z"/>
		</g>
	</g>
	<g transform="translate(151.847 35.823)">
		<path d="M-4335.6,6888.8c0.2-0.3,0.2-0.7,0-1.1c-0.1-0.1-0.3-0.1-0.4-0.1c-0.4,0.3-0.8,0.6-1.1,0.9c-0.4,0.4-0.7,0.8-0.9,1.2
			c-0.5,0.8-0.7,1.8-0.7,2.7c0,0.3,0.6,0.5,0.6,0.1c0.2-0.8,0.4-1.6,0.8-2.4c0.2-0.4,0.4-0.7,0.7-1c0.3-0.4,0.6-0.6,1-1h-0.5
			c0.2,0.1,0.2,0.3,0.2,0.5C-4336.1,6888.8-4335.7,6889.1-4335.6,6888.8L-4335.6,6888.8z"/>
	</g>
	<path d="M-4158.9,6996.1c2.1-0.5,3.9-2,4.9-3.9c-0.7-1-1.1-2.2-1.1-3.4c0-0.9,0.1-1.7,0.3-2.6c0.1-0.4,0.3-0.7,0.5-1
		c-0.8-1.3-1.8-2.3-3-3.1c-1.5-1-3.3-0.2-4.2,0.2c-0.2,0.1-0.3,0.2-0.4,0.3l-0.2,4.1c0,0,0,16.7,0.6,27.2s-6.9,39.3-6.9,39.3
		l1.5,0.7l11.8-52.2l-4.2-1L-4158.9,6996.1z"/>
	<g transform="translate(171.735 92.687)">
		<path d="M-4323.9,6899.8c-1-0.5-1.2-2.1-1.3-3c-0.2-1.2-0.1-2.4,0.3-3.6c1.1-3,4.3-4.6,7.3-3.6c2.8,0.9,5.4,4.5,3.8,7.4
			c-0.8,1.3-1.9,2.4-3.3,3.1c-0.7,0.3-1.4,0.6-2.2,0.8c-0.9,0.3-1,0.7-1.4,1.6c-5.3,15.1-9.8,30.4-13.3,46c-1,4.4-1.9,8.8-2.7,13.1
			c-0.4,2.2-0.8,4.4-1.2,6.6c-0.4,2.1-0.7,4.3-0.8,6.4c0,0.4,0.4,0.7,0.8,0.7c0.3,0,0.6-0.2,0.7-0.5c0.6-2.4,1.1-4.8,1.4-7.2
			c0.4-2.3,0.8-4.7,1.3-7c0.9-4.8,1.9-9.5,3-14.3c2.2-9.5,4.8-18.9,7.7-28.2c1.7-5.4,3.5-10.7,5.4-15.9l-0.7,0.7
			c3.1-0.6,5.7-2.5,7.1-5.3c1.3-2.9,0-6-2.2-8c-2.2-2-5.3-2.6-8-1.4c-2.4,1.1-4.1,3.3-4.5,5.9c-0.3,2.1,0.1,5.8,2.5,6.7
			c0.3,0.1,0.6-0.1,0.6-0.4C-4323.6,6900.1-4323.7,6899.9-4323.9,6899.8L-4323.9,6899.8z"/>
	</g>
	<g transform="translate(177.538 104.537)">
		<path d="M-4330.7,6888c-1.7,5-3.4,10.1-4.9,15.2c-0.7,2.5-1.4,5-1.9,7.5c-0.3,1.3-0.6,2.7-0.8,4c-0.3,1.1-0.4,2.4-0.4,3.6
			c0,0.3,0.3,0.5,0.6,0.5c0.2,0,0.4-0.2,0.5-0.4c0.4-1.2,0.7-2.4,0.8-3.7c0.3-1.2,0.5-2.5,0.8-3.7c0.6-2.6,1.3-5.2,2-7.7
			c1.4-5,3-10,4.3-15.1c0.1-0.2-0.1-0.5-0.4-0.6C-4330.4,6887.6-4330.6,6887.7-4330.7,6888L-4330.7,6888z"/>
	</g>
	<g transform="translate(93.902 169.845)">
		<path d="M-4338.3,6888.2c-0.1,1.9-0.2,3.8-0.3,5.6c-0.1,1.8-0.1,3.7,0,5.5c0,0.4,0.4,0.7,0.8,0.7s0.7-0.3,0.7-0.7
			c0.1-1.8,0.2-3.7,0.2-5.5c0-1.9,0-3.7-0.1-5.6c0-0.3-0.3-0.6-0.7-0.6C-4338,6887.6-4338.3,6887.9-4338.3,6888.2z"/>
	</g>
	<g transform="translate(89.063 170.363)">
		<path d="M-4338.1,6888c-0.3,1.8-0.5,3.7-0.6,5.5c0,0.9,0,1.9,0,2.8c0,0.8-0.1,2,0.5,2.7c0.3,0.3,0.7,0.3,1,0l0.1-0.1
			c0.4-0.7,0.1-1.9,0.1-2.6c0-0.9-0.1-1.9-0.1-2.8c0-1.8,0-3.5,0.2-5.3C-4336.8,6887.5-4337.9,6887.4-4338.1,6888L-4338.1,6888z"/>
	</g>
	<g transform="translate(21.784 171.024)">
		<path d="M-4338.6,6888.1c-0.1,1.9-0.1,3.7-0.1,5.6c0,0.9,0,1.9,0.1,2.9c-0.1,0.9,0,1.9,0.2,2.7c0.1,0.3,0.4,0.5,0.7,0.4
			c0.2-0.1,0.4-0.2,0.4-0.4c0.3-0.9,0.3-1.8,0.2-2.7c0-1-0.1-2-0.2-3c-0.1-1.8-0.2-3.6-0.2-5.5
			C-4337.5,6887.4-4338.5,6887.4-4338.6,6888.1L-4338.6,6888.1z"/>
	</g>
	<g transform="translate(14.832 171.241)">
		<path d="M-4338.3,6888.5c0.8,0,2,0.1,2.5,0.9c0.1,0.5,0.1,1-0.1,1.5s-0.3,1.1-0.4,1.7c-0.2,1.1-0.2,2.2-0.2,3.4
			c0,0.6,0,1.1,0.1,1.7c0,0.6,0.1,1.2,0.4,1.6c0.2,0.2,0.6,0.2,0.8,0l0.1-0.1c0.2-0.6,0.3-1.3,0.2-1.9c0-0.7-0.1-1.3-0.1-2
			c0-1.3,0.1-2.7,0.4-4c0.3-1.1,0.3-2.1-0.6-2.9c-0.9-0.7-2-0.9-3.1-0.8C-4338.8,6887.7-4338.9,6888.5-4338.3,6888.5L-4338.3,6888.5
			z"/>
	</g>
	<g transform="translate(0.107 161.888)">
		<path d="M-4338.7,6888.1c0,3.5,0.3,6.9,0.3,10.4c0,0.3,0.3,0.6,0.6,0.6c9.9-0.1,19.8-0.1,29.6-0.4c1,0,2,0,3-0.1
			c0.3,0,0.6,0,0.9-0.1c0.1,0,0.5,0,0.3,0c0.3,0,0.5-0.2,0.5-0.5c0-0.3-0.2-0.5-0.5-0.5c0.1,0-0.1,0-0.2,0c-0.2,0-0.5,0-0.7-0.1
			c-0.8,0-1.7,0-2.5,0c-2.7,0-5.4,0.1-8.1,0.1c-6,0.1-12.1,0.2-18.1,0.3l-4.2,0.1l0.6,0.6c-0.1-3.5-0.4-6.9-0.4-10.4
			c-0.1-0.3-0.3-0.5-0.6-0.5C-4338.5,6887.6-4338.7,6887.8-4338.7,6888.1L-4338.7,6888.1z"/>
	</g>
	<g transform="translate(3.071 169.692)">
		<path d="M-4338.6,6890.7c27.6,0.4,55.2-0.5,82.9-1.1c2.6,0.1,5.1-0.1,7.6-0.4c1.8-0.3,3.6-0.5,5.5-0.5c0.3,0,0.5-0.3,0.5-0.6
			s-0.2-0.5-0.5-0.5c-3.6-0.1-7,0.4-10.6,0.5c-6.9,0.2-13.7,0.3-20.5,0.5c-13.8,0.3-27.6,0.6-41.5,1
			C-4323,6889.8-4330.8,6890.1-4338.6,6890.7C-4338.7,6890.6-4338.7,6890.6-4338.6,6890.7
			C-4338.7,6890.7-4338.7,6890.7-4338.6,6890.7L-4338.6,6890.7z"/>
	</g>
	<g transform="translate(72.159 158.818)">
		<path d="M-4338.1,6890.5c7.2-1,14.6-0.5,21.8-1.2c0.8-0.1,1.2-0.1,1.6,0.7c0.4,0.9,0.8,1.9,1.1,2.9c0.3,1.1,0.5,2.3,0.6,3.4
			c0,0.9,0.1,1.8,0.4,2.7c0.2,0.3,0.6,0.4,0.9,0.2c0.1-0.1,0.2-0.1,0.2-0.2c0.6-1.5,0-3.8-0.3-5.3c-0.4-1.7-0.9-4-2-5.3
			c-1.1-1.3-3.1-0.6-4.7-0.5c-4.9,0.4-9.8,0.8-14.7,1.1c-1.7,0.1-3.4,0.2-5,0.4C-4338.9,6889.5-4338.8,6890.6-4338.1,6890.5
			L-4338.1,6890.5z"/>
	</g>
	<g transform="translate(0 159.098)">
		<path d="M-4338.3,6891.2c23.7,0.9,47.6,0.4,71.3-0.9c3.3-0.2,6.5-0.4,9.8-0.6c3-0.1,6.1-0.4,9.1-0.9c0.7-0.2,0.5-1.2-0.1-1.2
			c-2.7,0-5.4,0.2-8.1,0.5c-2.8,0.2-5.7,0.4-8.5,0.5c-6,0.4-11.9,0.6-17.9,0.9c-12.2,0.5-24.4,0.7-36.6,0.8c-6.4,0-12.7,0.1-19,0.1
			c-0.2,0-0.4,0.2-0.4,0.4C-4338.7,6891-4338.5,6891.2-4338.3,6891.2L-4338.3,6891.2z"/>
	</g>
	<g transform="translate(166.732 74.921)">
		<path d="M-4338.6,6888.1c2.5,1.3,3.9,4.1,5.1,6.5c1.3,2.7,2.3,5.5,3.1,8.4c0.7,2.8,1.1,5.7,1.2,8.6c0.1,1.4,0.1,2.9,0,4.3
			c-0.2,1.5-0.4,3-0.4,4.5c0,0.3,0.6,0.6,0.7,0.2c0.4-1.4,0.7-2.8,0.6-4.3c0.1-1.6,0.1-3.2,0.1-4.8c-0.1-3.1-0.6-6.3-1.4-9.3
			c-0.8-3-1.9-5.8-3.4-8.5c-1.3-2.3-2.7-4.9-5.3-6.1C-4338.6,6887.5-4338.9,6887.9-4338.6,6888.1L-4338.6,6888.1z"/>
	</g>
	<g transform="translate(164.231 87.141)">
		<path d="M-4338.4,6888.5c5.9-2.3,8.7,6.4,9.7,10.7c1,4.6,1.6,9.2,1.8,13.9c0.5,10.6,0,21.2-1.6,31.7c-0.7,4.6-1.7,9.3-2.9,13.8
			c-0.1,0.4,0.4,0.5,0.6,0.2c1.5-4.1,2.6-8.4,3.1-12.7c0.8-5.4,1.4-10.9,1.7-16.3c0.6-10.4,0.7-21.4-2.1-31.5
			c-1.2-4.5-4.4-12.7-10.4-10.2C-4338.8,6888.2-4338.7,6888.7-4338.4,6888.5L-4338.4,6888.5z"/>
	</g>
	<g transform="translate(107.135 160.772)">
		<path d="M-4338.6,6896.1c14.9,3.8,30.6-0.4,45-4.3c4.2-1.2,8.5-2.3,12.7-3.5c0.2-0.1,0.3-0.3,0.2-0.5c0-0.1-0.2-0.2-0.4-0.2
			c-14.9,3.4-29.5,9-45,9.3c-4.1,0.1-8.3-0.2-12.4-1.1C-4338.7,6895.8-4338.8,6896-4338.6,6896.1L-4338.6,6896.1z"/>
	</g>
	<g transform="translate(129.997 3.01)">
		<path class="st5" d="M-4331.8,6887.6c-4.8,2-7.6,7.1-6.8,12.3c1,5.5,6.1,9.3,11.3,10.4c3.5,0.7,7.2,0.5,10.6-0.6
			c0.1-0.1,0.2-0.2,0.1-0.3c0-0.1-0.2-0.2-0.3-0.2c-5.5,1.1-11.6,1.2-16.3-2.3c-3.9-2.9-6-8-4.1-12.7c1-2.6,3-4.7,5.6-5.9
			C-4331.2,6888.1-4331.4,6887.5-4331.8,6887.6L-4331.8,6887.6z"/>
		<g transform="translate(9.229 5.383)">
			<path class="st5" d="M-4335.9,6887.7c-3,2.5-3.6,6.7-1.5,10c2.2,3.5,6.4,5.2,10.4,5.3c2.5,0.2,5-0.4,7.2-1.7
				c0.1-0.1,0.1-0.2,0.1-0.3c-0.1-0.1-0.1-0.1-0.2-0.1c-1.9,0.7-3.8,1.1-5.8,1.2s-3.9-0.2-5.8-0.9c-3.3-1.3-6.3-4.2-6.3-7.9
				c0-2.1,0.9-4,2.4-5.3C-4335.4,6887.8-4335.7,6887.5-4335.9,6887.7L-4335.9,6887.7z"/>
		</g>
		<g transform="translate(38.477 11.965)">
			<path class="st5" d="M-4338.5,6888.1c1.8,0.3,2.9,2,2.6,3.8c-0.1,0.2-0.2,0.5-0.3,0.7c-0.2,0.3,0.2,0.6,0.5,0.4
				c0.9-0.7,2.6-1.1,3.5-0.1c0.3,0.4,0.4,0.9,0.2,1.4c-0.1,0.2-0.2,0.5-0.3,0.7c-0.2,0.2-0.5,0.3-0.6,0.5c-0.2,0.1-0.2,0.3-0.1,0.4
				c0.1,0.1,0.2,0.1,0.3,0.1c0.7,0,1.3-0.8,1.4-1.4c0.2-0.7,0.1-1.5-0.4-2.1c-1.1-1.3-3.3-1-4.4,0.1l0.4,0.3c0.9-1.9,0-4.2-1.9-5.1
				c-0.2,0-0.5-0.1-0.8-0.2S-4338.8,6888-4338.5,6888.1L-4338.5,6888.1z"/>
		</g>
	</g>
	<g transform="translate(113.119 148.479)">
		<path d="M-4336.8,6888c0.2,3.8,0.5,7.7,0.7,11.6c0.1,1.8,0.2,3.7,0.2,5.5c0,2.1-0.7,3.7-2.6,4.6c-0.2,0.1-0.1,0.5,0.1,0.5
			c1.3-0.1,2.4-1,2.8-2.3c0.8-1.9,0.5-4.2,0.4-6.2c-0.2-4.6-0.3-9.2-0.9-13.7C-4336.1,6887.5-4336.8,6887.5-4336.8,6888
			L-4336.8,6888z"/>
	</g>
	<g transform="translate(91.186 93.481)">
		<path d="M-4332,6887.8c-0.2,2.3-1,4.6-2.1,6.7c-0.6,1-1.2,2-2,2.8c-0.4,0.4-0.8,0.8-1.2,1.2c-0.5,0.4-0.9,0.8-1.3,1.2
			c-0.1,0.2,0,0.5,0.2,0.4c1-0.5,2-1.3,2.7-2.3c0.8-0.9,1.6-2,2.2-3.1c1.2-2.2,1.9-4.6,2-7C-4331.5,6887.5-4332,6887.5-4332,6887.8
			L-4332,6887.8z"/>
	</g>
	<g transform="translate(92.842 97.163)">
		<path d="M-4327.1,6887.7c-1.1,1-2,2.3-2.8,3.6c-0.7,1.2-1.5,2.4-2.3,3.6c-0.8,1.2-1.8,2.3-2.8,3.3c-1.1,1-2.3,1.8-3.5,2.6
			c-0.3,0.2-0.1,0.6,0.2,0.5c1.3-0.5,2.5-1.3,3.5-2.2c1.1-1,2-2.1,2.9-3.2c0.9-1.2,1.7-2.4,2.4-3.7c0.8-1.5,1.7-2.9,2.8-4.1
			C-4326.5,6887.8-4326.9,6887.5-4327.1,6887.7L-4327.1,6887.7z"/>
	</g>
	<g transform="translate(104.746 161.314)">
		<path d="M-4337.9,6887.8L-4337.9,6887.8l0.1,0.1C-4337.9,6887.9-4337.9,6887.9-4337.9,6887.8c-0.1-0.2-0.4-0.2-0.6-0.1l0,0
			c-0.2,0.2-0.3,0.4-0.1,0.6l0,0c0.4,0.3,0.7,0.4,1.1,0.4c0.3,0.1,0.7,0.1,1,0.2c0.4,0,0.7,0.1,1.1,0.1s0.7,0.1,1.1,0.1l-0.5-0.8
			c0,0,0.1,0,0,0c0,0-0.1,0-0.1,0.1c-0.1,0-0.2,0.3-0.1,0.5c0,0,0,0,0.1,0.1c0.2,0.2,0.6,0.2,0.9,0c0.2-0.2,0.3-0.5,0.2-0.8
			c-0.1-0.1-0.3-0.2-0.5-0.2c-0.3,0-0.7,0-1,0c-0.3,0-0.7-0.1-1-0.1c-0.3,0-0.6-0.1-0.9-0.1c-0.4-0.2-0.8-0.2-1.2-0.2l0.5,0.6l0,0
			l-0.2,0.2h0.1C-4337.6,6888.3-4337.7,6887.9-4337.9,6887.8L-4337.9,6887.8z"/>
	</g>
	<g transform="translate(105.231 161.645)">
		<path d="M-4337.6,6888.8l-0.1-0.3c-0.1-0.3-0.6-0.4-0.8-0.1c-0.1,0.5-0.2,1.1-0.2,1.6c0,0.6,0,1.2,0,1.8c-0.1,1.1,0.1,2.1,0.5,3.1
			c0.2,0.2,0.5,0.3,0.8,0.1c0,0,0.1,0,0.1-0.1c0.3-0.3,0.4-0.8,0.4-1.3s0-1.1-0.1-1.6c0-1.2-0.1-2.3-0.2-3.5l-1.1,0.1
			c0.4,1.7,0.6,3.5,0.6,5.2c0,0.3,0.3,0.6,0.6,0.6c0.1,0,0.3-0.1,0.4-0.2c0.4-0.6,0.6-1.4,0.4-2.2v-2.6l-1.1,0.1
			c0.4,1.4,0.5,2.8,0.3,4.2c0,0.6,0.8,0.8,1.1,0.3c0.6-1.6,0.8-3.3,0.7-5l-1.1,0.2c0.2,1,0.3,2.1,0.1,3.2l1.2,0.3
			c0.3-1.4,0.6-2.7,1-4.1h-1.1c0.1,0.7,0.1,1.4,0,2c-0.1,0.4,0,0.7,0.4,0.8c0.3,0.1,0.7-0.1,0.7-0.4c0.1-0.5,0.2-1.1,0.3-1.6
			c0.1-0.6-0.1-1.2-0.7-1.2c-0.5,0-0.8,0.4-1.2,0.4c-0.2,0-0.4,0-0.6-0.1c-0.1-0.1-0.2-0.2-0.2-0.3c0.1-0.2-0.1-0.5-0.3-0.6
			c-0.3,0-0.5,0-0.6,0.2c-0.5,0.8,0.1,1.6,0.9,1.8c0.4,0.1,0.8,0.1,1.1,0.1c0.2,0,0.4-0.1,0.6-0.2c0.1,0,0.2-0.2,0.3-0.1l-0.3-0.1
			l-0.1-0.1v-0.2c0,0.3-0.1,0.5-0.1,0.8c-0.1,0.2-0.2,0.5-0.3,0.8l1.2,0.3c0.1-0.9,0.1-1.8,0-2.7c-0.1-0.6-1-0.5-1.1,0
			c-0.4,1.4-0.8,2.8-1.1,4.2c-0.2,0.8,1,1.1,1.2,0.3c0.2-1.3,0.1-2.6-0.2-3.8c-0.1-0.7-1.1-0.5-1.1,0.1c0.1,1.5,0,3-0.5,4.4l1.1,0.3
			c0.2-1.5,0-3-0.4-4.5c-0.2-0.3-0.5-0.4-0.8-0.3c-0.2,0.1-0.4,0.3-0.4,0.5v2.3c0,0.4,0,0.7,0,1.1c0,0.2,0,0.5-0.1,0.7l1,0.4
			c-0.2-1.9-0.4-3.7-0.8-5.5c-0.1-0.6-1.1-0.4-1,0.1c0.1,1,0.2,2,0.2,3.1c0,0.5,0.1,1,0.1,1.5c0,0.3,0.1,0.8-0.1,1.1l0.8,0.1
			c-0.1-0.4-0.2-0.8-0.2-1.2c-0.1-0.5-0.1-1-0.1-1.5s0-1,0-1.5c0.1-0.5,0.1-1,0-1.5l-0.8,0.4l0.2,0.2
			C-4337.9,6889.3-4337.4,6889.2-4337.6,6888.8L-4337.6,6888.8z"/>
	</g>
	<g transform="translate(96.13 91.768)">
		<path d="M-4337.8,6889.4C-4337.9,6889.3-4337.8,6889.4-4337.8,6889.4v0.1c0,0,0-0.1,0,0V6889.4L-4337.8,6889.4
			C-4337.8,6889.3-4337.8,6889.4-4337.8,6889.4S-4337.8,6889.3-4337.8,6889.4L-4337.8,6889.4
			C-4337.8,6889.3-4337.8,6889.3-4337.8,6889.4l0.1-0.1c0-0.1-0.1,0.1,0,0l0,0c0-0.2,0.1-0.2,0.2-0.3l0.5-0.4l0,0c0.1-0.1,0,0,0,0
			c0.1,0,0,0,0,0c-0.1,0-0.2,0-0.2,0s0,0-0.1,0c0,0-0.1-0.1,0,0c0,0-0.1-0.1,0-0.1c0,0,0,0,0,0.1c-0.1-0.1,0-0.1,0,0l0,0
			c0,0,0,0,0,0.1c0,0,0,0.1,0-0.1c0,0.1,0,0.2,0,0.3c0,0.2,0,0.4,0,0.6c0,0.1,0,0.1,0,0.2s0-0.1,0,0v0.1v0.1c0,0,0,0.2,0,0.1
			s0,0,0,0c0.1-0.1,0,0,0,0c0-0.4,0.2-0.4,0.4-0.3c0.1,0,0.1,0.1,0.1,0.1s0,0,0,0.1v-0.1c0,0.1,0,0.1,0,0.1s0,0,0-0.1
			c0-0.1,0-0.1,0-0.2v-0.4l0.1-0.7c0-0.3-0.2-0.5-0.5-0.5c-0.2,0-0.5,0.1-0.6,0.4l-0.2,1.5l1-0.1c-0.1-0.1-0.1-0.2-0.2-0.3
			c0-0.1,0,0,0,0s0,0,0-0.1v-0.1l-0.9,0.7c0.2,0.1,0.4,0.1,0.5,0.1c0.2,0,0.4-0.1,0.5-0.3c0.2-0.2,0.2-0.4,0.1-0.6
			c0-0.1-0.1-0.3-0.3-0.3c-0.1-0.1-0.3,0-0.4,0.1c0-0.1,0.1-0.1,0,0l0.2-0.1h0.1c-0.1,0-0.2,0-0.3,0.1l-0.1,0.1
			c-0.1,0,0.1-0.1,0.1-0.1c0.1,0,0,0,0,0h0.1l0,0h0.1c-0.2-0.1-0.4-0.1-0.6,0.1c-0.2,0.1-0.3,0.3-0.2,0.6c0.1,0.2,0.2,0.5,0.3,0.7
			c0.1,0.1,0.3,0.2,0.6,0.2c0.2,0,0.4-0.2,0.5-0.4l0.2-1.5l-1-0.1L-4337.8,6889.4c0,0.3,0,0.7,0.1,0.9c0.1,0.4,0.5,0.5,0.9,0.3
			c0,0,0,0,0.1,0c0.3-0.2,0.4-0.6,0.4-0.9c0-0.3,0-0.6,0-0.8c0-0.3,0-0.6-0.2-0.9c-0.2-0.4-0.6-0.5-1-0.3c-0.1,0.1-0.2,0.1-0.3,0.3
			l-0.3,0.3c-0.3,0.2-0.5,0.5-0.6,0.8c0,0.2,0,0.4,0.2,0.6c0.1,0.1,0.2,0.2,0.4,0.2c0.2,0,0.4-0.1,0.4-0.2
			S-4337.8,6889.5-4337.8,6889.4L-4337.8,6889.4z"/>
	</g>
</g>
<g transform="translate(4382.433 -6803.026)">
	<path d="M-4302.2,6998.7c-1.3-2-0.6-3.6-1.9-5.6c-0.6-0.9-6.3-1.8-7.3-2.3c-0.9-0.5-1.8-0.7-2.8-0.8c-2.3-0.1-4.7,0.2-6.9,0.9
		c0.2,0.6,0.4,1.2,0.5,1.8c0.3,1.1,0.3,1.1-0.9,1c-5.7-0.3-11.3-0.7-17-1c0.2,1.3,0.3,2.6,0.3,3.9s0.1,2.6,0.3,3.9
		c0.2,0.7,0.4,1.4,0.7,2.1c0,0.2,0.1,0.3,0.2,0.5c0.1,0.1,0.3,0.2,0.4,0.4c0.2,0.3,0.3,0.7,0.5,1c0.1,0.5,0.5,1,1,1.2
		c0.8,0.2,1.6-0.7,2.5-0.6c0.3,0,0.5,0.1,0.7,0.2c0.3,0,0.6,0,1-0.1s0.9-0.1,1.3-0.2c0.5-0.1,1-0.1,1.5,0c0.4,0.2,0.8,0.4,1.1,0.7
		c0.1,0.1,0.2,0.2,0.3,0.3c0.1,0.1,0.1,0.2,0.2,0.2c0.1,0.2,0.4,0.2,0.5,0l0.1-0.1c0.1-0.1,0.1-0.3,0-0.5c-0.1-0.8,0.4-1,1.1-0.9
		c0.5,0.1,0.5,0.6,0.8,0.7c0.7,0.3,0.2-0.8,0.6-0.7c0.5,0.1,1.1,0.2,1.6,0.4c0.2,0.1,0.4,0.6,0.7,0.3c0.3-0.2,0.1-0.6,0-0.8
		c-0.1-0.3-0.3-0.7,0.1-0.9c0.5-0.3,0.6,0.3,0.9,0.5c0.2,0.2,0.2,0.7,0.6,0.5c0.9-0.4,1.3,0.2,1.7,0.7c0.3,0.3,0.6,0.8,1,0.4
		c0.8-0.9,1.6-0.5,2.4-0.3c0.1-0.2-0.1-0.5,0.1-0.7c0.9-0.4,1.8-0.3,2.6,0.2c0.1,0.1,0.3,0.4,0.5,0.4c1,0,1.4,0.6,1.9,1.3
		c0.2,0.3,0.6,0.7,1,0.3s0.9-0.4,1.3-0.6c0.4-0.2,0.9-0.1,1.1-0.5c0.5-0.9,0.9-0.5,1.2,0.1c0.3,0.6,0.7,0.7,1.1,0.1
		c0.2-0.2,0.4-0.5,0.7-0.2c0.5,0.6,0.9,0.5,1.3,0.1C-4302.9,7003.9-4300.7,7001-4302.2,6998.7z"/>
	<path d="M-4211.7,7041.9c0-0.8-0.7-0.6-1.2-0.6c-5.9-0.4-11.8-0.7-17.7-1c-0.7,0-1.4-0.4-1.7-1.1c-0.6-1.3-1.2-2.6-1.9-3.8
		c-1.2-2.1-2.2-4.3-3.3-6.4c-1.8-3.5-2.6-7.4-3.8-11.2c-0.1-0.3-0.1-0.6-0.1-0.9c-0.8,0.3-1.7,0.3-2.5,0c-0.3-0.1-0.6-0.1-0.9,0
		c-1.9,0.4-3.8-0.1-5.7,0.1c-1.1,0.1-2.2-0.3-3.3-0.2c0.6,1.7,1.5,3.3,2.6,4.7c2.1,3.5,3.8,7.2,5,11.1c0.6,1.9,1.3,3.8,1.8,5.7
		c0.3,1.1,0.3,1.1-0.9,1c-8-0.5-16-0.9-24.1-1.4c-6.4-0.4-22.5-18.9-28.9-19.3c0.7,1.3,11,20.8,11.7,22.1c1.2,2.6,2.3,5.2,3.3,7.9
		l0,0c0.3,0.5,0.6,0.7,1.2,0.4c0.7-0.3,1.3-1,2.2-0.6c0.8,0.3,1.6,0.8,2.5,0.4c0.1,0,0.3,0.1,0.4,0.1c0.4,0.3,0.9,0.4,1.4,0.1
		c0.7-0.4,1-0.1,1.4,0.4c0.1,0.2,0.3,0.4,0.6,0.2c1.1-0.4,2.3-0.2,3.3,0.5c0.8,0.5,1.2,0.4,1.7-0.3c0.2,0.6,0.8,0.9,1.3,0.7
		c0.1,0,0.1-0.1,0.2-0.1c0.4-0.1,0.8-0.2,1.2-0.4c0.4-0.3,1-0.2,1.3,0.3v0.1c0.5,0.8,0.9,1.7,2,0.7c1.1,0.5,1.8-0.3,2.4-0.9
		c0.5-0.5,0.8-0.3,1,0.2c0.4,1.1,1.7,1,2.3,1.8c0.1,0.2,0.6,0.1,0.7-0.2c0.2-0.6,0.9-0.9,0.8-1.6c0-0.4,0.4-0.7,0.8-0.7l0,0
		c0.9,0,1.6,0.9,2.6,0.4h0.1c0.1,0.9,1.1,0.9,1.5,1.5c0.2,0.2,0.3,0.5,0.6,0.4c0.3-0.1,0.2-0.4,0.2-0.6c-0.1-0.8,0.4-1,1.1-0.9
		c0.5,0.1,0.5,0.6,0.8,0.7c0.7,0.3,0.2-0.8,0.6-0.7c0.5,0.1,1.1,0.2,1.6,0.4c0.2,0.1,0.4,0.6,0.7,0.3c0.3-0.2,0.1-0.6,0-0.8
		c-0.1-0.3-0.3-0.7,0.1-0.9c0.5-0.3,0.6,0.3,0.9,0.5c0.2,0.2,0.2,0.7,0.6,0.5c0.9-0.4,1.3,0.2,1.7,0.7c0.3,0.3,0.6,0.8,1,0.4
		c0.8-0.9,1.6-0.5,2.4-0.3c0.1-0.2-0.1-0.5,0.1-0.7c0.9-0.4,1.8-0.3,2.6,0.2c0.1,0.1,0.3,0.4,0.5,0.4c1,0,1.4,0.6,1.9,1.3
		c0.2,0.3,0.6,0.7,1,0.3c0.4-0.4,0.9-0.4,1.3-0.6c0.4-0.2,0.9-0.1,1.1-0.5c0.5-0.9,0.9-0.5,1.2,0.1c0.3,0.6,0.7,0.7,1.1,0.1
		c0.2-0.2,0.4-0.5,0.7-0.2c0.7,0.8,1.1,0.4,1.5-0.2c0.1-0.2,0.4-0.3,0.6-0.4c1.6-0.3,3.1-1,4.3-2.2c0.3-0.3,0.7-0.7,1.1-0.5
		c1.4,0.6,1.6-0.6,2-1.3c0.2-0.5,0.6-0.7,1.1-0.6c0.5,0,1-0.1,1.5-0.3c0.7-0.3,1.2-0.9,1.3-1.6c0.1-0.4,0.3-0.7,0.7-0.8
		C-4211.6,7043.5-4211.7,7042.6-4211.7,7041.9z"/>
	<path class="st4" d="M-4257.2,7044.3c0.4-0.1,3,1.8,6.3,4.3c6.5-1.9,12.7-4.9,18.3-8.8c-0.1-1.4-0.3-2.7-0.7-4
		c-2.9-10-20.5-47.5-27.5-58.4c-0.4-0.7-0.8-1.3-1.2-2c-1.2-1.9-2.2-4-3.1-6c-0.2-0.4-0.4-0.9-0.6-1.4c-0.2-0.5-0.5-0.7-0.2-1.1
		c0.5-0.8-10.4-14.3-9.7-13.7c2.5,1.8,13.1,8.8,18,9.1c2.1,0.1,1.3-4.2,1.4-5.5c0.1-1.6,1.6-6.4,1.3-8c-0.6-3.9-0.9-10.9-3.6-16.8
		c-0.8-2.2-1.3-4.6-1.6-6.9c0-0.4-0.6,1.5-0.6,1.5s11.8,1.8,5.9-4.2c-1.5-1.5-6.2-8.4-7.9-9.8c-0.5-0.4-0.5-1.1-0.6-1.7
		c2.4-1.2,4.3-3.4,5.1-6c0.8-2.6,1.1-5.3,0.8-8c0-1.3-0.3-2.5-0.8-3.7c-1-2-3.2-3-5.4-3.6c-2.8-0.6-5.6-0.9-8.4-0.9
		c-1.8-0.1-3.6,0.1-5.3,0.6c-3.1,1-5.3,3.8-8.3,5.2c-4.1,1.9-9,0.9-13.4,2.1c-4.5,1.3-8.1,4.8-9.5,9.3c-0.5,2-0.8,4.1-0.8,6.2
		l-0.2,4.5c-0.1,0.7,0,1.4,0.2,2c0.3,0.7,0.8,1.3,1.4,1.8c3.9,3.7,7.4,7.9,9.2,12.9c1.6,4.7,1.5,9.7,0.9,14.6
		c-0.2,0.8-0.1,1.7,0.1,2.5c0.3,0.5,0.6,1,1,1.5c0.6,1,1.2,2.1,1.8,3.1c1.4,2.3,2.9,4.6,4.4,6.9c1.6,2.4,3.1,4.9,4.6,7.4
		c1.4,2.2,2.6,4.5,3.7,6.8c0.2,0.4,0.4,0.8,0.5,1.2c3.6,8.8,2.9,38.2,4.6,41.3C-4275.4,7021.7-4258.4,7044.6-4257.2,7044.3z"/>
	<path d="M-4241.2,7010.5l0.5,0.9c-0.2-0.5-0.4-0.9-0.6-1.4c-0.4-1.1-1-2.1-1.8-2.9c-0.1-0.1-0.2-0.2-0.1-0.4
		c-3.9-9.6-8.8-18.8-14.4-27.5c-6.4-9.8-8.8-14.2-9.6-16c-1.7-0.5-3.3-1.4-4.6-2.6l-0.1-0.1c-2.4-0.8-6.2-2-12.2-3.7
		c-15.3-4.2-16.8-4.4-16.8-4.4c-0.5,0.3-10,10.4-10,10.4s-7.3,6.5-19.9,15.4s-6.3,23.4-6.3,23.4s18.9-1.1,34-0.7l0,0
		c-2,1.4,4.6,16.1,4.6,16.1s0,0.3,0.1,0.9c2.3,4.6,4.3,9.3,7.1,13.6c2.7,4.2,6.3,7.7,10.7,10.2c4.5,2.4,9.3,4,14.3,4.7
		c9.2,1.4,18.8,2.5,28.1,1.4c1.1-1.1,3.2-5.8,4.3-5c1.2,0.8,1,3.6,2.4-2.7S-4241.2,7010.5-4241.2,7010.5z M-4279.5,7005.6
		c-4.4-1.6-17.6-4.3-20.5-4.8c3.8,0.3,8.3-0.5,16,1.4C-4277.8,7003.6-4279.8,7005.4-4279.5,7005.6L-4279.5,7005.6z M-4250.7,7019.3
		c-3.6-5.8-6.8-12.2-6.3-9c0.5,3.2,7.6,15.8,8.3,17.8c0.7,2-1.5,4.2-4.8-0.8c-2.7-4.6-5-9.4-7.1-14.2c1.7,4,6.9,16.9,2.9,16.3
		c-4.8-0.7-4.9-11.4-11.2-18.3c-1.6-1.8-4.6-3.4-8.1-4.8l5-19.7c0,0,4.9,1.9,6.9,3.6c1,0.9-0.6,1.9-0.2,2.3c2.4,2,5,3.6,7.8,4.9
		c3.7,1.9,6.6,3.9,6.6,4.4s-3.8,2.8-3.8,2.8s5,9.7,6,13.1S-4247.2,7025.1-4250.7,7019.3L-4250.7,7019.3z"/>
	<path d="M-4164.4,7038c-3.5,0-7,0.2-10.5,0.3c-7.7,0.3-15.5,0.6-23.2,0.9c-4.3,0.2-8.7,0.1-13,0.5c-0.1,0.2-0.4,0.4-0.6,0.4
		c-2.4,0.2-4.8,0.5-7.2,0.6c-1.5,0-3.2-0.4-4.4,0.9c-0.8,0.9-1.3,2.1-1.6,3.3c-0.3,1.1-0.4,2.2-0.4,3.3c3.1-1.3,6.1-2.6,7.3-2.2
		c3.4,1.1,7,1.3,10.5,0.4c3.6-0.9,7-2.3,10.6-3.1c1-0.3,2.1,0.4,2.3,1.4v0.1c1.1-0.2,2.2-0.2,3.3,0c0.1,0,0.1,0,0.2,0
		c1.6-0.3,3.3-0.4,4.9-0.2h1.1c1.4-0.3,2.9-0.4,4.3-0.2c1.2-0.1,2.4-0.1,3.7,0c2.8-0.3,5.6-0.5,8.4-0.4c0.9,0,1.9-0.2,2.8-0.2
		c0.3-1.2,0.7-2.4,1.1-3.7c0.2-0.6,0.4-1.3,0.6-1.9C-4164.1,7038-4164.2,7038-4164.4,7038z"/>
	<path d="M-4186.1,7044.4c-1.6-0.2-3.3-0.1-4.9,0.2C-4189.4,7045-4187.7,7044.9-4186.1,7044.4z"/>
	<path d="M-4180.6,7044.2c-1.5-0.2-2.9-0.1-4.3,0.2C-4183.5,7044.8-4182,7044.7-4180.6,7044.2z"/>
	<path d="M-4191.2,7044.6c-1.3-0.2-2.6-0.2-3.8,0.2C-4193.8,7045.2-4192.4,7045.1-4191.2,7044.6z"/>
	<path d="M-4195.8,7044.8c-0.2-0.2-0.5-0.2-0.8,0c0.1,0.2,0.4,0.3,0.6,0.1C-4195.9,7044.9-4195.8,7044.9-4195.8,7044.8z"/>
	<path d="M-4163.1,7046.1c0,0,1.2-5.2,1.4-5.9c2.7-10.1,16.8-60,16.8-60l-7.5-1.7l-16.1,63.6l-37.7-1.5l-3.3,6.5"/>
	<g transform="translate(112.425 157.4)">
		<path d="M-4338.7,6893.4l1.4-5.5l62.7-0.3v5.1L-4338.7,6893.4z"/>
	</g>
	<g transform="translate(66.85 68.598)">
		<path d="M-4338.7,6887.7C-4338.6,6887.7-4338.6,6887.7-4338.7,6887.7c0.1-0.1,0.1-0.1,0-0.1
			C-4338.7,6887.6-4338.7,6887.6-4338.7,6887.7L-4338.7,6887.7z"/>
	</g>
	<path d="M-4275.6,6960c-0.4-0.7-1-1.2-1.7-1.4c-0.7-0.3-1.7-0.4-2.2-1c-1.6-1.7-3.8-2.2-5.6-3.4c-1.8-1.2-4.2-1.1-6.1-2.4
		c-1.6-1.1-3.7-1.1-5.5-1.6c-0.9-0.2-1.7-0.9-2.8-0.6c-0.9,0.2,0.5-0.7,1.3-1.6c-0.3-0.2-0.5-0.4-0.8-0.6c0,0.2,0,0.4-0.1,0.6
		c-0.2,0.9-4.1,2.8-5,3.1c0,0.4-0.1,0.8,0,1.1c0,0.1,0,0.2,0,0.4c0,0,0,0,0.1,0.2c0,0.1,0,0.1,0,0.2c0,0,0,0.1,0.1,0.1
		c-0.1-0.1,0.3,0.2,0.3,0.3c0.2,0.2,0.5,0.3,0.7,0.4c1.9,1.1,3.9,2.1,5.8,3.1c0.8,0.3,1.6,0.6,2.4,0.9c1.1,0.2,2.2,0.4,3.3,0.6
		c0.5,0.1,1,0.4,1.2,0.9c4,1.4,8,2.8,11.9,4.4c2,1,4.1,1.8,6.3,2.3c-0.7-1.7-0.8-3.6-1.7-5.3
		C-4274.5,6960.7-4275.3,6960.7-4275.6,6960z"/>
	<g transform="translate(69.668 75.238)">
		<path d="M-4312.2,6932.2c-1.5-6.9-5.1-13.1-8.9-19.1c-3.8-6-8.1-11.7-11.9-17.7c-1.6-2.5-3.3-5-4.7-7.7c-0.3,0-0.5-0.1-0.8-0.1
			c-0.1,0-0.1,0-0.2,0.1c1.1,2.4,2.2,4.8,3.5,7.1c1.8,3,3.7,6,5.6,8.9c3.9,5.9,8,11.6,11.3,17.8c1.9,3.6,3.6,7.2,5.1,10.9
			c0.1,0.3,0.4,0.4,0.6,0.3C-4312.3,6932.7-4312.1,6932.5-4312.2,6932.2z"/>
	</g>
	<g transform="translate(48.328 65.954)">
		<path d="M-4315.8,6897.3c-1.1-0.4-2.2-0.9-3.2-1.6c0.1,0.1,0.1,0.3,0.1,0.4c0.7,2.1,1.5,4.6,3.9,5.2c0.4,0.1,0.9-0.1,1-0.6
			c0.1-0.3,0-0.6-0.2-0.8C-4314.9,6899.2-4315.4,6898.3-4315.8,6897.3z"/>
		<path d="M-4325.2,6890.1c-0.9-0.1-1.9-0.1-2.8-0.2c-3.5-0.4-6.9-1.1-10.1-2.3c-0.3,0-0.5,0.1-0.6,0.4c0,0.2,0,0.4,0.2,0.5
			c2.9,1.5,6,2.6,9.2,3.2c2.3,0.4,4.6,0.4,6.8,1.1c0.2,0.1,0.4,0.1,0.7,0.2c-0.2-0.3-0.5-0.5-0.7-0.8
			C-4323.6,6891.7-4324.5,6890.9-4325.2,6890.1z"/>
	</g>
	<g transform="translate(58.537 69.247)">
		<path d="M-4336.9,6888.6c-0.2-0.3-0.6-0.4-0.9-0.2c-0.2,0.2-0.4,0.4-0.3,0.6c0,0.8,1.1,1.2,1.6,1.6c1.4,0.9,2.8,1.8,4.2,2.8l1-1.7
			c-2-1.3-4.1-2.5-6-3.9l-1,1.7c1.6,0.8,3.2,1.8,4.8,2.7c0.8,0.4,1.6,0.9,2.3,1.4c0.7,0.6,1.5,1,2.4,1.4c0.6,0.2,1.3-0.6,0.9-1.2
			c-0.3-0.4-0.6-0.7-1-1c-0.4-0.3-0.7-0.6-1.1-0.8c-0.8-0.6-1.6-1.1-2.4-1.6c-1.6-0.9-3.2-1.8-4.9-2.7c-0.5-0.2-1-0.1-1.3,0.4
			c-0.2,0.5-0.1,1,0.3,1.3c1.9,1.5,3.9,2.8,6,4c1.1,0.6,2.1-1.1,1-1.7c-1-0.5-2-1.1-2.9-1.6l-1.5-0.9l-0.7-0.4
			c-0.1,0-0.2-0.1-0.3-0.2c-0.1,0-0.3,0-0.4-0.1l0.2,0.4l0,0l-0.2,0.4l0,0l-0.3,0.1l0,0c0.3,0,0.5-0.2,0.5-0.5
			C-4336.9,6888.8-4336.9,6888.7-4336.9,6888.6L-4336.9,6888.6z"/>
	</g>
	<g transform="translate(36.526 58.958)">
		<path d="M-4310.4,6899.6c-0.1-0.1-0.2-0.3-0.3-0.4c-1-0.5-1.8-1.2-2.6-2c-0.1,1-0.1,2,0.1,3c0.2,1.6,0.7,3.8,2,4.9
			c0.7,0.6,2.2,0.3,2.1-0.9c-0.1-1.4-0.9-2.7-1.2-4.2C-4310.4,6899.9-4310.4,6899.8-4310.4,6899.6z"/>
		<path d="M-4314.5,6895.2c-0.1-0.5,0-0.9,0.4-1.2c-0.1-0.2-0.2-0.5-0.3-0.7c-3.4-0.6-6.7-1.3-10-2.1c-2.3-0.6-4.5-1.2-6.7-1.8
			c-2.1-0.7-4.2-1.3-6.4-1.7c-0.8-0.4-1.8,0.9-0.8,1.5c2,1,4,1.8,6.1,2.3c2.2,0.7,4.5,1.4,6.8,2c3.8,1,7.5,1.9,11.4,2.6
			C-4314.2,6895.9-4314.4,6895.6-4314.5,6895.2z"/>
	</g>
	<g transform="translate(36.038 58.699)">
		<path d="M-4311.9,6897.5c-0.9-0.5-1.8-1.2-2.5-2c-0.5-0.8-1.3-1.5-2.2-1.9c-2.1-0.7-4.4-0.7-6.6-1.1c-4.5-0.9-8.9-2.5-13-4.7
			l-1.7,2.9c3.6,1.7,7.2,3.3,10.9,4.7c1.8,0.7,3.6,1.3,5.5,1.9c1.6,0.5,4,1.7,5.7,1.1c0.8-0.2,1.2-1,1-1.8c-0.1-0.2-0.2-0.4-0.3-0.6
			c-1.2-1.2-3.5-1.4-5-1.9c-2-0.5-3.8-1.1-5.6-1.8c-3.6-1.3-7.1-2.8-10.5-4.5c-1.9-1-3.6,1.9-1.7,2.9c4.2,2.3,8.8,3.9,13.4,4.8
			c1.2,0.2,2.3,0.4,3.5,0.5c1.2,0.1,2.4,0.1,3.5,0.2c1,0.1,1.8,1.1,2.7,1.5c0.8,0.3,1.7,0.5,2.6,0.6c0.3,0,0.5-0.2,0.5-0.5
			C-4311.6,6897.7-4311.7,6897.6-4311.9,6897.5L-4311.9,6897.5z"/>
	</g>
	<g transform="translate(60.582 66.147)">
		<path d="M-4338.4,6888.4c0,0.1-0.1,0.2-0.1,0.3s0,0.2-0.1,0.3l0.1-0.2c-0.1,0.2-0.2,0.4-0.2,0.7c0,0.2,0,0.3,0.1,0.5
			c0.1,0.3,0.2,0.6,0.5,0.7c0.4,0.2,0.8,0.2,1.2,0c0.3-0.2,0.6-0.5,0.8-0.9c0.2-0.3,0.3-0.6,0.3-0.9l-2-0.5c-0.1,0.7-0.2,1.3-0.2,2
			v0.3l0.1,0.3l0.2,0.2c0.1,0.1,0.2,0.2,0.4,0.3c0.1,0.1,0.2,0.1,0.3,0.1s0.2,0,0.3,0c0.1,0,0.2,0,0.3-0.1c0.2,0,0.3-0.1,0.4-0.3
			c0.2-0.1,0.3-0.2,0.4-0.4c0,0,0-0.1,0.1-0.1c0-0.1,0.1-0.2,0.1-0.3c0-0.1,0-0.2,0-0.3s0-0.2,0-0.3c0-0.1,0-0.3,0-0.4v-0.1
			c-0.1-0.2-0.2-0.4-0.3-0.6c-0.1-0.1-0.3-0.2-0.4-0.2c-0.2-0.1-0.3-0.1-0.5-0.1c-0.2,0-0.4,0.1-0.6,0.2c-0.2,0-0.3,0.1-0.4,0.1
			c-0.1,0.1-0.1,0.2-0.2,0.3c0,0.1-0.1,0.1-0.1,0.2c0,0,0,0.1-0.1,0.1c-0.2,0.3-0.2,0.6-0.3,1v0.3c0,0.1,0.1,0.3,0.2,0.4
			c0.2,0.1,0.4,0.2,0.7,0.3c0.2,0,0.4,0,0.6,0c0.3-0.1,0.5-0.3,0.7-0.5c0,0,0-0.1,0.1-0.1l-0.3,0.2c0.1-0.1,0.1-0.1,0.2-0.2
			l-0.2,0.2c0,0,0.1,0,0.1-0.1c0.1,0,0.2-0.1,0.3-0.2l-0.2,0.2c0,0,0.1-0.1,0.2-0.1l-1.9-0.7v0.1v-0.3c0,0.1,0,0.1,0,0.2v-0.3
			c0,0.1,0,0.1-0.1,0.2l0.2-0.4c-0.1,0.1-0.1,0.2-0.2,0.3l0.1-0.3c0,0.1-0.1,0.1-0.1,0.2l0.2-0.2l0,0l2.1,0.9c0-0.7-0.1-1.3-0.2-2
			c0-0.1-0.1-0.3-0.2-0.4s-0.2-0.2-0.3-0.3l-0.2-0.1c-0.2,0-0.3,0-0.5,0c-0.2,0-0.4,0.1-0.5,0.3c-0.2,0.2-0.3,0.5-0.3,0.7
			c0,0.1,0,0.2,0,0.2v-0.3c0,0.1-0.1,0.3-0.1,0.4l0.1-0.2c-0.1,0.2-0.2,0.4-0.3,0.5l0.1-0.2c0,0.1,0,0.2-0.1,0.2l0.2-0.1
			c0,0,0,0-0.1,0l0.2-0.1c0,0,0,0-0.1,0h0.2l0,0h0.2c0,0,0,0-0.1,0l0.2,0.1c0,0,0,0-0.1,0l0.2,0.1c0,0-0.1,0-0.1-0.1l0.1,0.2
			l-0.1-0.1l0.1,0.2c0-0.1-0.1-0.2-0.1-0.3v0.2c0-0.1,0-0.1,0-0.2s-0.1-0.2-0.1-0.4l0.1,0.2l0,0v0.2c0-0.1,0-0.2,0-0.2v0.2
			c0-0.1,0-0.2,0-0.3c0-0.2,0-0.4-0.1-0.6c0.3-0.2,0.1-0.3,0-0.3c-0.2-0.1-0.4,0-0.6,0C-4338.3,6888.1-4338.4,6888.2-4338.4,6888.4
			L-4338.4,6888.4z"/>
	</g>
	<g transform="translate(21.871 92.22)">
		<path class="st4" d="M-4338.3,6888.3c10.9,0.8,21.7,2.6,32.3,5.3c4.8,1.2,9.4,2.9,13.9,4.9c1.9,0.9,3.6,2.1,5.1,3.5
			c1.1,1.2,2.1,2.4,3.1,3.6c1.6,1.9,3.1,3.9,4.5,5.8c0.7,1,1.4,2,2.1,3c0.6,1,1.3,1.9,2,2.8c0.4,0.4,1.2,0,1-0.6
			c-0.9-1.9-2.1-3.7-3.4-5.3c-1.4-1.8-2.8-3.7-4.2-5.4c-2.2-2.8-4.4-5.7-7.6-7.6c-2.2-1.3-4.6-2.3-7-3.2c-2.3-0.9-4.7-1.6-7.1-2.3
			c-5.3-1.5-10.6-2.6-16-3.4c-6.3-0.9-12.5-1.5-18.7-1.8C-4338.8,6887.6-4338.8,6888.3-4338.3,6888.3L-4338.3,6888.3z"/>
	</g>
	<g transform="translate(66.739 117.163)">
		<path d="M-4338.6,6891.5c2.9,3,5.4,6.4,7.5,10.1c1.7,2.9,2.4,6.3,4.2,9.2c0.6,1,1.5,2,2.7,2c1,0,1.2-1,1.2-1.8
			c0-1.1-0.2-2.3-0.4-3.4c-0.3-1.5-0.7-3-1.1-4.5c-0.8-3-1.7-5.9-2.7-8.9l-0.8,0.4c1.3,3.3,2.5,6.7,3.9,10c0.7,1.7,1.6,3.3,2.6,4.8
			c0.7,1.3,1.7,2.4,2.8,3.3c1.1,0.7,2.4,1.1,3.7,0.9c0.3,0,0.5-0.2,0.5-0.5c-0.1-1.6-0.6-3.2-1.4-4.6c-0.5-1.1-0.9-2.2-1.4-3.2
			c-1.3-2.7-2.7-5.4-3.9-8.2c-0.7-1.5-1.4-3-1.9-4.5l-0.9,0.4c1.2,2.1,2.6,4.1,4,6c1.7,2.4,3.4,4.8,5.1,7.2c0.7,1,1.3,2,1.9,3
			c0.1,0.2,0.5,0.3,0.7,0.2c0.1-0.1,0.2-0.2,0.2-0.3c0.2-1.1,0.1-2.2-0.2-3.2c-0.4-1.6-1-3.2-1.6-4.7c-1.4-3.4-3-6.7-4.9-9.9
			c-0.7-1.2-1.5-2.4-2.5-3.4c-0.3-0.3-0.7,0.1-0.4,0.4c0.7,0.9,1.3,1.9,1.9,3c0.7,1.3,1.5,2.8,2.2,4.3c1.6,3.1,3,6.3,4,9.7
			c0.4,1.1,0.6,2.3,0.4,3.4l0.9-0.1c-1.2-2.1-2.6-4.1-4-6c-1.7-2.4-3.4-4.8-5.1-7.2c-0.7-1-1.3-2-1.9-3c-0.3-0.5-1.1-0.2-0.9,0.4
			c1.1,2.7,2.3,5.4,3.6,8.1c1.1,2.3,2.3,4.5,3.2,6.9c0.7,1.8,1.8,3.4,1.8,5.4l0.5-0.5c-1,0.2-2.1,0-3-0.6c-1.1-0.8-2-1.9-2.7-3.1
			c-1.8-3-3.4-6.1-4.6-9.4c-0.7-1.7-1.3-3.4-2-5.1c-0.2-0.5-0.9-0.3-0.7,0.2c0.8,2.4,1.5,4.8,2.2,7.2c0.8,2.6,1.3,5.4,1.6,8.1
			c0,0.4,0,0.9,0,1.3c0,0.1,0,0.2-0.1,0.4v0.1c0,0.1-0.1,0.1,0,0.1c0,0,0.3,0,0.1-0.1c-0.1,0-0.1,0-0.2,0c-0.2,0-0.4-0.1-0.5-0.3
			c-0.4-0.4-0.8-0.8-1.1-1.3c-1.6-2.7-2.4-5.9-4-8.7c-1.2-2-2.5-4-4-5.8c-1.2-1.7-2.7-3.2-4.2-4.6c-0.1-0.1-0.3-0.1-0.4,0
			C-4338.7,6891.2-4338.7,6891.4-4338.6,6891.5L-4338.6,6891.5z"/>
	</g>
	<g transform="translate(73.408 105.244)">
		<path d="M-4338.5,6888.2c1.3,0.5,2.6,1.2,3.9,1.9c1.2,0.7,2.4,1.5,3.5,2.3c0.7,0.3,1.4,0.8,2.2,1.2c0.9,0.5,1.8,0.8,2.6,1.4
			c0.5,0.3,1,0.8,1.4,1.2c0.3,0.2,0.5,0.4,0.2,0.7c-0.3,0.2-0.6,0.4-0.8,0.5c-0.6,0.4-1.3,0.5-2.1,0.5c-0.5-0.1-0.9-0.2-1.3-0.4
			c-0.5-0.4-0.9-0.8-1.5-0.8c-0.3,0-0.5,0.2-0.5,0.5c0,1,1.4,1.7,2.3,1.9c0.9,0.2,1.8,0.2,2.6-0.1c1.3-0.5,3.8-1.9,2.3-3.6
			c-0.3-0.2-0.5-0.5-0.8-0.7c-0.3-0.3-0.6-0.6-1-0.8c-0.9-0.5-1.8-1-2.8-1.4c-1.6-0.8-3.2-1.7-4.8-2.7c-1.6-1-3.4-1.8-5.2-2.2
			C-4338.6,6887.5-4338.9,6888-4338.5,6888.2L-4338.5,6888.2z"/>
	</g>
	<g transform="translate(74.028 24.99)">
		<path d="M-4336.4,6903.9c1.6-0.3,10.4,0.9,8.6-2.8c-0.9-1.6-1.9-3.1-3-4.4c-1.4-1.9-2.8-3.8-4.3-5.6c-0.6-0.8-1.3-1.6-1.9-2.4
			c-0.2-0.3-0.5-0.5-0.7-0.8c-0.1-0.1-0.2-0.1-0.3-0.2h-0.1h-0.1c-0.2-0.1,0-0.1,0.1,0c-0.3-0.3-0.8,0.2-0.5,0.5
			c-0.1-0.1-0.1-0.3-0.1-0.1v0.1c0,0.1,0.1,0.2,0.1,0.3c0.1,0.3,0.3,0.5,0.5,0.7c0.5,0.6,1,1.2,1.5,1.8c1.4,1.7,2.7,3.4,4,5.1
			c1.2,1.5,2.4,3.1,3.4,4.7c0.3,0.4,0.5,0.8,0.7,1.3l0,0c0,0.1-0.1,0.2-0.2,0.3c-0.3,0.2-0.7,0.4-1.1,0.4c-1.2,0.2-2.5,0.3-3.8,0.3
			c-1,0-2,0-3,0.3c-0.2,0-0.3,0.2-0.2,0.4C-4336.7,6904-4336.5,6903.9-4336.4,6903.9L-4336.4,6903.9z"/>
	</g>
	<g transform="translate(66.812 27.826)">
		<path d="M-4337.3,6888.6c0-0.1-0.1-0.3-0.2-0.4s-0.2-0.2-0.4-0.2s-0.4,0.1-0.5,0.3c-0.1,0.1-0.1,0.2-0.2,0.4
			c-0.1,0.6,0,1.2,0.3,1.7c0.1,0.2,0.3,0.5,0.5,0.6c0.3,0.1,0.6,0.2,0.8,0.1c0.5-0.2,0.8-0.7,0.8-1.2c0.1-0.4,0-0.8-0.1-1.2
			c-0.1-0.6-0.6-1-1.2-1.1c-0.4,0-0.7,0.1-0.8,0.4c-0.2,0.2-0.3,0.4-0.3,0.7c-0.1,0.3-0.1,0.7,0,1c0.1,0.3,0.3,0.5,0.6,0.6
			c0.5,0.4,1.3,0.2,1.7-0.3c0.2-0.5,0-1-0.4-1.2c-0.2-0.1-0.3-0.1-0.5-0.1c-0.2,0-0.3,0.1-0.4,0.2c-0.1,0.1-0.2,0.2-0.2,0.3
			c0,0.3,0.3,0.6,0.6,0.6h0.1h-0.1l0,0c-0.1,0-0.1-0.1,0,0c-0.1-0.1-0.1-0.1,0,0c-0.1-0.1-0.1-0.1,0,0c-0.2-0.2-0.1-0.2-0.1-0.1
			c0-0.2,0-0.1,0-0.1c0-0.1,0-0.1,0-0.1l0,0c0-0.1-0.1,0,0.1-0.1c0,0-0.1,0.1,0,0c-0.1,0.1,0.1,0,0,0h-0.1h0.1h-0.1h-0.1h0.1h-0.1
			h-0.1c-0.1,0,0.1,0.1,0,0h-0.1c-0.1-0.1,0.1,0.1,0,0c0,0,0,0-0.1-0.1l0.1,0.1l0,0c-0.1-0.1,0,0.1,0,0c0-0.1,0,0.1,0,0
			c0-0.1,0-0.1,0-0.2c0,0,0,0.1,0,0v-0.1c0-0.1,0-0.1,0.1-0.2c0-0.1-0.1,0.1,0,0c0,0,0,0,0-0.1v-0.1l0,0l0,0l0,0h0.1h-0.1
			c0.1,0,0,0,0,0l0,0c0.1,0,0,0,0,0s0.1,0,0.1,0.1l0,0l0,0c0,0,0.1,0,0.1,0.1c0,0,0,0.1,0.1,0.1l0,0v0.1l0.1,0.1v-0.1c0,0,0,0,0,0.1
			s0,0.1,0,0.1c0,0.1,0,0.1,0,0.2v-0.1c0,0,0,0,0,0.1v0.1c0,0.1,0,0.2,0,0.4v0.1c0,0.1,0,0.1,0,0v0.1v0.1l0,0l-0.1,0.1
			c-0.1,0.1,0.1-0.1,0,0c0,0-0.1,0-0.1,0.1h0.1l0,0c-0.1,0.1,0.1,0,0,0c-0.1,0,0,0,0,0s0,0-0.1,0c0.1,0,0.1,0,0,0s0.1,0.1,0,0
			c0.1,0.1,0,0,0,0c-0.1-0.1,0.1,0.1,0,0l-0.1-0.1c0,0,0-0.1-0.1-0.1v-0.1c0,0.1,0,0.1,0,0s-0.1-0.2-0.1-0.3v-0.1v-0.1
			c0,0.1,0,0.1,0,0s0-0.2,0-0.3c0-0.1,0-0.2,0-0.3c0,0,0-0.1,0,0c0-0.1,0-0.1,0-0.2l-0.2-0.1c0.1-0.1-0.1,0,0,0c-0.1,0,0,0,0,0
			c-0.1,0,0,0,0,0h0.1c0,0-0.1,0,0,0C-4337.5,6888.9-4337.3,6888.8-4337.3,6888.6L-4337.3,6888.6L-4337.3,6888.6z"/>
	</g>
	<g transform="translate(69.197 44.868)">
		<path d="M-4338.7,6888.1c0.6,1.1,1.6,2,2.8,2.5c0.6,0.3,1.2,0.5,1.8,0.6c0.3,0.1,0.6,0.1,1,0.1c0.4,0,0.7,0,1.1,0
			c0.3-0.1,0.4-0.5,0.3-0.8c0-0.2-0.3-0.4-0.5-0.4c-0.3,0-0.6,0.1-0.9,0.1c-0.3,0-0.5,0-0.8,0c-0.5-0.1-1.1-0.2-1.5-0.5
			c-1-0.5-1.9-1.1-2.7-2C-4338.4,6887.4-4338.8,6887.8-4338.7,6888.1L-4338.7,6888.1z"/>
	</g>
	<g transform="translate(96.581 122.538)">
		<path d="M-4338.7,6887.9c0.7,1.6,1.3,3.3,1.8,5c0.4,1.8,0.8,3.5,1,5.3c0.2,1.7,0.5,3.5,0.8,5.2c0.4,1.8,0.9,3.5,1.3,5.3l1.1-0.6
			c-0.2-0.2-0.4-0.4-0.7-0.5c-0.3,0-0.6,0.2-0.6,0.5v0.1c0,0.3,0.2,0.7,0.4,0.9c0.4,0.5,1.4,0,1.1-0.7c-1.2-3.5-2.1-7-2.5-10.6
			c-0.3-1.8-0.7-3.6-1.2-5.3c-0.5-1.6-1.3-3.2-2-4.8C-4338.3,6887.5-4338.8,6887.7-4338.7,6887.9L-4338.7,6887.9z"/>
	</g>
	<g transform="translate(87.153 152.898)">
		<path d="M-4322.3,6889.4c0-0.2,0-0.5,0-0.7c0-0.3-0.2-0.5-0.5-0.5h-0.1c-3,0.8-5.8,2-8.5,3.4c-2.6,1.2-5.5,2.6-7.2,5
			c-0.2,0.3-0.1,0.7,0.3,0.9c0.1,0,0.2,0.1,0.3,0.1c1.6-0.1,2.8-1,4.1-1.9c1.4-1,2.8-1.8,4.3-2.7c3-1.7,6.1-3.1,9.3-4.2l-0.7-0.9
			c-0.8,1.1-1.7,2.2-2.6,3.3c-0.9,1.1-1.9,2-2.8,3.1c-0.3,0.3-0.2,0.7,0,1c0.3,0.2,0.7,0.2,0.9,0c2.1-2,3.9-4.3,5.6-6.7
			c0.2-0.3,0.1-0.7-0.2-0.8c-0.3-0.2-0.4-0.2-0.6-0.2c-3.1,1.1-6.1,2.4-9,4c-1.4,0.8-2.9,1.6-4.2,2.5c-1.3,0.8-2.6,2.1-4.1,2.1
			l0.5,1.2c1.7-2.2,4.3-3.6,6.8-4.8c2.6-1.4,5.3-2.5,8.1-3.5l-0.6-0.3c0,0.2,0.1,0.5,0.2,0.7c0.1,0.2,0.3,0.3,0.5,0.2
			C-4322.5,6889.7-4322.4,6889.5-4322.3,6889.4L-4322.3,6889.4z"/>
	</g>
	<g transform="translate(21.547 87.625)">
		<path class="st4" d="M-4337.9,6887.9l-0.4-0.2l-0.4,0.3c0.2,0.3,0.8,0.5,1.1,0.6c0.5,0.2,0.9,0.4,1.3,0.6c0.9,0.4,1.8,0.9,2.7,1.4
			c0.9,0.5,1.7,1,2.5,1.6c0.7,0.7,1.6,1.2,2.4,1.6c0.2,0.1,0.4-0.2,0.3-0.4c-0.5-0.8-1.3-1.5-2.1-2c-0.8-0.5-1.7-1-2.6-1.6
			c-0.9-0.5-1.8-1-2.7-1.4c-0.5-0.1-0.9-0.3-1.4-0.5c-0.4-0.1-0.9-0.4-1.3-0.2c-0.1,0-0.2,0.1-0.2,0.2c0,0.1,0.1,0.1,0.1,0.1
			C-4338.4,6888.1-4338.1,6888.1-4337.9,6887.9c0.1,0.1,0.1,0,0.1,0S-4337.8,6887.9-4337.9,6887.9L-4337.9,6887.9z"/>
	</g>
	<g transform="translate(48.979 85.943)">
		<path class="st4" d="M-4336.6,6887.9c0,1.6-0.2,3.2-0.7,4.8c-0.3,1.5-0.8,3.1-1.4,4.6c0,0.3,0.1,0.5,0.4,0.6c0.2,0,0.4,0,0.5-0.1
			c1-1.2,1.9-2.5,2.9-3.7c0.9-1.2,2-2.4,3.2-3.4l-0.7-0.2c0.2,0.6,0.3,1.3,0.3,1.9c0,0.3,0,0.7-0.1,1c-0.5,0.4-0.9,0.7-1.5,1
			c-1,0.6-2.1,1.1-3.2,1.6c-0.4,0.2-0.2,0.9,0.2,0.8c0.6-0.1,1.2-0.3,1.8-0.6c0.7-0.4,1.5-0.8,2.1-1.2c0.6-0.3,1-0.8,1.4-1.3
			c0.2-0.4,0.2-0.9,0.1-1.3c0-0.7-0.2-1.4-0.3-2.1c-0.1-0.2-0.3-0.4-0.5-0.3h-0.1c-1.2,1-2.3,2.1-3.3,3.3c-1,1.2-2,2.5-3,3.7
			l0.8,0.6c0.6-1.6,1-3.2,1.4-4.8c0.4-1.6,0.5-3.2,0.4-4.9C-4336,6887.5-4336.6,6887.5-4336.6,6887.9L-4336.6,6887.9z"/>
	</g>
	<g transform="translate(29.666 65.783)">
		<path d="M-4337.8,6895.8C-4337.8,6895.9-4337.9,6896.1-4337.8,6895.8L-4337.8,6895.8c0.2-0.3,0.3-0.4,0.5-0.6
			c0.3-0.4,0.5-0.7,0.8-1.1c0.5-0.7,1.1-1.4,1.7-2.1c0.5-0.6,1.1-1.3,1.7-1.9c0.3-0.3,0.6-0.7,1-0.9c0.4-0.3,0.6-0.7,0.7-1.1
			c0-0.2-0.2-0.5-0.5-0.5c-0.5,0.1-1,0.3-1.3,0.7c-0.3,0.4-0.6,0.8-1,1.2c-0.7,0.8-1.4,1.6-2,2.4c-0.7,0.8-1.3,1.7-1.9,2.5
			c-0.3,0.4-0.5,0.8-0.6,1.2c-0.1,0.3,0.1,0.7,0.5,0.7h0.1c0.2,0,0.3-0.2,0.3-0.3S-4337.8,6895.9-4337.8,6895.8L-4337.8,6895.8z"/>
	</g>
	<g transform="translate(43.514 18.244)">
		<path d="M-4329.4,6914.3c-1.9,0.1-3.8-0.6-5.3-1.8c-1.5-1.3-2.5-3.2-2.8-5.2c-0.3-1.1-0.3-2.4,0.2-3.5c0.5-0.9,1.3-1.6,2.3-1.9
			c0.8-0.3,1.9-0.7,2.6-0.1c0.4,0.4,0.7,0.9,0.9,1.5c0.4,1,0.6,2.1,0.8,3.2c0.1,0.6,1.1,0.5,1.1-0.1c0.1-2.8,1-5.6,2.6-7.9
			c1-1.6,2.3-2.9,3.9-3.9c0.4-0.2,0.7-0.4,1.1-0.5c0.1,0,0.4-0.1,0.2-0.1h0.1c0.3,0,0.6-0.3,0.6-0.6c0-0.1,0-0.2-0.1-0.3
			c-0.8-1.2-2.2-3.8-0.6-4.9c0.3-0.2,0.1-0.8-0.3-0.7c-2.8,0.9-1.3,4.4-0.1,6.2l0.5-0.8c-1.5,0-3.1,1.3-4.1,2.3
			c-2.5,2.4-4.1,5.5-4.7,8.9c-0.1,0.8-0.2,1.6-0.2,2.3l1.1-0.1c-0.2-1.2-0.5-2.4-0.9-3.5c-0.2-0.8-0.7-1.4-1.2-1.9
			c-0.9-0.5-2.1-0.6-3.1-0.2c-2.4,0.6-4,2.8-3.9,5.2c0.1,2.4,1,4.8,2.7,6.6c1.8,1.7,4.2,2.6,6.7,2.4
			C-4329,6914.9-4329,6914.3-4329.4,6914.3L-4329.4,6914.3z"/>
	</g>
	<path class="st4" d="M-4196.9,7020.1c-5.7-1.4-19.6,0-19.6,0v-2.5l-9.5,1.6l5.4,11.3c0,0,5.6,1.8,6.2,1.9c0.5,0.1,2.8-1.8,3.3,0.3
		c0.9,0.6,1.1-2.9,2.2-2.4c0.9,0.4,1.9,0.8,2.8,1.2c0.7,0.3,1.2,0.7,1.6,1.3c0.4,0.8,0.5,1.7,0.3,2.6c0,0.3-0.3,0.5-0.6,0.5
		c0,0,0,0-0.1,0c0.1,0.5,0.4,1,0.8,1.3c0.4,0.4,0.8,0.6,1.3,0.8c0.4,0.2,0.8,0.2,1.2,0.1c0.3-0.2,0.7-0.1,0.9,0.2c0,0,0,0.1,0.1,0.1
		c0.1,0.2,0.1,0.4,0.2,0.7c0.5-0.3,0.9-0.5,1.1-0.3c0.5,0.5,0.9,4.1,1.7,4.3c2.5,0.5,4.3-4.7,5.7-10.8
		C-4190.5,7026.2-4191.2,7021.4-4196.9,7020.1z"/>
	<path d="M-4247.3,7014.9c0.1,1,0.3,2,0.6,3c0.1,0.2-0.1,0.5-0.3,0.5c-0.1,0-0.3,0-0.4-0.1l3.6,13.3l21.8,3.6l-2.2-16.8l-23.8-5.8
		C-4247.6,7013.3-4247.4,7014.1-4247.3,7014.9z"/>
	<g transform="translate(134.154 155.837)">
		<path d="M-4338.7,6887.7C-4338.6,6887.7-4338.6,6887.7-4338.7,6887.7c0.1-0.1,0.1-0.1,0-0.1
			C-4338.8,6887.6-4338.7,6887.6-4338.7,6887.7L-4338.7,6887.7z"/>
	</g>
	<g transform="translate(89.708 127.314)">
		<path d="M-4301.1,6906.6c0.3-0.5,0.6-0.9,1-1.3c-0.4-0.5-1-0.8-1.7-0.9c-0.5,0.1-1-0.2-1.5,0c-0.2,0.1-0.4-0.1-0.5-0.3l0,0
			c-0.1-0.5-0.4-0.9-0.2-1.5c-0.3-2.4-1.4-9-1.6-11.4c-0.1-0.4-0.1-0.8-0.2-1.2c-2.2,0.1-4.3,0.5-6.4,1.2c0,0.1,0.1,0.1,0.1,0.2
			c0.4-0.2,0.8-0.2,1.3-0.1h0.3c0.7-0.2,1.5-0.3,2.3-0.2l0.3-0.1c1.2-0.3,1.3-0.3,1.3,1c0,0.3,0,0.7,0,1l0.1,0.3
			c0.1,0.1,0.1,0.4,0,0.5c0.2,1.8,1.4,7.8,1.3,9.7c0.2,1.4,0.2,1.4-1.2,1.8c-0.6,0.1-1.1,0.3-1.6,0.5c-0.4,0.1-0.7,0-0.8-0.4
			c-0.1-0.3-0.3-0.6-0.2-1l-1.7-6.2c-0.2-0.1-0.3-0.4-0.3-0.7l-0.3-1c-0.3-0.3-0.4-0.6-0.3-1c-0.2-0.8-0.5-1.6-0.7-2.4
			c-0.1,0-0.2-0.2-0.2-0.3v-0.1c0-0.2-0.1-0.3-0.1-0.5c-0.3-0.2-0.1-0.6-0.3-0.9c-0.4,0-0.3-0.4-0.4-0.6c-0.3,0.1-0.7,0.1-1,0.2
			c0.1,0.4,0.3,0.9,0.4,1.3c0.1,0.1,0.1,0.3,0.2,0.4c0.1,0.4,0.2,0.7,0.4,1.1c1.3,3.4,2.3,10.7,3.4,14.1c1.2-0.4,3.8-0.8,5-1.3
			c0.5-0.2,1-0.3,1.3-0.7c0.5-0.7,1-0.5,1.5-0.2C-4301.4,6905.6-4301.2,6906-4301.1,6906.6z"/>
		<g transform="translate(34.979 3.744)">
			<path d="M-4338.2,6889.5c5.7-0.9,11.8-1.6,17.4,0.1c1.5,0.4,2.7,1.3,3.7,2.4c0.7,1.6,1.1,3.4,1,5.1c-0.1,1.6-0.4,3.1-0.8,4.6
				s-1.2,3.8-1.5,5.4c-0.1,0.5,0.4-0.2,0.6-0.7c0.5-1.8,1.3-3.5,1.8-5.1c0.6-1.7,0.9-3.4,1-5.2c0.1-3-1-5.8-3.9-7.1
				c-2.9-1.1-6-1.6-9.2-1.5c-3.5-0.1-7,0.3-10.4,1.4C-4338.9,6889.2-4338.7,6889.6-4338.2,6889.5L-4338.2,6889.5z"/>
		</g>
		<path d="M-4338.5,6888.3c0.7,0.3,1.5,0.5,2.4,0.5c0.9,0.1,1.7,0.3,2.5,0.4c1.7,0.3,3.5,0.7,5.2,1.1c1.7,0.4,3.3,0.9,5,1.4
			c0.8,0.3,1.6,0.5,2.4,0.8c0.4,0.1,0.8,0.3,1.2,0.5c0.4,0.2,0.9,0.4,1.3,0.5s0.7-0.1,0.8-0.5c0.1-0.3-0.1-0.6-0.3-0.8
			c-0.8-0.4-1.6-0.7-2.5-0.9c-0.8-0.3-1.7-0.6-2.6-0.8c-1.7-0.5-3.4-1-5.1-1.4c-1.7-0.4-3.4-0.7-5.2-1c-0.7-0.1-1.6-0.2-2.4-0.3
			c-0.8-0.2-1.7-0.2-2.6-0.1c-0.2,0-0.3,0.2-0.3,0.4C-4338.7,6888.2-4338.6,6888.3-4338.5,6888.3L-4338.5,6888.3z"/>
	</g>
	<g transform="translate(126.212 138.453)">
		<path d="M-4338.6,6894.2c0.7,0.3,1.1-0.5,1.3-1c0.2-0.3,0.3-0.7,0.4-1c0.2-0.5,0.3-0.3,0.7-0.1c1.4,0.6,2.8,1.1,4.2,1.5
			c1.4,0.5,2.6,1.5,3.6,2.7c0.1,0.1,0.4,0.1,0.5,0c1.1-1.2,1.5-3,0.8-4.6c-0.3-0.9-0.8-1.8-1.4-2.5c-0.4-0.7-0.9-1.6-1.7-1.6
			c-0.3,0-0.3,0.4-0.1,0.5c0.6,0.5,1.1,1,1.4,1.7c0.5,0.6,0.8,1.3,1.1,2.1c0.6,1.3,0.3,2.9-0.7,3.9l0.6,0.1c-0.9-1.2-2-2.1-3.3-2.7
			c-1.5-0.7-3.1-1-4.6-1.7c-0.3-0.2-0.7-0.4-1.1-0.3c-0.2,0.2-0.4,0.4-0.5,0.7c-0.3,0.5-0.4,1.8-1.1,1.9c-0.1,0-0.2,0.1-0.2,0.2
			S-4338.6,6894.1-4338.6,6894.2L-4338.6,6894.2z"/>
	</g>
	<g transform="translate(137.165 138.286)">
		<path d="M-4338.7,6887.8c0.6,0.5,1.2,1,1.7,1.5c0.5,0.6,0.9,1.4,1.2,2.1c0.6,1.7,0.7,3.5,0.5,5.3c-0.2,2-0.8,3.9-1,5.9
			c-0.1,1.4,0.6,2.8,2.1,2.8c1.8,0,2.7-1.7,2.7-3.2c0-0.1-0.1-0.2-0.2-0.2c-0.1,0-0.2,0.1-0.2,0.2c-0.1,1-0.8,2-1.7,2.5
			c-0.7,0.3-1.6-0.1-1.9-0.8c-0.1-0.2-0.1-0.4-0.1-0.6c0.1-1.1,0.2-2.3,0.5-3.4c0.3-1.2,0.4-2.3,0.5-3.4c0.2-1.9,0-3.8-0.8-5.6
			c-0.5-1.3-1.7-2.9-3.2-3.3C-4338.7,6887.6-4338.7,6887.7-4338.7,6887.8L-4338.7,6887.8z"/>
	</g>
	<g transform="translate(133.682 145.515)">
		<path d="M-4338.5,6887.9c0,0.1,0,0.2,0.1,0.2c0,0.1,0,0.3,0,0.4c0,0.2,0,0.5,0,0.7c-0.1,0.5-0.1,1-0.1,1.5
			c0.1,0.9,0.7,1.6,1.5,1.8c0.4,0.1,0.9,0.1,1.3-0.1c0.2-0.1,0.4-0.2,0.6-0.3c0.1,0,0.2-0.2,0.3-0.1c0,0,0,0.3-0.1,0.3
			c-0.1,0.8,0.4,1.9,1.4,1.8c0.2,0,0.3-0.2,0.3-0.4c0-0.1-0.1-0.3-0.2-0.3s-0.2,0-0.3-0.1c-0.3,0-0.5,0.4-0.2,0.6
			c0.1,0,0.1,0.1,0.2,0.2l0.2-0.6c-0.5,0-0.7-0.5-0.7-1c0.1-0.3,0-0.5,0-0.8c-0.1-0.2-0.3-0.3-0.5-0.3c-0.5-0.2-0.8,0.2-1.2,0.4
			c-0.5,0.2-1,0.2-1.4-0.1c-0.9-0.7-0.6-1.8-0.6-2.8c0-0.4,0-1-0.3-1.3c-0.2-0.1-0.6,0-0.5,0.3
			C-4338.7,6888-4338.5,6888-4338.5,6887.9L-4338.5,6887.9z"/>
	</g>
	<g transform="translate(60.389 48.221)">
		<path d="M-4338.7,6887.6L-4338.7,6887.6L-4338.7,6887.6L-4338.7,6887.6L-4338.7,6887.6z"/>
	</g>
	<g transform="translate(61.005 49.065)">
		<path d="M-4338.7,6887.8c0.1,0.5,0.2,1,0.4,1.5c0.1,0.3,0.1,0.6,0.2,0.8c0.1,0.3,0.2,0.5,0.4,0.7c0,0.1,0.1,0.1,0.2,0
			c0.1,0,0.1-0.1,0.1-0.2c-0.1-0.1-0.2-0.4-0.3-0.6c-0.1-0.2-0.2-0.5-0.3-0.7c-0.2-0.5-0.3-1-0.4-1.5
			C-4338.4,6887.5-4338.7,6887.6-4338.7,6887.8L-4338.7,6887.8z"/>
	</g>
	<g transform="translate(63.119 51.408)">
		<path d="M-4338.7,6887.8c0.1,0.7,0.3,1.4,0.5,2c0.1,0.3,0.2,0.6,0.3,1c0.2,0.4,0.3,0.7,0.5,1c0.1,0.1,0.1,0,0.2,0v-0.1
			c0-0.4-0.1-0.7-0.3-1c-0.1-0.3-0.2-0.6-0.3-1c-0.2-0.7-0.4-1.3-0.5-2C-4338.4,6887.5-4338.7,6887.6-4338.7,6887.8L-4338.7,6887.8z
			"/>
	</g>
	<g transform="translate(63.598 47.32)">
		<path d="M-4338.7,6887.7v0.3c0,0.1,0,0.2,0,0.3c0,0.1,0.1,0.1,0.1,0.1c0.1,0,0.1-0.1,0.1-0.1c0-0.1,0-0.2,0-0.3v-0.3
			c0.1,0,0-0.1-0.1-0.1L-4338.7,6887.7z"/>
	</g>
	<g transform="translate(66.115 49.856)">
		<path d="M-4338.7,6887.8c0,0.7,0,1.4,0.1,2c0,0.3,0.1,0.6,0.1,1c0,0.3,0.1,0.7,0.3,1c0,0.1,0.1,0.1,0.2,0l0.1-0.1
			c0-0.3-0.1-0.6-0.2-0.9c-0.1-0.3-0.1-0.7-0.2-1c-0.1-0.6-0.1-1.3-0.1-2c0.1-0.1,0-0.2-0.1-0.2S-4338.7,6887.7-4338.7,6887.8
			L-4338.7,6887.8L-4338.7,6887.8z"/>
	</g>
	<g transform="translate(67.715 58.435)">
		<path d="M-4338.7,6887.8l0.2,1.1l0.1,0.5c0,0.2,0.1,0.4,0.1,0.6c0,0.1,0.1,0.1,0.2,0.1c0.1,0,0.1-0.1,0.1-0.1c0-0.2,0-0.4-0.1-0.6
			l-0.1-0.6l-0.2-1.1c0-0.1-0.1-0.1-0.2-0.1C-4338.7,6887.6-4338.7,6887.7-4338.7,6887.8L-4338.7,6887.8z"/>
	</g>
	<g transform="translate(64.041 59.297)">
		<path d="M-4338.7,6887.8c0,0.8,0,1.6,0.1,2.5c0,0.4,0.1,0.8,0.2,1.2c0,0.4,0.1,0.7,0.3,1.1c0,0.1,0.1,0.1,0.2,0.1l0.1-0.1
			c0-0.4-0.1-0.8-0.2-1.1c-0.1-0.5-0.2-0.9-0.2-1.3c-0.1-0.8-0.2-1.6-0.1-2.4C-4338.3,6887.5-4338.7,6887.5-4338.7,6887.8
			L-4338.7,6887.8z"/>
	</g>
	<g transform="translate(67.057 63.602)">
		<path d="M-4338.7,6887.8c0,0.6,0,1.2,0,1.7c0,0.3,0,0.6,0.1,0.8c0,0.3,0.1,0.6,0.2,0.8c0.1,0.1,0.2,0.1,0.3,0c0-0.3,0-0.5-0.1-0.8
			c0-0.3-0.1-0.6-0.1-0.9c0-0.6,0-1.1,0-1.7C-4338.2,6887.5-4338.6,6887.5-4338.7,6887.8L-4338.7,6887.8z"/>
	</g>
	<g transform="translate(71.438 59.65)">
		<path d="M-4338.7,6887.8v1.8v1c0,0.3,0,0.6,0.1,0.9c0,0.1,0.1,0.1,0.2,0.1c0,0,0.1,0,0.1-0.1c0-0.3,0-0.6,0-0.9v-0.9v-1.9
			c0-0.1-0.1-0.2-0.2-0.2S-4338.7,6887.7-4338.7,6887.8L-4338.7,6887.8z"/>
	</g>
	<g transform="translate(70.574 53.846)">
		<path d="M-4338.7,6887.8c0.1,0.7,0.2,1.4,0.3,2c0,0.1,0.1,0.1,0.1,0.1l0.1-0.1c0-0.7-0.1-1.3-0.2-2c0.1-0.1,0-0.2-0.1-0.2
			S-4338.7,6887.7-4338.7,6887.8L-4338.7,6887.8z"/>
	</g>
	<g transform="translate(73.115 53.845)">
		<path d="M-4338.7,6887.8c0.2,1.1,0.4,2.1,0.5,3.2c0.1,0.6,0.1,1.1,0.2,1.6c0,0.5,0,1,0.1,1.5c0,0.1,0.1,0.1,0.2,0.1
			c0.1,0,0.1-0.1,0.1-0.1c0.1-0.5,0.1-1.1,0-1.6c0-0.5-0.1-1-0.2-1.5c-0.1-1.1-0.3-2.2-0.5-3.3
			C-4338.4,6887.5-4338.8,6887.6-4338.7,6887.8L-4338.7,6887.8z"/>
	</g>
	<g transform="translate(75.869 53.259)">
		<path d="M-4338.7,6887.9c0.2,0.7,0.3,1.4,0.3,2.1c0,0.4,0,0.7,0,1.1c0,0.3,0,0.7,0,1c0,0.1,0.1,0.2,0.2,0.1c0.1,0,0.1-0.1,0.1-0.1
			c0.1-0.4,0.1-0.7,0.1-1.1s0-0.7-0.1-1.1c0.1-0.7,0-1.4-0.2-2.1C-4338.3,6887.5-4338.8,6887.6-4338.7,6887.9L-4338.7,6887.9z"/>
	</g>
	<g transform="translate(78.46 53.624)">
		<path d="M-4338.7,6887.8c0.1,0.5,0.2,1,0.2,1.5c0,0.3,0,0.5,0,0.8c0,0.2,0,0.5,0.1,0.7c0,0.1,0.2,0.1,0.2,0
			c0.1-0.2,0.1-0.5,0.1-0.7c0-0.3,0-0.5,0-0.8c0-0.5-0.1-1.1-0.2-1.6C-4338.4,6887.5-4338.7,6887.6-4338.7,6887.8L-4338.7,6887.8z"
			/>
	</g>
	<g transform="translate(80.015 48.504)">
		<path d="M-4338.7,6887.8c0.2,0.6,0.3,1.2,0.3,1.8c0,0.3,0.1,0.6,0.1,0.9c0,0.3,0,0.6,0.1,0.9c0,0.2,0.1,0.2,0.2,0.2
			s0.1-0.1,0.1-0.1c0.1-0.6,0.1-1.3,0-1.9c-0.2-0.6-0.3-1.3-0.4-1.9c-0.1-0.1-0.2-0.1-0.3-0.1
			C-4338.7,6887.6-4338.7,6887.7-4338.7,6887.8L-4338.7,6887.8z"/>
	</g>
	<g transform="translate(80.836 56.604)">
		<path d="M-4338.4,6887.8c0,0.8,0,1.7,0,2.5c0,0.4-0.1,0.8-0.1,1.3c-0.2,0.4-0.2,0.8-0.2,1.2c0,0.1,0.1,0.1,0.2,0.1s0.1,0,0.1-0.1
			c0.2-0.8,0.4-1.6,0.4-2.5c0-0.9,0-1.7,0-2.6C-4338.1,6887.5-4338.5,6887.5-4338.4,6887.8L-4338.4,6887.8z"/>
	</g>
	<g transform="translate(78.327 60.206)">
		<path d="M-4338.6,6887.8c0.2,0.9,0.3,1.9,0.2,2.9c0,0.9-0.1,1.9-0.3,2.8c0,0.1,0,0.1,0.1,0.1c0.1,0,0.1,0,0.1,0l0,0
			c0.7-1.9,0.7-4,0.2-5.9C-4338.3,6887.5-4338.6,6887.6-4338.6,6887.8L-4338.6,6887.8z"/>
	</g>
	<g transform="translate(75.646 61.616)">
		<path d="M-4338.6,6887.8c0.1,0.7,0.1,1.3,0,2c0,0.7-0.1,1.3-0.1,2c0,0.1,0.1,0.1,0.1,0.1c0.1,0,0.1,0,0.1-0.1
			c0.2-0.6,0.3-1.3,0.3-2c0-0.7,0-1.4-0.1-2C-4338.2,6887.5-4338.6,6887.5-4338.6,6887.8L-4338.6,6887.8z"/>
	</g>
	<g transform="translate(72.792 66.438)">
		<path d="M-4338.5,6887.7c-0.1,1.2-0.2,2.3-0.2,3.4c0,0.1,0.2,0.1,0.2,0c0.2-1.1,0.2-2.2,0.3-3.4
			C-4338.2,6887.6-4338.5,6887.6-4338.5,6887.7L-4338.5,6887.7z"/>
	</g>
	<g transform="translate(70.201 68.208)">
		<path d="M-4338.5,6887.7c-0.2,0.7-0.2,1.5-0.2,2.2c0,0.7,0.2,1.5,0.4,2.1c0,0.1,0.1,0.1,0.2,0l0.1-0.1c-0.1-0.6-0.3-1.3-0.3-2
			c0-0.7,0-1.4,0.1-2.1C-4338.2,6887.6-4338.5,6887.5-4338.5,6887.7L-4338.5,6887.7z"/>
	</g>
	<g transform="translate(76.74 68.978)">
		<path d="M-4338.4,6887.7c-0.2,0.4-0.3,0.8-0.3,1.2c0,0.2,0,0.4,0,0.6c0,0.2,0.1,0.4,0.3,0.6c0.1,0,0.2,0,0.2-0.1l0,0
			c0-0.2,0-0.4-0.1-0.6c0-0.2-0.1-0.4-0.1-0.5c0-0.4,0.1-0.7,0.2-1.1C-4338.2,6887.7-4338.2,6887.6-4338.4,6887.7
			C-4338.2,6887.6-4338.3,6887.6-4338.4,6887.7L-4338.4,6887.7z"/>
	</g>
	<g transform="translate(79.669 68.159)">
		<path d="M-4338.7,6887.8c0,0.3,0,0.7,0.1,1c0,0.3,0.1,0.7,0.2,1c0.1,0.1,0.2,0.1,0.3,0.1c0.1,0,0.2-0.2,0.1-0.3
			c0-0.2-0.1-0.3-0.1-0.4s-0.1-0.3-0.1-0.5c0-0.3-0.1-0.6-0.1-0.9c0-0.1-0.1-0.2-0.2-0.2S-4338.7,6887.7-4338.7,6887.8
			L-4338.7,6887.8z"/>
	</g>
	<g transform="translate(60.096 42.6)">
		<path d="M-4338.7,6887.8c0,0.7,0.1,1.4,0.4,2c0.1,0.1,0.2,0,0.2-0.1c-0.1-0.6-0.2-1.3-0.2-1.9c0-0.1-0.1-0.2-0.2-0.2
			S-4338.7,6887.7-4338.7,6887.8L-4338.7,6887.8z"/>
	</g>
	<g transform="translate(62.766 9.279)">
		<path d="M-4336.9,6888c1.9,0.9,2.9,3.1,2.4,5.1c-0.2,1-0.8,1.9-1.5,2.5c-0.4,0.3-0.8,0.5-1.2,0.7c-0.5,0.1-0.9,0.2-1.3,0.3
			c-0.2,0.1-0.2,0.3-0.2,0.4l0.1,0.1c1,0.6,2.4-0.2,3.2-0.9c0.9-0.7,1.5-1.8,1.7-3c0.4-2.4-0.9-4.7-3.1-5.6
			C-4337.1,6887.5-4337.2,6887.9-4336.9,6888L-4336.9,6888z"/>
	</g>
	<g transform="translate(64.908 3.079)">
		<path d="M-4338.5,6888.2c3.3,0.7,6,3.1,7.1,6.3c0.8,2.5,0.7,5.2-0.5,7.6c-0.3,0.6-0.6,1.1-1.1,1.6c-0.4,0.4-0.9,0.7-1.4,1
			c-0.2,0.1-0.3,0.4-0.2,0.7c0.1,0.1,0.2,0.2,0.3,0.2c1.4,0.2,2.6-0.9,3.3-2c0.8-1.4,1.3-2.9,1.4-4.5c0.5-3.4-0.8-6.8-3.4-9.1
			c-1.6-1.3-3.4-2.1-5.4-2.4C-4338.7,6887.6-4338.8,6888.1-4338.5,6888.2L-4338.5,6888.2z"/>
	</g>
	<g transform="translate(69.775 0.034)">
		<path d="M-4338.3,6888.4c1.7-0.1,3.4,0.3,5,1c1.5,1,2.6,2.5,3,4.3c0.5,1.9,0.8,3.8,0.9,5.8c0.2,1.8-0.1,3.7-0.9,5.3
			c-0.7,1.4-1.9,2.9-3.5,3.3c-0.2,0.1-0.3,0.3-0.2,0.4c0,0.1,0.1,0.2,0.2,0.2c1.7,0.5,3.1-0.8,4.1-2.2c1.1-1.7,1.7-3.6,1.7-5.6
			c0.1-2.3-0.2-4.6-0.8-6.8c-0.5-2-1.6-3.9-3.2-5.2c-1.8-1.3-4.2-1.4-6.3-1.3c-0.2,0-0.4,0.2-0.4,0.4
			C-4338.7,6888.3-4338.5,6888.4-4338.3,6888.4L-4338.3,6888.4z"/>
	</g>
	<g transform="translate(38.649)">
		<path d="M-4305.8,6887.6c-4.2,0-8.3,0.7-12.3,2c-1.9,0.6-3.7,1.4-5.3,2.4c-2.2,1.5-3.9,3.4-6.3,4.5c-1.3,0.6-2.8,1.1-4.2,1.3
			c-1.5,0.3-3,0.3-4.5,0.7c-0.3,0.1-0.4,0.7,0,0.8c1.3,0.1,2.6,0.1,3.8-0.1c1.3-0.3,2.6-0.6,3.9-1c2.4-1,4.6-2.4,6.5-4.2
			c3.3-2.7,7.5-3.9,11.6-4.8c2.2-0.5,4.5-0.8,6.7-1c0.2,0,0.3-0.1,0.3-0.3C-4305.5,6887.7-4305.7,6887.6-4305.8,6887.6
			L-4305.8,6887.6z"/>
	</g>
	<g transform="translate(28.588 7.154)">
		<path d="M-4318.1,6888.1c-5-0.6-10.3-1.2-14.6,1.9c-3.6,2.7-5.8,7-6,11.5c-0.3,5.3,1.7,10.3,4.5,14.7c1.4,2.2,2.9,4.4,4.2,6.7
			c1,1.8,1.9,3.8,2.6,5.8c0.8,2.2,1.3,4.6,1.6,6.9c0.3,2.1-0.1,4.2-1.1,6.1c-0.2,0.3,0.3,0.7,0.5,0.4c1.1-1.3,1.6-3,1.7-4.7
			c0.1-2-0.1-4.1-0.6-6c-1.1-4.2-2.9-8.2-5.3-11.8c-2.9-4.5-5.8-8.7-6.7-14c-0.9-4.7,0.4-9.5,3.5-13.1c1.8-1.9,4.1-3.2,6.7-3.6
			c3-0.4,6-0.3,8.9,0.2C-4317.7,6889.1-4317.6,6888.2-4318.1,6888.1L-4318.1,6888.1z"/>
	</g>
	<g transform="translate(30.082 7.494)">
		<path d="M-4338.3,6888.8c1.6-1,3.5-0.3,5,0.5c0.4,0.2,0.8,0.4,1.2,0.6c0.4,0.2,0.8,0.4,1.2,0.4s0.7-0.3,0.7-0.6l0,0
			c0-0.3-0.3-0.5-0.6-0.5c-0.2,0-0.3,0.1-0.4,0.3c0,0.1,0,0.3,0.1,0.4c0.1,0.1,0.3,0.1,0.5,0l0,0h-0.3c0.1,0,0.1,0-0.2-0.1v-0.3
			c0.1-0.1,0.1,0,0-0.1c-0.1,0-0.1-0.1-0.2-0.1c0-0.1-0.2-0.2-0.4-0.2c-0.3-0.2-0.7-0.4-1.1-0.5c-0.6-0.4-1.3-0.6-2-0.8
			c-1.3-0.4-2.6-0.2-3.8,0.5C-4338.9,6888.5-4338.6,6889-4338.3,6888.8L-4338.3,6888.8z"/>
	</g>
	<g transform="translate(32.074 5.183)">
		<path d="M-4338.4,6888.3c1,0.3,1.9,0.7,2.8,1.1c0.4,0.2,0.9,0.5,1.3,0.7c0.2,0.2,0.4,0.3,0.6,0.5c0.1,0.1,0.4,0.2,0.4,0.3v-0.2
			c0-0.2,0.3-0.2,0.3-0.1c0-0.1-0.1-0.1-0.2-0.1c-0.2,0.1-0.3,0.3-0.3,0.5c0,0.1,0.1,0.2,0.2,0.2c0.3,0.2,0.6,0.1,0.8-0.1
			c0.5-0.7-0.8-1.3-1.3-1.6c-1.4-0.9-2.9-1.5-4.5-1.9c-0.2,0-0.3,0.1-0.4,0.3C-4338.8,6888.1-4338.6,6888.2-4338.4,6888.3
			L-4338.4,6888.3z"/>
	</g>
	<g transform="translate(36.289 4.335)">
		<path d="M-4338.6,6888.2c0.7,0.7,1.2,1.4,1.6,2.3c0.2,0.4,0.4,0.8,0.5,1.3c0.1,0.2,0.1,0.5,0.2,0.7c0,0.2,0.1,0.5,0.3,0.7
			c0.1,0.1,0.4,0.1,0.5,0l0.1-0.1c0.1-0.3,0-0.5,0-0.8c-0.1-0.3-0.2-0.5-0.3-0.8c-0.2-0.5-0.4-0.9-0.6-1.4c-0.5-0.9-1.1-1.7-1.8-2.4
			c-0.2-0.1-0.4-0.1-0.5,0C-4338.7,6887.8-4338.7,6888-4338.6,6888.2L-4338.6,6888.2z"/>
	</g>
	<g transform="translate(79.219 7.216)">
		<path d="M-4338.4,6888c1.1,0.5,1.4,1.7,1.7,2.8c0.4,1.5,0.6,3,0.6,4.6c0,1.4-0.2,2.7-0.6,4c-0.2,0.6-0.5,1.1-0.8,1.7
			c-0.4,0.5-0.8,0.9-1.2,1.5c-0.1,0.2,0.1,0.5,0.3,0.3c1.1-0.8,1.9-1.9,2.3-3.2c0.6-1.5,0.8-3.1,0.7-4.7s-0.3-3.2-0.8-4.8
			c-0.2-1.1-1-2.1-2-2.6C-4338.5,6887.5-4338.6,6887.9-4338.4,6888L-4338.4,6888z"/>
	</g>
	<g transform="translate(40.284 44.514)">
		<path d="M-4337.5,6891.4c-0.3-0.5-0.4-1.1-0.3-1.8v-0.1l0,0l0,0c0,0.1-0.1,0.1-0.2,0.1l0,0c0,0,0,0,0.1,0.1s0.1,0.1,0.2,0.2
			c0.1,0.2,0.3,0.5,0.5,0.7c0.2,0.2,0.4,0.5,0.6,0.7c0.3,0.3,0.6,0.5,0.9,0.7c0.9,0.3,1-1,1.1-1.6c0.1-0.4,0.1-0.8,0.2-1.3
			c0-0.2,0-0.4,0-0.6c0-0.2,0-0.5-0.1-0.7c-0.1-0.2-0.3-0.2-0.5-0.1c0,0,0,0-0.1,0c-0.1,0.2-0.1,0.4-0.1,0.6c0,0.2-0.1,0.4-0.1,0.5
			c-0.1,0.4-0.1,0.8-0.2,1.1c-0.1,0.3-0.1,0.8-0.2,1.1v0.1l0,0c0,0,0,0,0.1,0c0.2-0.1,0.2,0,0.1-0.1s-0.2-0.3-0.4-0.4
			c-0.4-0.4-0.8-1-1.2-1.5c-0.3-0.2-0.6-0.5-1-0.4c-0.4,0.2-0.6,0.5-0.6,0.9c-0.1,0.8,0.2,1.6,0.7,2.2c0.1,0.1,0.3,0.1,0.4,0
			C-4337.5,6891.7-4337.4,6891.6-4337.5,6891.4L-4337.5,6891.4z"/>
	</g>
	<g transform="translate(78.875 39.959)">
		<path d="M-4338.7,6888c0.6,2,1.2,4,1.8,6c0.5,2.1,1,4.1,1.3,6.3c0.7,4.2,0.9,8.4,0.8,12.6c-0.1,2.4-0.3,4.8-0.5,7.2
			c0,0.2,0.2,0.4,0.4,0.4s0.3-0.1,0.4-0.3c0.9-4.2,1.1-8.6,0.8-12.9c-0.2-4.3-0.9-8.5-2-12.7c-0.5-2.3-1.3-4.6-2.4-6.8
			C-4338.2,6887.4-4338.8,6887.7-4338.7,6888L-4338.7,6888z"/>
	</g>
	<g transform="translate(60.974 59.435)">
		<path d="M-4338.7,6887.9c1.2,3.2,3.1,6.1,5.7,8.4c1.3,1.2,2.7,2.2,4.2,3c1.6,0.8,3.3,1.4,4.9,2.2c0.9,0.4,1.8,0.8,2.6,1.3
			c0.5,0.3,0.9,0.6,1.3,0.9c0.3,0.3,0.7,0.5,1.1,0.6c0.2,0,0.3-0.2,0.3-0.3l0,0c-0.1-0.7-0.9-1.2-1.4-1.6c-0.7-0.5-1.5-0.9-2.3-1.3
			c-1.6-0.8-3.2-1.4-4.8-2.1c-3.1-1.4-5.9-3.5-8-6.2c-1.2-1.5-2.3-3.2-3-5C-4338.3,6887.5-4338.8,6887.6-4338.7,6887.9
			L-4338.7,6887.9z"/>
	</g>
	<g transform="translate(79.346 73.19)">
		<path d="M-4338.6,6888.1c0.1,0.1,0.2,0.1,0.3,0.2l0.1,0.1c-0.1,0,0,0,0,0l0.1,0.1c0.2,0.2,0.3,0.3,0.4,0.4l0.1,0.1
			c0,0,0.1,0.1,0,0c0,0.1,0.1,0.1,0.1,0.2c0.1,0.1,0.1,0.2,0.2,0.3s0.2,0.2,0.3,0.4c0.1,0.1,0.2,0.1,0.3,0c-0.2,0,0,0,0.1,0
			c0.1,0,0.2-0.1,0.3-0.3s-0.1-0.4-0.3-0.5c-0.1,0-0.3,0-0.4,0.1c0,0.2,0,0.3,0.1,0.4c0,0,0,0,0,0.1c-0.1-0.1-0.1-0.3,0-0.4l0.2-0.1
			l0.3,0.1l0.1,0.2c0,0,0-0.1-0.1-0.1c0,0,0-0.1-0.1-0.1l0,0l-0.1-0.2c0-0.1-0.1-0.2-0.2-0.3c-0.1-0.1-0.3-0.3-0.4-0.4
			c-0.3-0.3-0.7-0.6-1.1-0.8c-0.1,0-0.3,0-0.4,0.1C-4338.7,6887.9-4338.7,6888.1-4338.6,6888.1L-4338.6,6888.1z"/>
	</g>
	<g transform="translate(81.118 72.974)">
		<path d="M-4338.7,6888.2l0.2,0.5l0.1,0.3l0.1,0.1c0,0,0,0.1,0.1,0.1c0.1,0.1,0.1,0.1,0.2,0.1s0.2,0,0.3,0c0.1-0.1,0.1-0.1,0.2-0.2
			c0-0.2,0-0.4-0.1-0.5l-0.1-0.3l-0.3-0.5c0-0.1-0.1-0.2-0.2-0.2c-0.1,0-0.2,0-0.3,0c-0.1,0.1-0.2,0.2-0.2,0.3v0.1
			C-4338.7,6888.1-4338.7,6888.1-4338.7,6888.2L-4338.7,6888.2z"/>
	</g>
</g>
<g>
	<g>
		<path class="st0" d="M283.8,62.2c-1.3-2.6-3.1-4.8-5.5-6.4c-0.9-0.6-1.8-1.1-2.8-1.5c-1.3-0.5-2.6-0.9-4-1
			c-0.8-0.1-1.7-0.1-2.5-0.1h-1.7c-14.9,0-22.4,0-22.6,0c-0.4,0.1-0.7,0.3-0.7,0.7c0,0.2,0,1.9,0,5.2c0,0.6,0,0.9,0,1
			c0,0.6,0.3,0.9,0.8,1.1c0.2,0.1,0.5,0.2,0.7,0.3c1.1,0.5,1.6,1.5,1.7,2.9c0,0.3,0,5,0,14.1c0,3.6,0,7.8,0,12.7v1.1
			c-0.1,1.7-0.7,2.9-2,3.6l-0.6,0.3c-0.3,0.2-0.5,0.5-0.5,0.8c0,0.2,0,0.4,0,0.7c0,3.6,0,5.5,0,5.7c0,0.6,0.3,0.9,0.9,0.9
			c0.3,0,3.7,0,10.2,0c6.5,0,9.9,0,10.2,0c0.5-0.1,0.8-0.3,0.8-0.8l0-0.4c0-3.8,0-5.8,0-6v0c-0.1-0.4-0.2-0.6-0.6-0.8l-0.5-0.3
			c-0.9-0.4-1.4-1.1-1.7-2c-0.2-0.6-0.3-1.7-0.3-3.2l0-0.7v-2.4c0-1.2,0-2,0.1-2.4c0.1-0.5,0.4-0.7,1.1-0.7c0.2,0,2.1,0,5.5,0h0.3
			c2.2,0,4.4-0.7,6.5-1.9c0.7-0.4,1.3-0.8,1.9-1.3c0.6-0.5,1.2-1.1,1.8-1.6c3.5-3.4,5.3-7.1,5.3-11
			C285.2,66.5,284.7,64.3,283.8,62.2z M249.1,104.3c-0.2,0.1-0.6,0.1-0.8-0.1c-0.2-0.1-0.4-0.3-0.5-0.6c-0.2-1-1.9-9.9,1.5-12.4
			c1.3-1,3-0.9,5.1,0.1c0.1,0,0.1,0,0.2,0.1c2.2,1.1,3.3,2.6,3.3,4.2C257.9,99.9,250,103.8,249.1,104.3z M260.7,69.7
			c-1-2.8,0.4-5.9,3.2-6.9c2.8-1,5.8,0.5,6.8,3.4c1,2.8-0.4,5.9-3.2,6.9C264.8,74.1,261.7,72.6,260.7,69.7z"/>
	</g>
	<g>
		<g>
			<g>
				<path class="st1" d="M262.8,87.8c0-1.2,0-2,0.1-2.4c0.1-0.5,0.4-0.7,1.1-0.7c0.2,0,2.1,0,5.5,0c-0.2-1-0.4-2-0.8-3.1
					c4.1-7.6,8.2-17.9,6.8-27.2c-1.3-0.5-2.6-0.9-4-1c-0.8-0.1-1.7-0.1-2.5-0.1h-1.7c-6.5,5.1-10.9,13.8-13.6,21
					c-3,1.1-5.2,2.7-6.7,4.4c0,3.6,0,7.8,0,12.7l4-3.4l9.2,4.5l0,7.2c0,0.3,0.2,0.6,0.4,0.8c0.2,0.2,0.5,0.2,0.8,0.1c0,0,0,0,0.1,0
					c0.1,0,2.4-1.1,4.6-3.4v0c-0.1-0.4-0.2-0.6-0.6-0.8l-0.5-0.3c-0.9-0.4-1.4-1.1-1.7-2c-0.2-0.6-0.3-1.7-0.3-3.2l0-0.7V87.8z
					 M260.7,69.7c-1-2.8,0.4-5.9,3.2-6.9c2.8-1,5.8,0.5,6.8,3.4c1,2.8-0.4,5.9-3.2,6.9C264.8,74.1,261.7,72.6,260.7,69.7z"/>
			</g>
		</g>
	</g>
</g>
</svg>
