<?xml version="1.0" encoding="utf-8"?>
<!-- Generator: Adobe Illustrator 23.0.0, SVG Export Plug-In . SVG Version: 6.00 Build 0)  -->
<svg version="1.1" id="e3c91520-adea-4e7e-8a45-4c2f0701f0ab"
	 xmlns="http://www.w3.org/2000/svg" xmlns:xlink="http://www.w3.org/1999/xlink" x="0px" y="0px" viewBox="0 0 180 140"
	 style="enable-background:new 0 0 180 140;" xml:space="preserve">
<style type="text/css">
	.st0{fill:#7AFED6;}
	.st1{fill:#FFFFFF;}
	.st2{fill:#F58EAB;}
	.st3{fill:#0C0710;}
	.st4{fill:#2F2E41;}
	.st5{fill:#7B35FC;}
	.st6{fill:#E6E6E6;}
	.st7{fill:#3F3D56;}
	.st8{fill:#002EC1;}
	.st9{fill:#FFBF00;}
	.st10{fill:#5300EF;}
	.st11{fill:#31008B;}
</style>
<path class="st0" d="M173.5,106.4c-1.7,5.9-6.7,10.1-11.9,13.6c-0.7,0.5-1.5,1-2.2,1.4c0,0,0,0,0,0c0,0-0.1,0-0.1,0.1
	c-0.2,0.1-0.3,0.2-0.4,0.3l0.1,0c0,0,0.1,0,0,0c0,0-0.1,0-0.1,0c-3-1.2-6.1-2.5-8.4-4.8c-2.4-2.4-3.8-6.1-2.5-9.2
	c0.2-0.4,0.4-0.8,0.6-1.2c0.1-0.2,0.2-0.3,0.3-0.4c2.2-2.7,6.2-3.1,9-0.9c0.9,0.7,1.6,1.7,2,2.8c0.4-3.6-2.6-6.5-5.4-8.7
	c-2.8-2.2-6-4.6-6.6-8.1c-0.3-2,0.4-3.9,1.6-5.4c0,0,0.1-0.1,0.1-0.1c1.5-1.8,3.7-2.9,6-3.2c4.3-0.5,8.5,1.8,11.7,4.9
	C172.4,92.2,175.5,99.7,173.5,106.4z"/>
<path class="st1" d="M165.4,98.6c0.8,1.3,1.5,2.7,1.9,4.2c0.4,1.3,0.5,2.7,0.5,4.1c-0.1,2.8-0.9,5.6-2.3,8c-1.1,1.9-2.3,3.6-3.8,5.1
	c-0.7,0.5-1.5,1-2.2,1.4c0,0,0,0,0,0c0,0-0.1,0-0.1,0.1c-0.2,0.1-0.3,0.2-0.4,0.3c0,0,0.2,0.1,0.1,0c0,0-0.1,0-0.1,0
	c0.5-4.5-1.1-9-4.5-12.1c-1.7-1.5-3.6-2.6-5.8-3.1c0.1-0.2,0.2-0.3,0.3-0.4c0.8,0.2,1.6,0.5,2.4,0.9c2.8,1.3,5.1,3.5,6.5,6.3
	c1.3,2.5,1.8,5.3,1.6,8c0.1-0.1,0.2-0.2,0.4-0.3c2.3-2.1,4.3-4.6,5.7-7.4c1.2-2.4,1.8-5.1,1.7-7.7c-0.1-2.9-1.3-5.6-3-8
	c-1.9-2.5-4-4.8-6.5-6.7c-2.5-2-5.2-3.7-8.1-5c-0.1-0.1-0.2-0.2-0.1-0.4c0-0.1,0.1-0.1,0.1-0.1c0.1,0,0.1,0,0.2,0
	c0.4,0.2,0.7,0.3,1.1,0.5c2.9,1.4,5.7,3.2,8.1,5.4C161.4,93.6,163.7,96,165.4,98.6z"/>
<path class="st2" d="M104.3,71.3c1.3-0.5,2-2,1.5-3.3c-0.1-0.1-0.1-0.3-0.2-0.4l6-6.9l-4.7-0.6l-5,6.7c-1.2,0.8-1.5,2.4-0.7,3.6
	C101.9,71.3,103.1,71.7,104.3,71.3z"/>
<path class="st2" d="M137.9,72.7c0.9-1.1,0.8-2.7-0.2-3.6c-0.1-0.1-0.2-0.2-0.4-0.3l1.9-8.9l-4.4,1.7l-1.1,8.2
	c-0.7,1.3-0.2,2.8,1.1,3.5C135.9,73.9,137.2,73.6,137.9,72.7L137.9,72.7z"/>
<polygon class="st2" points="116.5,119.3 113.4,119.3 111.9,107.2 116.5,107.2 "/>
<path class="st3" d="M117.3,122.4l-10.1,0v-0.1c0-2.2,1.8-3.9,3.9-3.9c0,0,0,0,0,0h0l6.2,0L117.3,122.4z"/>
<polygon class="st2" points="131.9,119.3 128.8,119.3 127.3,107.2 131.9,107.2 "/>
<path class="st3" d="M132.7,122.4l-10.1,0v-0.1c0-2.2,1.8-3.9,3.9-3.9c0,0,0,0,0,0h0l6.2,0L132.7,122.4z"/>
<path class="st4" d="M116.9,113l-4.4-0.2c-0.6,0-1.1-0.6-1.1-1.2l1.3-41l0.1,0c7.8-2.8,14.2-2.6,19.7,0.6l0.1,0l0.7,40
	c0,0.6-0.5,1.2-1.1,1.2c0,0,0,0,0,0h-3.7c-0.5,0-1-0.4-1.1-0.9L122,85.5c0-0.2-0.2-0.3-0.5-0.3c-0.2,0-0.3,0.2-0.3,0.3l-3.2,26.4
	C118,112.6,117.5,113,116.9,113C116.9,113,116.9,113,116.9,113z"/>
<circle class="st2" cx="121.2" cy="28.3" r="6.3"/>
<path class="st5" d="M106.4,66.3c-0.2-0.1-0.4-0.2-0.5-0.4l-1.2-1.8c-0.3-0.4-0.3-0.9,0-1.3l4.9-6.6l3.1-14.7
	c0.7-1.9,2.9-2.9,4.8-2.1c1.9,0.7,2.9,2.9,2.1,4.8l-1.4,9.4c-0.4,2.8-1.9,5.4-4.1,7.3l-6.4,5.4c-0.3,0.2-0.6,0.3-0.9,0.3
	C106.6,66.3,106.5,66.3,106.4,66.3z"/>
<path class="st5" d="M137.7,66.9c-0.2,0.1-0.5,0.1-0.7,0l-2.1-0.6c-0.5-0.1-0.8-0.5-0.9-1l-0.7-8.2l-7.4-13.1
	c-0.7-1.9,0.3-4.1,2.2-4.8c1.9-0.7,4.1,0.3,4.8,2.2c0,0,0,0,0,0l5.1,8c1.5,2.4,2.2,5.3,1.7,8.2l-1.3,8.3c0,0.3-0.2,0.6-0.5,0.8
	C137.8,66.9,137.8,66.9,137.7,66.9z"/>
<path class="st5" d="M114.3,39.5c2.2-2.4,5.3-3.7,8.6-3.5c0.1,0,0.2,0,0.3,0h0c3.1,0.2,5.9,1.8,7.7,4.3c1.9,2.5,2.6,5.7,1.9,8.7
	c-1.2,5.8-0.9,11.8,0.9,17.4l1.7,5.2c0.2,0.6-0.1,1.3-0.7,1.4c-0.1,0-0.2,0-0.3,0.1l-8.6,0.5l-2.2-3.8v3.9l-10.5,0.6c0,0,0,0-0.1,0
	c-0.6,0-1.2-0.5-1.2-1.2c0,0,0-0.1,0-0.1l1.2-14.7l-1.5-10C111.1,45.2,112.1,41.9,114.3,39.5z"/>
<path class="st3" d="M125.6,34.3c-0.6,0.3-2.9,0.6-3-0.1l0,0c-0.1-0.5,0-1,0-1.5c0-0.5,0-1-0.3-1.4c-0.6-0.7-1.7-0.3-2.6-0.5
	c-1.1-0.2-1.8-1.3-1.7-2.4c0-0.1,0-0.2,0.1-0.3c0.2-0.9-0.4-1.8-1.3-2c-0.2,0-0.3,0-0.5,0c-0.9,0.1-1.9,0.3-2.6-0.3
	c-0.6-0.5-0.7-1.9-0.5-2.6c0.4-1.2,3.2-1.9,4.4-2.2c3-0.9,6.2-0.3,8.8,1.4c0.8,0.5,1.5,1.2,1.8,2.1c0.3,0.9,0.2,2-0.6,2.5
	c1.1,1.2,1.6,3,1.1,4.6C128.1,32.7,126.4,33.8,125.6,34.3z"/>
<path class="st6" d="M68.9,52.9H12.3c-0.1,0-0.3-0.1-0.3-0.3c0-0.1,0.1-0.3,0.3-0.3h56.5c0.1,0,0.3,0.1,0.3,0.3
	C69.1,52.7,69,52.9,68.9,52.9z"/>
<path class="st7" d="M56.5,52.9H24.3c-0.1,0-0.3-0.1-0.3-0.3c0-0.1,0.1-0.3,0.3-0.3h32.1c0.1,0,0.3,0.1,0.3,0.3
	C56.7,52.7,56.6,52.9,56.5,52.9z"/>
<path class="st7" d="M40.7,52.9c-0.1,0-0.3-0.1-0.3-0.3V36.5c0-0.1,0.1-0.3,0.3-0.3c0.1,0,0.3,0.1,0.3,0.3v16.1
	C41,52.7,40.9,52.9,40.7,52.9z"/>
<path class="st7" d="M56.8,52.9c-0.1,0-0.3-0.1-0.3-0.3V20.4c0-0.1,0.1-0.3,0.3-0.3s0.3,0.1,0.3,0.3v32.2
	C57.1,52.7,57,52.9,56.8,52.9z"/>
<circle class="st6" cx="3.6" cy="20.4" r="2.8"/>
<circle class="st6" cx="3.6" cy="36.5" r="2.8"/>
<circle class="st6" cx="3.6" cy="52.6" r="2.8"/>
<path class="st6" d="M68.9,20.6H12.3c-0.1,0-0.3-0.1-0.3-0.3c0-0.1,0.1-0.3,0.3-0.3h56.5c0.1,0,0.3,0.1,0.3,0.3
	C69.1,20.5,69,20.6,68.9,20.6z"/>
<path class="st6" d="M68.9,36.7H12.3c-0.1,0-0.3-0.1-0.3-0.3s0.1-0.3,0.3-0.3h56.5c0.1,0,0.3,0.1,0.3,0.3S69,36.7,68.9,36.7z"/>
<circle class="st8" cx="24.5" cy="52.6" r="2.8"/>
<circle class="st9" cx="40.7" cy="36.5" r="2.8"/>
<circle class="st8" cx="40.7" cy="52.6" r="2.8"/>
<circle class="st10" cx="56.8" cy="20.4" r="2.8"/>
<circle class="st9" cx="56.8" cy="36.5" r="2.8"/>
<circle class="st8" cx="56.8" cy="52.6" r="2.8"/>
<path class="st3" d="M178.9,122.4H66.6c-0.1,0-0.3-0.1-0.3-0.3s0.1-0.3,0.3-0.3h112.3c0.1,0,0.3,0.1,0.3,0.3
	S179.1,122.4,178.9,122.4z"/>
<path class="st11" d="M84,99.7c-0.2,0-0.3,0-0.5,0c-5.4,0-9.7,4.4-9.7,9.7l0,0H84V99.7z"/>
<path class="st3" d="M86,122.4c-5.5,0-10-4.5-10-10c0-0.1,0.1-0.3,0.3-0.3h10v-9.5c0-0.1,0-0.1,0.1-0.2c0.1,0,0.1-0.1,0.2-0.1
	c5.5,0.3,9.7,5,9.4,10.5C95.7,118.3,91.3,122.4,86,122.4z M76.5,112.7c0.1,5.2,4.5,9.3,9.7,9.2c5.2-0.1,9.3-4.5,9.2-9.7
	c-0.1-4.8-3.9-8.8-8.7-9.2v9.4c0,0.1-0.1,0.3-0.3,0.3H76.5z"/>
</svg>
