<svg xmlns="http://www.w3.org/2000/svg" xmlns:xlink="http://www.w3.org/1999/xlink" width="640" height="640" viewBox="0 0 640 640"><defs><clipPath id="b"><rect width="640" height="640"/></clipPath></defs><g id="a" clip-path="url(#b)"><rect width="640" height="640" fill="#fff"/><rect width="640" height="640" fill="#fffeef"/><rect width="640" height="109" transform="translate(0 531)" fill="#fffeef"/><g transform="translate(-153.412 -160.812)"><g transform="translate(332.824 355.081)"><g transform="translate(0 0)"><circle cx="103.74" cy="103.74" r="103.74" fill="#002ec1" stroke="#fff" stroke-miterlimit="10" stroke-width="10" style="mix-blend-mode:multiply;isolation:isolate"/><circle cx="103.74" cy="103.74" r="103.74" transform="translate(115.863)" fill="#ffbf00" stroke="#fff" stroke-miterlimit="10" stroke-width="10" style="mix-blend-mode:multiply;isolation:isolate"/><circle cx="103.74" cy="103.74" r="103.74" transform="translate(63.603 96.904)" fill="#e83f6f" stroke="#fff" stroke-miterlimit="10" stroke-width="10" style="mix-blend-mode:multiply;isolation:isolate"/></g><g transform="translate(36.141 44.124)"><path d="M449.191,425.921l-16.357-9.474-16.357,9.474,16.357,9.393Z" transform="translate(-398.988 -416.447)" fill="#fff"/><path d="M462.371,436.452l-11.093-6.4-20.648,11.9-20.648-11.9-11.093,6.4,31.741,18.381Z" transform="translate(-396.784 -418.153)" fill="#fff"/><path d="M462.579,471.389a2.915,2.915,0,1,0-2.915,2.915A2.955,2.955,0,0,0,462.579,471.389Z" transform="translate(-404.036 -422.968)" fill="#fff"/><path d="M430.328,461.142l-33.846-19.515v36.6l13.927,8.016v-4.211a7.213,7.213,0,1,1,9.392-6.883,7.246,7.246,0,0,1-5.02,6.883v6.64l13.522,7.773V479.6l16.923-9.879a6.318,6.318,0,0,1-.242-1.781,7.206,7.206,0,1,1,7.206,7.206,6.906,6.906,0,0,1-4.7-1.782l-14.9,8.745v14.495l31.742-18.3v-36.6Z" transform="translate(-396.482 -419.603)" fill="#fff"/><path d="M414.394,476.714a2.915,2.915,0,1,0,2.914,2.915A2.9,2.9,0,0,0,414.394,476.714Z" transform="translate(-398.362 -424.001)" fill="#fff"/></g><path d="M647.362,417.413V406.1H616.243v11.316H597.572v22.632h27.5a8.6,8.6,0,0,1-.339-2.376,8.969,8.969,0,0,1,5.658-8.317v-6.28h5.657v5.658H641.7v5.658H633.67a3.283,3.283,0,0,0-3.282,3.281,3.386,3.386,0,0,0,1.018,2.376h26.14V445.7H638.422a8.8,8.8,0,0,1,3.282,6.9,8.969,8.969,0,0,1-5.658,8.317v6.28h-5.657v-5.657H624.73v-5.658h8.035a3.283,3.283,0,0,0,3.281-3.282,3.189,3.189,0,0,0-1.245-2.546L629.37,445.7H603.23v27.158h65.632V417.413Zm-5.658,0H621.9v-5.657h19.8Z" transform="translate(-385.545 -371.026)" fill="#fff"/><g transform="translate(140.435 211.6)"><path d="M570.533,614.1h3.508l-3.508-3.508Z" transform="translate(-522.591 -608.257)" fill="#fff"/><path d="M563.286,631.986l-2.079,9.355h4.621l-2.079-9.355Z" transform="translate(-521.422 -610.938)" fill="#fff"/><path d="M561.324,616.107v-8.185h-45.6v70.159h53.788V616.107Zm-32.741-4.677h2.339v2.338h-2.339Zm-4.677,0h2.338v2.338h-2.338Zm-4.678,0h2.339v2.338h-2.339Zm7.016,62.457-4.334-4.334,1.653-1.654,2.681,2.682,6.19-6.189,1.653,1.653Zm0-11.693-4.334-4.335,1.653-1.654,2.681,2.682,6.19-6.189,1.653,1.653Zm36.25,7.7H539.107v-2.338h23.387Zm0-11.693H539.107v-2.339h23.387Zm-4.678-14.032a5.847,5.847,0,0,1-5.846-5.846h1.192l.005-.254,2.246-10.109a9.251,9.251,0,0,1-3.069-1.358l-5.777-4a6.731,6.731,0,0,0-.734-.426,3.5,3.5,0,0,1-2.048,1.9v20.094h4.677a2.338,2.338,0,0,1,2.339,2.339v2.339H534.43V646.51a2.338,2.338,0,0,1,2.338-2.339h4.678V624.077a3.5,3.5,0,0,1-2.048-1.9,6.946,6.946,0,0,0-.735.426l-5.777,4a9.269,9.269,0,0,1-3.072,1.36l2.277,10.361h1.169a5.847,5.847,0,0,1-11.693,0h1.193l0-.254,2.266-10.2a9.243,9.243,0,0,1-3-1.473l1.4-1.871a6.934,6.934,0,0,0,8.116.153l5.776-4a9.3,9.3,0,0,1,1.971-1.005,3.487,3.487,0,0,1,6.626,0,9.153,9.153,0,0,1,1.971,1l5.775,4a6.93,6.93,0,0,0,8.117-.153l1.4,1.871a9.254,9.254,0,0,1-3,1.474l2.3,10.453h1.169A5.848,5.848,0,0,1,557.816,644.171Z" transform="translate(-515.721 -607.922)" fill="#fff"/><path d="M528.527,631.986l-2.079,9.355h4.621l-2.079-9.355Z" transform="translate(-517.065 -610.938)" fill="#fff"/></g><g transform="translate(148.593 109.333)"><path d="M570.779,501.318a17.93,17.93,0,0,0-6.346-7.3,17.311,17.311,0,0,0-7.765-2.863,27.235,27.235,0,0,0-2.885-.155h-1.93q-25.554,0-25.918.044a.912.912,0,0,0-.843.821q-.043.379-.044,5.924,0,.955.022,1.176a1.239,1.239,0,0,0,.865,1.287q.4.134.8.311a3.526,3.526,0,0,1,1.909,3.35q.016.547.018,16.186.005,6.114,0,14.53v1.238a4.319,4.319,0,0,1-2.264,4.083l-.687.354a1.172,1.172,0,0,0-.622.954,6.614,6.614,0,0,0-.044.754q0,6.19.022,6.479a.993.993,0,0,0,1.065,1.065q.466.046,11.65.045,11.2,0,11.694-.045a.965.965,0,0,0,.931-.931l.024-.511q0-6.568-.045-6.9v0a1.163,1.163,0,0,0-.666-.929l-.622-.289a3.7,3.7,0,0,1-1.974-2.241,12.327,12.327,0,0,1-.378-3.618l.022-.841v-2.708a21.3,21.3,0,0,1,.122-2.774c.082-.516.485-.776,1.211-.776q.369-.022,6.339-.022h.3a14.86,14.86,0,0,0,7.433-2.2,13.188,13.188,0,0,0,2.174-1.463q1.067-.932,2.087-1.887,6.013-5.857,6.013-12.558A17.547,17.547,0,0,0,570.779,501.318Zm-39.67,48.165a1.172,1.172,0,0,1-.9-.062,1.1,1.1,0,0,1-.562-.663c-.229-1.148-2.138-11.285,1.709-14.252,1.462-1.128,3.439-1.085,5.874.129a1.1,1.1,0,0,1,.2.074c2.514,1.3,3.788,2.927,3.779,4.846C541.2,544.5,532.142,548.988,531.109,549.483Zm13.263-39.55a6.083,6.083,0,1,1,7.831,3.852A6.179,6.179,0,0,1,544.371,509.932Z" transform="translate(-525.048 -491)" fill="#f2f2f2"/><g transform="translate(3.612)"><path d="M547.288,530.586a21.287,21.287,0,0,1,.122-2.774c.082-.516.485-.776,1.211-.776q.369-.022,6.339-.022a23.351,23.351,0,0,0-.934-3.507c4.675-8.667,9.385-20.535,7.758-31.182a17.388,17.388,0,0,0-4.6-1.17A27.234,27.234,0,0,0,554.3,491h-1.93c-7.422,5.893-12.432,15.787-15.557,24.042a17.85,17.85,0,0,0-7.636,5.058q.005,6.114,0,14.53l4.557-3.926L544.3,535.9l-.054,8.211a1.069,1.069,0,0,0,.46.887,1,1,0,0,0,.907.123.418.418,0,0,0,.061-.025,18.37,18.37,0,0,0,5.236-3.879v0a1.163,1.163,0,0,0-.666-.929l-.622-.289a3.7,3.7,0,0,1-1.974-2.241,12.327,12.327,0,0,1-.378-3.618l.022-.841Zm-2.4-20.653a6.083,6.083,0,1,1,7.831,3.852A6.179,6.179,0,0,1,544.889,509.932Z" transform="translate(-529.178 -491)" fill="#7a7a7a"/></g></g><path d="M436.723,551.065,525.744,394.5,627.2,545.817Z" transform="translate(-365.385 -369.572)" fill="#fff" stroke="#fff" stroke-miterlimit="10" stroke-width="1" style="mix-blend-mode:soft-light;isolation:isolate"/></g><text transform="translate(176.936 417.402)" font-size="25" font-family="Recursive Sans Casual" font-weight="700"><tspan x="0" y="0">Technology</tspan></text><text transform="translate(459.015 676.74)" font-size="25" font-family="Recursive Sans Casual" font-weight="700"><tspan x="0" y="0">Legal</tspan></text><text transform="translate(607.708 597.146)" font-size="25" font-family="Recursive Sans Casual" font-weight="700"><tspan x="0" y="0">Compliances</tspan></text><text transform="translate(655.814 427.461)" font-size="25" font-family="Recursive Sans Casual" font-weight="700"><tspan x="0" y="0">Business</tspan></text><text transform="translate(439.772 305.883)" font-size="25" font-family="Recursive Sans Casual" font-weight="700"><tspan x="0" y="0">Revenue</tspan></text><text transform="translate(236.413 595.834)" font-size="25" font-family="Recursive Sans Casual" font-weight="700"><tspan x="0" y="0">RegTech</tspan></text><line x1="135.573" y2="50.73" transform="translate(308.192 518.643)" fill="#fff" stroke="#002ec1" stroke-linecap="round" stroke-linejoin="round" stroke-width="10" style="mix-blend-mode:multiply;isolation:isolate"/><line y2="93.589" transform="translate(494.495 317.47)" fill="none" stroke="#00eaa3" stroke-linecap="round" stroke-linejoin="round" stroke-width="10" style="mix-blend-mode:multiply;isolation:isolate"/><line x1="129.45" y1="48.107" transform="translate(552.223 518.643)" fill="#fff" stroke="#e83f6f" stroke-linecap="round" stroke-linejoin="round" stroke-width="10" style="mix-blend-mode:multiply;isolation:isolate"/></g></g></svg>