<?xml version="1.0" encoding="utf-8"?>
<!-- Generator: Adobe Illustrator 23.0.0, SVG Export Plug-In . SVG Version: 6.00 Build 0)  -->
<svg version="1.1" id="f885adbf-893a-4cbc-9f2f-51541a368feb"
	 xmlns="http://www.w3.org/2000/svg" xmlns:xlink="http://www.w3.org/1999/xlink" x="0px" y="0px" viewBox="0 0 180 140"
	 style="enable-background:new 0 0 180 140;" xml:space="preserve">
<style type="text/css">
	.st0{fill:#00EAA3;}
	.st1{fill:#9B7400;}
	.st2{fill:#444053;}
	.st3{fill:none;stroke:#9B7400;stroke-miterlimit:10;}
	.st4{fill:none;stroke:#444053;stroke-miterlimit:10;}
	.st5{fill:#6C63FF;}
	.st6{fill:#31008B;}
	.st7{fill:#E8EAF2;}
	.st8{fill:#0C0710;}
	.st9{opacity:0.8;fill:#DC0057;enable-background:new    ;}
	.st10{opacity:0.8;fill:#FFBF00;enable-background:new    ;}
	.st11{opacity:0.8;fill:#1EFFBC;enable-background:new    ;}
	.st12{fill:#A6A6A6;}
	.st13{fill:#65617D;}
	.st14{fill:#AC0045;enable-background:new    ;}
	.st15{opacity:5.000000e-02;enable-background:new    ;}
	.st16{opacity:0.1;enable-background:new    ;}
	.st17{fill:#DE3177;}
	.st18{fill:#F58EAB;}
	.st19{fill:#E3E8F4;}
	.st20{fill:#001B76;}
	.st21{fill:#EE8E9E;}
	.st22{fill:#7B35FC;}
	.st23{fill:#E6E8EC;}
	.st24{fill:#565387;}
	.st25{opacity:5.000000e-02;fill:#7A7A7A;enable-background:new    ;}
	.st26{opacity:0.1;}
	.st27{fill:#FFFFFF;}
	.st28{opacity:0.2;fill:#6C63FF;enable-background:new    ;}
	.st29{fill:#DFE3EF;}
	.st30{fill:#033EFF;}
	.st31{fill:#E83F6F;}
	.st32{fill:#5300EF;}
</style>
<title>revenue</title>
<path class="st0" d="M178.6,44.6c0,0-2.5-1-10.4,2.6c-7.9,3.6-8.9,3.2-10.9,2.6c-2-0.6-3.2-0.7-5.4-3.7c0,0-1.5-8.4-3-9.7
	c-1.5-1.3-7.8,0.7-7.8,0.7s-7.6,1.7-9-8.4c0,0,1-7.7-0.4-10c0,0,2.8,1.2,7.5-0.7c4.7-2,8.4,2.1,8.4,2.1s1.2,3,1.1,4.9
	c-0.1,1.8,0.6,2.5,2.8,1.6c0,0,1.1-1.6-0.5-4.1c-1.5-2.6-2.7-4.5-2.2-6.5c0.4-2,1.7-4.8,5.7-6.1s9.4-1.6,12-2.7
	c2.6-1.1,3.2-1.8,3.2-1.8s-1.6,1.6,2.2,8.4s1.4,9.8,1.4,9.8s-2,4.8-10.9,4.4c0,0-8.5,0.3-3.9,3.9c0,0,3-0.6,7.4-2s7.7,4.4,8.5,8.5
	C175.2,42.4,178.6,44.6,178.6,44.6z"/>
<path class="st1" d="M167.2,10.5L167.2,10.5c0.4,1.3-3.4,6.5-6.7,10.6l0,0C165,15.3,167.4,11.5,167.2,10.5z"/>
<path class="st2" d="M160.5,21.1L160.5,21.1c-2.6,3.4-5.9,7.3-8.5,10.2c-0.2,0.3-0.5,0.6-0.7,0.9l-0.1-0.1c0.2-0.3,0.5-0.6,0.7-0.9
	C154.6,28.3,157.9,24.4,160.5,21.1z"/>
<path class="st2" d="M151.3,32L151.3,32c-4.7,6-5,15.3-5,15.4l-1-1.2C145.3,46.2,146.5,38,151.3,32z"/>
<path class="st3" d="M173.1,41.4c0,0-5.6-2.9-10-1.9c-4.4,1.1-14.3-3.7-14.3-3.7s-4.2-1.7-5-3.6c0,0-2.9-3-3-4.6
	c-0.2-1.6-3-5.5-4.8-5.7"/>
<path class="st3" d="M172.3,44.2c0,0-2.8-1.9-2.5-4.1"/>
<path class="st3" d="M168,46.7c0,0-4-1.5-4.5-7.2"/>
<path class="st4" d="M161.4,48.2c0,0-3.9-3.2-2.6-8.8"/>
<path class="st4" d="M153.6,46.6c0,0-2.6-5.4-0.3-8.9"/>
<path class="st3" d="M173.2,37.8c0,0-2.9,0.9-2.3,2.5"/>
<path class="st3" d="M169.6,32.5c0,0-3.9,1.2-4,6.8"/>
<path class="st4" d="M164.2,31.2c0,0-3.6,4.4-3.3,8.4"/>
<path class="st4" d="M157.9,33c0,0-3.5,3.4-3.1,5.3"/>
<path class="st4" d="M155.8,31.8c0,0-3.3,0.6-3.8-0.5"/>
<path class="st4" d="M151.5,27.8c0,0,1.7,2.2,2.1,1.7"/>
<path class="st3" d="M168.1,26.3c0,0-8.4,0.6-10.3-1.9"/>
<path class="st3" d="M149.7,16.5c0,0,3.9,8.4,6.8,9.5"/>
<path class="st3" d="M153.8,12.5c0,0,2.4,7.8,5.4,10.2"/>
<path class="st3" d="M171.6,19.9c0,0-6.4,2.7-10.2,0"/>
<path class="st3" d="M159.5,10.9c0,0,1.5,5.7,3.4,7.1"/>
<path class="st3" d="M170.7,13.6c0,0-3.6,1.4-4.9,0.3"/>
<path class="st4" d="M148.4,29.6c0,0,0,5-1.4,5.3"/>
<path class="st4" d="M137.3,36.1c0,0,5.4,0.5,7.9-2.3"/>
<path class="st4" d="M147,23.7c0,0-1.3,5-4.9,6.4"/>
<path class="st4" d="M134.1,30.7c0,0,3.8,1.3,7.1-2"/>
<path class="st3" d="M142.8,19.4c0,0-0.4,4.3-2.7,6.3"/>
<path class="st4" d="M134.3,24.2c0,0,3.2,0,3.9-1"/>
<path class="st5" d="M31.9,126.1c0,0,2.2-1.4,4.3-0.4c0,0-0.7,1.3-3.4,1.2L31.9,126.1z"/>
<path class="st5" d="M31.6,126.2c0,0-0.7,2.5,1,4.2c0,0,1-1,0-3.6L31.6,126.2z"/>
<path class="st5" d="M28.9,123.8c0,0,0.2-2.1,5-1.4c0,0,0,1.4-1.7,2S29.8,124.5,28.9,123.8z"/>
<path class="st5" d="M28.6,123.8c0,0-2,0.7-0.2,5.2c0,0,1.3-0.3,1.6-2.1C30.2,125,29.5,124.4,28.6,123.8z"/>
<path class="st5" d="M25.9,120.7c0,0-0.3-3.5,4.6-3.1c0,0,0.3,3.2-3.8,4L25.9,120.7z"/>
<path class="st5" d="M22.6,116.8c0,0,0.7-4,5.6-2.8c0,0,0,3.4-4.8,3.7L22.6,116.8z"/>
<path class="st5" d="M20.3,112.7c0,0,1.1-3.9,6-2.7c0,0-1.2,3.5-5.7,3.4L20.3,112.7z"/>
<path class="st5" d="M18,108.7c0,0,1.1-4,5.8-2.8c0,0-1.6,3.8-5.5,3.5L18,108.7z"/>
<path class="st6" d="M16.6,104.9c0,0,0.8-4.9,5.2-3.8c0,0-1.3,4.5-4.9,4.5L16.6,104.9z"/>
<path class="st6" d="M15.2,100.3c0,0,1-5,5.5-3.5c0,0-1.7,4.7-5.1,4.2L15.2,100.3z"/>
<path class="st6" d="M14.3,96c0,0,1.6-5,5-4.8c0,0-1.7,5.2-4.8,5.8L14.3,96z"/>
<path class="st6" d="M13.8,91.8c0,0,1.8-6,4.6-5.5c0,0-1.2,4.6-4.5,6.4L13.8,91.8z"/>
<path class="st6" d="M13.5,86.9c0,0,1.6-5,4.4-5.2c0,0-1.1,4.9-4.3,6.5L13.5,86.9z"/>
<path class="st6" d="M13.2,82.2c0,0,2.1-5,3.9-5.1c0,0-0.9,4.9-3.7,5.9L13.2,82.2z"/>
<path class="st6" d="M12.9,77.9c0,0,1.3-5.4,3.1-5.9c0,0-0.2,4.4-2.9,6.3L12.9,77.9z"/>
<path class="st6" d="M12.3,72.3c0,0,1.3-4.3,2.8-5c0,0-0.3,5.1-2.5,6L12.3,72.3z"/>
<path class="st6" d="M11.7,68.6L11.4,61c0,0,2.8,5.7,0.5,8.9L11.7,68.6z"/>
<path class="st6" d="M9.6,61c0,0-2-5.5-2.5-5.9c0,0,3.9,3.6,3.5,8.2L9.6,61z"/>
<path class="st5" d="M25.8,120.7c0,0-3.5-0.5-3.4,4.5c0,0,3.2,0.5,4.2-3.6L25.8,120.7z"/>
<path class="st5" d="M22.5,116.6c0,0-4,0-3.7,5c0,0,3.4,0.6,4.5-4.1L22.5,116.6z"/>
<path class="st6" d="M20.2,113c0,0-3.7-1.7-6,2.7c0,0,3.4,1.4,6.3-2L20.2,113z"/>
<path class="st6" d="M17.9,108.7c0,0-3.7-1.8-5.9,2.5c0,0,3.9,1.3,6.3-1.8L17.9,108.7z"/>
<path class="st6" d="M16.6,105c0,0-3.6-3.4-6.5,0c0,0,3.7,2.8,6.7,0.7L16.6,105z"/>
<path class="st6" d="M15.4,100.2c0,0-3.6-3.5-6.5,0.2c0,0,4.1,2.9,6.6,0.6L15.4,100.2z"/>
<path class="st6" d="M14.7,95.9c0,0-2.8-4.4-6.1-3.4c0,0,2.9,4.7,6.1,4.5L14.7,95.9z"/>
<path class="st6" d="M13.9,91.8c0,0-2.8-5.5-5.5-4.6c0,0,2,4.3,5.6,5.5L13.9,91.8z"/>
<path class="st6" d="M13.7,86.6c0,0-2.9-4.4-5.6-3.8c0,0,2.4,4.4,5.9,5.1L13.7,86.6z"/>
<path class="st6" d="M13.5,82.1c0,0-2.2-4.9-4.1-4.9c0,0,1.1,4.9,3.9,5.8L13.5,82.1z"/>
<path class="st6" d="M13,77.8c0,0-2.5-5-4.4-5c0,0,1.3,4.2,4.3,5.4L13,77.8z"/>
<path class="st6" d="M12.7,72.6c0,0-1.9-4.1-3.4-4.6c0,0,0.9,5,3.2,5.7L12.7,72.6z"/>
<path class="st6" d="M11.5,68.4l-4.2-6.4c0,0,1.1,6.3,4.8,7.6L11.5,68.4z"/>
<path class="st6" d="M8.6,61.5c0,0-4.8-3.3-5-3.9c0,0,2.5,4.7,7,5.5L8.6,61.5z"/>
<path class="st6" d="M8.3,60c0,0-5.6-5.3-7-5.3c0,0,4.6,0.2,7.1,5.1L8.3,60z"/>
<path class="st1" d="M12.6,73.4l-0.2,0c-1-8.2-2.6-13-4.3-13.6l0.1-0.2C10,60.2,11.5,65,12.6,73.4z"/>
<path class="st1" d="M14.1,92.9l-0.3,0c-0.1-0.8-0.1-1.5-0.1-2.3c-0.3-6.8-0.7-13-1.3-17.7l0.2-0.2c0.6,4.7,1.2,11.1,1.5,17.9
	C14,91.4,14.1,92.2,14.1,92.9z"/>
<path class="st1" d="M37.6,130c-0.1,0-5.4-2.4-11-8.2c-3.3-3.4-6-7.2-8.1-11.4c-2.6-5.3-4.2-11.7-4.7-18l0.3,0.1
	c1.2,14.1,7.6,23.8,12.7,29c5.5,5.7,10.9,8.1,10.9,8.1L37.6,130z"/>
<path class="st7" d="M164,27v98.3c0,2.9-2.8,5.3-6.3,5.3H24.3c-3.5,0-6.3-2.4-6.3-5.3V27c0-2.9,2.8-5.9,6.3-5.9l133.4,0.3
	C161.2,21.5,164,24.1,164,27z"/>
<path class="st8" d="M164,27.1v4.6H18v-4.6c0-3.3,2.7-5.9,5.9-5.9l0,0H158C161.3,21.1,164,23.8,164,27.1C164,27.1,164,27.1,164,27.1
	z"/>
<circle class="st9" cx="25.1" cy="26.4" r="2.1"/>
<circle class="st10" cx="31.2" cy="26.4" r="2.1"/>
<circle class="st11" cx="37.3" cy="26.4" r="2.1"/>
<path class="st12" d="M160.7,128.6l-3.5-5.1c0,0-0.1-1.3-0.3-1.6c-0.2-0.3,0-1,0-1s0.2-0.4,0-0.4c-0.2,0,0-0.8,0-0.8l0-1.3
	c0,0,0.2-1.2,0-1.5c-0.1-0.2-0.1-0.4,0-0.5c0,0,0.2-0.7,0-0.9c-0.2-0.2-0.1-1.3-0.1-2.2c0.1-0.9-0.3-1.4-0.3-1.5
	c0-0.1-1.3-1.4-1.3-1.5c0-0.1-0.8-0.6-1.3-0.7c-0.5-0.1-0.7-0.2-0.7-0.3c0-0.1-0.8-0.3-0.8-0.3s-0.7,0-1-0.4
	c-0.3-0.3-1.1-0.4-1.1-0.5c0,0,0,0,0-0.1l0-0.1c0.1-0.1,0.1-0.2,0.2-0.3l0-0.1c0.3,0,0.6-0.1,0.8-0.3c0.2-0.2,0.4-0.5,0.4-0.8
	c0-0.3-0.1-0.6-0.2-0.9c-0.1-0.3-0.4-0.6-0.3-0.9c0-0.1,0.1-0.3,0.2-0.4c0.1-0.3,0-0.5-0.1-0.8c-0.1-0.2-0.3-0.5-0.4-0.7
	c-0.2-0.3-0.3-0.6-0.4-1c0-0.2-0.1-0.4-0.1-0.5c-0.1-0.1-0.2-0.2-0.3-0.3c-0.5-0.4-1.1-0.6-1.8-0.5c-0.5,0-0.9,0.1-1.4,0.1
	c-0.3,0-0.5-0.1-0.8-0.2c-0.6-0.2-1.2-0.2-1.7,0.1s-0.7,0.9-1,1.4c-0.3,0.4-0.7,0.8-0.9,1.3c0,0,0,0,0,0c-0.1,0.1-0.1,0.2-0.1,0.3
	c-0.1,0.4,0,0.7,0.1,1.1c0,0.2,0.1,0.4,0.3,0.5c0.2,0.1,0.4,0.1,0.6,0.1c0,0,0,0.1,0,0.1c-0.4,1.9,0.7,3.9,2.6,4.4c0,0,0,0.1,0,0.1
	c0,0.1,0,0.2,0,0.3l0,0c0,0-1.7-0.3-2.1-0.1c-0.4,0.2-1.3,0.4-1.5,0.5c-0.1,0.1-0.5,0-0.8,0.8s-0.3,1.6-0.7,1.9
	c-0.4,0.4-0.6,0.6-0.6,0.9c0,0.3,0,0.3-0.1,0.4c-0.1,0.1-0.4,0.4-0.3,0.6c0,0.2,0,0.4-0.2,0.5c-0.2,0.1-0.2,0.3-0.2,0.5
	c0,0-0.1,0.4-0.3,0.4c-0.2,0.1-0.4,0.6-0.4,0.6l-0.8,0.9l-1.5-1.6c-0.2-0.3-0.6-0.3-0.9,0l-0.7,0.7c-0.3,0.1-0.5,0.2-0.7,0.4
	c-0.2,0.2-0.3,0.4-0.4,0.6l-0.4,0.4c-0.3,0.3-0.3,0.8-0.1,1.1l1,1.1v0c-0.3,0-0.6,0.2-0.9,0.4c-1.4,1.3-1.4,2.4-1.2,2.9
	c0.2,0.5,2,2.6,2,2.6s1.1,1.4,2.6,2.1l0,0l0,0c0,0-0.1,0.1-0.1,0.1l0,0c0,0,0,0,0,0l0,0l0,0l0,0l0,0l0,0.1c0,0,0,0,0,0
	c0,0,0,0.1,0,0.1c0,0,0,0,0,0c0,0,0,0,0,0.1l0,0c0,0,0,0,0,0.1l0,0l0,0.1c0,0,0,0,0,0c0,0,0,0.1,0,0.1c0,0,0,0,0,0l0,0.1
	c0,0,0,0,0,0.1l0,0.1c0,0,0,0,0,0.1s0,0.1,0,0.1v0.1c0,0.1,0,0.1,0,0.2c0,1.9,0.1,2.2,0.1,2.2c0.1,0.4,0.5,0.6,0.9,0.7
	c0.1,0,0.2,0,0.3,0c0.9-0.1,2.9-0.5,3.6-0.4c0.4,0.1,1.2,0,1.8-0.1l0.1,0l0.1,0.3l0.3-0.1l0.3,0.2c0.1,0,0.1,0.1,0.2,0.1
	c0.3,1.1,1.7,0.7,1.7,0.7l0.3,0.2l3.2,0.1c0.4,0.2,0.7,0.4,1.1,0.5c0.1,0,0.1,0,0.2,0c0.3,0,0.6,0,0.9,0c0.2,0,0.4,0,0.4,0
	s0-0.9-0.1-1.8c1,0,2-0.1,3-0.2c1.7-0.3,2.4-1.9,2.7-2.7c0.1,0.3,0.1,0.7,0.2,1c0.1,0.3,0.2,0.6,0.3,0.9c0.1,0.2,0.2,0.5,0.4,0.7
	c1.3-0.4,0.5-1.1,0.2-1.4s0.2-0.5,0.2-0.5s0.3-0.2,0.3-0.4s-0.1-0.4,1.1-0.4C160.8,129.6,160.7,128.6,160.7,128.6z M143.2,118.1
	c0,0.1,0.2,1.1,0.3,1.4c0,0.2,0.1,0.4,0,0.5c-0.7-0.1-1.4-0.1-1.4-0.1c0,0,0,0.1,0,0.1l-0.1,0l-0.2,0L143.2,118.1L143.2,118.1z
	 M140.8,121.9l1.2,0.2l0.1,0c0,0.2-0.1,0.4-0.1,0.5c0,0,0,0,0.1,0.1c0,0.1,0,0.2,0,0.3c0,0.1,0.6,0.3,1.2,0.5c0,0,0,0.1,0,0.1l0,0
	c-0.5-0.3-1.4-0.4-1.5-0.6s-3-1.2-3-1.2s-0.1-0.1-0.3-0.1l0.8,0.1l0.2,0C139.8,121.8,140.3,121.9,140.8,121.9L140.8,121.9z"/>
<path class="st13" d="M157,129.3c0,0-0.5,2.8-2.8,3.2c-2.3,0.4-10.1,0.3-10.1,0.3s-4.5-0.7-6.1-4.4c-1.6-3.8-2.6-5.3-1.3-5.3
	s8.8,2.5,9.3,2.5C146.4,125.7,157.4,120,157,129.3z"/>
<path class="st14" d="M157,129.3c0,0-0.5,2.8-2.8,3.2c-2.3,0.4-10.1,0.3-10.1,0.3s-4.5-0.7-6.1-4.4c-1.6-3.8-2.6-5.3-1.3-5.3
	s8.8,2.5,9.3,2.5C146.4,125.7,157.4,120,157,129.3z"/>
<path class="st8" d="M136.1,132.4c0.1,0.4,0.5,0.6,0.9,0.7c0.1,0,0.2,0,0.3,0c0.9-0.1,2.9-0.5,3.6-0.4c0.4,0.1,1.2,0,1.8-0.1
	c0.4-0.1,0.7-0.1,0.7-0.1s-0.7-2.2-0.7-2.3c-0.1-0.1-3-1.8-3-1.8l-2.3-0.2l0,0c-0.3,0-0.6,0.2-0.8,0.5c-0.2,0.3-0.4,0.8-0.5,1.6
	C136,132.2,136.1,132.4,136.1,132.4z"/>
<path class="st15" d="M136.1,132.4c0.1,0.4,0.5,0.6,0.9,0.7c-0.2-0.3-0.4-0.6-0.6-0.9l0-1.6c-0.1-0.9,0.2-1.8,0.9-2.4l0,0
	c0,0-1.2,0.1-1.2,2S136.1,132.4,136.1,132.4z"/>
<path class="st16" d="M146,128.9l2.1-1.7l3.3-3.3c0,0-0.4,0-0.9,0c-0.1,0.1-0.5,0.4-0.5,0.7c0,0.4-0.9,0-1.4,0.3
	c-0.5,0.2-2.7,3.1-3.1,3.1s-0.7-0.2-0.9,0.1l0,0L146,128.9z"/>
<path class="st16" d="M136.5,128.7l0.2,0.1c1.6,0.7,3.6,2.1,3.7,2.4c0.1,0.2,1.2,0.9,2.1,1.4c0.4-0.1,0.7-0.1,0.7-0.1
	s-0.7-2.2-0.7-2.3c-0.1-0.1-3-1.8-3-1.8l-2.3-0.2l0,0C136.9,128.3,136.7,128.4,136.5,128.7z"/>
<path class="st17" d="M132,124c0.2,0.5,2,2.5,2,2.5s1.1,1.5,2.7,2.2c1.6,0.7,3.6,2.1,3.7,2.4c0.1,0.2,1.4,0.9,2.3,1.5l0.2,0.1
	l0.4,0.3l0.2,0.1l1.1-0.9c0.5-0.4,1.1-0.9,1.1-0.9c0,0,0.2-0.6,0.2-0.6c0,0-0.1-0.2-0.3-0.5c-0.2-0.3-0.5-0.5-0.8-0.7
	c-0.5-0.2-0.9-0.6-1.1-1.1c0,0-0.1-0.1-0.2-0.1c-0.2-0.2-0.5-0.3-0.7-0.3c-0.4,0-1-0.8-1-0.8c-0.3-0.2-0.5-0.4-0.6-0.7
	c-0.2-0.4-2.7-2.1-3-2.3l6.2,4l1.5,0.9l2.1-1.7l3.3-3.3c0,0-0.4,0-1.1-0.1c-1.6-0.1-4.5-0.2-4.9-0.1c-0.3,0.1-0.6,0.1-0.9,0.1
	c0,0-0.8,0-1.4-0.3c-0.6-0.3-1.4-0.4-1.5-0.6c-0.1-0.2-3-1.2-3-1.2s-4-2.1-5.4-0.9S131.8,123.4,132,124z"/>
<path class="st18" d="M144.8,111.9l0.5,1.7l0.7,3.8l2.4,0.2l0.7-1.2l0.7-1.2c0,0,0.4-1.5,0.7-3c0.3-1.3,0.5-2.6,0.2-2.7
	c-0.3-0.1-0.4-0.6-0.6-1c0-0.1,0-0.1,0-0.2c-0.1-0.4-0.1-0.8-0.2-1.2c0,0-5.1-0.3-4.4,1.8c0.1,0.4,0.2,0.7,0.2,1.1
	c0,0.1,0,0.2,0,0.3C145.6,110.9,145.3,111.5,144.8,111.9z"/>
<path class="st19" d="M143.7,111.6l0.2,2.9l0.4,2.4l0.5,1.1l0.4,6.2c0,0,4,0.5,4.9,0c0.1,0,0.1-0.1,0.2-0.1c1.2-1.8,0.8-6.8,0.8-6.8
	l0.4-3.3l-0.3-1.7l-0.7-0.1l-0.6-0.1c0,0-0.1,0.2-0.3,0.4c-0.5,0.7-1.4,1.9-1.3,2.4c0.1,0.7-0.1,1.5-0.4,1.6s-0.5,0.3-0.6,0.1
	c-0.1-0.2-0.1-0.3,0-0.5c0-0.3-0.2-1.1-0.2-1.1s-0.4-1-0.4-1.4c0-0.4,0-0.9-0.2-1s-0.3-0.2-0.2-0.8c0.1-0.5-0.7-1.5-0.7-1.5
	L143.7,111.6z"/>
<path class="st16" d="M148.9,118.8l0.2,4.9l0.9,0.5c0.1,0,0.1-0.1,0.2-0.1c1.2-1.8,0.8-6.8,0.8-6.8l0.4-3.3l-0.3-1.7l-0.7-0.1
	c0.3-1.3,0.5-2.6,0.2-2.7c-0.3-0.1-0.4-0.6-0.6-1l0,0l-0.5,3.5c0,0,0,0.3,0.1,0.6c0,0.2,0,0.4,0,0.6c-0.1,0.3,0,0.8,0,0.8
	c-0.3,0.5-0.4,1.5-0.5,2.4C148.9,117.6,148.9,118.8,148.9,118.8z"/>
<path class="st20" d="M150.1,108.3c0,0,0.8,0.1,1.1,0.4c0.3,0.3,1,0.4,1,0.4s0.8,0.3,0.8,0.3c0,0.1,0.2,0.2,0.7,0.3
	c0.5,0.1,1.3,0.6,1.3,0.7c0,0.1,1.3,1.4,1.3,1.5s0.4,0.6,0.3,1.5c-0.1,0.9-0.1,2,0.1,2.2s0,0.9,0,0.9c-0.1,0.2-0.1,0.4,0,0.5
	c0.2,0.3,0,1.5,0,1.5l0,1.3c0,0-0.2,0.8,0,0.8c0.2,0,0,0.4,0,0.4s-0.2,0.7,0,1c0.2,0.3,0.3,1.6,0.3,1.6l3.5,5.1c0,0,0.1,0.9-1.1,0.9
	c-1.1,0-1.1,0.2-1.1,0.4c0,0.2-0.3,0.4-0.3,0.4s-0.4,0.2-0.2,0.5c0.3,0.3,1,0.9-0.2,1.3c-0.1-0.2-0.3-0.4-0.4-0.7
	c-0.1-0.3-0.2-0.6-0.3-0.9c0,0-0.1-1.3-0.3-1.4s-0.2-1-0.2-1s0.3-0.6-0.1-0.9s-7.1-4-7.1-4l-0.2-4.9c0,0-0.1-3.6,0.6-4.8
	c0,0-0.1-0.5,0-0.8c0.1-0.3,0-1.2,0-1.2L150.1,108.3z"/>
<path class="st16" d="M145.8,110.3c0,0-1.7-0.3-2.1-0.1c-0.4,0.2-1.3,0.4-1.4,0.5s-0.5,0-0.8,0.8s-0.3,1.6-0.7,1.9
	c-0.4,0.4-0.6,0.6-0.6,0.9s0,0.3-0.1,0.4c-0.1,0.1-0.4,0.4-0.3,0.6c0.1,0.1,3.4,3,3.4,3s0.2,1.1,0.3,1.4c0.1,0.3-0.2,4.1-0.5,4.4
	c-0.3,0.3,2.2,0.2,2.2,0.2s0.1-2.5,0.2-2.7c0.1-0.1-0.1-2.8-0.1-2.8s0-2.3,0.2-2.9c0.2-0.6,0.2-2.6,0.2-2.6s0.2-1.2,0.4-1.5
	S145.8,110.3,145.8,110.3z"/>
<path class="st20" d="M145.7,110.3c0,0-1.7-0.3-2.1-0.1c-0.4,0.2-1.3,0.4-1.4,0.5s-0.5,0-0.8,0.8s-0.3,1.6-0.7,1.9s-0.6,0.6-0.6,0.9
	c0,0.3,0.1,0.3-0.1,0.4s-0.4,0.4-0.3,0.6c0.1,0.1,3.4,3,3.4,3s0.2,1.1,0.3,1.4s-0.2,4.1-0.5,4.4c-0.3,0.3,2.2,0.2,2.2,0.2
	s0.1-2.5,0.2-2.7s-0.1-2.8-0.1-2.8s0-2.3,0.2-2.9c0.2-0.6,0.2-2.6,0.2-2.6s0.2-1.2,0.4-1.5C146.4,111.5,145.7,110.3,145.7,110.3z"/>
<path class="st16" d="M145.5,108.9c0.1,0.4,0.2,0.7,0.2,1.1c1.7,0.5,3.4-0.2,4.3-1.7c-0.1-0.4-0.1-0.8-0.2-1.2
	C149.9,107,144.8,106.8,145.5,108.9z"/>
<path class="st18" d="M143,106.3c0,2.1,1.7,3.8,3.8,3.8c2.1,0,3.8-1.7,3.8-3.8c0-2.1-1.7-3.8-3.8-3.8c-1.8,0-3.3,1.2-3.7,3
	C143.1,105.7,143,106,143,106.3z"/>
<path class="st20" d="M140.6,115l-0.9,0.3c0,0.2,0,0.4-0.2,0.5c-0.2,0.1-0.2,0.3-0.2,0.5c0,0-0.1,0.4-0.3,0.4s-0.4,0.6-0.4,0.6
	l-0.8,0.9c0,0-0.3,0.2-0.2,0.3c0.1,0.1-0.3,0.1-0.3,0.1l0.2,2.9l1.6,0.3l1-0.1l0.8-0.3l0.7-0.4l0.3-0.8l1.4-2.1L140.6,115z"/>
<path class="st21" d="M137.6,118.9c0,0-2-2.9-3.5-1.3s0.6,4.1,1.1,4c0.5-0.1,2.8-0.2,2.8-0.2L137.6,118.9z"/>
<path class="st8" d="M133.4,113.1l8.9,4.5c0.1,0.1,0.2,0.2,0.1,0.3l-3.5,6.8c-0.1,0.1-0.2,0.2-0.3,0.1l-8.9-4.5
	c-0.1-0.1-0.2-0.2-0.1-0.3l3.5-6.8C133.1,113.1,133.3,113.1,133.4,113.1z"/>
<rect x="132.7" y="114.6" transform="matrix(0.4546 -0.8907 0.8907 0.4546 -31.8357 186.0478)" class="st22" width="6.6" height="8.8"/>
<circle class="st23" cx="131.8" cy="116.9" r="0.1"/>
<circle class="st23" cx="140.3" cy="121.2" r="0.2"/>
<path class="st18" d="M136.3,119.5c0,2.2,4.5,2.6,4.5,2.6l1.1,0.2l0.5,0.1l0.2-2.1c0,0-0.2,0-0.5-0.1c-0.4-0.1-1-0.3-1.1-0.5
	C140.8,119.3,136.3,117.3,136.3,119.5z"/>
<path class="st16" d="M143.1,105.5c0.1,0,0.2,0.1,0.3,0.1c0.1,0.1,0.1,0.4,0.3,0.5c0.1,0,0.1,0,0.2,0c0.4-0.1,0.7-0.6,1.1-0.7
	c0.2-0.1,0.5,0,0.7,0.1c0.1,0,0.2,0.1,0.2,0.2c0.1,0.2,0,0.5,0.1,0.7c0.1,0.3,0.5,0.4,0.8,0.5s0.7,0.1,0.9,0.3
	c0.1,0.2,0.2,0.4,0.2,0.6c0,0.1,0,0.2,0,0.2c0.1,0.2,0.5,0.2,0.6,0c0.1-0.1,0.1-0.3,0.2-0.3c0.1,0,0.3,0,0.4,0.1
	c0.3,0.1,0.7,0.2,1,0.2c0.9-1.9,0.1-4.1-1.8-5c-1.9-0.9-4.1-0.1-5,1.8C143.3,104.9,143.2,105.2,143.1,105.5L143.1,105.5z"/>
<path class="st8" d="M147.9,107.8c0-0.1,0-0.2,0-0.2c0-0.2,0-0.5-0.2-0.6c-0.2-0.2-0.6-0.3-0.9-0.3c-0.3,0-0.7-0.2-0.8-0.5
	c-0.1-0.2,0-0.5-0.1-0.7c-0.1-0.1-0.1-0.1-0.2-0.2c-0.2-0.1-0.5-0.1-0.7-0.1c-0.4,0.1-0.7,0.6-1.1,0.7c-0.1,0-0.1,0-0.2,0
	c-0.2-0.1-0.2-0.3-0.3-0.5c-0.2-0.2-0.6-0.1-0.8-0.2c-0.1-0.1-0.2-0.3-0.3-0.5c-0.1-0.4-0.1-0.7-0.1-1.1c0.1-0.6,0.7-1,1-1.6
	c0.3-0.5,0.5-1.1,1-1.4s1.1-0.2,1.7-0.1c0.3,0.1,0.5,0.2,0.8,0.2c0.4,0.1,0.9-0.1,1.3-0.1c0.6,0,1.3,0.2,1.8,0.5
	c0.1,0.1,0.2,0.2,0.3,0.3c0.1,0.2,0.1,0.3,0.1,0.5c0.1,0.3,0.2,0.7,0.3,1c0.1,0.2,0.3,0.4,0.4,0.7c0.1,0.2,0.2,0.5,0.1,0.8
	c0,0.1-0.1,0.3-0.2,0.4c-0.1,0.3,0.1,0.6,0.3,0.9c0.1,0.3,0.2,0.6,0.2,0.9c0,0.3-0.2,0.6-0.4,0.8c-0.2,0.2-0.5,0.3-0.8,0.3
	c-0.4,0-0.7,0-1.1-0.2c-0.1-0.1-0.3-0.1-0.4-0.1c-0.2,0-0.2,0.2-0.2,0.3C148.4,108,148,108.1,147.9,107.8z"/>
<path class="st16" d="M145.9,129l2.1-1.7l3.3-3.3c0,0-0.4,0-1.1-0.1c-0.1,0.1-0.2,0.3-0.2,0.4c0,0.4-0.9,0-1.4,0.3
	c-0.5,0.2-2.7,3.1-3.1,3.1c-0.4,0-0.7-0.2-0.9,0.1l0,0c-0.1,0.1-0.2,0.1-0.3,0.1L145.9,129z"/>
<path class="st17" d="M141.6,128.9l1.1,3.4l0.2,0.5l0.5-0.1l1.1-0.3l5-1.4c0.6,0,1.2-0.2,1.8-0.5c0.9-0.5,2-0.8,3.1-0.7
	c0.7,0.1,1.4-0.2,2-1.3c0,0,1.4-4.1-2.1-5.2s-3.7,0.6-3.7,0.6l0,0c-0.1,0.1-0.5,0.4-0.5,0.7c0,0.4-0.9,0-1.4,0.3
	c-0.5,0.2-2.7,3.1-3.1,3.1s-0.7-0.2-0.9,0.1l0,0c-0.1,0.2-0.5,0.2-0.7,0.2c-0.1,0-0.2,0-0.2,0l0,0l-0.3,0.1L141.6,128.9z"/>
<path class="st16" d="M141.9,122.3l0.5,0.1l0.2-2.1c0,0-0.2,0-0.5-0.1C142.1,120.5,142,121.6,141.9,122.3z"/>
<path class="st16" d="M155.3,112.4c0,0,1.5-0.4,1.1,3.9s-3.2,7.1-3.2,7.1s-3.3,1.4-4.7,1.2c-1.5-0.2-2.5-0.3-2.5-0.3
	c-0.5-0.2-1-0.4-1.5-0.4c-0.8,0-2.5-0.5-2.6-0.7c0-0.2,0.4-2.6,0.2-2.8c0,0,2.3,0.1,2.5,0.3c0.2,0.2,0.6,0,0.8,0s1-0.7,2.5-0.1
	c0,0,0.5,0,0.7-0.1c0.2-0.1,0.3-0.1,0.5,0c0.1,0,0.2-0.1,0.4-0.2c0-0.1,0.4,0,0.4,0c0.1,0,0.2,0,0.2-0.1c0,0,0,0,0,0
	c0.1-0.1,0.1-0.3,0.2-0.4c0,0,0.4-2.5,1.3-3.4c0.1-0.1,0.2-0.3,0.2-0.5C151.9,115.6,153.3,111.9,155.3,112.4z"/>
<path class="st20" d="M155.3,112.1c0,0,1.5-0.4,1.1,3.9c-0.4,4.3-3.2,7.1-3.2,7.1s-3.3,1.4-4.7,1.2C147,124,146,124,146,124
	c-0.5-0.2-1-0.4-1.5-0.4c-0.8,0-2.5-0.5-2.6-0.7c0-0.2,0.4-2.6,0.2-2.8c0,0,2.3,0.1,2.5,0.3s0.6,0,0.8,0c0.3,0,1-0.7,2.5-0.1
	c0,0,0.5,0,0.7-0.1c0.2-0.1,0.3-0.1,0.5,0c0.1,0,0.2-0.1,0.4-0.2c0-0.1,0.4,0,0.4,0c0.1,0,0.2,0,0.2-0.1c0,0,0,0,0,0
	c0.1-0.1,0.1-0.3,0.2-0.4c0,0,0.4-2.5,1.3-3.4c0.1-0.1,0.2-0.3,0.2-0.5C151.9,115.3,153.3,111.6,155.3,112.1z"/>
<path class="st16" d="M143.4,128.4l2.2,2.6l0,0c0-0.1,0.2-0.6,0.2-0.6c0,0-0.4-0.9-1.2-1.2c-0.4-0.2-0.7-0.5-0.9-0.8L143.4,128.4z"
	/>
<path class="st16" d="M143.4,132.9l0.2,0.1l1.1-0.9c0.5-0.4,1.1-0.9,1.1-0.9c0,0,0.2-0.6,0.2-0.6c0,0-0.1-0.2-0.3-0.5
	c-1.5-0.4-0.5,0.6-0.4,0.7c0,0-1.8-0.4-1.9,1.5C143.4,132.5,143.4,132.7,143.4,132.9z"/>
<path class="st8" d="M145.2,133.8l0.3,0.2l3.2,0.1c0.4,0.2,0.7,0.4,1.1,0.5c0.1,0,0.1,0,0.2,0c0.3,0,0.6,0,0.9,0c0.2,0,0.4,0,0.4,0
	s-0.2-4-0.3-4.4c-0.1-0.2-0.3-0.2-0.6-0.1c-0.2,0.1-0.4,0.2-0.6,0.3c0,0-1.3,0.1-1.6,0.2c-0.2,0.1-0.8-0.1-1.2,0
	c-0.4,0.1-1.1-0.4-1.1-0.4c-1.8-0.6-0.8,0.5-0.7,0.6c0,0-1.8-0.4-1.9,1.5S145.2,133.8,145.2,133.8z"/>
<path class="st24" d="M149.8,132.2c0,0.8,0.7,1.9,1.1,2.4c0.2,0,0.4,0,0.4,0s-0.2-4-0.3-4.4c-0.1-0.2-0.3-0.2-0.6-0.1
	C150.2,130.7,149.8,131.6,149.8,132.2z"/>
<path class="st16" d="M149.8,132.2c0,0.8,0.7,1.9,1.1,2.4c0.2,0,0.4,0,0.4,0s-0.2-4-0.3-4.4c-0.1-0.2-0.3-0.2-0.6-0.1
	C150.2,130.7,149.8,131.6,149.8,132.2z"/>
<path class="st25" d="M149.3,132.3c0.2,0.8,0.2,1.7,0.6,2.2c0.1,0,0.1,0,0.2,0c0.3,0,0.6,0,0.9,0c0.2,0,0.4,0,0.4,0s-0.2-4-0.3-4.4
	c-0.1-0.2-0.3-0.2-0.6-0.1c-0.2,0.1-0.4,0.2-0.6,0.3C149.9,130.4,149,131.3,149.3,132.3z"/>
<path class="st16" d="M138.3,124.2c0,0,1.6,0.5,2.9,2.3L138.3,124.2z"/>
<g class="st26">
	<path d="M151.1,104.5L151.1,104.5c0,0.1,0,0.1-0.1,0.2C151.1,104.6,151.1,104.6,151.1,104.5z"/>
	<path d="M142.2,103.7c0-0.1,0.1-0.2,0.1-0.3c0,0,0,0.1,0,0.1c-0.1,0.4,0,0.7,0.1,1.1c0,0.2,0.1,0.4,0.3,0.5c0.2,0.2,0.6,0,0.8,0.2
		c0.1,0.1,0.1,0.4,0.3,0.5c0.1,0,0.1,0,0.2,0c0.4-0.1,0.7-0.6,1.1-0.7c0.2-0.1,0.5,0,0.7,0.1c0.1,0,0.2,0.1,0.2,0.2
		c0.1,0.2,0,0.4,0.1,0.7c0.1,0.3,0.5,0.4,0.8,0.5c0.3,0,0.7,0.1,0.9,0.3c0.1,0.2,0.2,0.4,0.2,0.6c0,0.1,0,0.2,0,0.2
		c0.1,0.2,0.5,0.2,0.6,0c0.1-0.1,0.1-0.3,0.2-0.3c0.1,0,0.3,0,0.4,0.1c0.3,0.1,0.7,0.2,1.1,0.2c0.3,0,0.6-0.1,0.8-0.3
		c0.1-0.1,0.2-0.2,0.3-0.3c-0.1,0.2-0.2,0.4-0.4,0.6c-0.2,0.2-0.5,0.3-0.8,0.3c-0.4,0-0.7,0-1.1-0.2c-0.1-0.1-0.3-0.1-0.4-0.1
		c-0.2,0-0.2,0.2-0.2,0.3c-0.1,0.2-0.5,0.2-0.6,0c0-0.1,0-0.2,0-0.2c0-0.2,0-0.5-0.2-0.6c-0.2-0.2-0.6-0.3-0.9-0.3
		c-0.3,0-0.7-0.2-0.8-0.5c-0.1-0.2,0-0.5-0.1-0.7c-0.1-0.1-0.1-0.1-0.2-0.2c-0.2-0.1-0.5-0.1-0.7-0.1c-0.4,0.1-0.7,0.6-1.1,0.7
		c-0.1,0-0.1,0-0.2,0c-0.2-0.1-0.2-0.3-0.3-0.5c-0.2-0.2-0.6-0.1-0.8-0.2c-0.1-0.1-0.2-0.3-0.3-0.5
		C142.2,104.4,142.2,104.1,142.2,103.7z"/>
</g>
<path class="st16" d="M151.4,116.9c-0.3,0.4-0.7,0.8-0.9,1.2c-0.3,0.4-0.4,0.9-0.4,1.4c0.3-0.3,0.4-0.7,0.6-1
	c0.3-0.6,0.7-1.1,1.1-1.7c0.1-0.1,0.5-0.7,0.3-0.7C151.9,116,151.5,116.7,151.4,116.9z"/>
<path class="st27" d="M47.9,63.9H34.5c-0.2,0-0.5,0.2-0.5,0.4c0,0.2,0.2,0.5,0.4,0.5c0,0,0,0,0.1,0h13.4c0.2,0,0.5-0.2,0.5-0.4
	C48.4,64.2,48.2,64,47.9,63.9C48,63.9,47.9,63.9,47.9,63.9L47.9,63.9z M47.9,65.5H34.5c-0.2,0-0.4,0.2-0.4,0.4
	c0,0.2,0.2,0.4,0.4,0.4h13.4c0.2,0,0.4-0.2,0.4-0.4C48.4,65.7,48.2,65.5,47.9,65.5L47.9,65.5z M47.3,55.1H35.2
	c-0.6,0-1.1,0.5-1.1,1.1v5.7c0,0.6,0.5,1.1,1.1,1.1h12.1c0.6,0,1.1-0.5,1.1-1.1v-5.7C48.4,55.6,47.9,55.1,47.3,55.1z M36.7,62h-1.2
	c-0.2,0-0.4-0.2-0.4-0.4c0-0.2,0.2-0.4,0.4-0.4h1.2c0.2,0,0.4,0.2,0.4,0.4C37.1,61.8,36.9,62,36.7,62z M36.7,57h-1.2
	c-0.2,0-0.4-0.2-0.4-0.4c0-0.2,0.2-0.4,0.4-0.4h1.2c0.2,0,0.4,0.2,0.4,0.4C37.1,56.8,36.9,57,36.7,57z M41.2,61.6
	c-1.4,0-2.6-1.1-2.6-2.6c0-1.4,1.1-2.6,2.6-2.6c1.4,0,2.6,1.1,2.6,2.6C43.8,60.5,42.6,61.6,41.2,61.6L41.2,61.6z M46.9,62h-1.2
	c-0.2,0-0.4-0.2-0.4-0.4c0-0.2,0.2-0.4,0.4-0.4h1.2c0.2,0,0.4,0.2,0.4,0.4C47.4,61.8,47.2,62,46.9,62z M46.9,57h-1.2
	c-0.2,0-0.4-0.2-0.4-0.4c0-0.2,0.2-0.4,0.4-0.4h1.2c0.2,0,0.4,0.2,0.4,0.4C47.4,56.8,47.2,57,46.9,57z"/>
<circle class="st27" cx="41.2" cy="59.1" r="1.7"/>
<rect x="66.9" y="43.8" class="st28" width="61.1" height="33.9"/>
<rect x="66.9" y="85.3" class="st28" width="61.1" height="33.9"/>
<rect x="78.9" y="67.4" class="st27" width="1.8" height="6.2"/>
<rect x="82.4" y="59.7" class="st27" width="1.8" height="13.9"/>
<rect x="86" y="52.8" class="st29" width="1.8" height="20.8"/>
<rect x="89.5" y="47.9" class="st27" width="1.8" height="25.7"/>
<rect x="86" y="47.9" class="st30" width="1.8" height="25.7"/>
<rect x="93" y="59.5" class="st31" width="1.8" height="14.1"/>
<rect x="96.5" y="55.8" class="st28" width="1.8" height="17.8"/>
<rect x="100" y="50.3" class="st30" width="1.8" height="23.3"/>
<rect x="103.6" y="63.2" class="st28" width="1.8" height="10.4"/>
<rect x="107.1" y="58.4" class="st31" width="1.8" height="15.2"/>
<rect x="110.6" y="52.8" class="st28" width="1.8" height="20.8"/>
<rect x="114.1" y="52.8" class="st30" width="1.8" height="20.8"/>
<path class="st27" d="M48.4,98.1c0-0.6-0.5-1-1-1H35.1c-0.6,0-1,0.5-1,1v1.5h14.3V98.1z M34,106.3c0,0.6,0.5,1,1,1h12.3
	c0.6,0,1-0.5,1-1v-5.1H34L34,106.3z M38.6,104.8h5.3c0.2,0,0.5,0.2,0.5,0.4c0,0.2-0.2,0.5-0.4,0.5c0,0,0,0-0.1,0h-5.3
	c-0.2,0-0.4-0.2-0.4-0.5C38.2,105,38.4,104.8,38.6,104.8z M36.3,104.8h0.4c0.2,0,0.5,0.2,0.5,0.4c0,0.2-0.2,0.5-0.4,0.5
	c0,0,0,0-0.1,0h-0.4c-0.2,0-0.5-0.2-0.5-0.4C35.8,105,36,104.8,36.3,104.8C36.2,104.8,36.3,104.8,36.3,104.8z"/>
<rect x="78.9" y="108.9" class="st27" width="1.8" height="6.2"/>
<rect x="82.4" y="101.2" class="st27" width="1.8" height="13.9"/>
<rect x="86" y="94.3" class="st29" width="1.8" height="20.8"/>
<rect x="89.5" y="89.4" class="st27" width="1.8" height="25.7"/>
<rect x="86" y="89.4" class="st32" width="1.8" height="25.7"/>
<rect x="93" y="101" class="st32" width="1.8" height="14.1"/>
<rect x="96.5" y="97.3" class="st27" width="1.8" height="17.8"/>
<rect x="100" y="91.8" class="st27" width="1.8" height="23.3"/>
<rect x="103.6" y="104.7" class="st28" width="1.8" height="10.4"/>
<rect x="107.1" y="99.9" class="st28" width="1.8" height="15.2"/>
<rect x="110.6" y="94.3" class="st28" width="1.8" height="20.8"/>
<rect x="114.1" y="94.3" class="st28" width="1.8" height="20.8"/>
</svg>
