<?xml version="1.0" encoding="utf-8"?>
<!-- Generator: Adobe Illustrator 23.0.0, SVG Export Plug-In . SVG Version: 6.00 Build 0)  -->
<svg version="1.1" id="b5c524f0-66c4-4225-a3aa-c25cef687e0c"
	 xmlns="http://www.w3.org/2000/svg" xmlns:xlink="http://www.w3.org/1999/xlink" x="0px" y="0px" viewBox="0 0 180 140"
	 style="enable-background:new 0 0 180 140;" xml:space="preserve">
<style type="text/css">
	.st0{fill:#E6E6E6;}
	.st1{fill:#7B35FC;}
	.st2{fill:#F58EAB;}
	.st3{fill:#31008B;}
	.st4{fill:#FFBF00;}
	.st5{fill:#1EFFBC;}
	.st6{fill:#1C50FC;}
	.st7{fill:#0C0710;}
	.st8{fill:#CCCCCC;}
</style>
<path class="st0" d="M101.6,121.5c-1.1-1.6-2.7-2.8-4.7-3.2c-1.7-0.4-3.5-0.3-5.2-0.3l-21.9,0.2c-1.9,0-3.7,1.6-3.6,3.6
	c0.1,1.9,1.6,3.6,3.6,3.6c6.4,0,12.8-0.1,19.3-0.1c1.5,0,3,0,4.5,0c0.3,0,0.7,0,1,0c0.1,0,0.1,0,0.2,0c0,0,0,0,0,0
	c0.2,0,0.4,0.1,0.5,0.1c-0.1,0,0.1,0.1,0.2,0.2c0,0,0,0.1,0.1,0.1c0.1,0.1,0.2,0.5,0.2,0.5c0.3,0.7,0.5,1.4,0.7,2.1
	c0.4,1.6,0.5,1.9,0.6,3.4c0.1,1.9,1.6,3.7,3.6,3.6c1.9-0.1,3.7-1.6,3.6-3.6C104.2,128.2,103.6,124.4,101.6,121.5z"/>
<path class="st0" d="M71.1,129.6c-0.4-2.5-0.8-5-1.2-7.5c-0.4-2.5-1.3-4.8-3.3-6.5c-0.5-0.4-1.1-0.9-1.6-1.3
	c-0.2-0.1-0.4-0.3-0.6-0.4c0,0,0,0,0,0c0,0,0,0-0.1-0.1c-0.8-0.7-1.6-1.4-2.4-2.2c-0.7-0.7-1.3-1.4-1.9-2.1
	c-0.2-0.2-0.3-0.4-0.5-0.6c0,0-0.2-0.2-0.3-0.3c-0.1-0.1-0.2-0.3-0.3-0.4c-0.2-0.2-0.3-0.5-0.5-0.7c-1.1-1.7-2.1-3.5-3-5.4
	c-0.1-0.2-0.2-0.4-0.2-0.6c0-0.1,0-0.1-0.1-0.2c-0.2-0.5-0.3-0.9-0.5-1.4c-0.3-1-0.6-2-0.8-3c-0.1-0.5-0.2-1-0.3-1.5
	c0-0.3-0.1-0.5-0.1-0.8c0,0,0-0.3-0.1-0.5c0-0.2-0.1-0.4-0.1-0.5c0-0.3,0-0.5-0.1-0.8c0-0.6-0.1-1.2-0.1-1.8c0-1.1,0-2.1,0.1-3.2
	c0-0.6,0.1-1.2,0.2-1.8c0,0,0-0.1,0-0.1c0,0,0-0.1,0-0.1c0-0.3,0.1-0.7,0.2-1c0.2-1.2,0.5-2.5,0.8-3.7c0.2-0.6,0.3-1.1,0.5-1.7
	c0.1-0.2,0.2-0.5,0.3-0.7c0,0,0.3-0.7,0.3-0.7c1.1-2.5,2.8-4.9,2.8-7.7c0-2-1.7-3.8-3.6-3.7c-2,0.1-3.6,1.7-3.6,3.7c0,0,0,0.1,0,0.1
	c0,0.1,0,0.1,0,0.2c-0.2,0.5-0.5,0.9-0.7,1.3c-0.6,1.2-1.2,2.5-1.7,3.7c-0.8,2.1-1.5,4.2-1.9,6.4c-0.9,4.8-1,9.7-0.2,14.6
	c1.4,8.5,6,16.6,12.4,22.1c0.6,0.5,1.1,0.9,1.7,1.4c0.2,0.2,0.5,0.4,0.7,0.5c0.1,0.1,0.6,0.5,0.4,0.3c0.4,0.4,0.6,0.6,0.7,0.8
	c0,0.1,0,0.2,0.1,0.3c0.1,0.3,0.2,0.6,0.2,0.9c0.6,2.8,0.9,5.6,1.4,8.4c0.3,1.9,2.7,3.2,4.4,2.6C70.6,133.5,71.4,131.7,71.1,129.6z"
	/>
<path class="st1" d="M101.9,136.9c-3.1,0-5.7-2.5-5.7-5.7v-4.1c-4.3,0.5-19,0.4-23.2-0.3v4.2c0,3.2-2.6,5.7-5.7,5.7
	c-3.1,0-5.6-2.5-5.7-5.7v-8.3c-11.6-6.4-18.8-18.7-18.8-31.9c0-11.2,5.1-21.6,13.9-28.6c5.7-4.6,12.7-7.3,20-7.9c1-0.1,2-0.1,3-0.1
	c3.4,0,19,0.5,22.9,1.7l8.9-8.8c0.3-0.3,0.7-0.3,1-0.2c0.4,0.1,0.6,0.5,0.6,0.9v1.4l1.7-1.7c0.3-0.3,0.7-0.3,1-0.2
	c0.4,0.1,0.6,0.5,0.6,0.9v15.7c15,13.5,16.2,36.6,2.7,51.5c-3.2,3.6-7.1,6.5-11.4,8.5v7.4C107.6,134.3,105.1,136.9,101.9,136.9z
	 M96.7,126.6v4.6c0,2.9,2.4,5.2,5.3,5.2c2.9,0,5.2-2.3,5.2-5.2v-7.7l0.1-0.1c6.1-2.9,11.2-7.4,14.9-13c9.7-14.9,7-34.6-6.2-46.4
	l-0.1-0.1V48c0-0.2-0.1-0.4-0.3-0.4c-0.2-0.1-0.4,0-0.5,0.1l-2.5,2.5v-2.5c0-0.2-0.1-0.4-0.3-0.4c-0.2-0.1-0.4,0-0.5,0.1l-9.1,9
	l-0.1,0c-3.6-1.1-19.4-1.7-22.9-1.7c-1,0-2,0-2.9,0.1C69.6,55.3,62.7,58,57,62.5c-8.7,6.9-13.7,17.2-13.7,28.2
	c0,13.2,7.2,25.3,18.7,31.6l0.1,0.1v8.6c0,2.9,2.4,5.2,5.3,5.2c2.9,0,5.2-2.3,5.2-5.2v-4.8l0.3,0c3.8,0.7,19.7,0.8,23.5,0.3
	L96.7,126.6z"/>
<path class="st2" d="M71.5,29.8l-24.8,7.5c-1.6,0.5-2.6,2.2-2.1,3.9c0.5,1.6,2.2,2.6,3.9,2.1l21.7-6.5l0.5-0.1
	c0.1-2.3,0.7-4.6,1.9-6.7c-0.1-0.1-0.3-0.1-0.4-0.1C71.9,29.7,71.7,29.7,71.5,29.8z"/>
<path class="st3" d="M48.1,44.8c-0.7,0-1.3-0.4-1.5-1.1L45,39c-0.3-0.8,0.2-1.7,1-2c0,0,0,0,0,0l20.2-6.7c0.8-0.3,1.7,0.2,2,1
	c0,0,0,0,0,0l1.6,4.7c0.3,0.8-0.1,1.7-0.9,2c0,0,0,0-0.1,0l-20.2,6.7C48.4,44.7,48.2,44.8,48.1,44.8z"/>
<path class="st4" d="M85.9,21.4c-8.5,0-15.4,6.7-15.7,15.2c0,0.2,0,0.3,0,0.5c0,8.7,7,15.7,15.7,15.7s15.7-7,15.7-15.7
	S94.6,21.4,85.9,21.4L85.9,21.4L85.9,21.4z M85.9,52.4c-8.4,0-15.2-6.8-15.2-15.2c0-0.2,0-0.4,0-0.6c0.3-8.4,7.4-15,15.9-14.6
	s15,7.4,14.6,15.9C100.8,45.9,94.1,52.4,85.9,52.4L85.9,52.4z"/>
<path class="st0" d="M99.1,37.1c0,7.3-5.9,13.2-13.2,13.2s-13.2-5.9-13.2-13.2c0-0.4,0-0.8,0.1-1.2c0.7-7.3,7.1-12.6,14.4-11.9
	C94,24.6,99.1,30.3,99.1,37.1z"/>
<path class="st5" d="M89.9,38c-0.3-0.4-0.7-0.8-1.2-1c-0.6-0.3-1.2-0.5-1.8-0.6v-3.6c1,0.1,1.9,0.6,2.6,1.2l0.7-1.6
	c-0.4-0.4-0.9-0.7-1.4-0.9c-0.6-0.2-1.2-0.4-1.8-0.5v-1.8h-1.7v1.8c-0.7,0.1-1.3,0.3-1.8,0.6c-0.5,0.3-0.9,0.7-1.3,1.2
	c-0.3,0.5-0.5,1.1-0.4,1.6c0,0.6,0.2,1.2,0.5,1.7c0.3,0.4,0.8,0.8,1.3,1c0.6,0.3,1.2,0.5,1.9,0.6v3.5c-1.1-0.1-2.2-0.5-3.1-1.2
	l-0.7,1.6c0.5,0.4,1.1,0.7,1.7,0.9c0.7,0.2,1.4,0.4,2.1,0.4V45h1.7v-1.8c0.9-0.1,1.8-0.5,2.5-1.2c0.6-0.6,1-1.4,0.9-2.3
	C90.4,39.1,90.2,38.5,89.9,38z M85.3,36.1c-0.4-0.1-0.8-0.3-1.1-0.6c-0.3-0.2-0.4-0.6-0.4-0.9c0-0.4,0.1-0.8,0.4-1.1
	c0.3-0.3,0.7-0.5,1.1-0.6V36.1z M87.9,40.8c-0.3,0.3-0.7,0.5-1.1,0.6v-3c0.4,0.1,0.7,0.3,1.1,0.5c0.2,0.2,0.4,0.5,0.4,0.8
	C88.2,40.2,88.1,40.5,87.9,40.8L87.9,40.8z"/>
<path class="st6" d="M48.8,63.8c-0.7,0-1.3-0.5-1.5-1.2l-0.8-3.2c-0.2-0.8,0.3-1.7,1.1-1.9l26.7-7c0.8-0.2,1.7,0.3,1.9,1.1l0.7,2.7
	l-0.1,0c-6.8,0.5-13.4,3-18.9,7.1l0,0l-8.6,2.3C49.1,63.7,48.9,63.8,48.8,63.8z"/>
<path class="st7" d="M44.4,79.6c-3.1-0.5-6.1-1.6-8.8-3.3c-1.3-0.9-2.5-1.8-3.6-3c-1.1-1.1-2.1-2.4-2.7-3.8
	c-0.5-1.4-0.5-2.9,0.1-4.2c0.6-1.3,1.6-2.4,3-2.9c1.3-0.5,3-0.6,4.3,0c0.6,0.3,1.2,0.7,1.6,1.3c0.2,0.3,0.3,0.5,0.4,0.8
	c0.1,0.3,0.1,0.6,0,0.8c-0.2,0.6-0.5,1-1.1,1.3c-0.6,0.3-1.2,0.5-1.8,0.6c-0.6,0.1-1.6,0.2-2.1-0.3c-0.1-0.1-0.2-0.2-0.2-0.4
	c0-0.1-0.1-0.2,0-0.3c0,0,0-0.1,0-0.1c0,0,0,0.1,0,0c0,0,0-0.1,0.1-0.1c0,0-0.1,0.1,0,0c0.1-0.1,0.1-0.1,0.2-0.1c0,0,0.1,0,0.1,0
	c0.1,0-0.1,0,0,0c0,0,0.1,0,0.1,0c0.1,0-0.1,0,0,0c0,0,0.1,0,0.1,0c0.1,0,0,0,0,0c0.1,0.1-0.1-0.1,0,0c0,0,0.1,0.1,0.1,0.1
	c0.2,0.2,0.5,0.2,0.7,0c0.2-0.2,0.2-0.5,0-0.7c-0.5-0.6-1.5-0.5-2.1,0.1c-0.7,0.7-0.4,1.8,0.2,2.4c0.7,0.7,1.8,0.7,2.7,0.6
	c0.8-0.1,1.6-0.3,2.3-0.7c0.7-0.4,1.3-1,1.6-1.7c0.3-0.8,0.2-1.7-0.2-2.4c-0.8-1.6-2.6-2.4-4.3-2.5c-1.8-0.1-3.5,0.4-4.9,1.6
	c-1.3,1.2-2.1,2.8-2.2,4.5c-0.1,1.8,0.5,3.5,1.6,5c1.1,1.5,2.3,2.8,3.8,3.9c2.8,2.2,6.1,3.8,9.6,4.5c0.4,0.1,0.8,0.2,1.3,0.2
	c0.3,0.1,0.6-0.1,0.6-0.4C44.8,79.9,44.6,79.6,44.4,79.6L44.4,79.6z"/>
<path class="st8" d="M94.5,56.7c-4.6-0.1-9.2,0.1-13.7,0.3c-1.6,0.1-2.9,0.7-2.9,1.6c0,0.8,1.3,1.7,2.9,1.6
	c4.6-0.3,9.1-0.4,13.7-0.3C98.2,59.9,98.2,56.8,94.5,56.7z"/>
<path class="st7" d="M87.7,59.7c-0.5,0-12.1,0-12.1-1.6c0-1.6,11.6-1.6,12.1-1.6c0.5,0,12.1,0,12.1,1.6
	C99.8,59.7,88.2,59.7,87.7,59.7z M76,58.1c0.3,0.5,4.6,1.2,11.7,1.2c7.1,0,11.4-0.7,11.7-1.2c-0.3-0.5-4.6-1.2-11.7-1.2
	C80.6,56.9,76.3,57.6,76,58.1L76,58.1z"/>
<path class="st7" d="M124.6,102c2.6-0.1,5.8-0.2,8.3-2c1.5-1.1,2.4-2.9,2.5-4.7c0.1-1.4-0.5-2.7-1.4-3.5c-1.3-1.1-3.2-1.3-5.2-0.7
	l2.1-15.4l-1.5-0.2l-2.5,18.1l1.3-0.6c1.5-0.7,3.5-1,4.8,0c0.6,0.6,1,1.4,0.9,2.3c-0.1,1.4-0.8,2.7-1.9,3.5
	c-1.9,1.4-4.5,1.6-7.4,1.7L124.6,102z"/>
<rect x="111.9" y="77" class="st7" width="8.4" height="1.6"/>
<path class="st6" d="M52.6,70.9c-0.8,0-1.4-0.6-1.5-1.3l-0.5-3.3c-0.1-0.9,0.5-1.7,1.3-1.8l27.3-4.3c0.9-0.1,1.7,0.5,1.8,1.3
	l0.5,3.3c0.1,0.9-0.5,1.7-1.3,1.8l-27.3,4.3C52.7,70.9,52.7,70.9,52.6,70.9z"/>
<circle class="st2" cx="41.3" cy="21.2" r="11.4"/>
<path class="st7" d="M47.8,24.1c0.4-0.1,0.7-0.3,1-0.6c0.4-0.4,0.6-0.9,0.5-1.5c0-0.4-0.2-0.7-0.6-0.9c-0.4-0.3-1-0.2-1.5,0
	l-0.1-4.5l-0.4,0l0.1,5.2l0.3-0.2c0.4-0.3,1-0.4,1.4-0.2c0.2,0.1,0.3,0.4,0.4,0.6c0,0.4-0.1,0.8-0.4,1.1c-0.5,0.5-1.2,0.6-2,0.8
	l0.1,0.4C46.9,24.4,47.4,24.3,47.8,24.1z"/>
<rect x="49.4" y="16.6" transform="matrix(0.9887 -0.1497 0.1497 0.9887 -1.9427 7.7635)" class="st7" width="2.4" height="0.4"/>
<rect x="41.8" y="17.7" transform="matrix(0.9887 -0.1497 0.1497 0.9887 -2.1986 6.6476)" class="st7" width="2.4" height="0.4"/>
<path class="st3" d="M48.9,70.7c-0.8,0-1.6-0.5-1.9-1.3l-7.9-21.1c-2-5.4,0.7-11.4,6.1-13.4l6.4-2.4c0.5-0.2,1.1-0.2,1.5,0.1
	c0.5,0.2,0.9,0.6,1,1.1l14.6,27.6c0.4,1-0.1,2.2-1.2,2.6c0,0,0,0,0,0l-18.1,6.7C49.3,70.7,49.1,70.7,48.9,70.7z"/>
<path class="st0" d="M49.7,33.2l14.5,19.4l-9.8-19.2C54,32.5,53,32,52,32.3c0,0,0,0,0,0L49.7,33.2z"/>
<path class="st2" d="M72.6,47.9l-25.9-1.7c-1.7-0.1-3-1.6-2.9-3.3c0.1-1.7,1.6-3,3.3-2.9c0,0,0,0,0,0L73,41.7
	c0.8,0.1,1.4,0.7,1.4,1.5c0,0,0,0,0,0l-0.2,3.3C74.1,47.4,73.4,48,72.6,47.9L72.6,47.9z"/>
<path class="st3" d="M65.7,49c0,0-0.1,0-0.1,0h0l-21.2-1.4c-0.9-0.1-1.5-0.8-1.5-1.7c0,0,0,0,0,0l0.4-5.6c0.1-0.9,0.8-1.5,1.7-1.5
	c0,0,0,0,0,0l21.2,1.4c0.9,0.1,1.5,0.8,1.5,1.7l-0.4,5.6c0,0.6-0.4,1.2-1,1.4C66.1,49,65.9,49,65.7,49z"/>
<path class="st7" d="M41.2,13.6c1.5-1.3,3.6-0.1,5.3-0.3c1.7-0.2,3-1.7,3.3-3.2c0.4-1.8-0.6-3.7-2-4.8c-1.5-1.3-3.6-1.6-5.5-1.4
	c-2.2,0.3-4.2,1.3-6.1,2.5c-1.8,1.2-3.4,2.5-4.8,4.1c-1.3,1.4-2.4,3.1-2.7,5c-0.3,1.7-0.1,3.7,1,5.1c0.5,0.8,1.3,1.4,2.1,1.8
	c0.9,0.4,1.8,0.7,2.7,1.2c1.3,0.7,2.6,2.3,2.1,3.9c-0.1,0.3-0.3,0.7-0.5,0.9c-0.3,0.3-0.8-0.1-0.5-0.4c0.5-0.6,0.5-1.3,0.2-2
	c-0.3-0.8-0.9-1.4-1.6-1.8c-0.9-0.5-1.9-0.8-2.8-1.3c-0.9-0.4-1.6-1.1-2.2-1.8c-1.1-1.5-1.4-3.5-1.2-5.4c0.3-2,1.3-3.8,2.6-5.3
	c1.4-1.6,3.1-3,4.9-4.3c1.9-1.3,4-2.5,6.2-2.9c2-0.4,4.1-0.1,5.9,0.9c1.6,1,2.9,2.8,3,4.7c0.1,1.8-0.8,3.5-2.3,4.5
	c-0.8,0.5-1.7,0.7-2.6,0.6c-1-0.1-1.9-0.4-2.9-0.3c-0.4,0-0.8,0.2-1.2,0.5C41.2,14.4,40.9,13.9,41.2,13.6L41.2,13.6z"/>
<path class="st7" d="M172.8,137H7.2c-0.1,0-0.3-0.1-0.3-0.3c0-0.1,0.1-0.3,0.3-0.3h165.6c0.1,0,0.3,0.1,0.3,0.3
	C173,136.8,172.9,137,172.8,137z"/>
</svg>
