<svg xmlns="http://www.w3.org/2000/svg" width="557.684" height="355.147" viewBox="0 0 557.684 355.147"><g transform="translate(12742.494 -4962.17)"><path d="M-12471.833,5300.468c39.795,3.844,79.8,4.106,119.686,6.45,15.662.92,28.684-.347,44.715-3.134,13.1-2.277,25.905-8.269,37.686-13.885,12.321-5.875,23.519-15,33.533-23.98a78.749,78.749,0,0,0,8.463-8.88c6.459-7.925,13.184-15.988,18.49-24.8a164.486,164.486,0,0,0,17.941-42.993c2.945-11.341,4.113-23.278,5.491-34.828a143.514,143.514,0,0,0,1.018-17.085,175.72,175.72,0,0,0-1.435-21.62c-1.813-14.554-3.6-29.107-7.014-43.383-6.025-25.206-16.136-49.069-26.479-72.755a56.971,56.971,0,0,0-19.421-21.157,56.794,56.794,0,0,0-25.644-13.5,57.131,57.131,0,0,0-30.069-1.347,56.127,56.127,0,0,0-28.036,8.949c-16.1,10.38-30.273,25.838-34.653,45.065l-2.693,20.046a75.053,75.053,0,0,0,10.295,38.059q1.157,2.652,2.291,5.314l-7.6-18.013c9.621,22.914,17.323,46.737,20.73,71.417l-2.694-20.046a159.6,159.6,0,0,1,.457,41.127l2.693-20.046a109.8,109.8,0,0,1-7.386,27.672l7.6-18.013a89.4,89.4,0,0,1-10.795,18.634l11.791-15.261a81.506,81.506,0,0,1-14.4,14.478l15.262-11.79a79.613,79.613,0,0,1-17.138,9.983l18.014-7.6a78,78,0,0,1-19.407,5.273l20.046-2.693a78.446,78.446,0,0,1-14.784.4c-14.06-.87-28.127-1.529-42.2-2.089-28.143-1.121-56.3-2.077-84.35-4.786a56.8,56.8,0,0,0-29.053,6.494,56.521,56.521,0,0,0-24.268,15.591,56.527,56.527,0,0,0-15.592,24.268,56.8,56.8,0,0,0-6.494,29.053c.873,19.5,7.279,39.728,22.086,53.32l15.262,11.791a75.048,75.048,0,0,0,38.059,10.295Z" fill="#ffdc4d"/><path d="M-12666.5,5299.264a77.794,77.794,0,0,0,53.32-22.086,56.531,56.531,0,0,0,15.592-24.267,56.8,56.8,0,0,0,6.494-29.053c-.873-19.5-7.279-39.728-22.086-53.32-14.753-13.543-32.89-22.086-53.32-22.086a77.79,77.79,0,0,0-53.32,22.086,56.517,56.517,0,0,0-15.592,24.268,56.791,56.791,0,0,0-6.494,29.052c.873,19.5,7.279,39.728,22.086,53.32,14.753,13.544,32.889,22.086,53.32,22.086Z" fill="#ffdc4d"/><path d="M-12742.494,5298.467h307.119" fill="none" stroke="#030404" stroke-miterlimit="10" stroke-width="2"/><path d="M-12314.186,5298.467h99.632" fill="none" stroke="#030404" stroke-miterlimit="10" stroke-width="2"/><path d="M-12567.934,5286.915s-4.661,3.68-7.238,4.048-3.557-1.84-2.576-3.68c.577-1.082.938-1.394,1.14-1.472h.153l18.709-10.673-2.208-1.718-18.954,5.582-13.617,3.987-1.293-2.9,8.1-9.057,7.729-4.662c-14.415,1.1-25.309,10.482-26.313,7.115-.506-1.692,1.338-3.892,2.5-5.111-.025-.126-.955-.4-.936-.532a65.492,65.492,0,0,1,2.668-11.961l-16.868-83.3-125.377,6.624,36.251,109.8,4.97,2.392,1.84,7.361,193.954.675v-12.513Z" fill="#030504"/><path d="M-12728.575,5190.244l31.9,95.2,92.469-3.342s-5.981-.737-6.073-5.429c-.064-3.337,3.22-6.9,3.22-6.9l1.933-11.593-18.187-72.84Z" fill="#f7f5f2"/><path d="M-12634.655,5210.892c-1-2.8-2.438-5.417-3.606-8.146a96.53,96.53,0,0,0-11.442,2.86,81.659,81.659,0,0,1-10.7,2.607c-3.727.567-7.4,1.332-11.064,2.227-7.007,1.712-13.967,3.7-21.146,4.554.672,3.694,1.8,7.24,2.733,10.883,1.023,3.993,1.485,8.1,2.556,12.083,1.83,6.821,4.329,13.831,9.456,18.9.012.011.013.024.024.036,2.094-.5,4.181-1.035,6.277-1.487,3.787-.817,7.6-1.511,11.4-2.274,3.821-.768,7.571-1.729,11.346-2.69,1.853-.471,3.737-.808,5.6-1.231,1.959-.444,3.846-1.067,5.757-1.679,3.251-1.04,6.521-2.022,9.741-3.16-1.029-7.09-2.206-14.158-3.665-21.173A93.174,93.174,0,0,0-12634.655,5210.892Z" fill="#ffdc4d"/><path d="M-12694.521,5215.637c.257,6.571,2.666,12.794,4.965,18.877q3.656,9.675,7.362,19.331a11.906,11.906,0,0,0,.907,2.137,3.245,3.245,0,0,0,2.489,1.493,17.682,17.682,0,0,0,4.282-.449c2.787-.42,5.554-.95,8.308-1.547,6.045-1.308,12.032-2.87,18.017-4.425,3.5-.911,7.022-1.777,10.521-2.708,1.73-.461,3.465-.912,5.2-1.374,1.809-.482,3.536-1.068,5.288-1.723a1.066,1.066,0,0,0,.756-1.157,1.045,1.045,0,0,0-1.036-.914c-6.312.408-12.485,2.235-18.587,3.81-5.93,1.531-11.851,3.1-17.817,4.471q-4.093.943-8.219,1.731c-1.295.246-2.594.475-3.9.679-.628.1-1.257.2-1.888.276.2-.023-.131.011-.136.012-.2.012-.395.016-.6.013.2,0,.23.264.04-.089a4.953,4.953,0,0,1-.272-.646l-.461-1.16-.966-2.436-1.888-4.756c-1.228-3.094-2.479-6.18-3.723-9.268-2.7-6.693-5.516-13.354-7.311-20.359a.683.683,0,0,0-1.336.181Z" fill="#030404"/><path d="M-12693.437,5216.35c3.584-.615,7.1-1.673,10.655-2.435s7.145-1.449,10.728-2.128c7.17-1.358,14.371-2.544,21.522-4q6.059-1.233,12.036-2.8l-2-1.137c1.389,3.66,2.772,7.321,4.191,10.969,1.373,3.529,2.824,7.04,4,10.642.882,2.718,1.581,5.5,2.194,8.29.333,1.513.635,3.033.889,4.562q.076.458.146.917c.027.18.053.36.079.539a1.79,1.79,0,0,1,.034.255c.081.658.152,1.317.2,1.978.027.365.051.73.059,1.1v.1c0,.119,0,.134,0,.046a.912.912,0,0,1,.229-.351c.146-.06.124-.058-.066.009-1.013.23-2.015.546-3.007.851a30.9,30.9,0,0,0-3.153,1.089c-1.029.442-2.048.91-3.085,1.334a.906.906,0,0,0-.638.977.877.877,0,0,0,.875.772c2.061-.275,4.109-.414,6.143-.873.963-.218,1.922-.443,2.878-.693a4.145,4.145,0,0,0,2.724-1.475c.83-1.283.413-3.253.235-4.688-.191-1.564-.44-3.119-.734-4.667-.575-3.019-1.284-6.019-2.134-8.974-1.032-3.592-2.431-7.06-3.782-10.54q-2.536-6.53-5.137-13.031a1.666,1.666,0,0,0-2-1.136c-14.136,3.945-28.784,5.56-43.036,9a66.09,66.09,0,0,0-11.842,3.6,1.031,1.031,0,0,0-.425,1.3,1.058,1.058,0,0,0,1.227.6Z" fill="#030404"/><path d="M-12637.215,5208.872c-1.458,1.772-2.638,3.73-3.918,5.631s-2.616,3.756-3.949,5.618q-1.967,2.75-4.043,5.428a39.985,39.985,0,0,1-4.052,4.752,8.715,8.715,0,0,1-4.9,2.409,15.705,15.705,0,0,1-5.83-.579,122.163,122.163,0,0,1-12.991-4.474q-7.3-2.816-14.381-6.166a1.655,1.655,0,0,0-2.2.577,1.624,1.624,0,0,0,.578,2.2q6.7,3.149,13.607,5.851c4.43,1.734,8.925,3.431,13.5,4.753,4.334,1.253,9.249,1.871,13.16-.884a22.812,22.812,0,0,0,4.55-4.593c1.511-1.891,2.987-3.812,4.375-5.795q2.263-3.239,4.26-6.637a40.547,40.547,0,0,0,3.673-7.257c.271-.787-.89-1.5-1.436-.836Z" fill="#030404"/><path d="M-12555.906,5238.211c11.041,4.417,29.381,13.372,40.178,11.655s43.428-1.227,55.2-.982,19.139,3.435,19.139-4.661,3.68-84.648,25.517-102.314,63.3,1.227,74.1,18.893,26.989,52.26,27.726,78.023,5.643,61.094.98,71.644-110.409,6.87-117.279,2.453-4.416-14.23-10.061-15.457-50.543-7.851-61.584-10.06-39.748-1.717-39.748-8.342-13.249-35.331-13.249-35.331" fill="#f7f5f2"/><path d="M-12450.661,5088.491a60.694,60.694,0,0,0,12.71-.059.563.563,0,0,0,0-1.125c-4.369-.45-8.3-1.088-12.71-.644a.915.915,0,0,0,0,1.828Z" fill="#151516"/><path d="M-12427.83,5071.37c2.684,0,2.689-4.172,0-4.172s-2.688,4.172,0,4.172Z" fill="#151516"/><path d="M-12372.751,5064.582a.05.05,0,0,0,0-.1.05.05,0,0,0,0,.1Z" fill="#151516"/><path d="M-12370.751,5159.083c9.364,14.87,26.929,22.49,44.091,26.267,21.872,4.815,46.022,4.422,65.146-7.236s30.975-36.785,22.424-57.484c-5.968-14.447-19.814-23.733-32.176-33.3-18.871-14.6-63.121-47.084-70.521-56.513-8.867-11.3-16.637-24.48-29.562-30.744a35.748,35.748,0,0,0-17.471-3.506c-3.978.219-46.446-5.908-48.276,27.979-1.043,19.327,14.264,33.648,37.361,44.5,0,0,2.1,24.824-32.048,50.021s-11.432,62.439-11.432,62.439,15.549-38.636,40.707-39.459c27.205-.89,31.757,17.033,31.757,17.033" fill="#030504"/><path d="M-12524.752,5249.914c-2.788-.4-5.355-1.756-7.946-2.785-3.307-1.314-6.483-2.888-9.7-4.415-2.706-1.287-5.405-2.59-8.109-3.88a27.741,27.741,0,0,1-5.095-2.807c-1.781-1.372-2.9-3.772-5.366-4a3.082,3.082,0,0,0-3,1.612,5.263,5.263,0,0,0-.4,3.386,7.08,7.08,0,0,0,4.068,5.447c.62.255.965-.62.6-1.032a8.9,8.9,0,0,1-2.523-4.9,2.441,2.441,0,0,1,.407-1.915c.526-.5,1.34.081,1.747.472.746.717,1.32,1.588,2.088,2.287a15.045,15.045,0,0,0,2.689,1.911c1.377.787,2.834,1.425,4.267,2.1,2.625,1.244,5.247,2.493,7.9,3.673,3.122,1.388,6.32,2.61,9.508,3.841a31.913,31.913,0,0,0,8.7,2.088c.615.051.769-1,.147-1.089Z" fill="#030504"/><path d="M-12375.307,5180.025c.7,4.8,1.082,9.656,1.375,14.5a204.689,204.689,0,0,1,.209,21.214,243.807,243.807,0,0,1-2.567,26.521,219.9,219.9,0,0,1-6.972,30.6q-1.244,4.085-2.647,8.117a56.32,56.32,0,0,1-2.91,7.279,30.242,30.242,0,0,1-4.04,6.083,20.168,20.168,0,0,1-1.587,1.662c-.306.281.257-.166-.028.026-.107.072-.212.148-.321.217a7.748,7.748,0,0,1-.755.414c-.125.061-.261.109-.384.175.5-.269-.04.013-.2.073a16.775,16.775,0,0,1-2.063.6c-.856.2-1.724.339-2.593.468-.25.037.356-.043-.044,0l-.311.038c-.257.03-.515.059-.772.085q-.792.08-1.586.136a118.913,118.913,0,0,1-16.245-.2c-7.484-.491-14.944-1.294-22.384-2.238-9.143-1.16-18.255-2.541-27.35-4.025-10.644-1.736-21.251-3.693-31.9-5.429-2.817-.459-5.629-.955-8.441-1.446-1.249-.219-1.8,1.66-.531,1.928,5.665,1.194,11.321,2.44,17.009,3.518q8.054,1.527,16.131,2.918c9.639,1.665,19.3,3.224,28.986,4.579,7.975,1.115,15.972,2.111,24,2.792a154.8,154.8,0,0,0,17.834.674c3.737-.116,7.8-.3,11.317-1.7a11.032,11.032,0,0,0,4.51-3.473,33.543,33.543,0,0,0,4.271-6.416,59.986,59.986,0,0,0,3.069-7.6,215.323,215.323,0,0,0,8.469-31.778,206.051,206.051,0,0,0,3.291-28.327,195.662,195.662,0,0,0-.322-22.929q-.333-4.578-.881-9.135c-.3-2.472-.736-4.914-1.157-7.367q-.243-1.421-.515-2.835c-.124-.641-1.056-.356-.965.266Z" fill="#030504"/><path d="M-12428.434,5036.765a10.351,10.351,0,0,0-3.452,3.229c-1.032,1.427-2.009,2.882-2.905,4.4q-2.792,4.731-5.264,9.642a130.059,130.059,0,0,0-8.155,20.18,102.652,102.652,0,0,0-2.93,11.94,1.327,1.327,0,0,0,.9,1.587,1.308,1.308,0,0,0,1.586-.9,6.792,6.792,0,0,0,.131-2.165.813.813,0,0,0-1.5-.406,6.793,6.793,0,0,0-1.117,1.885l2.486.686a131.576,131.576,0,0,1,14.528-39.72c.977-1.763,2.033-3.492,2.94-5.292.769-1.528,1.7-3.366,3.224-4.254a.469.469,0,0,0-.473-.81Z" fill="#151516"/><path d="M-12438.959,5100.627c1.235,1.126,2.087,1.957,3.826,2.24a7.61,7.61,0,0,0,4.169-.438c2.339-.952,5.221-3.644,5.2-6.418a2.581,2.581,0,0,0-1.623-2.5c-1.323-.312-2.2.915-2.724,1.913a5.586,5.586,0,0,1-2.56,2.958,7.823,7.823,0,0,1-5.161.307,1.168,1.168,0,0,0-1.128,1.939Z" fill="#151516"/><path d="M-12428.436,5011.076s-18.7-.324-22.6,14.643c-5.984,22.986,12.082,28.169,12.082,28.169l13.065-23.816Z" fill="#030504"/><path d="M-12418.85,5144.061c-8.441,10.464-12.544,23.486-15.345,36.443a402.983,402.983,0,0,0-6.979,45.173c-.428,4.3-.839,8.613-1.063,12.93a42.582,42.582,0,0,0,1.06,12.931c.116.446.884.371.829-.112a69.26,69.26,0,0,1-.231-11.359c.2-3.826.512-7.642.87-11.455q1.077-11.5,2.727-22.945c1.076-7.375,2.324-14.731,3.794-22.038a145.8,145.8,0,0,1,5.05-19.238,65.852,65.852,0,0,1,10.251-19.369c.536-.677-.41-1.645-.962-.961Z" fill="#151516"/><path d="M-12375.6,5034.62c-5.621-3.41-12.528-5.466-19.058-3.809-3.277.832-6.679,2.671-8.1,5.9-1.407,3.195-.889,6.993.529,10.09a24.155,24.155,0,0,0,6.086,7.808,37.076,37.076,0,0,0,9.441,6.429c3.122,1.366,6.792,1.785,9.918.19a7.051,7.051,0,0,0,3.927-7.253,5.271,5.271,0,0,0-1.99-3.418.683.683,0,0,0-.88,1.045c1.98,2.09,1.31,5.69-.86,7.358-2.611,2.008-6.261,1.671-9.128.464a34.178,34.178,0,0,1-8.547-5.655,24.364,24.364,0,0,1-5.791-6.75c-1.5-2.764-2.321-6.337-1.1-9.353,1.242-3.062,4.681-4.629,7.737-5.254,5.841-1.193,11.93.707,16.963,3.64,5.409,3.153,10.386,7.888,12.737,13.787,2.245,5.631,1.608,12.354-2.475,17.013-4.877,5.565-12.77,4.665-19.034,2.259-7.109-2.73-13.721-7.159-19.95-11.477a175.315,175.315,0,0,1-17.854-14.192c-5.125-4.646-10.509-10.118-11.11-17.4a12.818,12.818,0,0,1,.633-5.157c.106-.317-.367-.541-.478-.22-2.423,7.059,1.227,14.025,5.935,19.159a130.1,130.1,0,0,0,19.731,16.95q5.237,3.793,10.753,7.18a75.178,75.178,0,0,0,11.629,6.164c6.568,2.59,14.723,3.608,20.149-1.847,4.637-4.66,5.759-11.967,3.723-18.059C-12364.294,5043.526-12369.683,5038.206-12375.6,5034.62Z" fill="#a8a8a9"/><path d="M-12255.566,5128.2a19.96,19.96,0,0,0-2.786-9.645c-4.123-7.357-10.953-13.275-18.4-17.092-.587-.3-1,.619-.427.928a44.955,44.955,0,0,1,17.084,15.745,19.459,19.459,0,0,1,3.163,10.2,22.926,22.926,0,0,1-3.053,10.491c-1.633,3.057-3.689,6.36-6.419,8.563a9.359,9.359,0,0,1-8.666,1.684c-5.713-1.553-10.405-6.011-16.477-6.451a6.875,6.875,0,0,0-4.7.96,3.613,3.613,0,0,0-1.1,4.02,21.081,21.081,0,0,0,2.874,5.134q1.2,1.887,2.407,3.768c-2.28-.733-4.569-1.442-6.876-2.093-3.066-.865-6.3-2.006-9.487-2.309-2.179-.208-4.7.382-5.4,2.731-.58,1.95.382,4.117,2.576,4.152,1.033.017.987-1.547.056-1.741-.712-.149-.777-1.076-.648-1.667a1.932,1.932,0,0,1,1.84-1.374c1.864-.272,3.939.508,5.714.958q7.173,1.822,14.208,4.141a1.043,1.043,0,0,0,1.278-1.532l-3.489-5.4c-1.055-1.63-2.471-3.283-3.135-5.123-1.461-4.041,5.392-2.779,7.334-2.1,5.446,1.892,10.446,6.339,16.482,6.1a11.4,11.4,0,0,0,7.909-4.169,36.726,36.726,0,0,0,5.709-8.9A23.514,23.514,0,0,0-12255.566,5128.2Z" fill="#a8a8a9"/><path d="M-12411.7,5300.544c-.326.348-.6.392-.774-.137C-12412.153,5300.082-12411.885,5300.071-12411.7,5300.544Z" fill="#a8a8a9"/><path d="M-12408.778,5301.693c-.464.3-.673.122-.705-.378C-12409.056,5301.087-12408.856,5301.277-12408.778,5301.693Z" fill="#a8a8a9"/><path d="M-12520.413,5252.565c.04-.46,1.141-.883,1.667-1.061a24.8,24.8,0,0,1,4.488-.948,127.218,127.218,0,0,1,14.536-1.006c13.042-.341,26.106-.093,39.147.182q5.083.107,10.165.247c2.9.079,5.878.36,8.778.182a1.032,1.032,0,0,0,0-2.062c-2.625-.3-5.339-.188-7.979-.237q-4.658-.086-9.316-.149c-6.874-.091-13.747-.143-20.622-.066-6.635.075-13.271.223-19.9.573a147.927,147.927,0,0,0-15.089,1.329,22.174,22.174,0,0,0-4.907,1.179c-.816.332-1.837.839-1.906,1.837-.043.6.887.6.937,0Z" fill="#151516"/><path d="M-12369.7,5125.414a225.875,225.875,0,0,1,37.485,60.719,234.4,234.4,0,0,1,17.3,68.822q.475,5.077.731,10.169c.159,3.258.436,6.522.5,9.781.143,6.786-.09,13.578-.272,20.361-.026,1,1.627,1.277,1.8.243a143.67,143.67,0,0,0,1.652-18.157c.1-2.978.331-5.992.267-8.968q-.1-4.583-.388-9.161a226.012,226.012,0,0,0-5.309-36.2,224.841,224.841,0,0,0-27.325-67.05,223.911,223.911,0,0,0-24.392-32.612c-1.256-1.4-3.275.654-2.055,2.056Z" fill="#030504"/><path d="M-12546.042,5273.141c-2.828-.619-5.536.047-8.253.841-2.349.686-4.69,1.4-6.988,2.243a42.491,42.491,0,0,0-12.857,6.944,24.887,24.887,0,0,0-2.562,2.465,5.679,5.679,0,0,0-1.709,3.284,3.057,3.057,0,0,0,1.429,2.868c1.214.686,2.6.135,3.667-.561a54.86,54.86,0,0,1,6.876-3.974,42.286,42.286,0,0,1,7.338-2.646,42.619,42.619,0,0,1,8.663-1.294q1.129-.05,2.259-.04a9.979,9.979,0,0,0,2.1-.077,2.09,2.09,0,0,0,1.619-3.009.8.8,0,0,0-1.457.614c.185.771-2.037.541-2.371.539q-1.774-.006-3.546.133a45.557,45.557,0,0,0-6.941,1.087,44.994,44.994,0,0,0-13.036,5.293c-.979.6-1.893,1.3-2.882,1.877-.729.423-1.633.6-1.743-.481-.1-.978.775-1.87,1.379-2.531a25.459,25.459,0,0,1,2.271-2.191,38.8,38.8,0,0,1,11.225-6.288c2.284-.889,4.606-1.69,6.929-2.475,2.626-.889,5.515-2.118,8.342-1.717.579.082.853-.772.249-.9Z" fill="#030504"/><path d="M-12551.522,5265.273c-13.337-4-28.89-1.576-38.713,8.812a29.1,29.1,0,0,0-5.74,8.763c-.274.655.4,1.293,1,1.315,5.051.183,9.737-1.91,14.311-3.778a61.076,61.076,0,0,1,15.014-4.121c1.33-.177,2.694-.208,4.012-.467a3.01,3.01,0,0,0,2.522-1.952.834.834,0,0,0-1.384-.806,3.287,3.287,0,0,1-2.078.9c-1.187.151-2.383.234-3.571.4a59.224,59.224,0,0,0-7.376,1.487,62.029,62.029,0,0,0-7.047,2.385c-2.22.9-4.414,1.861-6.683,2.627a20.556,20.556,0,0,1-7.72,1.255l.9,1.563a29.371,29.371,0,0,1,11.425-13.032,36.445,36.445,0,0,1,18.813-5.223,50.588,50.588,0,0,1,11.918,1.326.751.751,0,0,0,.4-1.446Z" fill="#030504"/><path d="M-12554.066,5256.679a56.046,56.046,0,0,0-14.091-1.191,61.092,61.092,0,0,0-13.944,2.344,62.161,62.161,0,0,0-13.152,5.471,59.323,59.323,0,0,0-5.914,3.794c-.98.714-1.967,1.441-2.883,2.237a4.664,4.664,0,0,0-1.771,2.987,2.863,2.863,0,0,0,1.845,3.065c1.438.454,3.089-.362,4.429-.836,1.416-.5,2.813-1.05,4.2-1.635a14.013,14.013,0,0,0,4.1-2.159c.635-.58-.061-1.412-.761-1.3a16.618,16.618,0,0,0-3.5,1.276q-1.743.694-3.52,1.3c-1.137.386-2.286.78-3.452,1.071-.22.056-.643.194-.834.014a.88.88,0,0,1-.083-.811c.28-.869,1.343-1.519,2.024-2.048.818-.634,1.658-1.242,2.51-1.829a60.182,60.182,0,0,1,5.562-3.4,62.913,62.913,0,0,1,24.334-7.25,65.17,65.17,0,0,1,14.534.244c.859.119,1.267-1.155.369-1.34Z" fill="#030504"/><path d="M-12557.09,5249.587c-3.679-1.535-7.292-3.2-11.017-4.634-1.852-.713-3.7-1.438-5.558-2.137a44.892,44.892,0,0,0-5.383-1.813,14.943,14.943,0,0,0-10.017,1.126,20.647,20.647,0,0,0-7.6,6.5,30.9,30.9,0,0,0-2.954,4.961c-.42.867-.806,1.75-1.176,2.64a6.516,6.516,0,0,0-.83,2.917.958.958,0,0,0,1.614.668,5.815,5.815,0,0,0,1.159-2.162q.466-1.156,1-2.286a33.6,33.6,0,0,1,2.4-4.305,19.2,19.2,0,0,1,6.72-6.362,12.845,12.845,0,0,1,8.815-1.43,37.842,37.842,0,0,1,4.929,1.554c1.785.644,3.58,1.26,5.371,1.885,4.05,1.414,8.162,2.587,12.247,3.886.66.209.88-.759.278-1.01Z" fill="#030504"/><path d="M-12587.47,5260.4a7.176,7.176,0,0,1,2.117-3.015,16.87,16.87,0,0,1,2.908-2.412,4.257,4.257,0,0,1,3.051-.707,2.383,2.383,0,0,1,1.962,1.563,1.049,1.049,0,0,0,1.53.623,2.654,2.654,0,0,0,1.051-1.211.817.817,0,0,0-.908-1.182,2.669,2.669,0,0,0-1.405.756l1.742.46c-1.185-2.865-4.549-3.285-7.08-2a13.955,13.955,0,0,0-3.612,2.932,8.51,8.51,0,0,0-2.3,3.937.492.492,0,0,0,.949.261Z" fill="#030504"/><path d="M-12542.729,5281.614a98.837,98.837,0,0,0,14.731,3.154c4.989.784,10.019,1.329,15.045,1.8q2.112.2,4.226.377c1.435.123,2.9.349,4.344.338v-3.274a2.751,2.751,0,0,0-1.435.4c-.416.3.17-.018-.227.127a2.721,2.721,0,0,0-.51.266,1.033,1.033,0,0,0,0,1.768c.119.065.236.123.36.178l.3.126c-.132-.142-.105-.132.079.028a3.172,3.172,0,0,0,1.435.378,1.626,1.626,0,0,0,1.607-1.42,1.616,1.616,0,0,0-1.173-1.795c-2.52-.375-5.133-.366-7.676-.542q-3.741-.259-7.476-.584c-4.936-.433-9.87-.967-14.768-1.721-2.8-.43-5.58-.938-8.376-1.369a.915.915,0,0,0-.485,1.763Z" fill="#030504"/><path d="M-12519.705,5250.4c-1.973.537-2.681,2.574-2.4,4.438.328,2.177,1.983,3.775,2.987,5.644,2.018,3.753,2.156,8.381,2.038,12.545a13.174,13.174,0,0,1-1.635,6.737l2.442.662a4.131,4.131,0,0,0-.019-.851,3.356,3.356,0,0,0-.328-.745.857.857,0,0,0-1.542-.2,3.93,3.93,0,0,0-.479.634,3.654,3.654,0,0,0-.207.815,1.328,1.328,0,0,0,.759,1.547,1.312,1.312,0,0,0,1.637-.537c2.136-3.774,2.095-8.288,1.813-12.5a26.739,26.739,0,0,0-1.09-6.366,17.115,17.115,0,0,0-1.265-2.986c-.508-.931-1.154-1.767-1.738-2.649a5.2,5.2,0,0,1-1.122-2.718,2.588,2.588,0,0,1,.737-2.073.769.769,0,0,0-.59-1.4Z" fill="#030504"/><path d="M-12363.8,5189.769c-1.633,4.609-1.941,9.509-3.007,14.254a28.79,28.79,0,0,1-1.912,5.9,19.345,19.345,0,0,1-1.523,2.7c-.6.886-1.469,1.569-2.04,2.461a1.147,1.147,0,0,0,.549,1.627,1.158,1.158,0,0,0,1.548-.743,1.238,1.238,0,0,0,.05-.75c-.114-.289-.124-.3-.032-.03a1.886,1.886,0,0,0-.057-.329.657.657,0,0,0-1.186-.155c.191-.261.56-.161.118-.188l.579,2.137a7.606,7.606,0,0,0,1.785-2,17.44,17.44,0,0,0,1.329-2.106,25,25,0,0,0,1.913-4.739,71.644,71.644,0,0,0,1.9-11.07c.294-2.226.614-4.465,1.126-6.652a.594.594,0,0,0-1.145-.316Z" fill="#030504"/><path d="M-12313.514,5257.721q.4-6.588.394-13.192a97.652,97.652,0,0,0-.538-13c-.035-.259-.44-.187-.444.06-.03,2.216.114,4.439.183,6.654q.1,3.207.1,6.414.007,6.539-.384,13.069c-.025.442.661.441.688,0Z" fill="#030504"/><path d="M-12652.43,5190a28.869,28.869,0,0,0,1.627,4.306q.5,1,1.038,1.98a11.346,11.346,0,0,0,.58,1,3.554,3.554,0,0,0,.422.529,1.368,1.368,0,0,0,.618.29.736.736,0,0,0,.9-.512,1.5,1.5,0,0,0,.049-.69,3.793,3.793,0,0,0-.262-.627c-.169-.342-.383-.67-.574-1q-.542-.935-1.05-1.889c-.7-1.312-1.486-2.566-2.192-3.872a.635.635,0,0,0-1.155.488Z" fill="#030504"/><path d="M-12640.92,5190.551l-.084,2.2c-.007.18-.02.36-.021.54a1.463,1.463,0,0,0,.036.387,2.3,2.3,0,0,0,.116.263c-.028-.052-.035-.052-.021,0a1.969,1.969,0,0,0,.083.517,1.677,1.677,0,0,0,.192.578.5.5,0,0,0,.863,0,1.663,1.663,0,0,0,.192-.578,3.475,3.475,0,0,0,.076-.477c.026-.091.021-.1-.014-.041a2.487,2.487,0,0,0,.116-.263,1.777,1.777,0,0,0,.036-.387c0-.18-.015-.36-.021-.54l-.083-2.2a.746.746,0,0,0-.734-.734.749.749,0,0,0-.734.734Z" fill="#030504"/><path d="M-12627.193,5195.084a18.891,18.891,0,0,0-1.773,2.221,2.133,2.133,0,0,0-.249.492,2.318,2.318,0,0,0-.086.536c-.009.086-.029.177-.029.263a.858.858,0,0,0,.61.818,1,1,0,0,0,.755-.128c.084-.045.169-.087.253-.133a1.733,1.733,0,0,0,.416-.327,6.022,6.022,0,0,0,.369-.481l-.179.231c.426-.548.816-1.122,1.24-1.672l-.174.225q.195-.25.394-.5a1.184,1.184,0,0,0,.32-.773,1.114,1.114,0,0,0-.32-.774,1.1,1.1,0,0,0-.773-.32,1.094,1.094,0,0,0-.773.32Z" fill="#030504"/><path d="M-12604.422,5108.836c.47,8.808,1.065,17.6,1.884,26.383.232,2.481.358,5.013.754,7.473a.683.683,0,0,0,1.308,0,1.2,1.2,0,0,0-.835-1.43c-.555-.207-.837.618-.386.914l-.019-.006,1.263.342c-.13-2.184-.491-4.375-.728-6.551s-.468-4.37-.687-6.557q-.658-6.561-1.266-13.129-.341-3.717-.64-7.439c-.032-.411-.671-.42-.648,0Z" fill="#030504"/><path d="M-12600.146,5143.034a.05.05,0,0,0,0-.1.05.05,0,0,0,0,.1Z" fill="#030504"/><path d="M-12600.339,5143.059c.207.482.781.424,1.231.463.739.064,1.479.123,2.22.158,1.4.065,2.8.113,4.193.13,2.8.035,5.593-.025,8.387-.142.758-.031,2.429-.278,2.059-1.465a.65.65,0,0,0-.895-.42c-.131.064-.2.208-.32.269a2.363,2.363,0,0,1-.844.118c-2.749.192-5.508.278-8.263.294-1.562.009-3.125,0-4.687-.034-.445-.008-3.508-.367-3.081.629Z" fill="#030504"/><path d="M-12582.509,5142.317c-1.135,1.982-1.079,4.344-1.1,6.559-.023,2.477-.049,4.956-.042,7.434,0,.956.445,1.805,1.515,1.829,1.047.024,1.859-.886,2.51-1.594a36.717,36.717,0,0,0,3.833-5.482c1.549-2.471,3.128-4.923,4.684-7.39.426-.674-.643-1.294-1.065-.623-2.25,3.567-4.36,7.269-6.817,10.7a17.619,17.619,0,0,1-1.84,2.2c-.277.277-.715.815-1.144.845-.5.034-.307-.78-.306-1.1q.007-3.168,0-6.337a20.638,20.638,0,0,1,.605-6.7.455.455,0,0,0-.828-.349Z" fill="#030504"/><path d="M-12603.219,5107.289a.636.636,0,0,0-.605.674c0,.624.582.839,1.105.879,1.877.144,3.8.032,5.678.032,3.831,0,7.662-.03,11.494-.06q11.37-.089,22.738-.209,22.863-.235,45.727-.479l12.744-.132c1.969-.021,3.957-.126,5.925-.024,1.388.072,3.03.334,3.928,1.52.588.777,1.913.064,1.344-.784-1.642-2.441-4.817-2.4-7.448-2.362l-11.12.157-22.363.313c-14.826.207-29.651.39-44.478.637l-12.493.208c-2.083.035-4.165.086-6.247.137l-3,.069c-.5.011-1,.03-1.5.052-.249.01-.5.027-.749.032-.036,0-.89-.1-.57-.252a.22.22,0,0,0-.11-.408Z" fill="#030504"/><path d="M-12493.492,5108.886a7.188,7.188,0,0,1,.5,3.569c-.044,1.2-.116,2.394-.168,3.591-.105,2.489-.218,4.977-.379,7.464-.327,5.05-.439,10.117-.613,15.175-.029.9,1.369.9,1.4,0,.172-5.222.393-10.447.406-15.673,0-2.572.075-5.142.138-7.712.055-2.243.28-4.637-.829-6.682-.165-.3-.61-.036-.459.268Z" fill="#030504"/><path d="M-12568.126,5143.973q14.512-.041,29.006-.705t28.977-1.66q4.1-.281,8.2-.578c2.729-.194,5.483-.309,8.2-.642.852-.1.907-1.41,0-1.375-2.4.093-4.807.365-7.2.555q-3.664.29-7.33.547-7.208.507-14.421.939c-9.659.578-19.325,1.055-28.991,1.507-5.479.257-10.956.552-16.435.826a.293.293,0,0,0,0,.586Z" fill="#030504"/><path d="M-12593.912,5117.065c5.032.362,10.113.335,15.155.268q7.516-.1,15.022-.516,2.109-.117,4.217-.262a26.454,26.454,0,0,0,4.2-.4c.5-.118.353-.818-.114-.852a26.928,26.928,0,0,0-3.718.183q-1.859.125-3.72.231-3.782.219-7.569.357c-5.008.184-10.02.26-15.029.257-2.816,0-5.632-.06-8.447-.02a.379.379,0,0,0,0,.758Z" fill="#030504"/><path d="M-12593.113,5126.375a8.171,8.171,0,0,0,2.809.136c1-.033,1.989-.065,2.984-.1q2.922-.111,5.846-.226c3.938-.15,7.877-.338,11.814-.509l23.381-1.014q6.592-.286,13.184-.567c.73-.031.734-1.173,0-1.141q-23.5,1.028-47.012,2.034c-2.155.093-4.311.2-6.467.306-1.078.051-2.156.108-3.232.165a9.99,9.99,0,0,0-3.307.4.273.273,0,0,0,0,.52Z" fill="#030504"/><path d="M-12591.549,5135.3c2.7.283,5.474.192,8.188.212q4.1.03,8.189.054c5.4.022,10.8.067,16.194,0s10.781-.252,16.158-.669c5.45-.422,10.887-1.039,16.324-1.6,6.086-.624,12.2-1.078,18.274-1.779.9-.1.927-1.527,0-1.438-5.443.526-10.864,1.282-16.3,1.877-5.4.59-10.787,1.219-16.193,1.7-10.8.962-21.644.882-32.473.888q-4.592,0-9.183.021c-3.042.011-6.153-.121-9.181.185a.274.274,0,0,0,0,.547Z" fill="#030504"/><path d="M-12655.146,5096.71c-9.254-4.348-14.347-15.074-13.024-25.03,1.41-10.626,9.094-19.707,18.725-24.022a35.819,35.819,0,0,1,30.6.669,23.391,23.391,0,0,1,6.821,5.1,21.672,21.672,0,0,1,4.187,7.648,30.952,30.952,0,0,1,.891,16.4,24.943,24.943,0,0,1-7.979,13.591,22.916,22.916,0,0,1-14.013,5.6,23.155,23.155,0,0,1-3.724-.178c-.562-.074-.7.9-.135,1a22.3,22.3,0,0,0,15.306-3.122,25.35,25.35,0,0,0,10.41-12.339,30.86,30.86,0,0,0,1.5-17.031,29.752,29.752,0,0,0-2.855-8.437,20.313,20.313,0,0,0-5.757-6.728c-8.869-6.726-21.4-8.007-31.836-4.715-10.554,3.328-19.416,11.677-22.439,22.452a26.09,26.09,0,0,0,.438,15.787,24.048,24.048,0,0,0,9.21,12.1,21.087,21.087,0,0,0,3.362,1.8c.357.152.676-.361.311-.533Z" fill="#030504"/><path d="M-12657.062,5095.961a21.049,21.049,0,0,0,4.528,2.179c.422.145.85.279,1.279.4a5.523,5.523,0,0,1,1.243.338c.543.319.577,1.4.64,1.94a31.125,31.125,0,0,1-.677,11,.616.616,0,0,0,.895.688c6.554-4,13.739-8.4,17.372-15.463a.587.587,0,0,0-1.012-.592,38.53,38.53,0,0,1-3.313,4.668,34.738,34.738,0,0,1-4.134,3.91,86.308,86.308,0,0,1-9.527,6.425l.895.688a31.635,31.635,0,0,0,.582-11.943,3.307,3.307,0,0,0-.754-1.84,4.291,4.291,0,0,0-2.154-.856,30.027,30.027,0,0,1-5.473-2.206.387.387,0,0,0-.39.668Z" fill="#030504"/><path d="M-12652.545,5062.776q4.692.546,9.417.635,2.328.045,4.655,0,1.163-.021,2.326-.064c.662-.024,1.42.114,1.841-.48a.437.437,0,0,0-.068-.521c-.447-.514-1.285-.278-1.894-.253q-1.165.049-2.327.077-2.329.054-4.655.021c-3.1-.044-6.2-.18-9.295-.386-.632-.042-.605.9,0,.969Z" fill="#030504"/><path d="M-12654.555,5070.576c4.115.623,8.343.761,12.5,1,4.219.241,8.443.4,12.668.539q1.737.059,3.478.109l1.864.052a2.444,2.444,0,0,0,1.572-.248c.188-.134.306-.462.081-.638-.734-.574-1.886-.384-2.771-.406q-1.554-.04-3.106-.087-3.167-.094-6.335-.216c-4.222-.161-8.441-.384-12.664-.533-2.395-.084-4.8-.259-7.194-.208-.35.007-.461.58-.087.637Z" fill="#030504"/><path d="M-12653.7,5080.33c1.964,1.1,4.5,1.323,6.7,1.54q3.69.364,7.4.459a101.961,101.961,0,0,0,14.719-.69q1-.119,2-.256c.48-.066,1.154-.061,1.482-.488.563-.73-.369-1.82-1.091-1.147a.5.5,0,0,0,.486.836l.09-.02-.405-.052c-.166-.1.169-.526-.021-.618-.021-.01-.154.048-.187.046a3.892,3.892,0,0,0-.725.1q-.873.119-1.749.22-1.513.178-3.031.311-3.1.272-6.205.359a107.994,107.994,0,0,1-12.418-.345c-1.1-.1-2.2-.2-3.289-.376-1.146-.189-2.253-.523-3.388-.752a.48.48,0,0,0-.368.872Z" fill="#030504"/><path d="M-12513.52,5101.164c-1.234-.947-1.167-2.921-1.578-4.286a4.95,4.95,0,0,0-2.555-3.057c-2.928-1.461-6.2-.471-8.578,1.536a25.835,25.835,0,0,0-4.043,4.708l.958.125a37.459,37.459,0,0,0-2.331-7.846,17.385,17.385,0,0,0-3.605-5.978c-1.444-1.4-3.461-2.247-5.4-1.327-2,.952-3.038,3.305-3.973,5.177a61.942,61.942,0,0,0-3.47,8.451l.822-.335c-1.41-1.016-2.014-2.728-2.931-4.138a6.8,6.8,0,0,0-3.948-2.977,6.456,6.456,0,0,0-7.794,4.429.532.532,0,0,0,1.024.282,5.4,5.4,0,0,1,7.419-3.408c2.914,1.358,3.139,5.012,5.664,6.779a.566.566,0,0,0,.823-.334,58.944,58.944,0,0,1,2.611-6.887c.488-1.071,1-2.131,1.561-3.169a8.871,8.871,0,0,1,1.735-2.438c1.631-1.484,3.682-.925,5.154.462a15.543,15.543,0,0,1,3.375,5.668,40.844,40.844,0,0,1,2.251,7.868c.09.486.721.454.958.125,1.853-2.582,4.05-5.683,7.369-6.374a6.087,6.087,0,0,1,4.006.487,4.408,4.408,0,0,1,2.216,3.218c.322,1.424.552,2.992,1.95,3.765.354.195.61-.294.308-.526Z" fill="#030504"/><path d="M-12605.7,5042.991a17.024,17.024,0,0,1,5.283-2.935,16.439,16.439,0,0,1,2.813-.708c.642-.1,1.24-.157,1.655.43a2.8,2.8,0,0,1,.416,1.3,9.322,9.322,0,0,1-1.313,5.18,36.8,36.8,0,0,0-2.325,4.939.51.51,0,0,0,.623.624,49.308,49.308,0,0,1,5.812-1.522,28.108,28.108,0,0,1,5.59-.693,3.43,3.43,0,0,1,2.183.617,2.341,2.341,0,0,1,.624,2.347c-.4,1.707-2.094,2.982-3.4,4.012a27.684,27.684,0,0,1-5.482,3.311c-.672.314-.087,1.291.58.992a26.11,26.11,0,0,0,5.419-3.326c1.5-1.182,3.289-2.613,3.833-4.534a3.3,3.3,0,0,0-1.955-4.168c-1.793-.641-3.987-.147-5.806.133a46.433,46.433,0,0,0-7.667,1.853l.623.624c.989-3.118,3.355-5.828,3.573-9.181.08-1.244-.169-3.083-1.5-3.621a4.27,4.27,0,0,0-2.491.15,17.241,17.241,0,0,0-2.47.785,18.1,18.1,0,0,0-4.969,3.043c-.243.206.105.546.348.348Z" fill="#030504"/><path d="M-12704.743,5114.829c-.657,2.478.913,4.672,1.3,7.047.457,2.828-1.856,4.539-3.967,5.9a.594.594,0,0,0,.3,1.1c6.058.394,8.8,6.674,10.848,11.487.261.614,1.328.172,1.087-.458-1.686-4.4-3.761-10.238-.011-14.223a.563.563,0,0,0-.543-.932c-3.061.422-5.11-2.558-6.113-5.014-1.219-2.982-2.073-6.1-3.456-9.021-.183-.384-.756-.106-.664.28.436,1.833,1.061,3.624,1.668,5.407a41.275,41.275,0,0,0,1.857,4.865c1.308,2.674,3.824,5.03,7,4.559l-.543-.933c-3.968,4.316-2.117,10.493-.348,15.328l1.147-.316c-2.16-5.295-5.372-11.87-11.935-12.206l.3,1.1c2.114-1.4,4.478-3.178,4.5-5.972.027-2.7-2.132-5.065-1.705-7.791.071-.464-.6-.677-.724-.2Z" fill="#030504"/><path d="M-12680.543,5127.065c-.019.688-.049,1.376-.052,2.064,0,.344-.008.688,0,1.032a3.073,3.073,0,0,0,.106,1.054.387.387,0,0,0,.739,0,3.076,3.076,0,0,0,.107-1.054c.009-.344,0-.688,0-1.032,0-.688-.033-1.376-.053-2.064a.426.426,0,0,0-.851,0Z" fill="#030504"/><path d="M-12678.3,5145.467l-.036,2.3c-.006.374-.023.751,0,1.125a2.118,2.118,0,0,0,.189,1.14.289.289,0,0,0,.492,0,2.039,2.039,0,0,0,.188-1.1c.018-.39,0-.78,0-1.169l-.036-2.3a.4.4,0,0,0-.789,0Z" fill="#030504"/><path d="M-12625.363,5125.965a5.58,5.58,0,0,1-.127,2.059,5.356,5.356,0,0,1-.323.925,4.7,4.7,0,0,0-.471,1.022.368.368,0,0,0,.534.41,2.115,2.115,0,0,0,.711-.98,6.545,6.545,0,0,0,.4-1.143,6.514,6.514,0,0,0,.107-2.4c-.062-.466-.885-.361-.829.112Z" fill="#030504"/><path d="M-12527.227,5249.946s.1-.12.111-.135c-.116.116.2-.173.223-.2.154-.141.306-.285.467-.418a5.7,5.7,0,0,1,.96-.647c.063-.033.128-.066.192-.094-.184.08.133-.039.14-.041a2.354,2.354,0,0,1,.3-.072c-.246.04.089.008.116.006.287-.028-.085-.041.059,0l.229.058c.271.061-.167-.119.067.027.108.067.219.124.32.2-.206-.155-.037-.018.011.028s.109.116.165.173c.212.217-.107-.2.042.057.047.084.1.163.148.248s.087.17.131.256c-.095-.187-.009-.023,0,.023a6.127,6.127,0,0,1,.2.791c-.05-.286.007.093.01.128.006.078.012.156.015.235.013.235.013.47.027.705.016.258.026.516.035.774,0,.086,0,.172.009.258.013.147.031.294.055.44s.031.16.026.076c.121.557.137,1.265.7,1.595.662.387,1.163-.246,1.33-.821a9.075,9.075,0,0,0,.371-3.027,5.393,5.393,0,0,0-.959-2.982,3.653,3.653,0,0,0-2.493-1.473,3.948,3.948,0,0,0-2.947,1.119,6.509,6.509,0,0,0-.964,1.024,1.57,1.57,0,0,0-.2,1.688.639.639,0,0,0,1.094,0Z" fill="#030504"/><path d="M-12529.825,5249.285c.235.807,1.223,1.376,1.854,1.887a21.167,21.167,0,0,1,1.942,1.794,28.557,28.557,0,0,1,3.238,4.019,54.031,54.031,0,0,1,2.959,5.1,21.406,21.406,0,0,0,3.085,5.055.773.773,0,0,0,1.307-.541,17.011,17.011,0,0,0-1.937-5.948,36.2,36.2,0,0,0-3.089-5.379,25.484,25.484,0,0,0-3.717-4.3,23.97,23.97,0,0,0-2.262-1.783c-.733-.509-1.832-1.237-2.747-1.023a.917.917,0,0,0-.633,1.115Z" fill="#030504"/><path d="M-12523.972,5248.886a1.452,1.452,0,0,0-.178-.655c-.009-.016-.032-.069-.05-.076s.077.162.024.071a2.724,2.724,0,0,0-.158-.31.778.778,0,0,0-.131-.139.886.886,0,0,0-.824-.218.9.9,0,0,0-.591.592c-.022.053-.1.233.013-.028l-.092.218c-.014.1-.027.2-.039.3l.032-.244c-.03.221-.06.442-.076.665l.035-.256a2.663,2.663,0,0,0-.047.621,5.115,5.115,0,0,0,.087.656,3.153,3.153,0,0,0,.382,1,2.171,2.171,0,0,0,1.021.925,1.711,1.711,0,0,0,1.553-.1,2.087,2.087,0,0,0,.828-2.461,3.664,3.664,0,0,0-.527-.983,2.845,2.845,0,0,0-.96-.89,1.988,1.988,0,0,0-1.5-.161,2.063,2.063,0,0,0-1.119.9,2.8,2.8,0,0,0-.247,2.2,3.457,3.457,0,0,0,1.354,1.853,3.1,3.1,0,0,0,.927.446,2.265,2.265,0,0,0,1.373.023,1.974,1.974,0,0,0,1.261-1.385,5.566,5.566,0,0,0,.117-.748,3.407,3.407,0,0,0,.037-.564,2.377,2.377,0,0,0-.639-1.62,2.086,2.086,0,0,0-.818-.506,1.35,1.35,0,0,0-1.395.347,1.133,1.133,0,0,0-.312.651,1.05,1.05,0,0,0,.135.722,2.247,2.247,0,0,0,.268.347,4.545,4.545,0,0,0,.4.291l-.257-.2a1.026,1.026,0,0,1,.158.164l-.2-.26a1.618,1.618,0,0,1,.157.283l-.131-.31a1.417,1.417,0,0,1,.077.317l-.046-.344a3.556,3.556,0,0,1-.039.814l.047-.343a1.8,1.8,0,0,1-.107.445l.13-.308a.9.9,0,0,1-.088.151l.2-.26a.746.746,0,0,1-.091.093l.261-.2a.742.742,0,0,1-.122.073l.307-.129a.887.887,0,0,1-.188.047l.342-.046a1.3,1.3,0,0,1-.25-.007l.342.046a1.98,1.98,0,0,1-.443-.124l.306.129a2.236,2.236,0,0,1-.469-.27l.259.2a2.4,2.4,0,0,1-.416-.416l.2.258a2.733,2.733,0,0,1-.319-.545l.127.3a2.1,2.1,0,0,1-.145-.52l.045.328a1.645,1.645,0,0,1,0-.392l-.043.324a1.482,1.482,0,0,1,.1-.377l-.121.287a1.258,1.258,0,0,1,.126-.216l-.186.241a.977.977,0,0,1,.142-.143l-.239.185a.866.866,0,0,1,.139-.084l-.281.119a.771.771,0,0,1,.167-.048l-.312.042a.878.878,0,0,1,.189,0l-.311-.042a1.008,1.008,0,0,1,.226.064l-.278-.118a1.5,1.5,0,0,1,.252.151l-.234-.182a2.278,2.278,0,0,1,.389.4l-.18-.234a3.019,3.019,0,0,1,.346.569l-.116-.273a1.6,1.6,0,0,1,.105.37l-.04-.3a1.208,1.208,0,0,1,0,.252l.041-.3a1.081,1.081,0,0,1-.07.253l.114-.271a1.036,1.036,0,0,1-.111.188l.177-.228a.949.949,0,0,1-.15.15l.228-.177a.782.782,0,0,1-.145.082l.27-.114a.772.772,0,0,1-.121.034l.3-.04a.745.745,0,0,1-.181,0l.3.04a.9.9,0,0,1-.182-.054l.267.113a1.575,1.575,0,0,1-.245-.158l.226.173a1.78,1.78,0,0,1-.276-.289l.17.22a2.41,2.41,0,0,1-.276-.487l.1.25a4.183,4.183,0,0,1-.25-.947l.034.254a8.1,8.1,0,0,0-.121-.854l-.817,1.072-.133-.019a.632.632,0,0,0,.327.015c.133-.019.146-.02.04,0-.082.008-.093.013-.033.014l-.373-.1c.065.04.055.029-.036-.032.041.045.044.044.008,0s-.035-.046,0,0,.029.053-.013-.035a.673.673,0,0,0,.729.475.661.661,0,0,0,.576-.652Z" fill="#030504"/><path d="M-12435.932,5197.084q-7.866,16.323-15.272,32.849-1.056,2.364-2.1,4.731-.5,1.126-1,2.254a6.251,6.251,0,0,0-.843,2.5.767.767,0,0,0,1.293.536,4.956,4.956,0,0,0,1.07-1.868q.469-1.074.943-2.144.921-2.087,1.847-4.172,1.828-4.113,3.675-8.216,3.7-8.21,7.429-16.4c1.421-3.106,2.779-6.24,4.2-9.346.382-.831-.837-1.565-1.24-.726Z" fill="#030504"/><path d="M-12539.86,5242.654c-1.782-.416-3.235-2.217-3.939-3.828a13.16,13.16,0,0,1-.854-3.339c-.082-.556-.132-1.115-.184-1.674-.055-.606-.055-1.248-.638-1.592a.542.542,0,0,0-.635.082c-.537.429-.4,1.191-.351,1.8.051.676.121,1.35.218,2.022a12.162,12.162,0,0,0,1.126,3.709,7.364,7.364,0,0,0,2,2.523,6.163,6.163,0,0,0,3,1.235c.6.09.88-.789.258-.934Z" fill="#030504"/><path d="M-12543.567,5232.834c4.33,3.66,9.732,5.488,15.217,6.6a114.184,114.184,0,0,0,19.087,1.947c6.491.2,12.986.071,19.479.065q9.877-.007,19.755.015c7.419.015,14.882-.2,22.29.285,1.446.094,1.439-2.154,0-2.25-6.511-.433-13.039-.243-19.557-.145q-9.814.145-19.63.277c-12.764.155-25.689.584-38.34-1.413-6.168-.973-12.45-2.59-17.563-6.334-.554-.406-1.266.511-.738.957Z" fill="#030504"/><path d="M-12454.954,5238.212a24.054,24.054,0,0,1,3.25-.233c1.123-.006,2.236.136,3.336.216a.992.992,0,0,0,.263-1.941,15.213,15.213,0,0,0-7.223.6.72.72,0,0,0-.491.865.721.721,0,0,0,.865.491Z" fill="#030504"/><path d="M-12692.982,5268.246a14.448,14.448,0,0,0,4.172.9c1.475.188,2.96.305,4.444.357,1.43.05,2.851,0,4.278-.043.7-.022,1.394-.03,2.091.011a7.128,7.128,0,0,0,2.208.017,1.007,1.007,0,0,0,.441-1.671c-1.1-.921-2.8-.8-4.157-.731-1.461.076-2.917.215-4.379.254q-2.167.057-4.328-.085-1.077-.069-2.153-.164a14.2,14.2,0,0,0-2.258-.167c-.633.048-1.056,1-.359,1.325Z" fill="#030504"/><path d="M-12690.774,5275.965a22.649,22.649,0,0,0,5.406.43c1.745.063,3.492.081,5.238.1,3.575.03,7.148-.038,10.723-.135,7.151-.194,14.295-.532,21.438-.889l2.926-.147c.47-.023.948-.077,1.419-.055a3.523,3.523,0,0,0,1.334,0,1.514,1.514,0,0,0,.513-2.718,1.355,1.355,0,0,0-2.026,1.153c.046.432.307.993.809,1.062l.061.008a1.08,1.08,0,0,0,1.307-1.307l-.012-.056-.507,1.244.043-.02-.873.114-.161-.079-.441-.441.034.047-.128-.981.176-.354.6-.349a5.257,5.257,0,0,1-1.672.278l-2.4.13-4.734.255q-4.736.252-9.472.479c-6.315.3-12.632.5-18.952.647-1.746.042-3.492.063-5.238.1a25.946,25.946,0,0,0-5.406.269.638.638,0,0,0,0,1.221Z" fill="#030504"/><path d="M-12330.155,5269.343a6.5,6.5,0,0,0-2.447,4.383,5.1,5.1,0,0,0,3.537,5.154c3.908,1.339,7.815-2.229,7.731-6.115a6.7,6.7,0,0,0-6.84-6.249,6.418,6.418,0,0,0-4.907,2.648,6.045,6.045,0,0,0-1.266,2.924,5.178,5.178,0,0,0,1.332,4.38c1.728,2.04,5.719,1.54,6.87-.885a6.081,6.081,0,0,0,.694-3.013c-.033-.532-.213,1.109-.008.392a1.572,1.572,0,0,1-.44.863c-.254.3-.267.323-.041.077a1.577,1.577,0,0,1-.76.482q-.532.191-.06.047l-.612.089c.327.016.3.007-.064-.025a2.538,2.538,0,0,1-1.205-.546q-.476-.7-.244-.328t-.151-.4l-.059-.574q-.01.491.041-.057.092-.543-.025-.065l.211-.5c-.355.674.6-.572.049-.054a1.925,1.925,0,0,1,2.045-.481l1.091.626q.491.64.251.277c-.245-.482-.16-.222.006.119-.368-.757.31.528-.027.482-.006,0,.224-.745.235-.778a2.971,2.971,0,0,0-1.357-3.335,3.1,3.1,0,0,0-3.579.462Z" fill="#030504"/><path d="M-12321.973,5233.571a4.543,4.543,0,0,0-1.426,1.7,5.515,5.515,0,0,0-.583,2.824,8.21,8.21,0,0,0,1.98,4.737l6.486-3.791c-.414-.577-.646-1.283-1.086-1.837q-.207-.4.063.227c-.061-.156-.114-.314-.159-.475a4.84,4.84,0,0,1-.126-.485q.541,2.28-2.881,3.261l-4.114-5.4a7.3,7.3,0,0,0-.263,2.6,12.818,12.818,0,0,0,.418,1.813c1.106,3.884,6.866,3.951,7.942,0a13.894,13.894,0,0,0,.4-1.813,7.023,7.023,0,0,0-.272-2.6,4.313,4.313,0,0,0-4.113-3.132c-3.894.095-6.083,3.688-5.19,7.308a8.774,8.774,0,0,0,4.24,5.672,3.775,3.775,0,0,0,4.846-.968,3.745,3.745,0,0,0-.293-4.931c-.34-.318-.664-.644-.989-.974-.489-.5.116.285-.292-.355-.041-.065-.465-.922-.219-.341.031.511,0,.313-.1-.595a4.415,4.415,0,0,1-.02.835,2.707,2.707,0,0,0-.7-3.492,2.77,2.77,0,0,0-3.554.211Z" fill="#030504"/><path d="M-12359.6,5251.82c0-.009-.209.163-.214.166-.2,0-.185,0,.055-.006a4.437,4.437,0,0,1,.581,0c-.51-.019.139.013.344.052.814.157.407.248-.231-.914a1.631,1.631,0,0,1,.03-2.482l.137-.15c.208-.134.168-.15-.118-.048-.316.058-.332.072-.049.041a12.07,12.07,0,0,1-3.233.028l2.56.693q1.724,3.381,1.408,1.868-.111-.606.085.437-.189,1.046-.028.452.174-.564-.15.373l-.378.443q.631-.618-.2.079l-.59.208q.913-.24-.334.034l-2.739-.74.3.133-1.949-1.949a3.613,3.613,0,0,1-.263-3.3q.259-.634-.052.039a8.872,8.872,0,0,0-.772,1.88c-.653,2.387.813,5.824,3.53,6.217,2.34.339,4.354.042,6.074-1.759a7.163,7.163,0,0,0,1.837-5.379,6.184,6.184,0,0,0-4.218-5.681,7.284,7.284,0,0,0-5.573.635c-6.192,2.94-7.316,14.282.781,15.37a13.592,13.592,0,0,0,9.012-2.747c2.629-2.145,3.633-6.043,1.387-8.857-3.035-3.8-11.569-2.788-12.358,2.614a2.968,2.968,0,0,0,1.689,3.442,2.912,2.912,0,0,0,3.645-1.194Z" fill="#030504"/><path d="M-12343.723,5205.761c-5.353.091-8.835,6.214-5.629,10.743,2.878,4.067,10.059,5.112,13.007.5a7.114,7.114,0,0,0,.012-7.345c-1.2-2.131-3.386-3.248-5.573-4.087a6.1,6.1,0,0,0-6.943,1.288c-2.328,2.5-2.3,7.585,1.077,9.229a4.337,4.337,0,0,0,6.249-2.543,4.8,4.8,0,0,0,.1-2.677l-.093-.364a1.44,1.44,0,0,1-.116,1.128q-.36,2.331-3.623,2.136l.292.1c.175.08,1.14.611.308.116.319.19.647.335.96.539l-.335-.247q.46.483.1.083a2.77,2.77,0,0,1-.376-1.163q-.035.837.18-.346a1.934,1.934,0,0,1,1.157-1.625l.542-.2c-.39.092-.39.1,0,.028q.6-.07-.024-.056l.57.079c-.144-.186-.766-.077-.941-.276l.445.162q-.642-.384.044.125c.057.117.508,1.125.367.632-.118-.415.007.539-.038.758q-.363.688-.138.282c.148-.254.091-.185-.176.207l-.324.231q.57-.319-.079.025c4.021-1.212,3.378-7.533-1.009-7.458Z" fill="#030504"/><path d="M-12338.609,5182.335a4.693,4.693,0,0,0-1.475,3.6,5.5,5.5,0,0,0,2.73,4.446,7.31,7.31,0,0,0,3.8,1.26,5.394,5.394,0,0,0,4.627-2.587,6.234,6.234,0,0,0-1.011-7.433,7.364,7.364,0,0,0-4.615-1.92,7.951,7.951,0,0,0-3.335.377,5.3,5.3,0,0,0-2.546,1.757,4.463,4.463,0,0,0-1.054,2.97,6.083,6.083,0,0,0,.682,2.568,5.273,5.273,0,0,0,1.817,1.82,5.155,5.155,0,0,0,5.075-.046c2.5-1.491,3.325-5.435.967-7.5l-.061-.053.756.979c-.035-.046-.069-.092-.1-.139l.668,2.47,0-.1-3.6,4.727c.643-.134,1.23-.415,1.888-.5l-1.265.17a4.212,4.212,0,0,1,.628,0l-1.248-.168a3.32,3.32,0,0,1,.612.151l-1.105-.467a1.994,1.994,0,0,1,.371.226l-.928-.717a1.522,1.522,0,0,1,.207.209l-.712-.923a2.337,2.337,0,0,1,.3.51l-.453-1.075a2.614,2.614,0,0,1,.107.421l-.159-1.186a2.163,2.163,0,0,1-.006.413l.158-1.175a1.15,1.15,0,0,1-.072.253l.443-1.05a.937.937,0,0,1-.133.223l.684-.884a.907.907,0,0,1-.194.182l.879-.68-.122.073,1.035-.437a1.209,1.209,0,0,1-.438.121l1.14-.153a2.01,2.01,0,0,1-.463-.017l1.128.151a7.8,7.8,0,0,1-1.3-.333l.974.411a8.652,8.652,0,0,1-.821-.472q-.249-.149.169.138a1.129,1.129,0,0,1,.429.408,1.153,1.153,0,0,1,.347.846q.17,1.021.177.448a3.249,3.249,0,0,0-2.01-2.988,3.345,3.345,0,0,0-3.571.676Z" fill="#030504"/><path d="M-12429.775,5203.648a6.011,6.011,0,0,0-4.047,4.369,6.911,6.911,0,0,0,.771,5.425,7.107,7.107,0,0,0,9.741,2.158,6.974,6.974,0,0,0,3.1-4.179,7.225,7.225,0,0,0-1.742-6.4,6.792,6.792,0,0,0-5.312-2.322c-3.288.121-6.369,3.405-5.187,6.8a4.608,4.608,0,0,0,6.673,2.715,8.3,8.3,0,1,1,.751-.536q-.722.591.165-.108,1.055-.827-.161.153l-1.148.485a1.116,1.116,0,0,1,.43-.1l-1.276.171.247.009-1.273-.171a1.739,1.739,0,0,1,.48.133l-1.142-.482c.768.416-.729-.758-.181-.139l-.469-.585a2.587,2.587,0,0,1,.208.428l-.484-1.149a2.37,2.37,0,0,1,.121.456l-.173-1.28a2.7,2.7,0,0,1-.006.652l.172-1.283a1.65,1.65,0,0,1-.1.34l.487-1.154c-.422.881.547-.586.3-.336-.223.228,1.2-.742.307-.31l1.16-.49a3.341,3.341,0,0,1-.7.2l1.295-.174a3.394,3.394,0,0,1-.546.01l1.3.175a3.126,3.126,0,0,1-.525-.12l1.168.493c-.9-.386.546.558.293.306-.223-.219.709,1.189.29.262l.5,1.175c-.207-.512-.414-1.03-.652-1.529l.492,1.167a3.635,3.635,0,0,1-.205-.756l.17,1.265a7.2,7.2,0,0,1,0-1.161l-.16,1.19a8.791,8.791,0,0,0,.216-1.694,4.278,4.278,0,0,0-5.336-4.065Z" fill="#030504"/><path d="M-12398.342,5175.841c-3.317.935-6.648,3.764-5.512,7.632,1.1,3.736,6.259,5.3,9.755,4.29a5.956,5.956,0,0,0,3.015-9.647c-2.563-3.027-6.949-2.549-9.913-.438a4.369,4.369,0,0,0,1.028,7.866c4.11,1.422,8.615-3.757,5.839-7.477-1.345-1.8-3.615-2.776-5.74-1.5a11.321,11.321,0,0,0-2.133,1.844,3.3,3.3,0,0,0,1.437,5.443,6.544,6.544,0,0,0,1.033.34,8.438,8.438,0,0,0,1.78.191l-4.045-3.08.047.256v-2.262a3.216,3.216,0,0,1,2.031-1.985h2.293l-.254-.065,1.9,7.193c-.571.481.382-.344.523-.31a.714.714,0,0,1-.374.173,1.442,1.442,0,0,1-1.3-.25,2.617,2.617,0,0,1-.314-3.808c-.441.424,1.1-.919,1.323-.543a4.373,4.373,0,0,0-1.314-.328l-.343-.112a1.85,1.85,0,0,1,1.438,1.576l-.01,1.093q-.788,1.1-.3.577c.058,0,.412-.308.714-.5,3.2-1.981,1.163-7.229-2.6-6.169Z" fill="#030504"/><path d="M-12378.149,5207.011c-3.558,1.109-6.187,3.081-7.2,6.844a10.946,10.946,0,0,0,3.556,10.977c3.1,2.692,8.229.967,8.264-3.423a81.41,81.41,0,0,1,.36-9.337h-9.051c.155,3.212-.958,7.067.975,9.877,1.878,2.727,5.967,3.076,7.772,0,1.813-3.093.485-6.525.3-9.877-.264-4.876-7.693-6.411-8.889-1.2a36.425,36.425,0,0,0-1.153,10.54l7.285-4.18c-1.623-1.209-.583-4.332.612-5.341,2.251-1.9-.155-5.714-2.84-4.877Z" fill="#030504"/><path d="M-12416.363,5256.8a5.848,5.848,0,0,1,1.454-.744h-1.4c1.172.161.252.068.256.023q-.256-.253-.056.053c.108.216.115.223.022.019.166.763.242-.209.069.565a1.957,1.957,0,0,1,.4-.964c-.4.606.091-.1.548-.233.647-.195,2.709.853,1.721.136l.451.355a2.209,2.209,0,0,1,.586,2.646,1.886,1.886,0,0,1-.554,1.767,3.24,3.24,0,0,1-2.05.976l-5.068-3.86.069.268c1.314,5,8.6,4.86,9.992,0l.077-.268c.729-2.559-.891-5.95-3.672-6.467a7.147,7.147,0,0,0-7.049,2.18,7.309,7.309,0,0,0-1.1,8.131c2.2,4.523,8.429,5.3,11.9,1.817,3.058-3.069,2.743-7.841.06-11a5.557,5.557,0,0,0-5.074-2.036c-1.731.308-3.248,1.743-4.358,3.048-1.588,1.865.443,5.068,2.769,3.589Z" fill="#030504"/><path d="M-12389.878,5277.08c-3.787,1.944-6.937,7.5-4.595,11.618,1.751,3.074,5.569,3.306,8.08,1.059,1.6-1.432,2.291-3.933,3.173-5.824a4.429,4.429,0,0,0-1.123-5.624c-1.568-1.212-4.355-1.35-5.725.341l-.322.4a4.349,4.349,0,0,0-.653,5.061,4.347,4.347,0,0,0,4.717,1.919l.5-.092-4.924-6.4c-.389.835-.786,1.667-1.18,2.5-.181.379-.354.76-.538,1.136-.875,1.789-.19-.584,2.182-.612l2.208.6-.251-.131,1.566,1.566a1.972,1.972,0,0,1,.179.793,6.963,6.963,0,0,0-.057-.782,5.848,5.848,0,0,1,0-.774c-.064.366-.066.4-.007.112a2.2,2.2,0,0,1,.9-1.5,3.4,3.4,0,0,0,.268-4.478,3.449,3.449,0,0,0-4.4-.878Z" fill="#030504"/><path d="M-12450.164,5294.962c2.134-1.007,4.579,1.972,5.729,3.275l4.761-8.179c-3.6-1.148-7.2-3.159-10.869-1.248a4.539,4.539,0,0,0-1.6,6.108c1.838,3.485,6.39,3.832,9.868,4.577,4.528.97,8.538-4.658,4.762-8.178-4.628-4.314-10.967-7.309-16.99-3.781-4.847,2.838-.6,9.756,4.341,7.426Z" fill="#030504"/><path d="M-12456.6,5253.032c-.55,5.473,7.521,9.179,11.786,6.564a5.43,5.43,0,0,0,.91-8.514,7.171,7.171,0,0,0-4.473-1.886,5.537,5.537,0,0,0-4.929,2.844c-1.38,2.087-.138,5.9,2.553,6.276a9.151,9.151,0,0,0,2.577.155,3.487,3.487,0,0,0,1.743-.556q.725-.412,0,.018h-2.29q-2.583-4.529.044-5.374a.358.358,0,0,1,.268-.024,5.243,5.243,0,0,0-1.043-.251,4.768,4.768,0,0,0-1-.284c.446-.1.619,1.215.6,1.032a3.377,3.377,0,0,0-6.75,0Z" fill="#030504"/><path d="M-12488.378,5266.257a6.157,6.157,0,0,0,3.3,5.751,6.073,6.073,0,0,0,7.724-1.6,5.806,5.806,0,0,0-1.431-8.436,5.567,5.567,0,0,0-4.445-.61,5.1,5.1,0,0,0-3.739,4.774c-.23,3.128,3.737,5.266,6.293,3.612a17.029,17.029,0,0,0,1.364-1.031l-2.251.932a2.812,2.812,0,0,1-2.462-1.413,2.648,2.648,0,0,1-.222-1.792,2.149,2.149,0,0,1,1.243-1.392q.5-.174.046-.035a1.959,1.959,0,0,1,1.2,0c-.675-.17.689.5.079.055q.681.578.237.169l.306.414q-.3-.52.09.288c.045.622.063.728.057.316a3.733,3.733,0,0,0-3.691-3.691,3.8,3.8,0,0,0-3.691,3.691Z" fill="#030504"/><path d="M-12401.145,5298.256c-3.088-.392-5.509,2.768-4.765,5.691a7.468,7.468,0,0,0,5.744,4.988,10.12,10.12,0,0,0,11.705-7.445c.963-3.605-2.451-7.266-6.15-6.15-1.806.545-3.357,1.238-4.245,3.032a4.848,4.848,0,0,0,2.851,7c1.924.619,3.565.039,5.248-.9l-7.344-5.645a4.381,4.381,0,0,1-.229.925.674.674,0,0,1,.313-.545q-.627.593-.081.175-.706.417-.236.133c.417,0,.321,0-.29,0,.4.042.3.019-.3-.068a.4.4,0,0,0,.385.2q-.555-.51.156.321v3.582l.119-.276a3.405,3.405,0,0,0-2.884-5.026Z" fill="#030504"/><path d="M-12349.69,5295.4q.127-.53-.139.156.289-.469-.14.15-1.671.746-.809.489-.983.119-.367.06c1.038-.021-.441-.151-.764-.345q-.82-.709-.357-.258a1.747,1.747,0,0,1-.561-.862q-.224-.6-.068-.127-.119-1.274-.079-.561-.037.736.086-.6-.226.693.23-.549a3,3,0,0,1,1.125-1.119q-.688.375.5-.2a3.722,3.722,0,0,0-1.045.2l1.388-.187a8.783,8.783,0,0,1-1.965,0l1.381.186,1.836,1.054,1.3,2.236-.033-.166v2.673c.093-.573.166-1.15.238-1.726l-.641,2.366q-.713.85-.213.359a4.351,4.351,0,0,0,.9-4.762,4.512,4.512,0,0,0-3.984-2.679c-3.065-.369-6.37,2-6.224,5.282a6.019,6.019,0,0,0,5.944,5.756,9.287,9.287,0,0,0,5.049-1.259,7.265,7.265,0,0,0,3.448-5.788c.13-3.525-2.663-7.126-6.374-7.1a5.8,5.8,0,0,0-4.964,2.645,5.856,5.856,0,0,0-1.132,3.8,3.328,3.328,0,0,0,2.835,3.211,3.235,3.235,0,0,0,3.588-2.342Z" fill="#030504"/><path d="M-12318.555,5306.018l-.032-.067a5.844,5.844,0,0,0-2.087-2.087,5.791,5.791,0,0,0-2.936-.794l-1.546.208a5.812,5.812,0,0,0-2.566,1.5,4.348,4.348,0,0,0-1.2,1.871,4.383,4.383,0,0,0-.5,2.241,5.792,5.792,0,0,0,.794,2.936,5.852,5.852,0,0,0,2.087,2.087l.058.041,1.386.585a4.386,4.386,0,0,0,2.312.1,2.882,2.882,0,0,0,1.463-.4,4.364,4.364,0,0,0,1.866-1.2l.906-1.174.585-1.385a4.39,4.39,0,0,0,.1-2.311,4.313,4.313,0,0,0-.687-2.156Z" fill="#030504"/><path d="M-12393.456,5143.391a5.762,5.762,0,0,0,3.57,8.326,4.708,4.708,0,0,0,4.655-1.309,6.41,6.41,0,0,0,1.437-2.5,7.285,7.285,0,0,0,.213-3.941v2.671a8.326,8.326,0,0,0,.119-2.593,5.8,5.8,0,0,0-2.854-4.348,5.8,5.8,0,0,0-4.322-.566,5.724,5.724,0,0,0-3.353,2.578,5.663,5.663,0,0,0-.565,4.323,5.883,5.883,0,0,0,2.578,3.353,6.969,6.969,0,0,0,3.25.849l-1.428-.191a2.434,2.434,0,0,1,.311.064l-1.221-.514.107.046-1.017-.785a2.031,2.031,0,0,1,.161.193l-.772-1a2.59,2.59,0,0,1,.247.449l-.483-1.143a2.566,2.566,0,0,1,.1.37l-.166-1.241.006.132.166-1.233a2.446,2.446,0,0,1-.1.384l.464-1.1a2.207,2.207,0,0,1-.194.352l3.947-2.264-.155-.006,1.211.163a2.216,2.216,0,0,1-.448-.112l1.08.455c-.486-.23-.986-.428-1.483-.636l1.058.447a2.645,2.645,0,0,1-.373-.235l.868.67a2.5,2.5,0,0,1-.312-.311l.646.836a2.1,2.1,0,0,1-.212-.378l.4.949a1.4,1.4,0,0,1-.073-.282,3.84,3.84,0,0,0-3.215-2.77,3.839,3.839,0,0,0-3.854,1.846Z" fill="#030504"/></g></svg>