<svg xmlns="http://www.w3.org/2000/svg" width="48.779" height="39.551">
    <path
        d="M21.68 4.38q-3.442 1.972-5.566 3.4a25.625 25.625 0 00-4.321 3.759 17.186 17.186 0 00-3.149 4.6 20.932 20.932 0 00-1.538 6.2h3.516a10.6 10.6 0 017.141 2.234q2.6 2.234 2.6 6.555a8.65 8.65 0 01-2.307 5.75 7.929 7.929 0 01-6.342 2.673q-6.3 0-9.009-4.131T0 24.568a18.366 18.366 0 012.051-8.663 30.7 30.7 0 014.98-6.981 35.949 35.949 0 016.372-5.337q3.369-2.193 5.64-3.583zm27.1 0q-3.442 1.972-5.566 3.4a25.624 25.624 0 00-4.321 3.759 16.952 16.952 0 00-3.187 4.629 21.326 21.326 0 00-1.5 6.169h3.516a10.6 10.6 0 017.141 2.234q2.6 2.234 2.6 6.555a8.65 8.65 0 01-2.307 5.75 7.929 7.929 0 01-6.342 2.675q-6.3 0-9.009-4.131T27.1 24.568a18.366 18.366 0 012.051-8.663 30.7 30.7 0 014.98-6.981 35.949 35.949 0 016.372-5.337q3.369-2.193 5.64-3.583z"
        fill="#1d1c1d"/>
</svg>
