<svg xmlns="http://www.w3.org/2000/svg" width="1922" height="35" viewBox="0 0 1922 35">
  <path id="wave-bottom-decoration" d="M-1.35,421l.211,31.642,72.254-5.122,71.115,2.777,71.112,4.833,71.11-2.7,71.107-.831,71.109-4.01,71.11,7.993,71.107-5.567L640,448.965l71.108,6.893,71.1-6.913,71.1,1.874,71.1-2.865,71.107,3.728,71.107,4.063,71.108-4.318,71.106,1.335,71.106,1.212,71.106-6.316,71.106,3.8,71.1.518,71.107,3.048,71.1.971,71.107-3.482,71.1,1.377,71.1-2.83,71.858,1.26L1919.771,421Z" transform="translate(1.35 -421)" fill="#f8f6f4"/>
</svg>
