<?xml version="1.0" encoding="utf-8"?>
<!-- Generator: Adobe Illustrator 23.0.0, SVG Export Plug-In . SVG Version: 6.00 Build 0)  -->
<svg version="1.1" id="f0de0e2b-c8f4-43cf-846a-c1a3046b8dee"
	 xmlns="http://www.w3.org/2000/svg" xmlns:xlink="http://www.w3.org/1999/xlink" x="0px" y="0px" viewBox="0 0 180 140"
	 style="enable-background:new 0 0 180 140;" xml:space="preserve">
<style type="text/css">
	.st0{fill:#E6E6E6;}
	.st1{fill:#CCCCCC;}
	.st2{fill:#FFBF00;}
	.st3{fill:#5300EF;}
	.st4{fill:#1EFFBC;}
	.st5{fill:#FFFFFF;}
	.st6{fill:#6C63FF;}
	.st7{fill:#F58EAB;}
	.st8{fill:#1C50FC;}
	.st9{fill:#0C0710;}
</style>
<path class="st0" d="M47.2,44.1c-0.8,0-1.5,0.7-1.5,1.5c0,0.8,0.7,1.5,1.5,1.5h19.2v-0.7c0-1,0.5-1.9,1.3-2.4H47.2z"/>
<path class="st0" d="M64.6,40.7h-6.5c-0.8,0-1.5-0.7-1.5-1.5c0-0.8,0.7-1.5,1.5-1.5h6.5c0.8,0,1.5,0.7,1.5,1.5
	C66.2,40,65.5,40.7,64.6,40.7z"/>
<path class="st0" d="M50.1,29.8H24.9c-0.8,0-1.5-0.7-1.5-1.5c0-0.8,0.7-1.5,1.5-1.5h25.2c0.8,0,1.5,0.7,1.5,1.5
	C51.6,29.1,50.9,29.8,50.1,29.8z"/>
<path class="st0" d="M39.1,23.3h-3.2c-0.8,0-1.5-0.7-1.5-1.5s0.7-1.5,1.5-1.5h3.2c0.8,0,1.5,0.7,1.5,1.5S39.9,23.3,39.1,23.3z"/>
<path class="st1" d="M66.2,74.8H42.4c-1.8,0-3.2-1.5-3.2-3.2V34c0-1.8,1.5-3.2,3.2-3.2h37.9c1.8,0,3.2,1.5,3.2,3.2v9.3h-0.4V34
	c0-1.6-1.3-2.9-2.9-2.9H42.4c-1.6,0-2.9,1.3-2.9,2.9v37.6c0,1.6,1.3,2.9,2.9,2.9h23.7L66.2,74.8z"/>
<path class="st1" d="M39.4,52.4H22.1c-1.8,0-3.2-1.5-3.2-3.2V18.6c0-1.8,1.5-3.2,3.2-3.2h30.9c1.8,0,3.2,1.5,3.2,3.2V31h-0.4V18.6
	c0-1.6-1.3-2.9-2.9-2.9H22.1c-1.6,0-2.9,1.3-2.9,2.9v30.5c0,1.6,1.3,2.9,2.9,2.9h17.3L39.4,52.4z"/>
<path class="st0" d="M116.6,44.1c0.8,0.5,1.3,1.4,1.3,2.4v0.7h19.2c0.8,0,1.5-0.7,1.5-1.5c0-0.8-0.7-1.5-1.5-1.5H116.6z"/>
<path class="st0" d="M118.1,39.2c0-0.8,0.7-1.5,1.5-1.5h6.5c0.8,0,1.5,0.7,1.5,1.5c0,0.8-0.7,1.5-1.5,1.5h-6.5
	C118.8,40.7,118.1,40,118.1,39.2z"/>
<path class="st0" d="M132.7,28.3c0-0.8,0.7-1.5,1.5-1.5h25.2c0.8,0,1.5,0.7,1.5,1.5c0,0.8-0.7,1.5-1.5,1.5h-25.2
	C133.4,29.8,132.7,29.1,132.7,28.3z"/>
<path class="st0" d="M143.6,21.8c0-0.8,0.7-1.5,1.5-1.5h3.2c0.8,0,1.5,0.7,1.5,1.5s-0.7,1.5-1.5,1.5h-3.2
	C144.3,23.3,143.6,22.6,143.6,21.8z"/>
<path class="st1" d="M118.1,74.8h23.7c1.8,0,3.2-1.5,3.2-3.2V34c0-1.8-1.5-3.2-3.2-3.2h-37.9c-1.8,0-3.2,1.5-3.2,3.2v9.3h0.4V34
	c0-1.6,1.3-2.9,2.9-2.9h37.9c1.6,0,2.9,1.3,2.9,2.9v37.6c0,1.6-1.3,2.9-2.9,2.9h-23.7V74.8z"/>
<path class="st1" d="M144.9,52.4h17.3c1.8,0,3.2-1.5,3.2-3.2V18.6c0-1.8-1.5-3.2-3.2-3.2h-30.9c-1.8,0-3.2,1.5-3.2,3.2V31h0.4V18.6
	c0-1.6,1.3-2.9,2.9-2.9h30.9c1.6,0,2.9,1.3,2.9,2.9v30.5c0,1.6-1.3,2.9-2.9,2.9h-17.3V52.4z"/>
<path class="st2" d="M115,43.3H69.2c-1.8,0-3.2,1.5-3.2,3.2v45.3c0,1.8,1.5,3.2,3.2,3.2H115c1.8,0,3.2-1.5,3.2-3.2V46.5
	C118.2,44.7,116.8,43.3,115,43.3z M117.8,91.8c0,1.6-1.3,2.9-2.9,2.9H69.2c-1.6,0-2.9-1.3-2.9-2.9V46.5c0-1.6,1.3-2.9,2.9-2.9H115
	c1.6,0,2.9,1.3,2.9,2.9V91.8z"/>
<path class="st1" d="M111.4,60.9H72.8c-0.8,0-1.5-0.7-1.5-1.5s0.7-1.5,1.5-1.5h38.5c0.8,0,1.5,0.7,1.5,1.5S112.2,60.9,111.4,60.9z"
	/>
<path class="st3" d="M100.4,54.4H83.8c-0.8,0-1.5-0.7-1.5-1.5s0.7-1.5,1.5-1.5h16.6c0.8,0,1.5,0.7,1.5,1.5S101.2,54.4,100.4,54.4z"
	/>
<path class="st1" d="M89.3,70.1H72.7c-0.8,0-1.5-0.7-1.5-1.5c0-0.8,0.7-1.5,1.5-1.5h16.6c0.8,0,1.5,0.7,1.5,1.5
	C90.9,69.4,90.2,70.1,89.3,70.1z"/>
<path class="st1" d="M89.3,76.8H72.7c-0.8,0-1.5-0.7-1.5-1.5s0.7-1.5,1.5-1.5h16.6c0.8,0,1.5,0.7,1.5,1.5S90.2,76.8,89.3,76.8z"/>
<path class="st1" d="M89.3,83.4H72.7c-0.8,0-1.5-0.7-1.5-1.5s0.7-1.5,1.5-1.5h16.6c0.8,0,1.5,0.7,1.5,1.5S90.2,83.4,89.3,83.4z"/>
<circle id="fc69f6bd-6aec-467a-b158-496b315f473e" class="st4" cx="110" cy="68.5" r="2.8"/>
<path id="f31c0d86-d70b-4e63-97a7-2fc94b4d7c12" class="st5" d="M109.8,69.6c-0.1,0-0.1,0-0.2-0.1l0,0l-0.7-0.5
	c-0.1-0.1-0.2-0.3-0.1-0.4c0.1-0.1,0.3-0.2,0.4-0.1l0.4,0.3l1-1.3c0.1-0.1,0.3-0.2,0.4-0.1l0,0l0,0l0,0l0,0c0.1,0.1,0.2,0.3,0.1,0.4
	l-1.2,1.6C109.9,69.6,109.8,69.6,109.8,69.6L109.8,69.6z"/>
<path class="st1" d="M37.5,11.5c-2.4,0-4.4-2-4.4-4.4s2-4.4,4.4-4.4c2.4,0,4.4,2,4.4,4.4C41.9,9.5,39.9,11.5,37.5,11.5z M37.5,3.1
	c-2.2,0-4,1.8-4,4s1.8,4,4,4c2.2,0,4-1.8,4-4C41.5,4.9,39.7,3.1,37.5,3.1z"/>
<path id="b565f894-1e41-4a11-b880-46bff78dfbdf" class="st1" d="M37.1,8.7c-0.1,0-0.2,0-0.3-0.1l0,0l-1-0.8
	c-0.2-0.1-0.2-0.4-0.1-0.6C35.9,7,36.1,7,36.3,7.2L37,7.7l1.5-2c0.1-0.2,0.4-0.2,0.6-0.1c0,0,0,0,0,0l0,0l0,0l0,0
	c0.2,0.1,0.2,0.4,0.1,0.6l-1.8,2.3C37.3,8.7,37.2,8.7,37.1,8.7L37.1,8.7z"/>
<path class="st1" d="M65.6,27c-2.4,0-4.4-2-4.4-4.4c0-2.4,2-4.4,4.4-4.4c2.4,0,4.4,2,4.4,4.4C70,25,68,27,65.6,27z M65.6,18.5
	c-2.2,0-4,1.8-4,4s1.8,4,4,4c2.2,0,4-1.8,4-4C69.6,20.3,67.8,18.5,65.6,18.5z"/>
<path id="a1067fe6-b388-4736-89af-b6090c7ddfc7" class="st1" d="M65.1,24.2c-0.1,0-0.2,0-0.3-0.1l0,0l-1-0.8
	c-0.2-0.1-0.2-0.4-0.1-0.6c0.1-0.2,0.4-0.2,0.6-0.1l0,0l0.6,0.5l1.5-2c0.1-0.2,0.4-0.2,0.6-0.1c0,0,0,0,0,0l0,0l0,0l0,0
	c0.2,0.1,0.2,0.4,0.1,0.6L65.5,24C65.4,24.1,65.3,24.2,65.1,24.2L65.1,24.2z"/>
<circle id="a6907563-545c-4a91-99f2-6d7f4e57ba01" class="st4" cx="110" cy="75.2" r="2.8"/>
<path id="f071b9ad-7606-418c-8652-2e0910ae4e99" class="st5" d="M109.8,76.3c-0.1,0-0.1,0-0.2-0.1l0,0l-0.7-0.5
	c-0.1-0.1-0.2-0.3-0.1-0.4c0.1-0.1,0.3-0.2,0.4-0.1l0.4,0.3l1-1.3c0.1-0.1,0.3-0.2,0.4-0.1l0,0l0,0l0,0l0,0c0.1,0.1,0.2,0.3,0.1,0.4
	l-1.2,1.6C109.9,76.3,109.8,76.3,109.8,76.3L109.8,76.3z"/>
<circle id="a9a7744d-510c-41c6-a641-cf6a8a976d00" class="st4" cx="110" cy="81.9" r="2.8"/>
<path id="ee4f98ac-d41c-4601-9f0c-7c3b6a7a76ac" class="st5" d="M109.8,83c-0.1,0-0.1,0-0.2-0.1l0,0l-0.7-0.5
	c-0.1-0.1-0.2-0.3-0.1-0.4c0.1-0.1,0.3-0.2,0.4-0.1l0.4,0.3l1-1.3c0.1-0.1,0.3-0.2,0.4-0.1l0,0l0,0l0,0l0,0c0.1,0.1,0.2,0.3,0.1,0.4
	l-1.2,1.6C109.9,83,109.8,83,109.8,83L109.8,83z"/>
<path class="st6" d="M92.1,39.4c-3-0.1-4.4-2.3-4.4-4.4c0-2.1,1.4-4.4,4.4-4.4h0c3,0.1,4.4,2.3,4.4,4.4S95.1,39.3,92.1,39.4z
	 M92.1,30.9c-2.7,0-4,2.1-4,4c0,1.9,1.2,4,4,4c2.7,0,4-2.1,4-4C96.1,33,94.8,31,92.1,30.9z"/>
<path class="st6" d="M93.1,35.2c0.8,1.3-1.3,1.9-2.1,1l0.2-0.4c1.3,1.1,2.5-0.8,0.5-0.6v-0.5c1.8,0.1,0.8-1.7-0.4-0.6L91,33.7
	c1-1,3.2,0.2,1.6,1.2C92.8,35,93,35.1,93.1,35.2z"/>
<path class="st1" d="M119,27c-2.4,0-4.4-2-4.4-4.4s2-4.4,4.4-4.4c2.4,0,4.4,2,4.4,4.4C123.4,25,121.4,27,119,27z M119,18.5
	c-2.2,0-4,1.8-4,4s1.8,4,4,4c2.2,0,4-1.8,4-4C123,20.3,121.2,18.5,119,18.5z"/>
<path class="st1" d="M120.2,23.6h-0.5v0.6h-0.6v-0.6h-1.4v-0.4l1.5-2.2h0.5v2.2h0.5V23.6z M119.2,23.1v-1.2l-0.9,1.2H119.2z"/>
<path class="st1" d="M146.8,11.5c-2.4,0-4.4-2-4.4-4.4c0-2.4,2-4.4,4.4-4.4s4.4,2,4.4,4.4C151.2,9.5,149.2,11.5,146.8,11.5z
	 M146.8,3.1c-2.2,0-4,1.8-4,4c0,2.2,1.8,4,4,4c2.2,0,4-1.8,4-4C150.8,4.9,149,3.1,146.8,3.1z"/>
<path class="st1" d="M147.4,6.8c0.2,0.1,0.3,0.2,0.4,0.4c0.1,0.2,0.1,0.4,0.1,0.5c0,0.2,0,0.4-0.1,0.6c-0.1,0.2-0.2,0.3-0.4,0.4
	c-0.2,0.1-0.4,0.1-0.6,0.1c-0.2,0-0.4,0-0.6-0.1c-0.2-0.1-0.3-0.2-0.5-0.3l0.2-0.4c0.3,0.2,0.6,0.3,0.9,0.3c0.2,0,0.3,0,0.5-0.2
	c0.2-0.2,0.2-0.6,0-0.9c-0.1-0.1-0.3-0.2-0.4-0.2c-0.1,0-0.2,0-0.4,0.1c-0.1,0-0.2,0.1-0.3,0.2h-0.4V5.4h2v0.5h-1.5v0.9
	c0.2-0.1,0.4-0.2,0.6-0.2C147.1,6.6,147.3,6.7,147.4,6.8z"/>
<path class="st7" d="M42.8,102.1c-0.4-1,0-2.1,1-2.5c0.1,0,0.2-0.1,0.3-0.1l0.6-6.8l2.8,2.2l-1,6.1c0.2,1-0.5,2.1-1.5,2.2
	C44.1,103.3,43.2,102.9,42.8,102.1L42.8,102.1z"/>
<path class="st8" d="M44.6,98.7c-0.4-0.1-0.7-0.4-0.7-0.8l-0.3-7.7c-0.1-2.8,0.4-5.5,1.6-8l2.9-6c0.4-0.7,1.1-1.2,1.9-1.3
	c0.8-0.1,1.6,0.2,2.1,0.8c0.1,0.1,0.3,0.3,0.4,0.5c0.4,0.7,0.5,1.6,0.1,2.3l-4.4,12l-0.3,7.8c0,0.5-0.4,0.8-0.9,0.8c0,0,0,0-0.1,0
	L44.6,98.7L44.6,98.7z"/>
<polygon class="st7" points="36.4,132.4 38.6,133.3 43.2,125.5 40,124.1 "/>
<path class="st9" d="M36.2,131.5l4.2,1.9l0,0c1.5,0.7,2.2,2.4,1.5,3.9c0,0,0,0,0,0l0,0.1l-6.9-3L36.2,131.5z"/>
<polygon class="st7" points="65.2,135 67.5,135 68.6,126 65.2,126 "/>
<path class="st9" d="M64.6,134.2l4.6,0h0c1.6,0,2.9,1.3,2.9,2.9c0,0,0,0,0,0v0.1l-7.5,0L64.6,134.2z"/>
<path class="st9" d="M41.6,132.4c-0.1,0-0.2,0-0.3,0l-4-1.3c-0.4-0.1-0.7-0.6-0.6-1.1L50,88.2l9.9-1.9l0,0.1
	c6.5,10.6,8.7,26.8,10.1,44c0,0.5-0.3,0.9-0.8,0.9l-4.3,0.4c-0.4,0-0.8-0.2-0.9-0.6L56,102.9c0-0.2-0.2-0.2-0.4-0.2
	c-0.1,0-0.2,0.1-0.2,0.2l-13,29.1C42.3,132.2,42,132.4,41.6,132.4z"/>
<circle class="st7" cx="55.1" cy="66.7" r="4.7"/>
<path class="st8" d="M49.1,89.4L49.1,89.4c-0.1-0.1-2.2-4.7-2-10c0.1-3.6,3.1-6.5,6.7-6.5l0,0c3.3-0.1,6.2,2.3,6.8,5.5
	c0.6,3.1,0.6,6,0,8.6l0,0.1l-0.1,0L49.1,89.4z"/>
<path class="st7" d="M73,96c-1-0.2-1.8-1.1-1.6-2.2c0-0.1,0-0.2,0.1-0.3l-5.4-4.2l3.4-1.2l4.6,4.1c1,0.4,1.5,1.5,1.1,2.5
	C74.8,95.7,73.9,96.1,73,96z"/>
<path class="st8" d="M59.8,86.8L59.8,86.8l-5.7-9.2c-0.4-0.7-0.4-1.6-0.1-2.3c0.3-0.7,1-1.2,1.8-1.4l0,0c0.2,0,0.4-0.1,0.6-0.1
	c0.8,0,1.6,0.5,2,1.2l7.7,10.2l6.4,4.5c0.4,0.3,0.5,0.8,0.2,1.2c0,0,0,0,0,0.1l-1.5,1.8c-0.3,0.3-0.7,0.4-1.1,0.2L59.8,86.8z"/>
<path class="st9" d="M54.2,66.4c0.3-0.6,1.1-0.7,1.8-0.7s1.3,0.3,2,0.3c1.8,0,3.3-2.3,2.5-3.9c-0.6-1.4-2.2-2-3.7-2.5
	c-3-1-6.5-1.9-9.2-0.3c-1.8,1.1-2.8,3-2.8,5.1c0.1,1.3,0.5,2.6,0.1,3.8c-0.5,1.4-2,2.1-3.4,2.5c-2.5,0.6-5.1,0.5-7.6,1.1
	c-2.5,0.6-5.1,2.1-5.7,4.5c-0.4,1.6,0,3.4,0.8,4.9c3.2,6.2,10.8,8.7,17,5.5c0.2-0.1,0.4-0.2,0.6-0.3c3-1.8,5.2-4.8,6.5-8
	c0.7-1.9,1.3-3.9,1.5-5.9c0.3-1.9,0-3.8-0.5-5.6C54.1,66.7,54.2,66.5,54.2,66.4z"/>
<path class="st9" d="M87.4,137.3H14.7c-0.1,0-0.2-0.1-0.2-0.2c0-0.1,0.1-0.2,0.2-0.2h72.7c0.1,0,0.2,0.1,0.2,0.2
	C87.6,137.2,87.5,137.3,87.4,137.3z"/>
</svg>
