<svg xmlns="http://www.w3.org/2000/svg" width="480" height="245" viewBox="0 0 480 245"><g transform="translate(0.041)"><path d="M219.093,204.421a13.389,13.389,0,0,0,3.393,1.794q1.833.854,3.659,1.739c2.531,1.222,5.046,2.468,7.506,3.808a118.467,118.467,0,0,1,15.505,10.06c3.44,2.633,6.769,5.4,10.107,8.164.3.243.713-.149.431-.439-9.12-9.277-20.316-16.54-32.069-22.048-1.426-.666-2.86-1.308-4.3-1.943a16.175,16.175,0,0,0-4.066-1.567.235.235,0,0,0-.165.392Z" transform="translate(-47.412 -46.095)"/><path d="M242.613,86.265a5.336,5.336,0,0,0-1.943,1.567c-.564.689-1.113,1.387-1.63,2.115a25.565,25.565,0,0,0-2.625,4.7.392.392,0,0,0,.235.572,16.365,16.365,0,0,0,1.677.588,2.75,2.75,0,0,0,1.567.235.306.306,0,0,0,.125-.494c-.353-.353-1-.376-1.473-.517a17.7,17.7,0,0,1-1.685-.564l.274.478a26.56,26.56,0,0,1,2.35-4.474c.47-.705.94-1.4,1.465-2.068a5.8,5.8,0,0,1,1.888-1.763c.274-.133,0-.525-.243-.407Z" transform="translate(-51.164 -19.425)"/><path d="M244.311,111.157a6.323,6.323,0,0,1,0-2.139,3.134,3.134,0,0,0-.588-1.747,2.648,2.648,0,0,0-1.661-.674,4.372,4.372,0,0,1-2.17-.862,6.2,6.2,0,0,1-1.449-3.51,11.941,11.941,0,0,1-.141-2.3c0-.705.212-1.426.188-2.123,0-.274-.415-.423-.548-.149a4.936,4.936,0,0,0-.345,1.967,13.406,13.406,0,0,0,.11,2.35,8.407,8.407,0,0,0,1.23,3.6,4.522,4.522,0,0,0,3.259,1.661c.517.094.956.133,1.269.611a3.134,3.134,0,0,1,.4,1.434,5.72,5.72,0,0,0,.188,2.045c.078.165.368.047.3-.125Z" transform="translate(-51.428 -21.985)"/><path d="M256.269,110.98A10.467,10.467,0,0,1,252.7,113.2c-.713.321-1.426.627-2.147.932a12.239,12.239,0,0,0-1.747.823c-.133.078-.047.313.11.259,1.371-.478,2.734-1.05,4.066-1.645a9.669,9.669,0,0,0,3.588-2.288C256.747,111.066,256.449,110.768,256.269,110.98Z" transform="translate(-53.842 -24.967)"/><path d="M258.1,111.364c.055.2.141.4.212.588s.157.392.212.6l.556-.329c-.18-.18-.376-.36-.572-.541a.36.36,0,0,0-.494,0l-.384.376.6.345v-.141a.341.341,0,0,0-.619-.266l-.094.219a.36.36,0,0,0,.165.4.353.353,0,0,0,.431-.055l.376-.376h-.494c.2.172.392.353.6.517a.346.346,0,0,0,.525-.431.413.413,0,0,1-.047-.078h0l-.063-.157-.11-.274c-.094-.212-.165-.431-.274-.635a.3.3,0,0,0-.368-.118.29.29,0,0,0-.164.345Z" transform="translate(-55.74 -24.974)"/><path d="M248.456,92.463a3.2,3.2,0,0,0-.572.854c-.149.274-.3.541-.447.784s-.274.533-.4.784a2.531,2.531,0,0,0-.3.909.227.227,0,0,0,.423.118,2.4,2.4,0,0,0,.157-.454c.047-.133.094-.266.149-.392.118-.282.251-.556.384-.823s.29-.556.439-.838a3.134,3.134,0,0,0,.368-.893.125.125,0,0,0-.2-.118Z" transform="translate(-53.41 -20.791)"/><path d="M245.849,96.294c-.783-.29-1.567-.415-2.3-.7a21.666,21.666,0,0,1-1.959-.932c-.18-.086-.439.11-.3.3a2.037,2.037,0,0,0,.862.6c.384.188.783.36,1.191.517a9,9,0,0,0,1,.29,5.571,5.571,0,0,0,1.465.282.18.18,0,0,0,.047-.353Z" transform="translate(-52.221 -21.298)"/><path d="M247.187,91.455a23.411,23.411,0,0,0-3.2-1.567.259.259,0,0,0-.29,0,6.769,6.769,0,0,0-2.515,3.823c-.086.36.486.525.572.149a6.1,6.1,0,0,1,2.233-3.471h-.29a12.16,12.16,0,0,0,3.408,1.3.118.118,0,0,0,.086-.219Z" transform="translate(-52.204 -20.225)"/><path d="M242.031,92.019a.321.321,0,0,0,.133-.118.4.4,0,0,0,.047-.212.635.635,0,0,0-.1-.376,1.411,1.411,0,0,0-.611-.431,2.132,2.132,0,0,0-.392-.149,1.309,1.309,0,0,0-.462,0,1.669,1.669,0,0,0-.783.313.353.353,0,0,0-.055.431.368.368,0,0,0,.4.165,1.817,1.817,0,0,0,.306-.141h.078l.141-.047h.055a.666.666,0,0,1,.125,0h.063l.149.047h.313l.086.086h0v.055h0V91.7a.462.462,0,0,0,.086.149l-.047-.086h0a.18.18,0,0,0,.259.1Z" transform="translate(-51.898 -20.412)"/><path d="M240.495,88.582a2.241,2.241,0,0,0-.893-.392l-1-.321a.274.274,0,0,0-.266.1,30.615,30.615,0,0,0-2.241,3.306.478.478,0,0,0,.141.784c.165.086.345.133.509.219a1.841,1.841,0,0,0,1.269.36.306.306,0,0,0,.07-.541,2.648,2.648,0,0,0-1-.353,3.539,3.539,0,0,1-.486-.157h-.07v.047c0,.047,0,.071.047,0a1.387,1.387,0,0,0,.266-.368,21.284,21.284,0,0,1,1.9-2.86l-.274.071c.329.11.658.219,1,.313a1.967,1.967,0,0,0,.972.141.172.172,0,0,0,.07-.29Z" transform="translate(-51.075 -19.781)"/><path d="M244.973,93.453h-.086a.118.118,0,0,0,.039.047h-.039v-.055a.283.283,0,0,0,0,.071v-.063a.2.2,0,0,1,0,.055v-.071a.352.352,0,0,0,0,.149v-.071a.109.109,0,0,1,0,.055v-.078a.61.61,0,0,0,0,.11v-.11h0v-.071h0l.047-.055h0L245,93.32h.016l.063.047h-.039l.047.063v.039a.086.086,0,0,1,0-.063v.078l.039-.071-.047.063.055-.055-.063.047h-.031l-.071-.047.055.047-.055-.063v-.047a.11.11,0,0,1,0,.047v-.219h0l.055-.071-.063.078v.094h0V93.2h0l.047-.071h0l.07-.047h.306l.063.047h0l.047.055h0a.408.408,0,0,0-.078-.086.243.243,0,0,0-.1-.047h-.078a.36.36,0,0,0-.157,0,.321.321,0,0,0-.11.439.376.376,0,0,0,.313.18.368.368,0,0,0,.36-.3.509.509,0,0,0,0-.266.564.564,0,0,0-.133-.227.337.337,0,0,0-.1-.071.54.54,0,0,0-.117-.055.58.58,0,0,0-.259,0,.651.651,0,0,0-.172.063h.071a.564.564,0,0,0-.251.157.721.721,0,0,0-.141.251.541.541,0,0,0,.125.525.611.611,0,0,0,.235.141.54.54,0,0,0,.274,0,.345.345,0,0,0,.125-.047h0l.078-.063a.447.447,0,0,0,0-.635.376.376,0,0,0-.172-.094.462.462,0,0,0-.18,0h.055a.22.22,0,0,0-.118,0h.055a.306.306,0,0,0-.149.094.125.125,0,0,0,0,.071.17.17,0,0,0,.11.2Z" transform="translate(-52.928 -20.868)"/><path d="M239.873,90.671a.486.486,0,0,0-.07-.227.666.666,0,0,0-.353-.266.643.643,0,0,0-.212,0,.846.846,0,0,0-.274.078.682.682,0,0,0-.2.149,1.27,1.27,0,0,0-.259.431l.039-.078a.641.641,0,0,0-.078.2h.705v.078a.321.321,0,0,1,.055-.086l-.063.078a.369.369,0,0,1,.078-.078l-.078.063a.965.965,0,0,1,.2-.11h-.094a.549.549,0,0,1,.149-.047h-.165l-.1-.039h0l-.078-.063h0l-.063-.078h0l-.039-.1a.683.683,0,0,0,.055.133l-.047-.094v-.18l.039-.094v.2a.415.415,0,0,0,.078.227.462.462,0,0,0,.157.118.321.321,0,0,0,.243,0,.447.447,0,0,0,.321-.329.509.509,0,0,0-.055-.353.517.517,0,0,0-.172-.172.533.533,0,0,0-.439-.055.784.784,0,0,0-.251.11.878.878,0,0,0-.384.353.7.7,0,0,0,0,.658l.063.071a.243.243,0,0,0,.118.078.345.345,0,0,0,.235,0,.353.353,0,0,0,.165-.094.407.407,0,0,0,.11-.259v-.039a1.957,1.957,0,0,1,.055-.2v.078a.682.682,0,0,1,.086-.141l-.055.063.086-.086-.063.055a.369.369,0,0,1,.07-.047h-.07a.219.219,0,0,1,.1,0h.023a.235.235,0,0,0,.259.172.227.227,0,0,0,.2-.235Z" transform="translate(-51.612 -20.24)"/><path d="M240.1,101.88a1.693,1.693,0,0,0-.125.925,1.465,1.465,0,0,0,.368.783,1.7,1.7,0,0,0,1.794.392,4.7,4.7,0,0,0,1.763-1.144,1.567,1.567,0,0,0,.517-1.826.29.29,0,0,0-.4-.1,5.218,5.218,0,0,1-1.951.447c-.494,0-1.144.172-1.528-.212l-.165.611a.572.572,0,0,0,.227-.118.259.259,0,0,0,.07-.266.517.517,0,0,0-.133-.227c-.313-.36-.831.165-.517.517a2.155,2.155,0,0,0,1.974.384,6.472,6.472,0,0,0,2.35-.635l-.4-.1a.713.713,0,0,1-.149.619,2.124,2.124,0,0,1-.462.494,4.247,4.247,0,0,1-1.293.862,1.269,1.269,0,0,1-1.214-.118,1.332,1.332,0,0,1-.439-1.207.134.134,0,1,0-.259-.071Z" transform="translate(-51.935 -22.703)"/><path d="M253.363,98.864a5.96,5.96,0,0,1,1.113-.682,2.922,2.922,0,0,1,1.269-.384.666.666,0,0,1,.689.588,2.351,2.351,0,0,1-.462,1.152,8.565,8.565,0,0,1-.784,1.073,2.436,2.436,0,0,1-.9.784,3.73,3.73,0,0,1-1.316.165,1.684,1.684,0,0,1-.956-.2.2.2,0,0,0-.3.235c.259.744,1.348.682,1.99.627a2.531,2.531,0,0,0,1.261-.384,4.027,4.027,0,0,0,.9-.885,5.226,5.226,0,0,0,1.246-2.35,1.2,1.2,0,0,0-.4-1.1,1.426,1.426,0,0,0-1.12-.274,3.988,3.988,0,0,0-2.437,1.465.127.127,0,1,0,.18.18Z" transform="translate(-54.485 -21.887)"/><path d="M264.928,153.394c1.246-2.155,1.12-4.991.972-7.381a84.766,84.766,0,0,0-1.355-9.919c-.548-2.993-1.167-5.978-1.637-8.987a33.607,33.607,0,0,0-3.04-8.618c-.235-.494-.47-1-.713-1.489-.055-.11-.125-.219-.172-.337.071.157,0,.29.078,0a4.952,4.952,0,0,0-.525-4.286.321.321,0,0,0-.36-.141,60.548,60.548,0,0,1-9.159,2.468,5.14,5.14,0,0,0-2.977,1.457,3.463,3.463,0,0,0-.313,3.134c.07.259.462.149.407-.118-.251-1.191-.259-2.445.878-3.134a10.186,10.186,0,0,1,3.682-1.05,38.6,38.6,0,0,0,7.647-2.076l-.36-.149c.948,1.277.447,2.531.376,3.917a3.44,3.44,0,0,0,.533,1.379,41.116,41.116,0,0,1,3.134,8.188c.635,2.711.979,5.484,1.512,8.242.627,3.291,1.246,6.589,1.567,9.919.274,2.742.674,6.174-.611,8.736a.251.251,0,0,0,.431.251Z" transform="translate(-53.138 -25.437)"/><path d="M239.276,146.488a73.784,73.784,0,0,0-.556,8.822c.063,1.92.431,4.192,1.779,5.657a.337.337,0,0,0,.556-.321c-.282-.932-.721-1.8-.964-2.758a13.727,13.727,0,0,1-.384-2.883c-.11-2.828.165-5.688.251-8.517A.341.341,0,0,0,239.276,146.488Z" transform="translate(-51.674 -32.96)"/><path d="M258.688,195.806c-.047-5.163.783-14.1.783-19.721a2.648,2.648,0,0,1-4.646-.235,33.087,33.087,0,0,1-3.267-7.874l-1.293.509c-.846.313-1.716.541-2.562.838a7.349,7.349,0,0,1-3.134.58c-2.115-.188-3.048-2.39-3.98-4l-.431-.783a17.265,17.265,0,0,1-1.873-.086c-1.512,2.625-12.536,24.853-12.129,51.1,0,0,2.484.447,4.5.588s6.683-.063,6.683-.063c-.329-4.121,5.007-29.209,7.467-33.165.274,3.847.462,11.235.572,12.262,0,0,9.441,24.853,11.752,27.258a13.32,13.32,0,0,0,4.779-1.92,15.819,15.819,0,0,0,4.7-4.92ZM244.663,180.59v.086a.228.228,0,0,1,0-.086Z" transform="translate(-48.951 -37.554)"/><path d="M236.964,230.8a57.2,57.2,0,0,1,0,7.145l.783-.313c-.133-.141-.11-.29-.149-.462a.3.3,0,0,0-.439-.18c-.5.235-.36.948,0,1.269a.454.454,0,0,0,.784-.313,31.42,31.42,0,0,0-.345-7.224.282.282,0,0,0-.556.078Z" transform="translate(-51.266 -51.92)"/><path d="M231.966,238.822c-4.16-.525-8.415-.376-12.6-.736a51.714,51.714,0,0,1-5.257-.635A9.723,9.723,0,0,1,210.043,236c-.533-.407-1.058.494-.525.893a9.99,9.99,0,0,0,4.09,1.434,42.623,42.623,0,0,0,5.273.619c1.567.094,3.173.165,4.756.2,2.781.063,5.555-.188,8.329.055.266,0,.259-.384,0-.415Z" transform="translate(-45.305 -53.097)"/><path d="M274.46,244.011a31.812,31.812,0,0,0,3.565-3.847c.517-.682,1-1.395,1.442-2.123.251-.407.494-.831.736-1.246s.329-.486.212-.83a5.623,5.623,0,0,0-.666-1.2,10.969,10.969,0,0,0-1.779-2.115,18.548,18.548,0,0,0-2.4-1.818,5.325,5.325,0,0,0-.784-.47c-.11-.055-.721-.29-.345-.094-.454-.235-.854.447-.4.682-.172-.086-.157-.125-.039,0a1.675,1.675,0,0,0,.251.219c.212.157.447.282.674.423a17.86,17.86,0,0,1,2.46,1.8,9.653,9.653,0,0,1,2.288,3.009v-.431a29.633,29.633,0,0,1-2.468,4.012,31.406,31.406,0,0,1-3.228,3.541c-.313.306.165.784.478.486Z" transform="translate(-59.276 -51.902)"/><path d="M270.18,247.293a3.424,3.424,0,0,0-2.5-.588c-1.152.047-2.3.141-3.455.18-2.076.063-4.325.259-6.268-.572-.18-.078-.431.047-.36.274a1.183,1.183,0,0,0,.642.854,3.973,3.973,0,0,0,1.3.36,25.073,25.073,0,0,0,3.432.086c1.12,0,2.241-.086,3.361-.165.611-.039,1.23-.1,1.841-.157a2.727,2.727,0,0,1,1.645.18c.274.165.619-.243.353-.454Z" transform="translate(-55.757 -55.422)"/><path d="M258.182,243.864a2.413,2.413,0,0,1,.541-2.147,3.831,3.831,0,0,1,2.053-.846,51.842,51.842,0,0,1,5.735-.227.478.478,0,0,0,.454-.588c-.235-1.457-.525-2.9-.783-4.348-.11-.588-1-.337-.893.251-.047-.243,0,0,0,.094a2.811,2.811,0,0,0,.094.572l.274,1.5c.133.729.259,1.449.4,2.17l.447-.588c-2.108.18-4.3,0-6.362.556a3.706,3.706,0,0,0-2.076,1.214,3.189,3.189,0,0,0-.431,2.531c.063.36.588.2.541-.149Z" transform="translate(-55.747 -53.026)"/><path d="M208.695,235.068c1.144-.039,1.865-.979,2.562-1.771a5.759,5.759,0,0,1,3.134-1.967,8,8,0,0,1,3.847.165,11.425,11.425,0,0,1,2.053.783,8.54,8.54,0,0,0,1.92.979.541.541,0,0,0,.611-.783c-.736-1.175-2.633-1.763-3.917-2.1a10.35,10.35,0,0,0-4.215-.282,6.268,6.268,0,0,0-3.471,1.63c-.47.462-.862,1-1.293,1.489a11.574,11.574,0,0,1-1.449,1.324.313.313,0,0,0,.219.533Z" transform="translate(-45.109 -51.782)"/><path d="M228.769,229.177a1.833,1.833,0,0,1-.133,1c-.086.157-.188.306-.282.462a1.183,1.183,0,0,1-.141.2l-.055.071-.086.094-.2.188-.11.094c-.1.086.078-.047,0,0a3.46,3.46,0,0,1-.47.266c-.086.047.071,0-.047,0l-.141.047-.235.055h-.165a.783.783,0,0,0-.415.141.415.415,0,0,0-.086.65.736.736,0,0,0,.5.2,2.9,2.9,0,0,0,.376,0,2.608,2.608,0,0,0,.674-.219,2.985,2.985,0,0,0,1.034-.783,2.57,2.57,0,0,0,.6-1.238,3.134,3.134,0,0,0-.055-1.316c-.078-.266-.541-.227-.5.071Z" transform="translate(-48.94 -51.528)"/><path d="M257.6,246.087A14.462,14.462,0,0,0,258.93,244a5.994,5.994,0,0,1,1.567-1.794,4.5,4.5,0,0,1,2.421-.783h1.434a8.888,8.888,0,0,0,1.512-.125.58.58,0,0,0,.133-1.058,3.618,3.618,0,0,0-.784-.243c-.266-.047-.525-.133-.783-.172a7.5,7.5,0,0,0-1.677,0,5.939,5.939,0,0,0-2.977,1.113,7,7,0,0,0-1.8,2.17,7.129,7.129,0,0,0-.964,2.7.368.368,0,0,0,.619.251Z" transform="translate(-55.632 -53.997)"/><path d="M269.689,242.771h.133l-.447-.447v.055a.9.9,0,0,0,.36.47.784.784,0,0,0,.6.078l.157-.055h.078a.783.783,0,0,0,.3-.172l.11-.141.071-.165-.58.439h.212a.321.321,0,0,0,.149,0,.29.29,0,0,0,.133-.078l.071-.055h0l.078-.1a.375.375,0,0,0,.055-.188.2.2,0,0,0,0-.133.376.376,0,0,0-.055-.18h0l-.094-.118a.353.353,0,0,0-.188-.125.87.87,0,0,0-.2-.055l.439.58a.729.729,0,0,0-.086-.345l-.11-.141-.133-.1-.071-.047-.141-.086a.666.666,0,0,0-.3-.094.58.58,0,0,0-.306,0,.783.783,0,0,0-.47.36v.055l.548-.313h-.172a.65.65,0,0,0-.439.18l-.094.125a.407.407,0,0,0-.071.227.291.291,0,0,0,0,.165.407.407,0,0,0,.071.227.666.666,0,0,0,.368.282Z" transform="translate(-58.274 -54.352)"/><path d="M272.47,240.654l.047-.1a1.572,1.572,0,0,0,.11-.266.784.784,0,0,0,0-.376.572.572,0,0,0-.125-.235.61.61,0,0,0-.2-.18.706.706,0,0,0-.36-.094,1.771,1.771,0,0,0-.4.063.885.885,0,0,0-.353.2.846.846,0,0,0-.212.36.783.783,0,0,0,0,.431.524.524,0,0,0,.149.274.54.54,0,0,0,.227.212.8.8,0,0,0,1.081-.29Z" transform="translate(-58.65 -53.871)"/><path d="M271.743,237.247v-.008a.874.874,0,0,0,0-.133V237l-.094-.141-.11-.141a.7.7,0,0,0-.149-.118l.321.564a.523.523,0,0,1,0-.157v.086h0a.705.705,0,0,0,0-.313v.149a.173.173,0,0,0,0-.063.432.432,0,0,0,0-.141.494.494,0,0,0-.329-.337.7.7,0,0,0-.36,0,.736.736,0,0,0-.337.227l-.133.172-.047.063.564-.321h-.2a.784.784,0,0,0-.306.18.659.659,0,0,0-.18.321.347.347,0,0,0,0,.078,1.642,1.642,0,0,0,0,.337.643.643,0,0,0,.1.36l.11.149a.7.7,0,0,0,.313.18.517.517,0,0,0,.29,0,.486.486,0,0,0,.266-.086.54.54,0,0,0,.2-.18.572.572,0,0,0,.133-.243.784.784,0,0,0,0-.384Z" transform="translate(-58.526 -53.191)"/><path d="M232.764,230.463h-.094l-.149-.063h.063l-.125-.094h0l-.165-.274h0v-.165h0V229.7h0a.447.447,0,0,0,0,.266.2.2,0,0,0,0,.094l.071.157h0l-.063-.157a.35.35,0,0,1,0,.039.682.682,0,0,0,.18.3l.133.11a.674.674,0,0,0,.345.094.485.485,0,0,0,.259-.063.415.415,0,0,0,.219-.141.447.447,0,0,0,.141-.219.486.486,0,0,0,.063-.259.674.674,0,0,0-.094-.345,1.5,1.5,0,0,0-.125-.164h0l-.133-.1-.078-.039a.329.329,0,0,0-.172,0,.447.447,0,0,0-.266,0h.172l.313.086h0l-.157-.07h-.376a.368.368,0,0,0-.133,0,.454.454,0,0,0-.2.1.6.6,0,0,0-.149.165l-.063.141a.478.478,0,0,0,0,.235.322.322,0,0,0,.039.149.423.423,0,0,0,.125.188l.118.094a.548.548,0,0,0,.3.078Z" transform="translate(-50.255 -51.584)"/><path d="M230.976,232.07v.11h0a.931.931,0,0,0-.063.157.533.533,0,0,0,0,.313l.055.141a.682.682,0,0,0,.212.212.556.556,0,0,0,.219.071.478.478,0,0,0,.235,0,.431.431,0,0,0,.2-.1.4.4,0,0,0,.157-.165.588.588,0,0,0,.078-.3,1.142,1.142,0,0,0,0-.172V232.2l-.055-.133-.086-.1-.1-.086a.392.392,0,0,0-.2-.063.6.6,0,0,0-.392.1.407.407,0,0,0-.133.149Z" transform="translate(-49.98 -52.162)"/><path d="M229.738,234v-.063h0l-.086-.118a.36.36,0,0,0-.165-.1.431.431,0,0,0-.392,0,.345.345,0,0,0-.157.1l-.078.1a.494.494,0,0,0-.071.259v.133a.486.486,0,0,0,.133.219h0l.055.055a.415.415,0,0,0,.157.1.47.47,0,0,0,.188.039h.125a.415.415,0,0,0,.165-.086.3.3,0,0,0,.086-.086.337.337,0,0,0,.086-.165v-.133a.454.454,0,0,0-.063-.243Z" transform="translate(-49.525 -52.577)"/><path d="M224.932,232.921h0l.133.055h-.071l.118.086h-.039a.541.541,0,0,0-.266-.157h0l.133.063-.078-.047.11.078a.266.266,0,0,1-.071-.063l.078.1a.47.47,0,0,1-.047-.086l.047.117-.071-.172.047.11v-.172l-.071-.078-.039-.039a.4.4,0,0,0-.141-.071h-.055a.149.149,0,0,0-.118,0h-.11a.376.376,0,0,0-.133.094h0a1.339,1.339,0,0,1-.086.11h0s-.047.1-.055.118h0a.6.6,0,0,0,0,.165.268.268,0,0,0,0,.078v.172h0a.783.783,0,0,0,.07.165.172.172,0,0,0,.039.063,1.124,1.124,0,0,0,.086.118l.071.055.055.047.141.055h.2a.454.454,0,0,0,.2-.047.384.384,0,0,0,.18-.11l.086-.11a.392.392,0,0,0,.063-.2.243.243,0,0,0,0-.149.392.392,0,0,0-.063-.2l-.086-.11a.509.509,0,0,0-.243-.141Z" transform="translate(-48.519 -52.346)"/><path d="M246.361,159.129h.063l-.509-.509h0l.078.18.125.157.149.125.2.086h.039l.141.055-.368-.212h0l-.219-.376h0l.094.212a.627.627,0,0,0,.235.259.478.478,0,0,0,.2.118.681.681,0,0,0,.353.078h.439a.729.729,0,0,0,.3-.157.408.408,0,0,0,.149-.157.612.612,0,0,0,.157-.3h0l-.345.439h0a.862.862,0,0,0,.266-.266.739.739,0,0,0-.266-1.011h0l.368.642h0v-.235a.587.587,0,0,0-.157-.29.36.36,0,0,0-.149-.157.643.643,0,0,0-.3-.157l-.2-.063a.736.736,0,0,0-.368,0,.658.658,0,0,0-.337.11l-.188.141a1.01,1.01,0,0,0-.235.407h0l.384-.5h0l.2-.086h-.2a.737.737,0,0,0-.47.36l.439-.337h-.063l-.172.071a.564.564,0,0,0-.2.188.29.29,0,0,0-.094.157.54.54,0,0,0-.063.274v.188l.078.172a.5.5,0,0,0,.18.2.556.556,0,0,0,.243.125Z" transform="translate(-53.219 -35.458)"/><path d="M257.007,111.233c-.055-.376-.07-.784-.11-1.136s-.094-.736-.125-1.1a10.415,10.415,0,0,1-.047-1.1,6.145,6.145,0,0,0,0-1.073.212.212,0,0,0-.392-.055,2.625,2.625,0,0,0-.2,1.128,9.249,9.249,0,0,0,.047,1.144c.039.384.094.783.164,1.136s.212.783.3,1.16c.055.243.392.133.36-.094Z" transform="translate(-55.442 -24.011)"/><path d="M261.414,92.313a16.96,16.96,0,0,0-.4,3.33A9.67,9.67,0,0,1,260,98.777a14,14,0,0,1-1.771,2.656c-.611.729-1.512,1.395-1.708,2.351a.2.2,0,1,0,.36.157c.6-.917,1.489-1.63,2.162-2.492a13.679,13.679,0,0,0,1.645-2.609,10.351,10.351,0,0,0,.9-2.8c.18-1.222-.086-2.445.094-3.659a.134.134,0,0,0-.259-.071Z" transform="translate(-55.524 -20.785)"/><path d="M261.742,92.685c-.635,1.567-1.191,3.134-1.786,4.7-.29.783-.588,1.567-.893,2.311a15.567,15.567,0,0,0-.893,2.405.133.133,0,0,0,.235.1,13.093,13.093,0,0,0,1-2.217q.486-1.2.94-2.4a49.94,49.94,0,0,0,1.669-4.858c.055-.18-.2-.243-.274-.078Z" transform="translate(-55.883 -20.855)"/><path d="M260.866,92.64c-.423,1.4-1.026,2.766-1.567,4.129a26.012,26.012,0,0,0-1.41,4.16.11.11,0,1,0,.211.063c.987-2.758,2.288-5.437,3.009-8.282a.133.133,0,0,0-.251-.071Z" transform="translate(-55.822 -20.853)"/><path d="M259.788,91.838c-.564,1.99-1.387,3.917-2.084,5.884-.431,1.191-.862,2.39-1.269,3.6a12.681,12.681,0,0,0-.705,2.35.141.141,0,0,0,.266.071c.736-1.935,1.363-3.917,2.053-5.884a58.669,58.669,0,0,0,1.927-5.923.1.1,0,0,0-.188-.055Z" transform="translate(-55.355 -20.698)"/><path d="M259.315,92.588c-.212.784-.439,1.489-.674,2.225-.118.368-.235.729-.36,1.089a3.493,3.493,0,0,0-.251,1.089.094.094,0,0,0,.157.071,3.189,3.189,0,0,0,.47-.972c.125-.368.243-.784.36-1.128.227-.784.431-1.52.619-2.28.047-.212-.266-.3-.321-.094Z" transform="translate(-55.853 -20.818)"/><path d="M257.958,92.07c-.149.784-.329,1.567-.517,2.39-.1.384-.2.784-.321,1.16a4.52,4.52,0,0,0-.29,1.152c0,.1.149.188.219.094a3.063,3.063,0,0,0,.439-1.058c.125-.407.235-.823.337-1.246a16.292,16.292,0,0,0,.384-2.452.127.127,0,1,0-.251-.039Z" transform="translate(-55.594 -20.705)"/><path d="M256.823,92.093c-.251.862-.533,1.716-.784,2.578l-.384,1.254a4.874,4.874,0,0,0-.306,1.285.1.1,0,0,0,.188.055,4.7,4.7,0,0,0,.494-1.238c.133-.407.259-.783.376-1.238.259-.862.462-1.732.682-2.609a.141.141,0,0,0-.266-.071Z" transform="translate(-55.273 -20.721)"/><path d="M255.528,91.581q-.29,1.34-.658,2.656c-.125.439-.259.878-.4,1.308a5.635,5.635,0,0,0-.36,1.261.154.154,0,0,0,.282.078,4.17,4.17,0,0,0,.494-1.222c.141-.431.274-.87.392-1.316a22.292,22.292,0,0,0,.525-2.687C255.8,91.479,255.567,91.393,255.528,91.581Z" transform="translate(-55.005 -20.597)"/><path d="M253.545,91.745c-.376,1.293-.6,2.625-.964,3.917a19.4,19.4,0,0,1-.619,1.873c-.243.619-.6,1.222-.784,1.865a.149.149,0,0,0,.243.141,6.112,6.112,0,0,0,.94-1.755c.251-.635.462-1.285.65-1.935a23.361,23.361,0,0,0,.783-4.066c0-.165-.227-.18-.274,0Z" transform="translate(-54.37 -20.645)"/><path d="M253.781,91.26a.58.58,0,0,0-.157.3,3.225,3.225,0,0,0-.118.36l-.219.729c-.071.243-.133.486-.2.729A1.723,1.723,0,0,0,253,94.1a.133.133,0,0,0,.227.055,1.041,1.041,0,0,0,.165-.306c.047-.118.086-.227.125-.353.063-.243.133-.486.2-.729l.188-.736a2.088,2.088,0,0,1,.086-.368.736.736,0,0,0,0-.345.133.133,0,0,0-.219-.055Z" transform="translate(-54.763 -20.532)"/><path d="M253.321,91.158l-.094.384-.039.188a.416.416,0,0,0,0,.094.259.259,0,0,0,0,.133.129.129,0,0,0,.243.063.5.5,0,0,0,.063-.11s0-.055,0-.086l.047-.2.094-.384a.165.165,0,0,0-.11-.2.157.157,0,0,0-.2.11Z" transform="translate(-54.803 -20.485)"/><path d="M257.727,102.719c-.125,0-.157.141-.2.251s-.086.219-.125.329-.149.407-.227.6l-.235.6c-.047.11-.086.212-.125.321a1.562,1.562,0,0,0-.07.329.165.165,0,0,0,.282.118,1.566,1.566,0,0,0,.211-.29c.047-.1.1-.2.141-.313.1-.227.2-.454.282-.689s.149-.447.219-.674a1.684,1.684,0,0,0,.07-.345c0-.125-.078-.266-.219-.235Z" transform="translate(-55.574 -23.117)"/><path d="M255.778,102.49c-.149.423-.259.862-.384,1.3-.086.259-.165.525-.259.784s-.086.329-.149.486.141.219.243.141a1.066,1.066,0,0,0,.266-.478c.1-.266.18-.533.259-.783.133-.439.243-.885.392-1.324.078-.235-.29-.337-.368-.1Z" transform="translate(-55.192 -23.042)"/><path d="M249.653,85.91c-2.068-.548-5.281,0-6.268-1.567s-3.134-5.7.3-7.232c.713-.313,4.09.478,6.683,2.35s2.946,2.476,5.046,3.275,4.983,5.21,3.228,8.023-.4,2.1-.4,2.1-1.622-3.22-3.071-4.262-4.889-.564-4.889-.564S251.486,86.412,249.653,85.91Z" transform="translate(-52.342 -17.378)"/><path d="M253.767,96.532a3.721,3.721,0,0,0-1.05-.925c-.447-.3-.909-.572-1.379-.838s-.94-.541-1.418-.784l-.7-.376a2.265,2.265,0,0,0-.784-.345l.376.368a.407.407,0,0,0-.11-.259c-.3-.376-.854.165-.533.525a2.115,2.115,0,0,0,.682.392l.705.36c.47.243.932.494,1.395.784l1.348.736.6.36c.188.125.36.282.541.415s.494-.149.36-.36Z" transform="translate(-53.699 -20.99)"/><path d="M250.111,176.767c-.172,1.1-.337,2.2-.454,3.314a21.4,21.4,0,0,0-.227,3.393c0,.266.439.36.494.071.18-1.1.18-2.225.282-3.33s.2-2.264.337-3.385c0-.243-.392-.306-.431-.063Z" transform="translate(-53.992 -39.777)" fill="#b6b6b6"/><path d="M258.8,172.253a9.512,9.512,0,0,0,.94,4.442,9.34,9.34,0,0,0,2.774,3.62c.337.251.729-.29.439-.572a15.279,15.279,0,0,1-1.442-1.5,9.6,9.6,0,0,1-1.152-1.849,11.267,11.267,0,0,1-1.073-4.153.227.227,0,1,0-.447,0Z" transform="translate(-56.019 -38.741)" fill="#b6b6b6"/><path d="M263.734,173.592a4.465,4.465,0,0,0-.219,1.152,2.459,2.459,0,0,0,0,.588,1.567,1.567,0,0,0,.2.564.172.172,0,0,0,.313-.086,2.578,2.578,0,0,0,0-.548v-.517a3.916,3.916,0,0,1,.11-1.042.2.2,0,0,0-.392-.11Z" transform="translate(-57.037 -39.037)" fill="#b6b6b6"/><path d="M264.427,180.187l-.094.784-.047.384a.619.619,0,0,0,.071.447.18.18,0,0,0,.211,0,.58.58,0,0,0,.165-.407,1.373,1.373,0,0,1,.047-.431l.086-.783a.219.219,0,0,0-.219-.219.227.227,0,0,0-.219.219Z" transform="translate(-57.204 -40.497)" fill="#b6b6b6"/><path d="M263.733,184.939l-.118.729a1.481,1.481,0,0,0,0,.454.7.7,0,0,0,.11.36.157.157,0,0,0,.188,0,.784.784,0,0,0,.2-.36,1.387,1.387,0,0,0,.055-.407l.047-.736a.229.229,0,0,0-.454-.063Z" transform="translate(-57.058 -41.567)" fill="#b6b6b6"/><path d="M263.008,190.136a2.351,2.351,0,0,0-.219.6.836.836,0,0,0,0,.2s0,.063,0,.094v.047a.713.713,0,0,0,.086.329c.039.094.165.055.2,0a1.409,1.409,0,0,0,.078-.259v-.133a.906.906,0,0,0,0-.141.887.887,0,0,1,.07-.274l.047-.125h0v-.078a.207.207,0,1,0-.36-.2Z" transform="translate(-56.882 -42.772)" fill="#b6b6b6"/><path d="M262.6,194.014a2.114,2.114,0,0,0-.094.541,1.707,1.707,0,0,0,0,.282.774.774,0,0,0,0,.125.235.235,0,0,0,.157.165.164.164,0,0,0,.157-.039.267.267,0,0,0,.071-.188.6.6,0,0,1,0-.118,1.1,1.1,0,0,1,0-.227.6.6,0,0,1,0-.118h0v-.047a1.334,1.334,0,0,1,.063-.235.211.211,0,0,0-.149-.266.227.227,0,0,0-.266.149Z" transform="translate(-56.821 -43.626)" fill="#b6b6b6"/><path d="M264.336,198.276a.157.157,0,1,0-.122-.153A.157.157,0,0,0,264.336,198.276Z" transform="translate(-57.192 -44.539)" fill="#b6b6b6"/><path d="M244.785,113.235c-.353-.2-1-.47-1.3-.047a1.92,1.92,0,0,0-.212.721c-.047.274-.086.548-.125.783-.149,1.089-.313,2.17-.509,3.252-.055.282.345.5.494.212a7.834,7.834,0,0,0,.666-2.664c.055-.447.1-.9.157-1.348a1.038,1.038,0,0,1,.039-.345c.039-.118,0-.266.047-.306-.07.063.18.078.227.094a2.091,2.091,0,0,1,.313.1c.282.118.47-.345.2-.494Z" transform="translate(-52.521 -25.434)"/><path d="M243.384,116.457c-1.637,1.943-2.131,4.63-2.507,7.051-.259,1.716-.439,3.44-.619,5.163-.415,4-.784,8-1.05,12-.063.94-.047,1.9-.118,2.828a.176.176,0,0,0,.353,0c.172-2.256.486-4.748.682-7.051.337-3.917.674-7.835,1.175-11.752a20.22,20.22,0,0,1,2.35-8.039c.11-.18-.149-.392-.29-.227Z" transform="translate(-51.754 -26.303)"/><path d="M250.285,120.948c-1.23,1.739-.838,3.98.063,5.774a20.146,20.146,0,0,0,1.622,2.664,4.4,4.4,0,0,0,2.225,1.873.564.564,0,0,0,.548-.149.588.588,0,0,0-.11-.885,12.419,12.419,0,0,1-1.073-.846,13.781,13.781,0,0,1-1.677-2.35c-1.011-1.653-1.935-3.808-.878-5.657.274-.478-.415-.854-.721-.423Z" transform="translate(-54.009 -27.212)"/><path d="M253.743,127.055a7.914,7.914,0,0,0,.086,5.484c.65,2.217,1.371,4.419,2.053,6.621.619,1.99,1.144,4.043,1.943,5.962.219.548,1.442,3.455,2.452,2.233a.462.462,0,0,0,.07-.541l-.055-.078a.353.353,0,0,0-.478-.125c-.227.157-1.724-3.918-1.841-4.309-.509-1.614-1.026-3.236-1.567-4.858s-1.034-3.22-1.567-4.834a9.618,9.618,0,0,1-.525-5.265c.086-.368-.47-.65-.635-.274Z" transform="translate(-54.826 -28.645)"/><path d="M258.037,147.747c.1,1.771.407,3.526.494,5.3a36.935,36.935,0,0,1-.11,5.014,37.5,37.5,0,0,1-.783,5.116c-.188.854-.948,2.75.478,2.977.447.071.971-.509.509-.878-.219-.172.251-1.434.321-1.739.172-.783.313-1.528.431-2.3a34.773,34.773,0,0,0,.415-4.505,25.742,25.742,0,0,0-1.066-9.081c-.133-.345-.721-.329-.7.094Z" transform="translate(-55.688 -33.265)"/><path d="M266.848,175.7a35,35,0,0,0,3.494-13.319.5.5,0,0,0-1,0,43.439,43.439,0,0,1-3.032,13.124c-.118.306.384.517.533.227Z" transform="translate(-57.643 -36.506)"/><path d="M244.629,120.539c-1.457,1.9-2.045,4.7-2.484,7.051a56.91,56.91,0,0,0-.854,7.984c-.133,2.922-.141,5.853-.157,8.783v4.568a34.172,34.172,0,0,0,.047,4.568c.039.321.541.462.627.078.588-2.711.313-5.751.313-8.517,0-2.938,0-5.868.094-8.807a58.663,58.663,0,0,1,.784-8.274,37.047,37.047,0,0,1,.854-3.69c.345-1.2.87-2.35,1.175-3.573a.2.2,0,0,0-.368-.157Z" transform="translate(-52.185 -27.26)"/><path d="M208.186,161.476c.783-2.045,2.3-3.714,3.432-5.539a24.2,24.2,0,0,0,2.515-5.484,27.1,27.1,0,0,0,1.144-6.127,24.5,24.5,0,0,0,0-3.306,8.391,8.391,0,0,0-.478-2.891c-.243-.517-.932-.188-.979.266a21,21,0,0,0,.251,3.134,28.99,28.99,0,0,1,0,2.977,25.277,25.277,0,0,1-1.175,6.268,22.723,22.723,0,0,1-2.578,5.484,15.111,15.111,0,0,0-2.578,5.093.251.251,0,0,0,.478.133Z" transform="translate(-44.969 -31.139)"/><path d="M208.864,127.791c1.927-.266,3.048-2.131,3.212-3.917a12.574,12.574,0,0,0-.4-3.706c-.337-1.567-.6-3.212-.878-4.826-.917-5.108-2.593-10.068-3.189-15.247a55.75,55.75,0,0,1-.3-7.051,13.6,13.6,0,0,0-.227-3.479c-1.042-4.192-6.1-4.419-9.645-4.137a39.778,39.778,0,0,0-5.751,1A7.529,7.529,0,0,0,188.76,88a6.762,6.762,0,0,0-1.05.956c-.078.1-.431.58-.282.431-.368.384.219.964.588.58-.149.149.094-.047.188-.11.235-.149.439-.313.65-.478a9.457,9.457,0,0,1,2.64-1.52,27.916,27.916,0,0,1,4.544-.972,18.02,18.02,0,0,1,6.707.071,4,4,0,0,1,3.2,2.774,11.463,11.463,0,0,1,.251,3.228,60.138,60.138,0,0,0,.227,6.174,76.424,76.424,0,0,0,2.586,12.356c.783,2.813,1.175,5.68,1.849,8.5.572,2.35,1.355,6.668-2.115,7.2-.4.063-.227.658.165.6Z" transform="translate(-40.547 -19.349)"/><path d="M185.5,141.175c4.051-1.567,8.391-1.833,12.693-1.92,2.053,0,4.106-.047,6.158-.172,1.019-.063,2.029-.157,3.04-.29a8.18,8.18,0,0,0,2.891-.642.329.329,0,0,0-.165-.611,17.3,17.3,0,0,0-3.134.462c-1.05.133-2.1.219-3.134.282-2.17.118-4.341.125-6.519.2a32.839,32.839,0,0,0-12.042,2.139c-.313.133-.086.682.235.556Z" transform="translate(-40.077 -30.96)"/><path d="M183.655,142.394c-.964,6.574-1.818,13.139-3.079,19.674a140.107,140.107,0,0,0-2.5,20.214c-.157,3.659-.486,7.694.376,11.282.118.486.783.345.831-.11.227-3.33-.063-6.715.055-10.052.118-3.581.392-7.153.784-10.71.783-6.527,2.2-12.936,3.181-19.431a69.051,69.051,0,0,0,1.081-10.765c0-.415-.682-.541-.744-.1Z" transform="translate(-38.507 -32.29)"/><path d="M205.016,142.07a9.442,9.442,0,0,1-.086,4.787,22.884,22.884,0,0,1-1.982,4.482c-.783,1.434-1.567,2.836-2.35,4.294-.784,1.63-1.426,3.322-2.272,4.928a32.083,32.083,0,0,0-3.588,9.316,45.075,45.075,0,0,0-.384,10.327c.11,2.037.3,4.074.517,6.1s.36,4.247.643,6.346a.212.212,0,0,0,.415,0c.094-3.729-.306-7.506-.4-11.243a55.553,55.553,0,0,1,.58-10.82,26.441,26.441,0,0,1,1.324-4.913,52.5,52.5,0,0,1,2.476-5.03c.784-1.567,1.371-3.275,2.162-4.866s1.567-2.985,2.35-4.489c1.4-2.828,2.868-6.472,1.308-9.527-.212-.423-.784-.118-.729.306Z" transform="translate(-42.042 -32.16)"/><path d="M194.832,182.649c.078.141,0,.415.071.58a1.018,1.018,0,0,0,.212.337,7.965,7.965,0,0,0,.572.682,11.166,11.166,0,0,0,1.316,1.1c.924.682,1.951,1.214,2.891,1.873a15.929,15.929,0,0,1,2.774,2.562c.439.5.862,1.011,1.277,1.567a2.954,2.954,0,0,0,1.4,1.222.462.462,0,0,0,.588-.447,2.868,2.868,0,0,0-.854-1.653c-.423-.517-.846-1.026-1.285-1.52a19.329,19.329,0,0,0-2.781-2.586c-.94-.7-1.982-1.238-2.962-1.88a11.107,11.107,0,0,1-1.34-1.011c-.2-.18-.392-.36-.58-.548a2.045,2.045,0,0,0-.353-.337c-.157-.094-.415-.086-.541-.227s-.548.063-.407.321Z" transform="translate(-42.169 -41.084)"/><path d="M207.21,174.245a7.368,7.368,0,0,0,3.134,4.7,67.858,67.858,0,0,1,5.422,4.4,36.444,36.444,0,0,1,2.484,2.672c.674.783,1.669,1.747,1.81,2.836a9.94,9.94,0,0,1,0,1.99,4.575,4.575,0,0,1-.3,1.685c-.29.439.188.932.642.838,1.238-.266,1.073-2.813,1.073-3.722a4.458,4.458,0,0,0-.454-2.225,16.3,16.3,0,0,0-2.35-2.977,35.987,35.987,0,0,0-5.978-5.257c-1.92-1.355-4.051-2.774-4.552-5.234-.125-.611-1.011-.337-.924.259Z" transform="translate(-44.854 -39.185)"/><path d="M179.4,207.581a58.981,58.981,0,0,1,6.158-1.434,17.284,17.284,0,0,1,3.816-.212,8.877,8.877,0,0,1,1.771.282c.447.133.948.5,1.41.415a.2.2,0,0,0,.149-.266c-.18-.431-.736-.572-1.16-.705a8.735,8.735,0,0,0-1.747-.345,15.567,15.567,0,0,0-3.863.172,54.02,54.02,0,0,0-6.668,1.614.251.251,0,0,0,.133.478Z" transform="translate(-38.775 -46.195)"/><path d="M188.047,214.689a2.21,2.21,0,0,0,.6,1.747,2.852,2.852,0,0,0,1.974.838,6.519,6.519,0,0,0,2.413-.407,3.134,3.134,0,0,0,1.755-1.222.5.5,0,0,0,0-.5c-.2-.353-.588-.259-.846-.039a3.643,3.643,0,0,1-.713.423,7.475,7.475,0,0,1-1.873.6,2.742,2.742,0,0,1-1.786-.18,1.567,1.567,0,0,1-1-1.261.266.266,0,0,0-.525,0Z" transform="translate(-40.704 -48.27)"/><path d="M194.583,206.163a8.018,8.018,0,0,0,.5,3.8,8.615,8.615,0,0,1,.376,1.771,2.5,2.5,0,0,1-.172,1.011c-.157.392-.533.823-.533,1.246a.392.392,0,0,0,.494.376c.415-.078.783-.6.932-.964a3.464,3.464,0,0,0,.353-1.395,6.339,6.339,0,0,0-.313-1.833c-.2-.713-.454-1.41-.658-2.131a4.7,4.7,0,0,1-.306-1.794c.047-.384-.58-.454-.674-.086Z" transform="translate(-42.101 -46.388)"/><path d="M185.2,215.947a18.8,18.8,0,0,0-3.6-1.183c-1.277-.243-2.562-.392-3.847-.517s-2.539-.219-3.808-.353-2.609-.039-3.22-1.246a.321.321,0,0,0-.58.078c-.329,1.089.619,2.006,1.567,2.35a19.414,19.414,0,0,0,4.254.548c1.449.125,2.9.259,4.348.447a34.294,34.294,0,0,1,4.638.783.451.451,0,0,0,.235-.87Z" transform="translate(-36.817 -47.838)"/><path d="M177,207.25a5.735,5.735,0,0,0-1.567.259c-.784.2-1.5.407-2.241.65-1.285.423-2.93.87-3.588,2.178a1.927,1.927,0,0,0-.047,1.755,1.261,1.261,0,0,0,1.426.737.423.423,0,0,0,.1-.783.854.854,0,0,1-.533-.972,1.5,1.5,0,0,1,.423-.674s.3-.243.117-.118l.118-.078a11.234,11.234,0,0,1,1.739-.783c.783-.321,1.567-.611,2.4-.87.337-.11.682-.212,1.026-.29l.4-.086h.2a.462.462,0,0,0,0-.917Z" transform="translate(-36.665 -46.666)"/><path d="M199.92,205.664c1.841.462,3.479,1.473,5.351,1.841a13.674,13.674,0,0,0,2.766.266,4.124,4.124,0,0,0,2.6-.533.376.376,0,0,0-.165-.619,2.766,2.766,0,0,0-1.214,0c-.439.047-.878.086-1.316.094a12.584,12.584,0,0,1-2.766-.259c-1.732-.368-3.291-1.324-5.038-1.567-.5-.071-.736.65-.219.783Z" transform="translate(-43.214 -46.113)"/><path d="M211.153,204.183a29.85,29.85,0,0,0,4.137-6.268,7.053,7.053,0,0,1,.846-1.5,4.058,4.058,0,0,1,1.379-.964,7.278,7.278,0,0,1,1.8-.556,7.476,7.476,0,0,0,1.873-.29.533.533,0,0,0,0-.909,3.134,3.134,0,0,0-1.959-.11,8.452,8.452,0,0,0-1.951.572,5.147,5.147,0,0,0-2.727,2.429,63.468,63.468,0,0,1-4.051,7.091C210.244,204.066,210.847,204.544,211.153,204.183Z" transform="translate(-45.553 -43.603)"/><path d="M221.052,195.819a5.978,5.978,0,0,1-1.457,3.134q-1.175,1.54-2.35,3.063a5.022,5.022,0,0,1-2.554,1.959,9.042,9.042,0,0,1-1.567.313,2.593,2.593,0,0,0-1.567.47.564.564,0,0,0,.118.878,2.719,2.719,0,0,0,1.9.07,9.489,9.489,0,0,0,1.747-.431,6.268,6.268,0,0,0,2.946-2.35c.838-1.152,1.716-2.3,2.476-3.5a5.579,5.579,0,0,0,1.089-3.573.36.36,0,1,0-.721,0Z" transform="translate(-45.761 -44.052)"/><path d="M208.5,194.432c3.134-2.123,6.691-3.134,10.326-4.027a.212.212,0,0,0-.055-.415,18.434,18.434,0,0,0-10.593,3.917c-.321.235,0,.784.321.548Z" transform="translate(-45.036 -42.772)"/><path d="M207.143,194.668c-.831,1.152-1.034,2.6-1.779,3.792-.055.086-.18.353-.29.384s-.321-.133-.392-.157a2.924,2.924,0,0,0-.94-.157,4.325,4.325,0,0,0-1.818.478,5.289,5.289,0,0,0-1.653,1,3.432,3.432,0,0,0-.87,3.009.454.454,0,0,0,.878,0c.2-.932.165-1.873.987-2.523a4.607,4.607,0,0,1,1.685-.783,2.868,2.868,0,0,1,1.066-.086c.3.039.564.172.862.227.7.11,1.1-.47,1.395-1.019.642-1.214.744-2.64,1.449-3.831C207.943,194.629,207.394,194.324,207.143,194.668Z" transform="translate(-43.151 -43.822)"/><path d="M195.354,97.114a38.123,38.123,0,0,1-1.567,6.1,54.059,54.059,0,0,1-2.609,5.845c-.2.423.329.909.689.525a33.065,33.065,0,0,0,4.442-4.928,11.259,11.259,0,0,0,1.348-2.883,15.56,15.56,0,0,0,.368-3.134c.047-.588-.94-.6-.932,0a13.954,13.954,0,0,1-.783,4.8,23.828,23.828,0,0,1-.932,2.3,12.747,12.747,0,0,0-.925,2.217c-.086.368.415.744.69.407a9.755,9.755,0,0,0,1.207-2.186,25.834,25.834,0,0,0,.987-2.452,12.113,12.113,0,0,0,.705-5.085l-.917.125a5.351,5.351,0,0,1-.282,2.985,10.287,10.287,0,0,1-1.363,2.758,21.421,21.421,0,0,1-4.215,4.45l.689.533a26.9,26.9,0,0,0,2.64-5.845,33.934,33.934,0,0,0,1.481-6.346c.063-.462-.627-.666-.705-.2Z" transform="translate(-41.375 -21.831)"/><path d="M188.786,113.724c-1.363,4.333-2.9,8.618-4.536,12.889a60.322,60.322,0,0,1-2.35,5.594,22.634,22.634,0,0,1-3.471,4.983.572.572,0,0,0,.784.783c2.969-2.617,4.466-6.777,5.774-10.4,1.645-4.521,3-9.1,4.192-13.766a.212.212,0,0,0-.407-.11Z" transform="translate(-38.608 -25.653)"/><path d="M186.894,90.364a5.962,5.962,0,0,0-5.735,1.355,14.552,14.552,0,0,0-3.212,5.586,76.157,76.157,0,0,0-2.578,9,98.634,98.634,0,0,1-3.009,10.186,94.944,94.944,0,0,1-5.022,11.384.674.674,0,0,0,.235.885,14.1,14.1,0,0,0,4.45,2.249.645.645,0,1,0,.337-1.246,8.736,8.736,0,0,1-4-2.021l.1.783a82.214,82.214,0,0,0,7.051-18.444c.831-3.275,1.332-6.621,2.35-9.841a28.245,28.245,0,0,1,2.546-6.213c1.41-2.35,3.518-3.518,6.268-2.86.533.125.783-.682.227-.783Z" transform="translate(-36.208 -20.426)"/><path d="M168.469,141.3a6.1,6.1,0,0,0-2.241,5.484,5.877,5.877,0,0,0,.36,1.567c.2.5.454,1.113,1.1,1.089a2.625,2.625,0,0,0,1.026-.423c.3-.149.58-.313.87-.478.494-.282,1.269-.635,1.489-1.183a.266.266,0,0,0-.18-.329,3.134,3.134,0,0,0-1.669.478l-.838.392c-.2.094-.6.4-.783.392l.29.078c-.133-.063-.266-.548-.313-.705a6.44,6.44,0,0,1-.2-.854,5.539,5.539,0,0,1,0-1.763,5.986,5.986,0,0,1,1.567-3.212c.321-.321-.149-.783-.486-.486Z" transform="translate(-35.975 -31.817)"/><path d="M168.708,149.875a.862.862,0,0,0-1.019.674,1.1,1.1,0,0,0,.58,1.277,3.071,3.071,0,0,0,1.614.227,4.294,4.294,0,0,0,1.826-.447.407.407,0,0,0-.2-.784,5.847,5.847,0,0,0-.784.086l-.556.086-.7.047h-.76a.51.51,0,0,1-.125-.07h0a.447.447,0,0,1-.086-.086h0v-.039a.227.227,0,0,1,0-.07c0-.078,0,0,0,0h0c.415.047.494-.627.1-.721Z" transform="translate(-36.293 -33.725)"/><path d="M166.908,147.163a.721.721,0,0,0-.055-.478v-.047h0a.5.5,0,0,0-.165-.282,1.152,1.152,0,0,0-.783-.266,2.742,2.742,0,0,0-1.567.885,4.936,4.936,0,0,0-.972,1.261,4.339,4.339,0,0,0-.368.783,1,1,0,0,0,0,.588,2.129,2.129,0,0,0,.125.274.862.862,0,0,0,.47.345l-.4-.306a1.081,1.081,0,0,0,.384.368.7.7,0,0,0,.721,0,.6.6,0,0,0-.462-1.081l.494.125a.518.518,0,0,1,.094.133v.133l-.086.345a1,1,0,0,0,.133-.329v-.2c.063-.165-.078.165,0,0a.785.785,0,0,1,.055-.118l.118-.243c.086-.165.18-.329.274-.486l.149-.227a2.4,2.4,0,0,0,.165-.227l-.055.071.086-.118.118-.149h0l.094-.118a4.584,4.584,0,0,1,.384-.4s.118-.1.047-.047,0,0,.055,0l.133-.071h0a.98.98,0,0,0,.4,0h-.235c-.063,0-.11-.094,0,0h0a.345.345,0,0,0,.572-.149Z" transform="translate(-35.276 -32.887)"/><path d="M175.6,150.066a.909.909,0,0,0,.384.227.783.783,0,0,1,.212.078.956.956,0,0,1,.29.3,1.825,1.825,0,0,1,.251,1.1.712.712,0,0,1,0,.133c0-.118,0,.047,0,.071q-.047.219-.118.447c-.086.282-.2.556-.306.831a7.575,7.575,0,0,0-.58,1.88l1.5-.2c-.094-.415-.172-1.011-.721-1.011s-.642.6-.744,1.011a.783.783,0,1,0,1.465.4c.243-1.348,1.05-2.609.838-4.012a2.954,2.954,0,0,0-.7-1.512c-.36-.4-1.144-.854-1.653-.478a.478.478,0,0,0-.094.744Z" transform="translate(-37.988 -33.597)"/><path d="M158.479,150.841c.094-.078,14.573,3.369,21.593,5.861a1.661,1.661,0,0,1,.783.431,1.8,1.8,0,0,1,.118,1.645c-.494,1.849-1.512,3.534-1.935,5.4-1.191,5.21-2.64,12.826-2.821,13.727s-24.1-5.618-26.271-6.338-6.707-1.63-6.707-4.9S148.5,147.08,148.5,147.08Z" transform="translate(-31.009 -33.266)"/><path d="M185.662,64.275a6.009,6.009,0,0,1-1.308-3.62,7.177,7.177,0,0,1,.846-4.348A3.784,3.784,0,0,1,189,54.45a4,4,0,0,1,2.742,2.648,11.227,11.227,0,0,1,.494,3.917c.384-2.421,1.567-3.361,2.562-3.651s2.554.6,1.982,3.032a4.842,4.842,0,0,1,4.278,2.311,8.846,8.846,0,0,1,1.246,4.873,15.153,15.153,0,0,1-1.826,7.185,3.032,3.032,0,0,0-.141,2.076,15.364,15.364,0,0,1-4.536.721c-3.275.188-2.766.854-2.766.854a11.753,11.753,0,0,0,.157-3.024,3.793,3.793,0,0,0-.784-1.763s3.134-3.181.948-6.339-3.557,2.241-3.557,2.241l-.071.376s-.345-2.484-1.191-3.087-2.092.4-2.092.4l-.6.972s-2.891-.979-2.954-2.774a2.938,2.938,0,0,1,1.2-2.578,3.979,3.979,0,0,0,.878,1.1A1.475,1.475,0,0,0,185.662,64.275Z" transform="translate(-39.589 -12.291)"/><path d="M187.232,66.98c-.87,1.128.784,1.927,1.434,2.515a3.737,3.737,0,0,1,1.1,1.7,9.026,9.026,0,0,0,.6,1.857.306.306,0,0,0,.564-.157,5.617,5.617,0,0,1,.235-1.481c.172-.642.462-1.567,1.128-1.841.838-.36,1.661.478,1.935,1.191a4.9,4.9,0,0,1,0,2.946,4.819,4.819,0,0,1-1.567,2.523.327.327,0,0,0,.313.548c1.042-.282,1.567-1.567,1.833-2.5a6.1,6.1,0,0,0,.055-3.573,2.492,2.492,0,0,0-2.264-1.849c-.987,0-1.567.909-1.873,1.732a6.48,6.48,0,0,0-.454,2.3l.572-.149a8,8,0,0,1-.533-1.638,4.356,4.356,0,0,0-.713-1.41,4.52,4.52,0,0,0-1.042-.987c-.478-.306-1.371-.784-.964-1.52.125-.227-.2-.392-.345-.2Z" transform="translate(-40.477 -15.076)"/><path d="M186.807,70.034a9.653,9.653,0,0,0-2.9,5.484,9.858,9.858,0,0,0-.141,1.567,1.285,1.285,0,0,0,.486,1.183c.627.454,2.178.729,2.586-.141a.306.306,0,0,0-.266-.462c-.376,0-.689.212-1.073.2s-.862-.141-.917-.533a5.485,5.485,0,0,1,.071-1.293,10.969,10.969,0,0,1,.227-1.23,12.019,12.019,0,0,1,2.225-4.544c.165-.212-.094-.494-.3-.3Z" transform="translate(-39.778 -15.748)"/><path d="M187.017,73.553a.9.9,0,0,0-.18.078h0a.853.853,0,0,0-.133.1.587.587,0,0,0-.118.141h0a1.7,1.7,0,0,0-.071.18h0a.549.549,0,0,0,0,.251.625.625,0,0,0,0,.118,1.305,1.305,0,0,0,.063.157h0a.4.4,0,0,0,.157.165.368.368,0,0,0,.2.1h.157a.564.564,0,0,0,.227-.047.329.329,0,0,0,.133-.078.431.431,0,0,0,.149-.165l.055-.141a.533.533,0,0,0,0-.313h0v.157a.047.047,0,0,1,0-.047v.165h0a1.415,1.415,0,0,0,0-.18v.157a.055.055,0,0,1,0-.039l-.055.141a.07.07,0,0,1,0-.047l-.094.125h0l-.118.094h0l-.141.055h0a.47.47,0,0,0,.2-.1.494.494,0,0,0,.149-.165.384.384,0,0,0,.071-.219.4.4,0,0,0,0-.235l-.063-.141a.548.548,0,0,0-.212-.212l-.133-.063a.705.705,0,0,0-.313,0Z" transform="translate(-40.373 -16.545)"/><path d="M189.716,83c.125-.047.259-.086.376-.141l.3-.157.29-.157.149-.071a.478.478,0,0,0,.212-.282.306.306,0,0,0-.212-.368.478.478,0,0,0-.345,0l-.157.086-.274.165-.282.157c-.1.063-.188.141-.282.212a.337.337,0,0,0-.133.172.313.313,0,0,0,0,.188.3.3,0,0,0,.345.165Z" transform="translate(-40.987 -18.403)"/><path d="M205.6,86.234a20.949,20.949,0,0,1,2.75,7.381c.329,2.68.415,5.265.713,7.89.611,5.351,1.473,10.679,1.669,16.07a55.237,55.237,0,0,1-.447,8.955.114.114,0,0,0,.227,0c1.1-5.289.627-10.891,0-16.218-.313-2.727-.7-5.484-1.026-8.18-.165-1.379-.313-2.758-.431-4.137s-.172-2.7-.321-4.051a15.748,15.748,0,0,0-.964-4.012,32.341,32.341,0,0,0-1.943-3.816.133.133,0,0,0-.227.133Z" transform="translate(-44.503 -19.505)"/><path d="M201.47,86.308c.642,2.648,1.308,5.312,1.685,8.007a64.251,64.251,0,0,1,.392,8.329c.055,5.484.227,10.969.094,16.453-.039,1.52-.11,3.04-.235,4.56s-.384,3.134-.556,4.7a.152.152,0,0,0,.3.039,44.543,44.543,0,0,0,.846-8.164c.1-2.766.078-5.484.047-8.289s-.063-5.571-.1-8.352A81.039,81.039,0,0,0,203.6,95.2a58.551,58.551,0,0,0-1.967-8.955.086.086,0,0,0-.165.047Z" transform="translate(-43.612 -19.541)"/><path d="M198.573,102.188c-.2,1.959-.165,3.965-.212,5.931l-.165,5.931c-.11,3.823-.094,7.663-.353,11.47a24.657,24.657,0,0,1-1.136,6.127c-.047.141.18.243.243.1,1.442-3.338,1.355-7.13,1.442-10.695q.149-6.033.29-12.058c.047-2.256.219-4.552.1-6.809a.11.11,0,0,0-.212,0Z" transform="translate(-42.58 -23.089)"/><path d="M191.777,111.816c-.2,3.612-.266,7.232-.556,10.836a48,48,0,0,1-.705,5.281c-.157.783-.353,1.622-.572,2.421s-.564,1.7-.783,2.554c0,.125.157.212.219.094a18.358,18.358,0,0,0,1.5-4.975,44.658,44.658,0,0,0,.682-5.108c.306-3.69.384-7.4.462-11.1a.118.118,0,0,0-.227,0Z" transform="translate(-40.948 -25.225)"/><path d="M194.528,87.695c-.321,1.465-.517,2.954-.909,4.411s-.948,2.844-1.442,4.262a.111.111,0,1,0,.2.086,21.029,21.029,0,0,0,1.567-4.27,18.8,18.8,0,0,0,.783-4.466.078.078,0,1,0-.157,0Z" transform="translate(-41.599 -19.744)"/><path d="M187.124,93.173c-.784,4.866-3.792,8.963-6.111,13.178a27.775,27.775,0,0,0-2.774,6.668,35.422,35.422,0,0,1-1.16,4.129,31.5,31.5,0,0,1-1.732,3.635c-1.34,2.492-2.844,4.975-3.408,7.78a.141.141,0,0,0,.266.078,33.59,33.59,0,0,1,3.244-7.224c.6-1.1,1.191-2.209,1.685-3.369a23.372,23.372,0,0,0,1.222-3.847,29.692,29.692,0,0,1,1.136-3.847,33.843,33.843,0,0,1,1.567-3.283c1.16-2.17,2.468-4.262,3.62-6.448a22.368,22.368,0,0,0,2.554-7.428c0-.055-.078-.078-.086,0Z" transform="translate(-37.221 -21.087)"/><path d="M188.045,108.816q-4.975,10.185-8.94,20.747c-.783,2-1.473,4-2.178,6.017-.071.2.235.313.337.141.219-.384.431-.784.627-1.16a.125.125,0,0,0-.212-.125c-.259.36-.5.721-.729,1.1l.329.141c2.476-7.091,5.265-14.056,8.305-20.927q1.293-2.93,2.64-5.829c.063-.118-.118-.219-.18-.1Z" transform="translate(-38.298 -24.581)"/><path d="M185.627,91.883a5.156,5.156,0,0,0-.642,1.379l-.705,1.724c-.431,1.073-.854,2.155-1.308,3.212a21.374,21.374,0,0,1-3.306,5.586c-.18.212.118.509.3.306a20.182,20.182,0,0,0,3.322-5.61c.431-1,.783-2.014,1.214-3.032l.7-1.826a6.017,6.017,0,0,0,.564-1.685C185.76,91.875,185.666,91.828,185.627,91.883Z" transform="translate(-38.881 -20.706)"/><path d="M137.15,94.36a9.676,9.676,0,0,0-1.622,1.63c-.525.6-1.019,1.238-1.489,1.88s-.925,1.293-1.34,1.967a11.25,11.25,0,0,0-1.073,2.123c-.094.266.282.376.431.18.454-.611.854-1.293,1.261-1.935s.838-1.293,1.293-1.92.909-1.222,1.395-1.818c.251-.313.494-.627.783-.925a9.242,9.242,0,0,0,.705-.87c.118-.188-.125-.447-.313-.313Z" transform="translate(-28.493 -21.246)"/><path d="M140.81,93.974a39.046,39.046,0,0,0-5.39,5.484,36.964,36.964,0,0,0-2.162,3.009,14.808,14.808,0,0,0-1.739,3.33c-.047.141.165.282.266.157.729-.94,1.3-1.982,1.959-2.977s1.473-2.162,2.288-3.189a43.649,43.649,0,0,1,5.132-5.484c.243-.219-.11-.564-.353-.36Z" transform="translate(-28.471 -21.161)"/><path d="M142.866,95.534a46.769,46.769,0,0,0-5.484,5.367c-.783.917-1.567,1.849-2.35,2.813a15.285,15.285,0,0,0-2.045,3.181c-.078.188.2.313.329.188a25.92,25.92,0,0,0,2.35-2.868c.783-.979,1.567-1.951,2.35-2.891,1.638-1.88,3.361-3.7,5.124-5.484.219-.219-.1-.533-.337-.337Z" transform="translate(-28.787 -21.511)"/><path d="M145.077,98.06a52.791,52.791,0,0,0-6.323,5.876,31.018,31.018,0,0,0-5.1,6.8c-.11.219.18.478.36.274,1.888-2.108,3.494-4.466,5.4-6.574a69.353,69.353,0,0,1,6.1-5.939C145.821,98.232,145.382,97.817,145.077,98.06Z" transform="translate(-28.929 -22.09)"/><path d="M144.1,107.139a44.375,44.375,0,0,0-6.323,4.873q-1.457,1.371-2.8,2.86a11.275,11.275,0,0,0-2.35,3.087.274.274,0,0,0,.392.306,18.633,18.633,0,0,0,2.523-2.8q1.293-1.465,2.7-2.821a52.963,52.963,0,0,1,6.064-5.093c.251-.18,0-.58-.235-.415Z" transform="translate(-28.711 -24.137)"/><path d="M145.434,111.545c-3.048,2.1-6.1,4.2-8.963,6.558a51.367,51.367,0,0,0-4.1,3.737,16.7,16.7,0,0,0-3.432,4.278.29.29,0,0,0,.454.345,18.914,18.914,0,0,0,1.818-1.974c.6-.674,1.222-1.316,1.857-1.959,1.269-1.277,2.593-2.492,3.964-3.659,2.8-2.4,5.743-4.615,8.7-6.809C146.037,111.835,145.732,111.326,145.434,111.545Z" transform="translate(-27.908 -25.143)"/><path d="M147.405,114.9c-3.252,2.413-6.393,4.936-9.4,7.608-1.5,1.332-2.969,2.7-4.411,4.1a31.239,31.239,0,0,0-4.16,4.419c-.11.165.118.4.274.282a45.015,45.015,0,0,0,4.192-3.918c1.489-1.434,3.009-2.821,4.544-4.2q4.529-4.074,9.324-7.835c.243-.2-.086-.627-.337-.439Z" transform="translate(-28.015 -25.912)"/><path d="M150.211,117.307a139.782,139.782,0,0,0-13.1,9.676c-2.076,1.732-4.09,3.534-6.056,5.383a44.549,44.549,0,0,0-5.618,5.915c-.172.235.172.439.36.282,2.108-1.692,3.917-3.706,5.9-5.563s3.917-3.565,5.9-5.281a159.768,159.768,0,0,1,12.889-9.943C150.775,117.581,150.485,117.111,150.211,117.307Z" transform="translate(-27.146 -26.474)"/><path d="M149.476,122.988c-4.254,3.134-8.383,6.393-12.34,9.9q-2.985,2.633-5.837,5.406-1.418,1.387-2.821,2.8A13.131,13.131,0,0,0,125.9,144a.321.321,0,0,0,.431.431,13.954,13.954,0,0,0,2.7-2.531q1.41-1.41,2.828-2.8,2.86-2.774,5.806-5.437c3.917-3.549,7.976-7,12.144-10.256C150.048,123.231,149.727,122.808,149.476,122.988Z" transform="translate(-27.249 -27.758)"/><path d="M151.68,125.9q-6.707,5.1-13.053,10.648-3.134,2.781-6.268,5.673-1.567,1.434-3.079,2.9a16.147,16.147,0,0,0-2.852,3,.36.36,0,0,0,.494.486,17.38,17.38,0,0,0,2.954-2.633q1.512-1.465,3.071-2.915,3.087-2.883,6.268-5.688,6.331-5.594,12.889-10.969c.3-.243-.1-.783-.407-.533Z" transform="translate(-27.361 -28.411)"/><path d="M152.915,130.365c-4.991,4.129-9.99,8.258-14.933,12.45l-7.4,6.268c-1.089.932-2.256,1.81-3.267,2.821a3.323,3.323,0,0,0-1.277,2.711c.047.3.462.3.6.078a13.077,13.077,0,0,1,.987-1.614,13.317,13.317,0,0,1,1.316-1.254c1.175-1.011,2.35-2.014,3.549-3.016,2.351-1.974,4.638-3.917,6.95-5.923q7-5.994,13.931-12.066c.321-.282-.141-.729-.454-.462Z" transform="translate(-27.28 -29.43)"/><path d="M154.681,133.9a193.693,193.693,0,0,0-15.192,12.536q-3.643,3.33-7.13,6.824a84.572,84.572,0,0,0-6.84,7.381c-.36.462.219,1.1.674.666,2.413-2.35,4.638-4.834,7-7.208s4.6-4.544,6.973-6.738c4.826-4.458,9.833-8.744,15-12.8.36-.282-.118-.909-.486-.635Z" transform="translate(-27.149 -30.255)"/><path d="M152.369,143.522c-4.913,3.917-9.668,8.023-14.2,12.371q-3.4,3.259-6.652,6.668a47.458,47.458,0,0,0-6.009,6.9c-.235.36.259.666.548.423a83.336,83.336,0,0,0,6.542-6.762c2.147-2.241,4.3-4.4,6.519-6.542q6.7-6.472,13.852-12.465c.423-.353-.18-.932-.6-.6Z" transform="translate(-27.157 -32.411)"/><path d="M149.5,154.9c-4.223,3.745-8.477,7.451-12.669,11.228-2.068,1.865-4.137,3.722-6.19,5.61-.948.862-1.92,1.716-2.8,2.64-.666.705-1.692,1.645-1.833,2.64a.345.345,0,0,0,.5.392,15.078,15.078,0,0,0,2.4-2.445c.776-.752,1.818-1.677,2.734-2.507,2.068-1.865,4.121-3.745,6.182-5.626,4.106-3.761,8.148-7.592,12.223-11.384.368-.337-.172-.87-.541-.548Z" transform="translate(-27.277 -34.958)"/><path d="M151.411,160.857a103.135,103.135,0,0,0-11.643,9.637q-2.734,2.633-5.281,5.484a35.257,35.257,0,0,0-4.7,5.908.384.384,0,0,0,.6.462c1.779-1.7,3.259-3.706,4.9-5.547s3.353-3.635,5.116-5.359a116.32,116.32,0,0,1,11.392-9.841c.415-.313,0-1.026-.415-.713Z" transform="translate(-28.087 -36.308)"/><path d="M153.077,169.091c-3.8,3.009-7.553,6.056-11.22,9.222q-2.719,2.351-5.375,4.74c-.885.784-1.771,1.567-2.648,2.413a13.577,13.577,0,0,0-2.4,2.531.384.384,0,0,0,.517.525,13.7,13.7,0,0,0,2.578-2.092c.885-.783,1.763-1.614,2.648-2.405q2.738-2.468,5.484-4.889c3.643-3.173,7.31-6.331,11.039-9.4.462-.376-.188-1-.642-.642Z" transform="translate(-28.444 -38.14)"/><path d="M153.36,176.253c-2.774,2.209-5.484,4.474-8.094,6.887-1.285,1.183-2.539,2.4-3.776,3.628-.6.6-1.2,1.207-1.779,1.826A10.123,10.123,0,0,0,138,190.63a.439.439,0,0,0,.588.6,10.913,10.913,0,0,0,1.833-1.724l1.771-1.833c1.254-1.277,2.539-2.539,3.839-3.769,2.562-2.437,5.171-4.826,7.9-7.051.4-.329-.172-.878-.564-.564Z" transform="translate(-29.864 -39.734)"/><path d="M156.257,182.678l-5.124,4.388a29.34,29.34,0,0,0-2.225,1.951c-.556.564-1.387,1.434-1.113,2.3a.36.36,0,0,0,.517.212,2.742,2.742,0,0,0,.737-.9,5.8,5.8,0,0,1,.783-.94c.713-.705,1.473-1.355,2.217-2.029l4.811-4.341c.439-.392-.2-1.011-.635-.635Z" transform="translate(-31.984 -41.129)"/><path d="M158.557,188.391l-.533.509a.244.244,0,0,0,.306.368l.6-.407a.345.345,0,0,0,.133-.18.259.259,0,0,0-.055-.259.29.29,0,0,0-.439,0Z" transform="translate(-34.197 -42.373)"/><path d="M164.473,183.065c0,.548.345.517.423.917,0,.094.149.047.212-.094.11-.29.321-.415.4-.783.047-.2.172-.313.29-.306s.329.486.65.227h0c-.055.431.2.454.251.744,0,.11,0,.251.118.2s.11-.2.133-.306c.078-.415.212-.462.384-.4s.071.3.133.36.157-.392.251-.329a2.146,2.146,0,0,1,.384.227c.047.047,0,.29.157.157s.086-.274.086-.415a.6.6,0,0,1,.118-.447c.118-.1.133.149.172.274s0,.353.1.274c.282-.18.313.125.376.392,0,.149.063.423.219.2.3-.407.47-.2.666-.078.047-.1,0-.227.1-.329a.454.454,0,0,1,.682.133c0,.078,0,.2.078.2.266,0,.3.345.345.7,0,.157.086.368.235.165s.29-.2.423-.29.243,0,.345-.2c.227-.423.3-.251.321.055s.094.345.274.071c.071-.118.157-.235.2-.078.086.384.235.227.423-.078a.353.353,0,0,1,.2-.165,2.593,2.593,0,0,0,1.387-1.019l.071-.078c0-.321.063-.642.086-.964a62.332,62.332,0,0,0-6.393-1.136c-4.168-.548-8.383-.885-12.489-1.771-3.776-.783-7.514-1.841-11.251-2.8a.4.4,0,0,0,0,.415,2.585,2.585,0,0,0,.783.9c.086.071.2.078.337-.086s.172-.18.157.078,0,.533.149.556.313-.251.447-.509.337-.376.415-.078c.039.165.141.2.219.125.384-.337.407,0,.29.635.313-.705.36-.423.407-.118s.384.572.674.345.517-.266.6.329c0,.227.149.1.227.039.4-.29.65-.227.846.259.274.658.36.6.854-.157.133-.212.274-.627.415-.251.071.188.384-.118.3.423a.956.956,0,0,0,.172.611c.094.141.212-.172.321-.266a.238.238,0,0,1,.376.165c.078.494.313.431.6.29s.376-.149.439.172c0,.2.133.133.251.047s.478-.3.572-.11a3.173,3.173,0,0,1,.368.729c.071.306.227.2.313-.086.165-.5.212-.29.306-.125a1.183,1.183,0,0,1,.118.306c0,.094.063.172.141.133s.133-.18.18-.306a1.631,1.631,0,0,1,.172-.65v.619c0,.188,0,.423.18.439s.18-.219.235-.4a.384.384,0,0,1,.266-.282c.094,0,.118.118.11.235a2.845,2.845,0,0,0,.1.783c.078.368.172.376.423.055.611-.784.548-.784.58.188,0,.274.063.368.274.227s.462-.462.65-.266.321.431.619.227A.086.086,0,0,1,160,182c.078.18.219.18.353.078s.29-.039.329.219c0,.094,0,.2.133.125.384-.274.627,0,.783.313s.266.235.486-.125c0,.392.149.415.345.306a3.653,3.653,0,0,0,.353-.172c.18-.118.306-.078.321.188,0,.415,0,.854.439.392.243.243.509-.125.744-.4S164.488,182.807,164.473,183.065Z" transform="translate(-31.385 -39.711)"/><path d="M135.536,182.207a13.68,13.68,0,0,1-2.64,1.167,327.707,327.707,0,0,0-33.808,12.912c-33.26,14.839-64.075,35.375-89.852,61.16q-4.7,4.7-9.175,9.637c-.329.36.212.909.548.541A299.725,299.725,0,0,1,87.578,203.6c14.7-7.247,35.853-15.1,51.523-20.089C138.9,183.132,139.328,179.857,135.536,182.207Z" transform="translate(0 -41.943)"/><path d="M236.475,168.449a6.513,6.513,0,0,1,.925-.979,306.508,306.508,0,0,0-30.4,5.038,3.134,3.134,0,0,1,.956,1.716q13.907-2.962,28.018-4.623A2.531,2.531,0,0,1,236.475,168.449Z" transform="translate(-44.808 -37.715)"/><path d="M538.484,263.308c-8.618-9.6-18.389-17.715-28.747-25.346a393.67,393.67,0,0,0-39.52-25.268c-13.445-7.623-27.242-14.675-41.369-20.951-11.5-5.1-23.278-9.872-35.461-13.092-8.767-2.35-17.778-3.917-26.694-5.594-10.4-1.935-20.857-3.6-31.34-4.92a418.684,418.684,0,0,0-63.518-2.938,5.626,5.626,0,0,1-.486,2.068c36.668-1.269,76.493,3.722,112.338,11.345,26.639,5.665,51.711,17.652,75.6,30.494,25.589,13.774,51.053,29.428,72.356,49.36,2.014,1.88,4.019,3.808,5.853,5.868C538.084,265,539.087,263.99,538.484,263.308Z" transform="translate(-58.711 -38.402)"/><path d="M132.591,210.848a93.506,93.506,0,0,1,17.237,3.722,105.768,105.768,0,0,1,15.435,6.487c8.125,4.09,15.936,8.791,23.92,13.139a176.28,176.28,0,0,1,19.587,11.972,72.659,72.659,0,0,1,17.707,17.566A52.6,52.6,0,0,1,235.417,289c.11,1.277.188,2.554.227,3.839a.423.423,0,0,0,.838,0,50.214,50.214,0,0,0-6.895-26.811,68.774,68.774,0,0,0-17.065-18.8,147.534,147.534,0,0,0-20.214-12.873c-2.993-1.63-6.009-3.22-9-4.85-4.638-2.531-9.183-5.218-13.852-7.686-10.107-5.32-20.771-9.551-32.17-10.969-1.567-.2-3.087-.4-4.646-.548-.353,0-.345.5,0,.548Z" transform="translate(-28.656 -48.207)"/><path d="M422.649,211.493c-3.8,1.465-7.616,2.844-11.392,4.38q-5.955,2.429-11.87,5.007c-8.148,3.534-16.218,7.294-24,11.588a130.2,130.2,0,0,0-21.5,14.495,70.077,70.077,0,0,0-15.74,18.483,49.752,49.752,0,0,0-6.7,23.262c0,1.12,0,2.241.055,3.353a.407.407,0,0,0,.784,0c.525-8.211,2.233-16.289,6.056-23.638a66.6,66.6,0,0,1,14.886-18.632,121.821,121.821,0,0,1,20.716-14.612,255.61,255.61,0,0,1,23.411-11.69q5.915-2.632,11.893-5.124c3.714-1.567,7.506-3.063,11.11-4.881.854-.431,1.724-.846,2.593-1.246.407-.2.118-.909-.313-.744Z" transform="translate(-71.738 -48.46)"/><path d="M350.017,200.2c-8.618,4.411-34.693,17.84-42.309,23.881a132.031,132.031,0,0,0-17.237,16.375c-1.2-.737-2.4-1.489-3.62-2.194-1.363-.783-2.868-1.465-4.184-2.288-.36-.219-6.354-2.46-6-2.241,1.332.831,8.266,4.7,9.582,5.571s2.68,1.716,4.019,2.578a.674.674,0,0,0,.784-.1,142.6,142.6,0,0,1,32.249-26.4c3.134-1.873,24.179-11.9,27.422-13.554A2.86,2.86,0,0,1,350.017,200.2Z" transform="translate(-59.88 -45.383)"/><path d="M123.977,214.98a24.924,24.924,0,0,0,3.44-1.363c1.1-.486,2.241-.862,3.361-1.293a.784.784,0,0,0-.415-1.512,24.21,24.21,0,0,0-3.62,1.41,10.632,10.632,0,0,0-3.134,2.068.415.415,0,0,0,.4.689Z" transform="translate(-26.736 -47.451)"/><path d="M128.919,200.32c-.533.893-1.081,1.763-1.567,2.7s-.854,1.8-1.285,2.711-.784,1.833-1.2,2.758l-.611,1.434-.266.619-.18.454c-.071.118-.055.133,0,0l.494-.133.133.055a1.089,1.089,0,0,0-.219-.094,1.118,1.118,0,0,0-.227,0c-.635-.047-.925.6-.854,1.113a1.12,1.12,0,0,0,1.3.9c.666-.1.956-.658,1.191-1.222.494-1.2.979-2.413,1.465-3.62s.9-2.35,1.332-3.541.784-2.523,1.136-3.823a.392.392,0,0,0-.713-.306Z" transform="translate(-26.657 -45.117)"/><path d="M397.477,187.448a15.145,15.145,0,0,0,4.6,1.449c.736.149,1.473.29,2.217.407s2.1.494,2.35-.533-1.183-1.207-1.88-1.308-1.481-.227-2.225-.36a30.147,30.147,0,0,0-4.779-.783.619.619,0,0,0-.313,1.152Z" transform="translate(-85.96 -41.937)"/><path d="M460.772,196.811a15.866,15.866,0,0,0-.9,7.764,35.251,35.251,0,0,0,.635,3.918,27.209,27.209,0,0,0,1.019,4.019,1.011,1.011,0,0,0,1.982-.266,1.442,1.442,0,0,0-1.073-1.567.6.6,0,0,0-.783.58,1.372,1.372,0,0,1-.047.47l1.849.243c-.2-1.214-.635-2.413-.925-3.6a34.887,34.887,0,0,1-.784-3.792,39.957,39.957,0,0,1,.039-7.5c0-.533-.838-.783-1.066-.282Z" transform="translate(-99.507 -44.332)"/><path d="M397.833,184.768a30.314,30.314,0,0,0,6.025.251l6,.047h6.009c1.841,0,4.09.376,5.79-.454a.783.783,0,0,0,0-1.269c-1.7-.823-3.917-.454-5.79-.447H409.86c-2,0-4,0-6,.047a32.054,32.054,0,0,0-6.025.243.784.784,0,0,0,0,1.567Z" transform="translate(-85.939 -41.141)"/><path d="M374.83,209.349v0Z" transform="translate(-81.132 -47.089)"/><path d="M386.605,160.26c-.517.172-.36.5-.713.713-.086.047,0,.157.165.165.306,0,.5.165.854.118a.345.345,0,0,1,.392.157c.063.227-.345.478,0,.7h0c-.423.094-.368.337-.619.486-.094.055-.235.1-.141.18s.219,0,.329,0c.415-.063.509.047.509.227s-.259.172-.29.251c-.078.2.415,0,.392.118a2.064,2.064,0,0,1-.078.439c0,.063-.266.125-.1.2a.619.619,0,0,0,.423-.063c.149-.047.321-.125.462,0s-.094.18-.2.251-.345.1-.227.2c.266.2,0,.337-.235.486s-.376.2-.125.274c.494.141.353.376.306.6.118,0,.227-.063.345,0a.454.454,0,0,1,.11.689c-.063.047-.172.1-.157.141.086.251-.219.4-.533.564-.141.07-.313.2-.07.274s.274.2.415.3.094.227.306.251c.478.071.337.2.063.321s-.3.212,0,.282c.133,0,.274.071.141.157-.329.212-.133.306.219.376a.329.329,0,0,1,.219.133,2.687,2.687,0,0,0,1.434.956l.1.039.94-.251c-.259-2.147-.666-4.278-1.136-6.393-.917-4.106-2.045-8.18-2.617-12.34-.533-3.831-.846-7.686-1.238-11.533a.392.392,0,0,0-.392.117,2.756,2.756,0,0,0-.58,1.034.241.241,0,0,0,.188.282c.188.063.235.11,0,.18s-.509.149-.47.329.345.2.627.243.47.188.219.368c-.133.094-.133.2-.039.251.447.243.172.368-.494.486.784.047.517.2.251.345s-.415.556-.094.744.423.4-.1.689c-.2.11-.047.165,0,.219.415.274.431.533.047.885-.525.486-.439.541.439.744.243.063.689.047.376.306-.149.133.243.321-.29.431a.893.893,0,0,0-.517.368c-.1.141.235.141.36.2.251.133.164.313,0,.423-.431.235-.3.431-.071.65s.274.306,0,.47-.07.172.047.259.447.345.3.494a3.264,3.264,0,0,1-.556.6c-.258.18-.117.282.188.274.533,0,.345.094.227.243a1.706,1.706,0,0,1-.251.212c-.078.055-.141.11-.078.18s.212.055.353.063a2.192,2.192,0,0,1,.666-.063l-.588.18c-.235.078-.392.188-.353.321s.266.094.454.086a.368.368,0,0,1,.36.157c.055.078-.07.141-.188.18a3.552,3.552,0,0,0-.689.353c-.313.2-.282.3.1.423.94.306.924.243,0,.611-.259.1-.321.18-.125.329s.6.282.478.517-.3.454,0,.658a.147.147,0,0,1-.047.11.264.264,0,0,0,.047.353c.141.086.133.259-.094.384-.086.047-.172.1-.078.165.392.274.2.6,0,.87s-.133.321.274.407c-.36.141-.337.282-.164.431s.172.188.282.274.18.251-.063.36c-.384.172-.784.321-.219.548-.149.306.29.431.635.564S386.856,160.181,386.605,160.26Z" transform="translate(-83.332 -31.595)"/><path d="M416.26,53.867a35.413,35.413,0,0,0,3.2,4.756c1.222,1.567,2.476,3.087,3.628,4.7l.141-.541a3.3,3.3,0,0,1-1.489.251H418.2c-.36,0-.784,0-.878-.423a.3.3,0,0,0-.478-.071c-.368.376-.133.87.282,1.1a3.659,3.659,0,0,0,1.857.227h2.593a4.7,4.7,0,0,0,2.076-.36.407.407,0,0,0,.141-.541c-2.28-3.134-5.124-5.931-7.193-9.253a.188.188,0,0,0-.321.188Z" transform="translate(-90.098 -12.087)"/><path d="M402.694,60.351l-.321.266a5.915,5.915,0,0,1-2.209-2.821,3.455,3.455,0,0,1,.635-3.408,1.285,1.285,0,0,1,.917-.47c.47,0,.783.431,1.042.846.705,1.277.509,3.134,1.755,3.855,0-.071.987.674.94-.094-.141-2.445-.18-8.814,1.285-8.814,2.217,0,4.983,2.076,4.983,2.076,1.9-2.507,5.414-6.722.956-12.411-1.136-1.457-3.134-2.3-4.231-1.771-2.17,1-2.633,3.714-3.252,6.025-.462-1.826-2.311-2.915-4.059-3.612a2.914,2.914,0,0,0-1.8-.282,2.491,2.491,0,0,0-1.567,1.974,5.978,5.978,0,0,0,.454,3.917,11.878,11.878,0,0,0-5.163-3.275.909.909,0,0,0-1.363.948,10.256,10.256,0,0,0,2.1,7.051s-2.531-2.155-3.494,1.3,2.131,2.609,2.131,2.609c.36,2.828.831,5.876,2.852,7.835.674.666,1.567,1.269,1.724,2.2a3.322,3.322,0,0,1-.235,1.622,54.063,54.063,0,0,1-2.037,5.328l1.167,1.685s2.351-8.258,2.656-8.971,3.62-1.387,3.87-1.771A5.593,5.593,0,0,0,402.694,60.351Z" transform="translate(-84.438 -8.108)"/><path d="M414.341,59.983h.094l-.556-.564h0a.877.877,0,0,0,.619.619,1.309,1.309,0,0,0,.243,0,.846.846,0,0,0,.454-.125h.055l.118-.047a.783.783,0,0,0,.384-.682.69.69,0,0,0-.11-.392.635.635,0,0,0-.274-.282l-.118-.055H415.2a.925.925,0,0,0-.454-.125,1.309,1.309,0,0,0-.243.039.877.877,0,0,0-.619.619h0l.556-.564h-.094l-.18.078a.627.627,0,0,0-.227.2.337.337,0,0,0-.094.172.494.494,0,0,0-.071.3v.212l.078.188a.658.658,0,0,0,.2.219.784.784,0,0,0,.266.141Z" transform="translate(-89.559 -12.629)"/><path d="M417.337,113.952c-3.3.282-6.66-1.34-9.559-2.774a44.52,44.52,0,0,1-4.082-2.3c-.658-.415-1.308-.854-1.943-1.308a12.593,12.593,0,0,0-2.045-1.426c-.4-.18-1.05.243-.705.705a14.847,14.847,0,0,0,3.965,2.969,44.724,44.724,0,0,0,4.7,2.554c2.836,1.332,6.6,3.22,9.8,2.241.353-.1.306-.7-.094-.666Z" transform="translate(-86.341 -23.904)"/><path d="M402.27,93.322a43.877,43.877,0,0,1,7.953,3.628c1.128.682,2.217,1.418,3.291,2.186.619.439,1.23.893,1.833,1.355a7.3,7.3,0,0,0,1.974,1.261.36.36,0,0,0,.407-.533,13.748,13.748,0,0,0-3.541-2.821c-1.191-.831-2.35-1.567-3.588-2.288a33.69,33.69,0,0,0-8.219-3.212.219.219,0,0,0-.11.423Z" transform="translate(-87.038 -20.928)"/><path d="M429.627,88.126a57.453,57.453,0,0,0-4.521,5.038,31.129,31.129,0,0,0-2.531,3.659,18.024,18.024,0,0,0-1.011,2.021,4.568,4.568,0,0,0-.525,2.061.29.29,0,0,0,.533.149,10.643,10.643,0,0,0,.784-1.88,16.222,16.222,0,0,1,1-2.029,32.914,32.914,0,0,1,2.6-3.776c1.308-1.677,2.7-3.252,4.129-4.819a.3.3,0,0,0-.423-.423Z" transform="translate(-91.133 -19.848)"/><path d="M437.106,94.589c-1.873,2.3-3.447,4.85-5.226,7.224-1.191,1.567-2.445,3.134-3.784,4.623-1.692,1.857-3.714,3.377-5.406,5.226-.321.353.118,1.026.541.705a40,40,0,0,0,5.571-5.234,55.022,55.022,0,0,0,3.745-4.7,55.215,55.215,0,0,0,4.944-7.537c.118-.235-.2-.525-.384-.3Z" transform="translate(-91.465 -21.325)"/><path d="M382.256,121.732c-.65-.2-.486-2.531-.486-3.024,0-1.481.1-2.969.227-4.442s.227-2.954.478-4.4a24.711,24.711,0,0,1,2.351-6.824,64.32,64.32,0,0,0,5.806-18.412,18.6,18.6,0,0,0,.259-3.792c0-.4.07-1.692-.439-1.951l-.29.689a14.205,14.205,0,0,1,3.4,2.648,21.866,21.866,0,0,0,2.977,2.092,20.136,20.136,0,0,0,7,2.625c.368.055.713-.368.392-.674s-.439-.407-.666-.6a.346.346,0,0,0-.486.494l.58.682.4-.674a24.21,24.21,0,0,1-7.381-2.86,21.7,21.7,0,0,1-3.244-2.484,9.042,9.042,0,0,0-2.781-1.974c-.392-.157-.666.5-.29.689-.125-.063-.118-.157-.086-.055a3.875,3.875,0,0,1,.094.525,14.26,14.26,0,0,1,.086,2.35,20.541,20.541,0,0,1-.4,3.087,78.338,78.338,0,0,1-2.429,9.77,48.212,48.212,0,0,1-1.81,4.928c-.784,1.708-1.669,3.322-2.35,5.054-1.324,3.3-1.567,6.746-1.794,10.264a35.226,35.226,0,0,0,0,4.7c.047.572.07,1.763.783,1.974a.22.22,0,0,0,.118-.423Z" transform="translate(-82.531 -17.873)"/><path d="M405.483,114.618a78.813,78.813,0,0,0,3.745,19.031l.423-.556c-5.054-.11-10.107.18-15.153.188a70.3,70.3,0,0,1-7.271-.251c-1.5-.133-3.361-.259-4.638-1.128-.5-.337-.979.478-.478.783a10.1,10.1,0,0,0,4.513,1.16,69.733,69.733,0,0,0,7.349.321c5.226,0,10.452-.235,15.67-.219a.439.439,0,0,0,.415-.556,92,92,0,0,1-3.917-18.8c-.047-.392-.65-.415-.627,0Z" transform="translate(-82.66 -25.795)"/><path d="M387.379,87.7c-2.742-.736-5.61-1-8.4-1.5-.674-.118-1.348-.235-2.014-.376a3.6,3.6,0,0,0-1.716-.219c-1.042.306-1.645,1.951-2.021,2.836-1.042,2.484-1.3,5.2-1.81,7.835s-1.089,5.289-1.567,7.953c-.259,1.457-.494,2.922-.674,4.4-.078.642-.149,1.293-.188,1.943a13.455,13.455,0,0,0,.133,1.951.392.392,0,1,0,.783,0c0-1.011.18-2.084.266-3.134.1-1.214.251-2.413.439-3.612.392-2.484.885-4.944,1.379-7.4.447-2.241.784-4.521,1.261-6.762a14.1,14.1,0,0,1,1.426-3.98c.243-.423.407-.784.877-.948a1.567,1.567,0,0,1,1.011,0c.619.118,1.238.219,1.857.321,2.922.447,5.845.831,8.759,1.324.415.078.6-.533.18-.642Z" transform="translate(-79.867 -19.343)"/><path d="M369.076,120.3a18.953,18.953,0,0,0,5.163,1.865,10.907,10.907,0,0,0,2.9.227c.737-.055,1.959-.243,2.35-.94a.313.313,0,0,0-.266-.462,4.535,4.535,0,0,0-1.128.266,8.855,8.855,0,0,1-1.2.18,10.8,10.8,0,0,1-2.75-.149,19.345,19.345,0,0,1-4.779-1.567c-.368-.165-.689.36-.321.548Z" transform="translate(-79.844 -26.938)"/><path d="M385.567,96.842a5.7,5.7,0,0,1-1.567-.6,15.592,15.592,0,0,1-1.426-.956c-.306-.219-.65.2-.486.486a6.425,6.425,0,0,0,3.588,2.93l.219-.783c-.556-.165-1.113-.353-1.653-.572-.251-.094-.5-.2-.784-.306a4.388,4.388,0,0,0-.862-.368.439.439,0,0,0-.47.2.415.415,0,0,0,.063.509,3.134,3.134,0,0,0,.823.423c.3.125.6.251.9.36.564.212,1.144.392,1.724.548a.407.407,0,0,0,.219-.784,5.21,5.21,0,0,1-1.81-.948,5.8,5.8,0,0,1-1.379-1.567l-.494.494a7.334,7.334,0,0,0,3.283,1.449.259.259,0,0,0,.071-.509Z" transform="translate(-82.694 -21.433)"/><path d="M410.212,144.432q-.423-2.021-.964-4.019a5.486,5.486,0,0,0-.721-1.771l-2.742-.078a63.613,63.613,0,0,1-13.092.11c-.6-.047-1.2-.11-1.794-.188a50.2,50.2,0,0,1-7.279-.235c.6,2.68,1.395,6.158,1.763,7.905l25.072-.165Z" transform="translate(-83.033 -31.141)"/><path d="M413.952,68.994a2.625,2.625,0,0,0-.133,1.387,2.045,2.045,0,0,0,.682,1.113,1.943,1.943,0,0,0,1.222.454,2.515,2.515,0,0,0,1.379-.556,1.128,1.128,0,0,0,.549-.611c.086-.376-.29-.784-.674-.564a.353.353,0,0,0-.125.478.375.375,0,0,0,.094.125.259.259,0,0,1-.055-.219h0s-.078.071-.11.094l-.149.118a2.694,2.694,0,0,1-.509.329,1.293,1.293,0,0,1-1.05.071,1.512,1.512,0,0,1-.784-.784,2.35,2.35,0,0,1-.172-1.355.1.1,0,0,0-.164-.078Z" transform="translate(-89.562 -15.524)"/><path d="M407.533,82.63s4.552,1.661,5.484,1.771-.533,3.4-.533,3.4-4.944-1.1-5.281-1.238S407.533,82.63,407.533,82.63Z" transform="translate(-88.118 -18.604)"/><path d="M402.415,109.845v.063l.188-.2a2.053,2.053,0,0,1-.979-.165l-.972-.313c-.627-.212-1.246-.423-1.865-.65s-1.238-.47-1.841-.736c-.313-.133-.619-.274-.925-.423a2.672,2.672,0,0,1-.784-.439.509.509,0,0,0-.517-.141c-.243.1-.125.039-.188.462s-.133.4.094.6a1.9,1.9,0,0,0,.486.29c.392.2.783.376,1.191.548a25.81,25.81,0,0,0,2.586.987,16.876,16.876,0,0,0,2.625.642,2.029,2.029,0,0,0,1.144,0,.392.392,0,0,0,.149-.619.243.243,0,0,0-.407.1Z" transform="translate(-85.382 -24.045)"/><path d="M396.065,78.827a11.564,11.564,0,0,0-3.455-.6c-.932.188-.29,1.434-.29,1.434a6.213,6.213,0,0,1,2.233.846c.5.5,1.387,1.222,1.387-.047A6.269,6.269,0,0,1,396.065,78.827Z" transform="translate(-84.871 -17.601)"/><path d="M439.455,93.572a3.918,3.918,0,0,0-1.167-1.739,12.154,12.154,0,0,0-1.692-1.41c-.627-.462-1.269-.925-1.92-1.348-.353-.227-.705-.439-1.066-.635a4.261,4.261,0,0,0-1.152-.494.282.282,0,0,0-.219.517c.321.212.713.337,1.05.517s.65.368.964.572c.65.407,1.277.854,1.9,1.3a15.677,15.677,0,0,1,1.638,1.316,8.535,8.535,0,0,1,.689.721,10.013,10.013,0,0,0,.658.862.188.188,0,0,0,.313-.18Z" transform="translate(-93.524 -19.8)"/><path d="M410.622,86.418a2.029,2.029,0,0,0-.783,2.35,3.275,3.275,0,0,0,2.139,1.52l-.306-.541c-.18.783-.36,1.567-.548,2.35a11.534,11.534,0,0,0-.486,2.35.423.423,0,0,0,.783.118h0l-.689.188c-.094-.086,0,.063.055.086a.407.407,0,0,0,.666-.172h0c.157-.454-.47-.627-.713-.306h.768c.063.1,0-.086,0-.118a.423.423,0,0,0-.713,0h0l.729.431a13.828,13.828,0,0,0,.572-2.35c.18-.784.36-1.567.525-2.35a.447.447,0,0,0-.306-.533,2.7,2.7,0,0,1-1.606-.925c-.407-.635.047-1.246.345-1.81a.219.219,0,0,0-.345-.266Z" transform="translate(-88.684 -19.458)"/><path d="M414.14,85.81a4.317,4.317,0,0,0-.784,2.734c0,.909.721,1.332,1.489,1.645l-.18-.666A8.3,8.3,0,0,0,412.2,93.5c-.125.431-.384,1.113-.1,1.512a.313.313,0,0,0,.486.063c.321-.29.29-.823.392-1.214a7.05,7.05,0,0,1,.509-1.426,7.921,7.921,0,0,1,1.755-2.35.407.407,0,0,0-.18-.674,1.911,1.911,0,0,1-.783-.447,1.246,1.246,0,0,1-.133-.932c.055-.705.329-1.371.384-2.061a.219.219,0,0,0-.376-.165Z" transform="translate(-89.17 -19.317)"/><path d="M440.492,90.846a9.238,9.238,0,0,0,4.646-4.27,3.44,3.44,0,0,0,.211-2.609c-.439-.948-1.567-.11-2.194.172l.392.392a4.3,4.3,0,0,0,.447-2.4c-.055-.619-.274-.917-.917-.979-1.669-.172-2.946,1.2-3.917,2.35l.462.266c.353-1.418,1.34-3.612-.439-4.505a2.225,2.225,0,0,0-3.134,2.006c0,.337.548.431.6.078a2.123,2.123,0,0,1,.878-1.551,1.567,1.567,0,0,1,1.88.125c1.089.956,0,2.672-.3,3.761-.063.243.282.494.462.266a5.978,5.978,0,0,1,2.476-2.241,2.24,2.24,0,0,1,.846-.149.979.979,0,0,1,.658.321,1.2,1.2,0,0,1,.039.478,4.207,4.207,0,0,1-.541,1.912.29.29,0,0,0,.392.392l.564-.274c.118-.063.509-.337.65-.313.384.071.306.917.274,1.167a4.747,4.747,0,0,1-1.026,2.35,9.841,9.841,0,0,1-1.7,1.606c-.6.478-1.3.831-1.9,1.308-.165.125,0,.384.188.329Z" transform="translate(-94.381 -17.822)"/><path d="M432.432,86.252c.619-.509.251-1.739,0-2.35-.321-.854-.682-1.677-.964-2.546-.1-.345-.3-.846,0-1.16s.831-.172,1.152.055a6.777,6.777,0,0,1,1.692,2.155.345.345,0,0,0,.533.071,3.134,3.134,0,0,0,.736-.932.219.219,0,0,0-.306-.3,3.212,3.212,0,0,0-.909.784l.533.071a11.493,11.493,0,0,0-.987-1.23,5.021,5.021,0,0,0-1.058-.979,1.269,1.269,0,0,0-1.92.494,2.351,2.351,0,0,0,.07,1.246,11.974,11.974,0,0,0,.509,1.567,10.411,10.411,0,0,1,.572,1.489,3.315,3.315,0,0,1,.117.784,3.91,3.91,0,0,0,0,.783.125.125,0,0,0,.212.055Z" transform="translate(-93.263 -17.934)"/><path d="M371.915,126.2a3.252,3.252,0,0,1,1.073-1.739,2.351,2.351,0,0,1,.87-.486,1.731,1.731,0,0,1,.486-.1c.149,0,.164,0,.2.149a.846.846,0,0,1,0,.313,2.93,2.93,0,0,1-.431,1.238,9.243,9.243,0,0,1-.658,1.1c-.235.313-.486.7-.784,1.026s-.525.784-.87.736-.548.282-.29.5c.784.666,1.567-.58,1.927-1.1a11.972,11.972,0,0,0,1.387-2.35,2.9,2.9,0,0,0,.282-1.285c0-.392-.149-.838-.6-.9a2.954,2.954,0,0,0-1.974.783,3,3,0,0,0-1.1,2.084.219.219,0,0,0,.431.055Z" transform="translate(-80.388 -27.762)"/><path d="M375.346,125.264a5.275,5.275,0,0,1,.972-.987,2.789,2.789,0,0,1,1.12-.556c.149,0,.227,0,.29.1a.721.721,0,0,1,.063.313,1.662,1.662,0,0,1-.165.642,9.494,9.494,0,0,1-.721,1.332c-.266.447-.556.878-.862,1.3a5.482,5.482,0,0,1-.885,1.026,1.457,1.457,0,0,1-1.175.384.736.736,0,0,1-.431-.251,2.351,2.351,0,0,1-.251-.525.353.353,0,0,0-.627.086,1.12,1.12,0,0,0,.462,1.128,1.708,1.708,0,0,0,1.308.345,3.588,3.588,0,0,0,2.217-1.771,13.681,13.681,0,0,0,1.63-2.821,1.794,1.794,0,0,0,.047-1.395.784.784,0,0,0-1.05-.447,3.918,3.918,0,0,0-2.209,1.935.157.157,0,0,0,.266.157Z" transform="translate(-80.661 -27.723)"/><path d="M379.647,125.727a3.133,3.133,0,0,1,.6-.313,2.594,2.594,0,0,1,.6-.2c-.047,0,0,0,0,0h.2l.047.047h0l.047.157v.078h0a.29.29,0,0,0,.11.227.227.227,0,0,0,.266,0,.517.517,0,0,0,.172-.47.772.772,0,0,0-.862-.768,2.7,2.7,0,0,0-1.5.784c-.165.141.047.423.235.306Z" transform="translate(-82.094 -28.011)"/><path d="M380.3,127.14c0,.345-.384.666-.627.885a3.473,3.473,0,0,1-.87.588,3.251,3.251,0,0,1-.972.3,2.132,2.132,0,0,1-.5,0c-.188,0-.149-.086-.251-.219a.345.345,0,0,0-.58,0,.56.56,0,0,0,.259.783,1.191,1.191,0,0,0,.784.149,3.918,3.918,0,0,0,2.625-1.222,1.74,1.74,0,0,0,.572-1.363c-.039-.243-.4-.172-.407.055Z" transform="translate(-81.475 -28.558)"/><path d="M387.738,100.978c-.65-.509-1.371-.917-2.045-1.4a18.7,18.7,0,0,1-2.115-1.826.384.384,0,0,0-.65.274,30.008,30.008,0,0,1-.447,6.9,24.367,24.367,0,0,0-.478,6.652c.078.564.9.6.909,0,0-1.175,0-2.35.11-3.518s.266-2.264.423-3.393a26.217,26.217,0,0,0,.251-6.644l-.658.266a13.257,13.257,0,0,0,4.49,3.056c.2.063.384-.227.211-.368Z" transform="translate(-82.663 -22.018)"/><path d="M398.066,91.494c-3.024-2.2-4.262-3.714-6.6,0-3.353,5.32-4.262,13.46-4.262,15.247s5.7-3.3,5.7-3.3l2.68.964s-5.155,6.613-8.791,8.791c-.345.212-.415,8.109-5.633,7.561-3.675-.384-6.871-1.857-4.7-14.362s5.43-25,12.716-22.721c0,0,3.706,1.645,7.349,3.573a14.267,14.267,0,0,1,5.484,5.837Z" transform="translate(-81.332 -18.889)"/><path d="M391.107,85.665c-.141-1.92.893-3.228-3.134-4.325s-4.7-.619-4.7-.619a30.04,30.04,0,0,0-4.873,9.684c-1.724,5.845-4.607,17.519-2,19.172S391.107,85.665,391.107,85.665Z" transform="translate(-81.245 -18.227)"/><path d="M389.58,87.378a11.627,11.627,0,0,0-1.277,3.455l-.486,1.967a11.919,11.919,0,0,0-.407,2.014c0,.125.157.125.2,0a11.868,11.868,0,0,0,.541-1.959L388.577,91a13.869,13.869,0,0,1,1.1-3.541c.039-.063-.055-.118-.094-.063Z" transform="translate(-83.855 -19.679)"/><path d="M384.46,105.064a22.071,22.071,0,0,1-1.348,5.4,13.162,13.162,0,0,1-1.395,2.405c-.525.783-1.238,1.567-2.264,1.387l.149.368a3.23,3.23,0,0,0,.172-.274c.055-.094-.141-.36-.306-.235a2.176,2.176,0,0,0-.259.212.251.251,0,0,0,.11.415,2.35,2.35,0,0,0,2.178-.854,11.375,11.375,0,0,0,1.677-2.562,16.8,16.8,0,0,0,1.512-6.268.118.118,0,0,0-.227,0Z" transform="translate(-82.064 -23.651)"/><path d="M432.75,120.551a18.472,18.472,0,0,0,.783,3.134,10.681,10.681,0,0,0,1.214,2.93c.11.157.454.133.423-.118a17.136,17.136,0,0,0-.909-3.016c-.329-1.019-.642-2.045-1.026-3.04a.243.243,0,0,0-.462.125Z" transform="translate(-93.667 -27.091)"/><path d="M428.126,122.165c-.157.87-.313,1.747-.439,2.617-.055.447-.118.893-.157,1.34a6.9,6.9,0,0,0-.063,1.332.251.251,0,0,0,.486.07,9.136,9.136,0,0,0,.188-1.3l.141-1.34c.094-.885.188-1.771.306-2.656,0-.259-.415-.313-.462-.063Z" transform="translate(-92.522 -27.471)"/><path d="M421.706,122.454c-.133.486-.29.972-.392,1.457-.055.243-.125.478-.172.721a3.137,3.137,0,0,0-.1.784.188.188,0,0,0,.353.094,3.237,3.237,0,0,0,.29-.674c.086-.243.141-.494.219-.736.165-.478.274-.972.4-1.457a.309.309,0,1,0-.6-.165Z" transform="translate(-91.133 -27.517)"/><path d="M412.177,139s9.974,36.041,19.948,47.793c0,0-6.08,5.578-8.877,7.232,0,0-12.646-22-18.491-33.6s-6.2-18.686-6.2-18.686Z" transform="translate(-86.266 -31.607)"/><path d="M383.148,145.588c.368,2.672,3.776,19.462,4.262,22.62s-15.067,15.317-13.241,16.171,8.274,6.566,8.274,6.566,12.63-14.346,17.127-18.968-1.943-28.457-1.943-28.457Z" transform="translate(-80.955 -32.576)"/><path d="M434.807,206.485a25.409,25.409,0,0,0,4.9-1.316,40.794,40.794,0,0,0,4.623-1.88c2.578-1.254,5.273-3.361,5.712-6.386a.494.494,0,0,0-.212-.533,2.7,2.7,0,0,0-2.045-.219c-.259.094-.337.548,0,.6a4.412,4.412,0,0,1,1.567.431l-.219-.533c-.689,2.954-3.016,4.7-5.633,5.978-1.395.666-2.844,1.222-4.294,1.763s-3.009.948-4.466,1.567c-.266.1-.274.588.071.548Z" transform="translate(-94.054 -44.177)"/><path d="M442.792,197.8c.274-.125.5-.321.784-.47a8.533,8.533,0,0,1,2.492-1.011,7.891,7.891,0,0,1,1.716-.2,4.929,4.929,0,0,1,.9.055.987.987,0,0,0,.783-.141.258.258,0,0,0,.039-.321c-.266-.509-1.261-.447-1.755-.447a7.835,7.835,0,0,0-1.99.259,7.537,7.537,0,0,0-1.818.705,4.325,4.325,0,0,0-1.567,1.191c-.172.251.149.478.376.376Z" transform="translate(-95.74 -43.946)"/><path d="M369.4,200.646c1.066,1.967,2.092,3.972,3.056,5.994.47,1,.948,1.974,1.4,2.977.345.784.6,1.833,1.512,2.037a12.536,12.536,0,0,0,3.134,0c1.073-.047,2.131-.149,3.189-.29,1.826-.251,4.012-.478,5.171-2.076.235-.321-.2-.658-.5-.509a14.886,14.886,0,0,1-5.148,1.426c-.948.118-1.912.2-2.868.235-.533,0-1.065.039-1.567.039s-.987.1-1.269-.251a6.606,6.606,0,0,1-.572-1.238c-.2-.423-.407-.846-.619-1.269-.415-.838-.854-1.669-1.308-2.484-.94-1.692-1.959-3.322-3.04-4.928a.3.3,0,1,0-.517.306Z" transform="translate(-79.956 -45.114)"/><path d="M379.3,206.871a11.2,11.2,0,0,1,3.322-1.058,5.3,5.3,0,0,1,3.5.454,12.716,12.716,0,0,1,2.68,1.927,9.342,9.342,0,0,1,1.144,1.081,2.24,2.24,0,0,1,.36.6c.094.243.086.431.29.619a.431.431,0,0,0,.5.063c.556-.274.423-1,.219-1.473a4.553,4.553,0,0,0-1.261-1.473,14.56,14.56,0,0,0-3.322-2.405,6.268,6.268,0,0,0-3.965-.541,7.106,7.106,0,0,0-3.917,1.661.345.345,0,0,0,.415.541Z" transform="translate(-81.981 -46.063)"/><path d="M447.268,212.293c1.912.956,3.957,1.606,5.947,2.39s3.972,1.677,5.955,2.554a1.16,1.16,0,0,0,1.348-.18,1.034,1.034,0,0,0,.329-.783,1.152,1.152,0,0,0-.783-1.081c-2.029-.721-4.1-1.363-6.15-2.029a39.536,39.536,0,0,0-6.268-1.724c-.478-.071-.87.6-.36.854Z" transform="translate(-96.76 -47.61)"/><path d="M113.907,223.638a9.668,9.668,0,0,1,1.849,1.779c.071.086-.086-.118,0,.047l.094.125.2.282c.118.18.219.376.337.556s.235.368.345.556a.964.964,0,0,0,.6.564.431.431,0,0,0,.478-.188.909.909,0,0,0,0-.862c-.094-.243-.2-.486-.306-.721a6.769,6.769,0,0,0-.87-1.222,7.31,7.31,0,0,0-2.233-1.8.517.517,0,1,0-.525.885Z" transform="translate(-24.597 -50.128)"/><path d="M119.47,224.913a4.22,4.22,0,0,1,.548.509c.086.086.157.172.235.266-.078-.094,0,0,0,.063l.11.165a5.141,5.141,0,0,1,.368.635v.086h0a.5.5,0,0,0,.071.165.769.769,0,0,0,.11.266h0a.785.785,0,0,0,.047.125,2.493,2.493,0,0,0,.165.423.572.572,0,0,0,.7.274.627.627,0,0,0,.36-.556,2.17,2.17,0,0,0-.086-.5,3.808,3.808,0,0,0-.7-1.4,4.991,4.991,0,0,0-1.387-1.238.494.494,0,0,0-.635.125.478.478,0,0,0,0,.642Z" transform="translate(-25.818 -50.451)"/><path d="M110.35,226.327l.071.219a.893.893,0,0,0,.125.329l.086.2a.517.517,0,0,0,.329.3.58.58,0,0,0,.259,0,.525.525,0,0,0,.212-.125.509.509,0,0,0,.141-.36.611.611,0,0,0,0-.172l-.047-.212a1.558,1.558,0,0,0-.141-.447.541.541,0,0,0-.243-.313.416.416,0,0,0-.188-.063.486.486,0,0,0-.212,0,.533.533,0,0,0-.313.243.509.509,0,0,0-.047.4Z" transform="translate(-23.9 -50.781)"/><path d="M142.973,216.844a17.663,17.663,0,0,0-.086,2.492,7.147,7.147,0,0,0,.118,1.355c.094.36.212,1,.689,1s.47-.705.486-1.066-.071-.862-.094-1.285a18.894,18.894,0,0,1,0-2.492.564.564,0,0,0-.564-.564.58.58,0,0,0-.572.564Z" transform="translate(-30.931 -48.697)"/><path d="M147.079,215.827l-.165,1.661a6.444,6.444,0,0,1-.047.784,1.246,1.246,0,0,0,.282.956.415.415,0,0,0,.486.063c.313-.165.415-.635.462-.956s.071-.548.094-.831l.11-1.692a.619.619,0,0,0-.611-.611.627.627,0,0,0-.611.611Z" transform="translate(-31.793 -48.445)"/><path d="M185.383,244.776c.243.337.478.674.729,1,.149.2.29.4.454.58l.2.212a.909.909,0,0,0,.439.321.572.572,0,0,0,.705-.541,1.316,1.316,0,0,0-.36-.729,6.7,6.7,0,0,0-.478-.58c-.266-.313-.548-.619-.823-.925a.556.556,0,0,0-.87.666Z" transform="translate(-40.117 -54.909)"/><path d="M187.673,245.379l1.081.4.548.2.274.07a.924.924,0,0,0,.486,0,.494.494,0,0,0,.3-.721.909.909,0,0,0-.329-.337,2.627,2.627,0,0,0-.259-.125c-.212-.094-.447-.172-.666-.259L188,244.2a.6.6,0,0,0-.478.063.6.6,0,0,0-.29.368.642.642,0,0,0,.439.783Z" transform="translate(-40.526 -54.949)"/><path d="M76.043,245.1a21.248,21.248,0,0,1,1.567,2.5c.227.423.447.854.642,1.293l.321.7a1.8,1.8,0,0,0,.18.345,1.231,1.231,0,0,0,.337.3.494.494,0,0,0,.729-.3,1.4,1.4,0,0,0-.086-.838c-.11-.259-.219-.509-.345-.783-.227-.462-.47-.909-.729-1.348a22.722,22.722,0,0,0-1.763-2.554c-.384-.486-1.23.157-.862.666Z" transform="translate(-16.451 -54.999)"/><path d="M82.13,245.574a6.7,6.7,0,0,1,.964,1.567,6.4,6.4,0,0,1,.29.878,3.259,3.259,0,0,0,.282,1.034.556.556,0,0,0,1-.125,2.108,2.108,0,0,0-.165-1.214,7.263,7.263,0,0,0-.423-1.058,7.052,7.052,0,0,0-1.238-1.786.5.5,0,1,0-.705.7Z" transform="translate(-17.759 -55.094)"/><path d="M89.693,245.529l-.133,1.3-.063.619a3.847,3.847,0,0,0-.047.674.494.494,0,0,0,.36.47h0l-.306-.3a.987.987,0,0,0,.172.337.321.321,0,0,0,.447,0,1.121,1.121,0,0,0,.345-.846,3.373,3.373,0,0,1,.063-.783l.118-1.5a.494.494,0,0,0-.486-.486.509.509,0,0,0-.486.486Z" transform="translate(-19.375 -55.154)"/><path d="M91.777,246.422a9.734,9.734,0,0,0-.705.909l-.274.423a5.129,5.129,0,0,0-.251.454.415.415,0,0,0,.063.478.407.407,0,0,0,.478.063c.157-.118.306-.227.454-.36l.384-.36.18-.165.165-.2.337-.407a.588.588,0,0,0,0-.831.619.619,0,0,0-.415-.172A.587.587,0,0,0,91.777,246.422Z" transform="translate(-19.602 -55.421)"/><path d="M58.842,253.333q.006.114,0,.227V253.4a3.847,3.847,0,0,1,0,1v-.165a4.929,4.929,0,0,1-.086.58v-.165a2.672,2.672,0,0,0-.086.6.548.548,0,0,0,.925.384,1.2,1.2,0,0,0,.251-.447l.094-.251a3.322,3.322,0,0,0,.094-.674,4.168,4.168,0,0,0-.1-1.246.6.6,0,0,0-.729-.415.611.611,0,0,0-.415.729Z" transform="translate(-12.711 -56.852)"/><path d="M54.8,253.843l.188.376.094.188a.784.784,0,0,0,.329.306.494.494,0,0,0,.259.071.329.329,0,0,0,.2-.047.352.352,0,0,0,.172-.1.5.5,0,0,0,.125-.227v-.086a.666.666,0,0,0,0-.392v-.211l-.071-.423a.674.674,0,0,0-.188-.313l-.141-.117a.729.729,0,0,0-.36-.094.5.5,0,0,0-.282.063.479.479,0,0,0-.18.118.549.549,0,0,0-.149.227.564.564,0,0,0-.063.274.642.642,0,0,0,.1.36Z" transform="translate(-11.858 -56.883)"/><path d="M522.512,234.363l.227.157c.149.094,0-.039.039,0l.1.086a3.622,3.622,0,0,1,.384.392s.118.157.039.047l.063.094a2.264,2.264,0,0,1,.149.227l.133.243.07.157h0a3.136,3.136,0,0,1,.165.525.507.507,0,0,0,.055.274c.055.094,0-.18,0,0a.693.693,0,0,1,0,.133,4.35,4.35,0,0,1,0,.548v.212a1.481,1.481,0,1,1,0,.149v.188a.831.831,0,0,0,.2.337.674.674,0,0,0,.784.1c.376-.2.4-.611.431-.987a2.969,2.969,0,0,0,0-.783,4.239,4.239,0,0,0-2.3-3.134.58.58,0,0,0-.784.2.564.564,0,0,0,.2.784Z" transform="translate(-113.019 -52.522)"/><path d="M527.938,234.211a10.682,10.682,0,0,1-.055,1.873,8.659,8.659,0,0,1-.133.9v.392a1.018,1.018,0,0,0,.055.7.541.541,0,0,0,.737.2.783.783,0,0,0,.306-.376.28.28,0,0,1,.055-.2,1.51,1.51,0,0,0,.1-.47,5.778,5.778,0,0,0,.078-1.1,11.753,11.753,0,0,0-.172-2.029.47.47,0,0,0-.517-.337.462.462,0,0,0-.407.462Z" transform="translate(-114.214 -52.623)"/><path d="M534.149,238.118a.619.619,0,1,0-.619-.619.619.619,0,0,0,.619.619Z" transform="translate(-115.473 -53.301)"/><path d="M557.981,238.336a4.764,4.764,0,0,0-2.209,1.645,4.873,4.873,0,0,0-.635,1.175,2.256,2.256,0,0,0-.125,1.449.588.588,0,0,0,1.066.141,3.394,3.394,0,0,0,.149-.353.442.442,0,0,1,.063-.274,3.5,3.5,0,0,0,.141-.525.6.6,0,0,1,.094-.266c.039-.023-.039.1,0,0a.79.79,0,0,1,.031-.125,5.056,5.056,0,0,1,.282-.494l.078-.11c0-.055.063-.078,0,0l.18-.219c.125-.133.259-.259.392-.376s.157-.11,0,0l.11-.078.235-.157.29-.133.141-.07h0a.642.642,0,0,0,.439-.784.635.635,0,0,0-.784-.439Z" transform="translate(-120.11 -53.654)"/><path d="M562.141,240.408c-.87.666-1.716,1.371-2.531,2.108-.439.392-1.019.885-.972,1.567a1.191,1.191,0,0,0,.564.979.964.964,0,0,0,1.128-.11.635.635,0,0,0-.125-.987s-.086-.086,0,0a.157.157,0,0,1,.07.071.266.266,0,0,1,.071.149.846.846,0,0,1-.1-.227c.039.11.055.133.039.078h0l.063-.1c-.055.078-.071.094,0,.047v-.047l.1-.11.235-.259c.141-.165.29-.321.439-.478a26.2,26.2,0,0,1,1.9-1.833.619.619,0,0,0,0-.862.635.635,0,0,0-.87,0Z" transform="translate(-120.909 -54.084)"/><path d="M563.283,245.212a4.943,4.943,0,0,0-.266.494,2.351,2.351,0,0,0-.219.784,1.292,1.292,0,0,0,.078.619,1.229,1.229,0,0,0,.251.439,1.263,1.263,0,0,0,.29.251.619.619,0,0,0,.658,0h.039l-.408.055a.878.878,0,0,0,.784-.11.384.384,0,0,0,.188-.384.392.392,0,0,0-.274-.321h-.094l-.07-.047h.047l.141.517v-.047a.658.658,0,0,0-.172-.635l-.055-.063.11.133a1.271,1.271,0,0,1-.165-.282l.071.165a1.079,1.079,0,0,1-.063-.212v.18a1.2,1.2,0,0,1,0-.29v.18a2.067,2.067,0,0,1,.133-.478l-.063.157c.063-.141.133-.282.2-.423a.642.642,0,0,0-.227-.878.65.65,0,0,0-.878.227Z" transform="translate(-121.808 -55.127)"/><path d="M567.149,248.652a1.424,1.424,0,0,0,0,.909,3.024,3.024,0,0,0,.125.282,2.774,2.774,0,0,0,.18.243,1.128,1.128,0,0,0,.235.188.65.65,0,0,0,.564.071h-.313a1.639,1.639,0,0,0,.274,0,.517.517,0,0,0,.454-.259l.055-.125a.532.532,0,0,0-.141-.517l-.055-.063.086.11h0l.078.3a.652.652,0,0,0,0-.2.783.783,0,0,0-.2-.329l.1.133-.157-.212.11.141a1.006,1.006,0,0,1-.118-.2l.071.157a.6.6,0,0,1-.055-.2v.18a.95.95,0,0,1,0-.212v.188a1,1,0,0,1,.039-.165l-.063.165h0a.674.674,0,0,0,.094-.345V248.7a.783.783,0,0,0-.18-.306.618.618,0,0,0-.227-.141.493.493,0,0,0-.266-.063.533.533,0,0,0-.266.063.587.587,0,0,0-.219.141.783.783,0,0,0-.18.306Z" transform="translate(-122.736 -55.854)"/><path d="M567.989,249.7a.039.039,0,1,0-.039-.039A.039.039,0,0,0,567.989,249.7Z" transform="translate(-122.925 -56.158)"/><path d="M548.48,244.831a.689.689,0,1,0-.616-.686A.689.689,0,0,0,548.48,244.831Z" transform="translate(-118.576 -54.783)"/><path d="M315.8,162.154a3.2,3.2,0,0,1,.6-.321l-.6-.11a7.2,7.2,0,0,1,.682,1.128,4.332,4.332,0,0,1,.439,1.167l.07.306v.219a4.26,4.26,0,0,0,.039.705,3.6,3.6,0,0,1,0,.65v.729c0,.415-.078,1.152.541,1.073.47-.063.736-.783.885-1.1a3.33,3.33,0,0,0,.211-1.614,7.046,7.046,0,0,0-.259-1.457,6.442,6.442,0,0,0-.674-1.5,5.03,5.03,0,0,0-1.214-1.23.6.6,0,0,0-.713.094,2.61,2.61,0,0,1-.533.439c-.494.376-.063,1.191.5.862Z" transform="translate(-68.195 -36.197)"/><path d="M322.42,161.49l.125,2.742c.039.87-.118,2.186.932,2.507a.721.721,0,0,0,.721-.2l.055-.063-.266.157a.7.7,0,0,0,.454-.972.423.423,0,0,0-.564-.141c.11-.047.423,0,.078-.047-.078,0,.141.039,0,0l.423.431a.854.854,0,0,0-.36-.509c.047,0,.149.188.094.071s-.047-.071,0,0a.59.59,0,0,1,0-.125c-.055-.165,0,.11,0-.047-.039-.431-.086-.862-.133-1.285l-.259-2.523a.666.666,0,0,0-.65-.65.65.65,0,0,0-.642.65Z" transform="translate(-69.789 -36.218)"/><path d="M327.233,163.971l-.541,2.131a1.441,1.441,0,0,0-.078.407v.141a3.339,3.339,0,0,0-.078.533,5.911,5.911,0,0,0-.125,1.167.462.462,0,0,0,.862.235,5.485,5.485,0,0,0,.439-1.034A2.645,2.645,0,0,1,327.9,167c-.071.11-.086.133-.039.071l.141-.18a1.567,1.567,0,0,0,.133-.384l.541-2.131a.784.784,0,0,0-1.481-.407Z" transform="translate(-70.653 -36.822)"/><path d="M296.752,58.539c-.11,10.914-.251,21.82-.282,32.742s-.133,21.938-.274,32.946q-.063,4.552-.141,9.081c-.047,3.063-.337,6.268-.118,9.284.11,1.606,2.593,1.645,2.539,0-.039-.948-.11-1.888-.172-2.836s-1.606-1.332-1.818-.243c-.18.909-.36,1.818-.509,2.742l2.5.337c.3-2.7.157-5.484.2-8.2s.078-5.312.11-7.968c.063-5.524.118-11.047.118-16.571,0-10.969,0-21.938-.313-32.954-.172-6.127-.47-12.238-.784-18.357a.541.541,0,0,0-1.073,0Z" transform="translate(-64.04 -13.323)"/><path d="M303.18,177.43a12.848,12.848,0,0,1,.063-1.567v-.784a4.315,4.315,0,0,0-.063-.783.157.157,0,0,0-.306,0,5.161,5.161,0,0,0-.055.783v.784c.039.533.047,1.066.07,1.567a.141.141,0,1,0,.282,0Z" transform="translate(-65.547 -39.204)"/><path d="M296.569,165.825a9.151,9.151,0,0,0-.917,3.44,24.952,24.952,0,0,0-.243,3.588,1.058,1.058,0,0,0,.917,1.034,1.042,1.042,0,0,0,1.16-.784,41.627,41.627,0,0,0,.407-8.2,1.1,1.1,0,0,0-2.2,0,55.775,55.775,0,0,0-.415,8.618,1.2,1.2,0,1,0,2.351,0c.141-1.285.259-2.57.384-3.863l-2.35.321v.345a3.422,3.422,0,0,1,0,.4c0-.172-.039.2-.039.2a1.6,1.6,0,0,1-.11.454,5.1,5.1,0,0,0-.5,1.732.784.784,0,0,0,.784.783c1.034-.047,1.653-1.019,2-1.9a5.1,5.1,0,0,0,.18-2.68,1.191,1.191,0,0,0-1.324-.862,1.222,1.222,0,0,0-1.05,1.183c-.125,1.293-.243,2.578-.353,3.863h2.35a52.1,52.1,0,0,1,.227-8.618h-2.2a43.179,43.179,0,0,1-.282,7.921h2.115a24.405,24.405,0,0,1-.047-3.385,26.546,26.546,0,0,0,.227-3.338.611.611,0,0,0-1.136-.306Z" transform="translate(-63.857 -36.935)"/><path d="M289.591,168.114a36.823,36.823,0,0,1,1.316,3.722c.18.627.36,1.246.509,1.88s.243,1.332.454,1.967,1.442.658,1.41-.188a9.6,9.6,0,0,0-.423-2.1c-.18-.65-.384-1.3-.619-1.927a24.878,24.878,0,0,0-1.747-3.729c-.274-.462-1.113-.149-.9.376Z" transform="translate(-62.677 -37.737)"/><path d="M294.8,174.877a6.37,6.37,0,0,0,0,2.554,6.047,6.047,0,0,0,.36,1.144,2.664,2.664,0,0,0,.784,1.175.588.588,0,0,0,.666-.047.619.619,0,0,0,.219-.635,7.182,7.182,0,0,0-.494-1.019c0-.047-.039-.086-.055-.125h0l-.094-.266c-.055-.165-.1-.329-.141-.5l-.047-.235s-.047-.259,0-.172a3.909,3.909,0,0,1-.039-.525,4.755,4.755,0,0,1,.071-.979.643.643,0,0,0-.431-.783.619.619,0,0,0-.784.431Z" transform="translate(-63.784 -39.275)"/><path d="M299.9,175.668a10.906,10.906,0,0,0-.831,1.943c-.1.321-.188.642-.259.972s-.227,1.05.251,1.324a.642.642,0,0,0,.831-.266,2.093,2.093,0,0,0,.149-.588c.063-.329.125-.658.219-.987a8.509,8.509,0,0,1,.313-.956l.094-.235h0l.055-.118c.071-.157.141-.306.219-.454a.611.611,0,0,0-1.05-.611Z" transform="translate(-64.661 -39.497)"/><path d="M304.878,174.857a6.271,6.271,0,0,0-.423,1.888,5.492,5.492,0,0,0,0,.878,3.536,3.536,0,0,0,.094.564,1.513,1.513,0,0,0,.2.58.689.689,0,0,0,.674.321A.658.658,0,0,0,306,178.6a1.741,1.741,0,0,0,0-.494v-.055a1.607,1.607,0,0,0-.039-.431,6.117,6.117,0,0,1,0-.846,1.357,1.357,0,0,1,0-.4c-.055.172,0-.078,0-.118a.328.328,0,0,1,.039-.18,5.772,5.772,0,0,1,.251-.838.737.737,0,0,0-.509-.893A.784.784,0,0,0,304.878,174.857Z" transform="translate(-65.897 -39.25)"/><path d="M296.8,51.919c-2.045-5.046-1.951-13.319-3.988-18.389-10.28,2.836-19.407,5.579-29.906,7.459l-2.8-.58L259.03,35.3,250.6,52.976c3.479,2.664,10.005,9.4,13.484,12.105-.227-2.35-1.136-3.62-1.363-5.947l.65-.235,32.045-7.373c.3-.071.658-.212.666-.517s-.642-.188-.423,0" transform="translate(-54.243 -7.259)"/><path d="M265.81,20.308c1.285,6.166,3.04,12.246,4.771,18.3a.956.956,0,0,0,1.175.666,56.09,56.09,0,0,1,9.253-2.452L291.2,34.693l9.958-2.092,4.983-1.042a35.736,35.736,0,0,0,5.14-1.2c.831-.313.784-1.716-.227-1.661a33.51,33.51,0,0,0-5.038.925l-5.171,1.089-9.958,2.092L280.924,34.9a59.145,59.145,0,0,0-9.637,2.539l1.175.674c-1.732-6.064-3.447-12.16-5.61-18.075a.52.52,0,0,0-1,.274Z" transform="translate(-57.535 -4.255)"/><path d="M322.506,32.005a4.163,4.163,0,0,0-.047.783c.039.3.071.6.133.9a9.082,9.082,0,0,0,.58,1.622,11.757,11.757,0,0,0,.737,1.387c.149.235.3.47.462.689a2.1,2.1,0,0,0,.736.784.784.784,0,0,0,1.191-.909,2.68,2.68,0,0,0-.548-.87v-.039l-.11-.149-.212-.306a14.578,14.578,0,0,1-.784-1.348c-.243-.47-.415-.917-.627-1.379-.094-.2-.188-.384-.274-.588a3.941,3.941,0,0,0-.2-.431c-.078-.141-.157-.2-.219-.321-.2-.392-.736-.172-.783.2Z" transform="translate(-69.797 -6.847)"/><path d="M324.447,32.011c1.716-6.119,5.539-11.408,7.192-17.543a.783.783,0,0,0-.2-.744q-6.378-5.257-12.771-10.507L316.808,1.7c-.454-.376-1.434-.2-1.34.548s.2,1.653.321,2.476c.07.525.125,1.073.235,1.567a3.846,3.846,0,0,0,.165.588c.07.227.086.384.047.063.1.783,1.34.783,1.238,0v-.2a3.7,3.7,0,0,0,0-.509,14.747,14.747,0,0,0-.164-1.653c-.086-.783-.2-1.567-.3-2.35l-1.332.556L328.5,13.293l1.857,1.52-.2-.783c-1.622,6.088-5.743,11.4-6.691,17.684a.508.508,0,0,0,.979.266Z" transform="translate(-68.282 -0.326)"/><path d="M306.55,8.137c-6.965.227-13.9,1.645-20.692,3.134Q280.7,12.4,275.594,13.755a98.628,98.628,0,0,0-10.123,2.985,1.23,1.23,0,1,0,.948,2.249c.478-.219.9-.525,1.379-.783.7-.329.274-1.293-.368-1.34s-1.081-.18-1.63-.219l.329,2.429c3.393-.9,6.715-2.123,10.091-3.079s6.675-1.818,10.037-2.609c6.777-1.567,13.664-2.664,20.426-4.309a.5.5,0,0,0-.133-.987Z" transform="translate(-57.267 -1.751)"/><path d="M292.99,9.4V0h2.217V9.269Z" transform="translate(-63.42)"/><path d="M455.867,123.248c.29,1.387.6,2.766,1,4.129.2.682.407,1.355.642,2.029a5.641,5.641,0,0,0,.831,1.9.486.486,0,0,0,.784-.337,6.269,6.269,0,0,0-.533-2.029c-.2-.65-.423-1.3-.627-1.951-.423-1.324-.878-2.64-1.293-3.972a.432.432,0,1,0-.831.235Z" transform="translate(-98.66 -27.641)"/><path d="M480.415,123.3c-.039.846-.07,1.685-.086,2.531v1.246a3.268,3.268,0,0,0,.2,1.316.423.423,0,0,0,.737,0,3.183,3.183,0,0,0,.2-1.269v-1.293c0-.846-.047-1.685-.086-2.531a.486.486,0,0,0-.972,0Z" transform="translate(-103.964 -27.653)"/><path d="M507.329,119.064a29.269,29.269,0,0,0-2.069,5.093c-.251.854-.431,1.732-.642,2.6s-.47,1.638-.682,2.468a.392.392,0,0,0,.65.384c1.191-1.214,1.34-3.2,1.779-4.771a32.555,32.555,0,0,1,1.9-5.226c.29-.627-.619-1.175-.94-.548Z" transform="translate(-109.063 -26.77)"/><path d="M529.157,137.072c-.784.987-1.685,1.951-2.452,2.985-.384.5-.784,1.011-1.136,1.52a9.1,9.1,0,0,0-.541.783,1.778,1.778,0,0,0-.368.948.478.478,0,0,0,.6.454,1.63,1.63,0,0,0,.784-.58,9.472,9.472,0,0,0,.6-.784l1.136-1.567c.737-1.042,1.379-2.147,2.061-3.228.251-.392-.345-.87-.65-.5Z" transform="translate(-113.553 -30.847)"/><path d="M548.929,163.591c-2.021.462-4.058.878-6.1,1.332l-2.985.658c-.87.2-2.217.235-2.821.964a.541.541,0,0,0,.1.838c.885.439,2.014,0,2.914-.235,1.034-.235,2.053-.494,3.079-.784,2.045-.541,4.059-1.183,6.072-1.833a.5.5,0,0,0-.266-.956Z" transform="translate(-116.197 -36.818)"/><path d="M541.392,192.794a16.72,16.72,0,0,1-3.784-.5c-.611-.141-1.23-.321-1.833-.525l-.9-.3c-.149-.047-.306-.1-.454-.133a1.027,1.027,0,0,0-.6.094.564.564,0,0,0-.329.783l.047.1-.086-.321c0,.486.321.7.729.909a6.832,6.832,0,0,0,.956.4,13.211,13.211,0,0,0,2.037.533,16.517,16.517,0,0,0,4.215.188.627.627,0,0,0,0-1.254Z" transform="translate(-115.453 -43.061)"/><path d="M544.815,219.12c-2.194-1.042-4.372-2.115-6.621-3.048-1.113-.462-2.225-.932-3.353-1.363a11.972,11.972,0,0,0-3.463-.979.494.494,0,0,0-.345.831,12.264,12.264,0,0,0,3.016,1.567c1.152.478,2.351.925,3.487,1.387,2.272.909,4.583,1.708,6.871,2.578.556.212.956-.713.407-.972Z" transform="translate(-114.904 -48.131)"/><path d="M500.361,151.519a34.583,34.583,0,0,0-15.176-11.431,42.191,42.191,0,0,0-21.256-2.445c-7.49.948-15,3.487-20.778,8.477a35.516,35.516,0,0,0-10.35,16.453,42.794,42.794,0,0,0-1.567,7.749c-.086.784-.117,1.567-.133,2.311v.878a.494.494,0,0,0,.979,0v-.157l.047-.478c.055-.572.133-1.144.227-1.716a57.982,57.982,0,0,1,1.167-5.892,36.912,36.912,0,0,1,8.485-16c5.108-5.406,12.058-8.415,19.274-9.778,6.691-1.269,14.056-1.371,20.614.666a39.7,39.7,0,0,1,11.533,5.727,45.055,45.055,0,0,1,6.472,6.049c.243.266.736-.094.509-.392Z" transform="translate(-93.305 -31.072)"/><path d="M513.764,151.145a33.729,33.729,0,0,1,10.225,17.95c1.567,7.138.3,14.346-1.873,21.225a31.34,31.34,0,0,1-7.569,13.014,1.12,1.12,0,0,0,1.567,1.567,31.614,31.614,0,0,0,7.349-11.541,53.076,53.076,0,0,0,3.314-14.628,33.925,33.925,0,0,0-4.011-18.02,31.058,31.058,0,0,0-8.509-10.084c-.353-.266-.854.2-.509.509Z" transform="translate(-111.165 -34.229)"/></g></svg>