<?xml version="1.0" encoding="utf-8"?>
<!-- Generator: Adobe Illustrator 23.0.0, SVG Export Plug-In . SVG Version: 6.00 Build 0)  -->
<svg version="1.1" id="Layer_1" xmlns="http://www.w3.org/2000/svg" xmlns:xlink="http://www.w3.org/1999/xlink" x="0px" y="0px"
	 viewBox="0 0 50 50" style="enable-background:new 0 0 50 50;" xml:space="preserve">
<style type="text/css">
	.st0{fill:url(#SVGID_1_);}
	.st1{fill:url(#SVGID_2_);}
</style>
<title>Asset 3</title>
<g>
	
		<linearGradient id="SVGID_1_" gradientUnits="userSpaceOnUse" x1="30.3559" y1="48.4944" x2="6.4185" y2="7.035" gradientTransform="matrix(1 0 0 -1 0 51.47)">
		<stop  offset="0" style="stop-color:#DC0057"/>
		<stop  offset="1" style="stop-color:#FFBF00"/>
	</linearGradient>
	<path class="st0" d="M40.6,11.5c-1-2.1-2.6-3.9-4.5-5.2c-1.6-1.1-3.5-1.8-5.5-2c-0.7-0.1-1.4-0.1-2-0.1h-1.4c-12.1,0-18.2,0-18.4,0
		C8.5,4.3,8.3,4.5,8.2,4.8c0,0.2,0,1.6,0,4.2c0,0.5,0,0.7,0,0.8c0,0.5,0.2,0.8,0.6,0.9C9,10.8,9.2,10.9,9.4,11
		c0.9,0.4,1.3,1.2,1.4,2.4c0,0.3,0,4.1,0,11.5c0,2.9,0,6.3,0,10.3V36c0,1.4-0.6,2.4-1.6,2.9l-0.5,0.3c-0.3,0.1-0.4,0.4-0.4,0.7
		c0,0.2,0,0.4,0,0.5c0,2.9,0,4.5,0,4.6c0,0.5,0.3,0.7,0.8,0.8c0.2,0,3,0,8.3,0c5.3,0,8.1,0,8.3,0c0.4-0.1,0.6-0.3,0.7-0.7l0-0.4
		c0-3.1,0-4.7,0-4.9l0,0c0-0.3-0.2-0.5-0.5-0.7L25.3,39c-0.7-0.3-1.2-0.9-1.4-1.6c-0.2-0.5-0.3-1.4-0.3-2.6l0-0.6v-1.9
		c0-0.9,0-1.6,0.1-2s0.3-0.6,0.9-0.6c0.2,0,1.7,0,4.5,0h0.2c1.8,0,3.5-0.5,5.3-1.6c0.5-0.3,1.1-0.6,1.5-1c0.5-0.4,1-0.9,1.5-1.3
		c2.8-2.8,4.3-5.7,4.3-8.9C41.8,15.1,41.4,13.2,40.6,11.5z M12.5,45.7c-0.2,0.1-0.4,0.1-0.6,0c-0.2-0.1-0.4-0.3-0.4-0.5
		c-0.2-0.8-1.5-8,1.2-10.1c1-0.8,2.4-0.8,4.2,0.1c0,0,0.1,0,0.1,0.1c1.8,0.9,2.7,2.1,2.7,3.4C19.6,42.2,13.2,45.4,12.5,45.7z
		 M21.9,17.6c-0.8-2.3,0.3-4.8,2.6-5.6s4.7,0.4,5.6,2.7s-0.3,4.8-2.6,5.6S22.7,19.9,21.9,17.6L21.9,17.6z"/>
	
		<linearGradient id="SVGID_2_" gradientUnits="userSpaceOnUse" x1="41.5702" y1="60.2126" x2="17.9717" y2="18.2584" gradientTransform="matrix(1 0 0 -1 0 51.47)">
		<stop  offset="0" style="stop-color:#5300EF"/>
		<stop  offset="1" style="stop-color:#1EFFBC"/>
	</linearGradient>
	<path class="st1" d="M23.6,32.3c0-0.9,0-1.6,0.1-2s0.3-0.6,0.9-0.6c0.2,0,1.7,0,4.5,0c-0.2-0.8-0.4-1.7-0.7-2.5
		c3.3-6.2,6.7-14.6,5.5-22.1c-1-0.4-2.1-0.7-3.3-0.8c-0.7-0.1-1.4-0.1-2-0.1h-1.4c-5.3,4.2-8.8,11.2-11,17.1
		c-2.5,0.9-4.2,2.2-5.4,3.6c0,2.9,0,6.3,0,10.3l3.2-2.8l7.5,3.7l0,5.8c0,0.3,0.1,0.5,0.3,0.6c0.2,0.1,0.4,0.2,0.6,0.1c0,0,0,0,0,0
		c0,0,1.9-0.9,3.7-2.8l0,0c0-0.3-0.2-0.5-0.5-0.7L25.3,39c-0.7-0.3-1.2-0.9-1.4-1.6c-0.2-0.5-0.3-1.4-0.3-2.6l0-0.6L23.6,32.3z
		 M21.9,17.6c-0.8-2.3,0.3-4.8,2.6-5.6c2.2-0.8,4.7,0.4,5.6,2.7s-0.3,4.8-2.6,5.6S22.7,19.9,21.9,17.6z"/>
</g>
</svg>
