<svg xmlns="http://www.w3.org/2000/svg" x="0px" y="0px" width="64" height="32" viewBox="0 0 50 50"><defs><style>.cls-1{fill:#fff;}</style></defs><title>analysis</title><g id="Layer_2" data-name="Layer 2"><g id="Layer_1-2" data-name="Layer 1"><path class="cls-1" d="M14.65,0V8.84c-2.35.82-4.34,2.08-5.31,4.47A7.29,7.29,0,0,0,10,20.2L3.76,26.44a14.57,14.57,0,0,1-2.85-5C.54,20.2.36,18.94.09,17.71L0,17.38V14.84c.07-.47.13-1,.23-1.43C1.67,6.58,5.76,2.24,12.52.45c.64-.17,1.29-.3,1.93-.45Z"/><ellipse class="cls-1" cx="25" cy="48.54" rx="35.36" ry="2.07"/><path class="cls-1" d="M17.87,0c.64.15,1.29.29,1.93.46Q29.61,3.09,31.92,13c.12.5.21,1,.3,1.53a.27.27,0,0,1,0,.12H23.37c-.08-.21-.16-.42-.23-.64A7.37,7.37,0,0,0,18.22,9.1a.81.81,0,0,1-.66-.95c0-2.72,0-5.43,0-8.15Z"/><path class="cls-1" d="M32.25,17.6c-1,6.58-4.41,11.37-10.73,13.66-5.67,2.05-10.93.93-15.68-2.7l6.29-6.29a7.37,7.37,0,0,0,6.81.64c2.43-.95,3.66-3,4.42-5.31Z"/><path class="cls-1" d="M38.22,23.65H47V44.1H38.22Z"/><path class="cls-1" d="M23.51,35.39v8.73H14.78V35.39Z"/><path class="cls-1" d="M26.5,38.3h8.73v5.8H26.5Z"/><path class="cls-1" d="M11.79,41.24v2.88H3.07V41.24Z"/></g></g></svg>