<svg xmlns="http://www.w3.org/2000/svg" x="0px" y="0px" width="64" height="32" viewBox="0 0 34.85 48"><defs><style>.cls-1{fill:#fff;}</style></defs><title>guide</title><g id="Layer_2" data-name="Layer 2"><g id="Layer_1-2" data-name="Layer 1"><path class="cls-1" d="M17.42,26.63a1,1,0,0,0,1-.9s0-.06,0-.09a1,1,0,0,0-.2-.59,1,1,0,0,0-.59-.37.65.65,0,0,0-.2,0,.92.92,0,0,0-.36.07,1,1,0,0,0-.51.47,1,1,0,0,0-.11.44.8.8,0,0,0,0,.27A1,1,0,0,0,17.42,26.63Z"/><path class="cls-1" d="M0,4.27a2.72,2.72,0,0,0,0,.32l0,.23A5.11,5.11,0,0,0,.73,6.77,3.89,3.89,0,0,0,4.27,8.55H34.85v-2H4.27a.66.66,0,0,1,0-1.32H34.85v-2H4.27A.66.66,0,0,1,4.27,2H34.85V0H4.27C4.12,0,0,.21,0,4.27Z"/><path class="cls-1" d="M10.85,23.34a.86.86,0,0,0,.36-.07,1,1,0,0,0,.52-.47,1.14,1.14,0,0,0,.11-.44.51.51,0,0,0,0-.13.78.78,0,0,0,0-.14,1,1,0,1,0-1,1.25Z"/><rect class="cls-1" x="9.86" y="27.95" width="1.97" height="10.19"/><path class="cls-1" d="M0,48H34.85V9.86H4.27A5.23,5.23,0,0,1,0,8Zm19.73-9.21a.66.66,0,0,1-.66.66H15.78a.66.66,0,0,1-.66-.66V30.58a.66.66,0,0,1,.66-.66h3.29a.66.66,0,0,1,.66.66Zm6.57,0a.65.65,0,0,1-.66.66H22.36a.65.65,0,0,1-.66-.66V25.64a.65.65,0,0,1,.66-.65h3.28a.65.65,0,0,1,.66.65ZM10.85,20.05a2.3,2.3,0,0,1,2.27,2,2.85,2.85,0,0,1,0,.29,2.58,2.58,0,0,1,0,.39l2.64,1.32a2.27,2.27,0,0,1,3-.27l3.06-2.3a2.15,2.15,0,0,1-.12-.5,2.85,2.85,0,0,1,0-.29,2.31,2.31,0,1,1,.94,1.85l-3.06,2.29a2.3,2.3,0,1,1-4.46.79,2.58,2.58,0,0,1,0-.39l-2.64-1.32a2.3,2.3,0,1,1-1.67-3.88Zm-2.3,7.24a.65.65,0,0,1,.66-.66h3.28a.65.65,0,0,1,.66.66v11.5a.65.65,0,0,1-.66.66H9.21a.65.65,0,0,1-.66-.66Z"/><rect class="cls-1" x="23.01" y="26.3" width="1.97" height="11.84"/><rect class="cls-1" x="16.44" y="31.23" width="1.97" height="6.9"/><path class="cls-1" d="M23.21,21.3a1,1,0,0,0,.6.38l.19,0a1,1,0,1,0-1-1.08s0,.06,0,.09a.5.5,0,0,0,0,.12A.93.93,0,0,0,23.21,21.3Z"/></g></g></svg>