<svg xmlns="http://www.w3.org/2000/svg" x="0px" y="0px" width="64" height="32" viewBox="0 0 46 46"><defs><style>.cls-1{fill:#fff;}</style></defs><title>mobile</title><g id="Layer_2" data-name="Layer 2"><g id="Layer_1-2" data-name="Layer 1"><path class="cls-1" d="M31.72,12.69a31.41,31.41,0,0,1,5.37.46C36,9.1,34,6.34,31.72,6.34s-4.23,2.76-5.36,6.81A31.38,31.38,0,0,1,31.72,12.69Z"/><path class="cls-1" d="M18,16.57a16.12,16.12,0,0,1,6.58-3.06,16,16,0,0,1,3.05-6.57A14.31,14.31,0,0,0,18,16.57Z"/><path class="cls-1" d="M26,14.84A29.59,29.59,0,0,0,26,26.4a29.24,29.24,0,0,0,5.77.57,29.27,29.27,0,0,0,5.78-.57,29.59,29.59,0,0,0,0-11.56,30.06,30.06,0,0,0-11.55,0Z"/><path class="cls-1" d="M46,20.62c0-2.23-2.76-4.23-6.8-5.36a31.38,31.38,0,0,1,.46,5.36A31.5,31.5,0,0,1,39.2,26C43.24,24.85,46,22.85,46,20.62Z"/><path class="cls-1" d="M17.45,20.62c0,2.23,2.76,4.23,6.8,5.37a31.52,31.52,0,0,1,0-10.73C20.21,16.39,17.45,18.39,17.45,20.62Z"/><path class="cls-1" d="M45.41,16.57a14.35,14.35,0,0,0-9.63-9.63,16,16,0,0,1,3,6.57A16.19,16.19,0,0,1,45.41,16.57Z"/><path class="cls-1" d="M35.78,34.3a14.36,14.36,0,0,0,9.63-9.62,16.31,16.31,0,0,1-6.58,3.05A15.94,15.94,0,0,1,35.78,34.3Z"/><path class="cls-1" d="M18,24.68a14.32,14.32,0,0,0,9.63,9.62,15.94,15.94,0,0,1-3.05-6.57A16.25,16.25,0,0,1,18,24.68Z"/><path class="cls-1" d="M31.72,28.55a30.4,30.4,0,0,1-5.36-.46c1.13,4.05,3.13,6.81,5.36,6.81s4.24-2.76,5.37-6.81A30.43,30.43,0,0,1,31.72,28.55Z"/><path class="cls-1" d="M25.38,40.45a.79.79,0,0,1-.79.79H2.38a.79.79,0,0,1-.79-.79V2.38a.79.79,0,0,1,.79-.79H24.59a.79.79,0,0,1,.79.79V6.09A16.79,16.79,0,0,1,27,5.49V2.38A2.39,2.39,0,0,0,24.59,0H2.38A2.39,2.39,0,0,0,0,2.38V43.62A2.39,2.39,0,0,0,2.38,46H24.59A2.39,2.39,0,0,0,27,43.62V35.75a14.44,14.44,0,0,1-1.59-.6Zm-8.72,4H10.31V42.83h6.35Z"/><path class="cls-1" d="M23.79,6.9V3.17H3.17V39.66H23.79V34.34a15.83,15.83,0,0,1,0-27.44Z"/></g></g></svg>