<svg xmlns="http://www.w3.org/2000/svg" x="0px" y="0px" width="64" height="32" viewBox="0 0 48.06 37.51"><defs><style>.cls-1{fill:#fff;}</style></defs><title>support</title><g id="Layer_2" data-name="Layer 2"><g id="Layer_1-2" data-name="Layer 1"><path class="cls-1" d="M9.65,18.82A14.37,14.37,0,1,0,24,4.45,14.37,14.37,0,0,0,9.65,18.82Z"/><path class="cls-1" d="M42.82,13.6a4.36,4.36,0,0,0-.72.05,18.81,18.81,0,0,0-36.18,0,5.36,5.36,0,0,0-.7-.05,5.23,5.23,0,0,0,0,10.45,5.36,5.36,0,0,0,.7-.05,5.2,5.2,0,0,0,2-.67.79.79,0,0,0,.36-.85,16.2,16.2,0,0,1,31.44-7.82,16.33,16.33,0,0,1,0,8.33,16,16,0,0,1-4.21,7.29c-.26.27-.54.52-.82.77a1.34,1.34,0,0,1-1,.3,3.09,3.09,0,1,0,2.71,3.42v-.05a2.76,2.76,0,0,0,0-.86,1.31,1.31,0,0,1,.4-1.17A18.85,18.85,0,0,0,42.11,24a5.23,5.23,0,0,0,1.45-10.35,4.48,4.48,0,0,0-.73-.05Z"/></g></g></svg>