<svg xmlns="http://www.w3.org/2000/svg" x="0px" y="0px" width="64" height="32" viewBox="0 0 47.92 36.68"><defs><style>.cls-1{fill:#fff;}</style></defs><title>valuation</title><g id="Layer_2" data-name="Layer 2"><g id="Layer_1-2" data-name="Layer 1"><path class="cls-1" d="M27,36.4H4.9A4.94,4.94,0,0,1,0,32.27H24.82a6.56,6.56,0,0,0,1.53,3.45,2.91,2.91,0,0,0,.24.27A4,4,0,0,0,27,36.4Z"/><path class="cls-1" d="M47.92,5V7.45H38V5a5,5,0,0,1,5-5,4.82,4.82,0,0,1,1.41.21A5,5,0,0,1,47.92,5Z"/><path class="cls-1" d="M38.58,0l-.07.07a7.22,7.22,0,0,0-.71.75c-.11.15-.23.3-.33.45s-.18.27-.26.41L37,2.1c-.05.1-.09.19-.13.29a4.49,4.49,0,0,0-.23.61,1.28,1.28,0,0,1-.09.32A7,7,0,0,0,36.34,5V31.44a5,5,0,0,1-9.93,0,.83.83,0,0,0-.83-.83H11.52V29.44a2.91,2.91,0,0,0,.39-.12,1.92,1.92,0,0,0,.39-.17l.2-.12.1-.06.2-.15.26-.23,4.25-4.25a1.66,1.66,0,0,0,0-2.34h0l-.48-.48.69-.69a10,10,0,1,0-1.17-1.18l-.7.7-.48-.48a1.65,1.65,0,0,0-2.34,0h0l-1.3,1.3V5a5,5,0,0,1,5-5Z"/><path class="cls-1" d="M16.13,23.17l-4.25,4.25a1.48,1.48,0,0,1-1,.45h-.13A1.5,1.5,0,0,1,9.3,26.29a1.47,1.47,0,0,1,.45-1L14,21Z"/><path class="cls-1" d="M23.93,5a8.28,8.28,0,1,0,8.27,8.28A8.28,8.28,0,0,0,23.93,5Zm5,11.59H19a.83.83,0,0,1,0-1.66h.83V12.41a.83.83,0,1,1,1.65,0v2.48H23.1V8.27a.83.83,0,0,1,1.65,0v6.62h1.66V10.76a.83.83,0,1,1,1.65,0v4.13h.83a.83.83,0,0,1,0,1.66Z"/><path class="cls-1" d="M45.21,36.35h0a.82.82,0,0,1-1.15.17.69.69,0,0,1-.17-.17v0A9,9,0,0,1,42.13,31V16.55a.83.83,0,0,1,.83-.83h3.31a.83.83,0,0,1,.82.83V30.84A9,9,0,0,1,45.21,36.35Z"/><path class="cls-1" d="M44.61,9.93h0a1.66,1.66,0,0,1,1.66,1.65v2.49H43V11.58A1.65,1.65,0,0,1,44.61,9.93Z"/></g></g></svg>